<?xml version="1.0" encoding="utf-8"?>
<!-- Generator: Adobe Illustrator 25.4.1, SVG Export Plug-In . SVG Version: 6.00 Build 0)  -->
<svg version="1.1" xmlns="http://www.w3.org/2000/svg" xmlns:xlink="http://www.w3.org/1999/xlink" x="0px" y="0px"
	 viewBox="0 0 288.86 80.03" style="enable-background:new 0 0 288.86 80.03;" xml:space="preserve">
<style type="text/css">
	.st0{fill-rule:evenodd;clip-rule:evenodd;fill:#72B38E;}
	.st1{fill-rule:evenodd;clip-rule:evenodd;fill:#3E9977;}
	.st2{fill-rule:evenodd;clip-rule:evenodd;fill:#058373;}
	.st3{fill:#FEEB1A;stroke:#FEEB1A;stroke-width:0.5;stroke-miterlimit:10;}
	.st4{fill:#058373;}
</style>
<g id="Layer_1">
	<path id="Ellipse_2_copy_7_00000030454909943404544340000014374134195863132581_" class="st0" d="M48.2,0
		c22.3,15,30.1,33.3,30.1,49.9S64.8,80,48.2,80S18.1,66.5,18.1,49.9C18.2,33.3,25.1,14.4,48.2,0z"/>
	<path id="Ellipse_2_copy_9_00000139993240289286433820000008472185305646890172_" class="st1" d="M17.9,9.1
		C44.7,7.4,62,17.3,72.1,30.4c10.1,13.2,7.5,32.1-5.7,42.1c-13.1,10-31.9,7.5-42-5.5C14.4,53.9,8.3,34.7,17.9,9.1z"/>
	<path id="Ellipse_2_copy_8_00000151537536786396132010000001326567887114097034_" class="st2" d="M0,37c20.2-17.7,40-20.4,56-16.1
		s25.6,20.8,21.3,36.8C73,73.7,56.5,83.3,40.5,79l0,0C24.4,74.7,8,63.1,0,37z"/>
	<g>
		<polygon class="st3" points="38.8,69.4 39.5,71.6 37.6,70.2 35.7,71.6 36.4,69.4 34.5,68 36.9,68 37.6,65.8 38.3,68 40.6,68 		"/>
		<polygon class="st3" points="49.7,72.3 50.4,74.6 48.5,73.1 46.6,74.5 47.4,72.3 45.5,71 47.8,70.9 48.5,68.8 49.2,70.9 
			51.5,70.9 		"/>
		<polygon class="st3" points="68.6,61.5 69.3,63.7 67.4,62.3 65.5,63.6 66.2,61.4 64.4,60 66.7,60 67.4,57.9 68.1,60 70.4,60 		"/>
		<polygon class="st3" points="60.6,69.4 61.4,71.6 59.5,70.2 57.5,71.6 58.2,69.4 56.4,68 58.7,68 59.5,65.8 60.1,68 62.4,68 		"/>
		<polygon class="st3" points="30.8,61.5 31.5,63.7 29.6,62.3 27.7,63.6 28.4,61.4 26.6,60 28.9,60 29.6,57.9 30.3,60 32.6,60 		"/>
		<polygon class="st3" points="27.8,50.5 28.6,52.7 26.7,51.3 24.8,52.7 25.5,50.5 23.7,49.2 25.9,49.1 26.7,46.9 27.4,49.1 
			29.6,49.1 		"/>
		<polygon class="st3" points="38.8,31.6 39.5,33.9 37.6,32.4 35.7,33.9 36.4,31.6 34.5,30.3 36.9,30.3 37.6,28.1 38.3,30.3 
			40.6,30.3 		"/>
		<polygon class="st3" points="30.8,39.6 31.5,41.8 29.6,40.4 27.7,41.8 28.4,39.6 26.6,38.2 28.9,38.2 29.6,36.1 30.3,38.2 
			32.6,38.2 		"/>
		<polygon class="st3" points="49.7,28.6 50.4,30.9 48.5,29.4 46.6,30.8 47.4,28.6 45.5,27.3 47.8,27.2 48.5,25.1 49.2,27.2 
			51.5,27.2 		"/>
		<polygon class="st3" points="60.6,31.6 61.4,33.9 59.5,32.4 57.5,33.9 58.2,31.6 56.4,30.3 58.7,30.3 59.5,28.1 60.1,30.3 
			62.4,30.3 		"/>
		<polygon class="st3" points="71.6,50.5 72.3,52.7 70.5,51.3 68.5,52.7 69.2,50.5 67.4,49.2 69.7,49.1 70.5,46.9 71.1,49.1 
			73.4,49.1 		"/>
		<polygon class="st3" points="68.6,39.6 69.3,41.8 67.4,40.4 65.5,41.8 66.2,39.6 64.4,38.2 66.7,38.2 67.4,36.1 68.1,38.2 
			70.4,38.2 		"/>
	</g>
</g>
<g id="Layer_2">
	<g>
		<path class="st4" d="M86.27,33.76h8.65v2.62h-5.44v3.23h5.08v2.6h-5.08v5.69h-3.21V33.76z"/>
		<path class="st4" d="M106.83,42.66c0,3.76-2.67,5.48-5.42,5.48c-3,0-5.31-1.97-5.31-5.29s2.18-5.44,5.48-5.44
			C104.73,37.41,106.83,39.57,106.83,42.66z M99.4,42.77c0,1.76,0.73,3.09,2.1,3.09c1.24,0,2.04-1.24,2.04-3.09
			c0-1.53-0.59-3.09-2.04-3.09C99.97,39.68,99.4,41.25,99.4,42.77z"/>
		<path class="st4" d="M108.39,41.02c0-1.51-0.04-2.5-0.08-3.38h2.75l0.1,1.89h0.08c0.52-1.49,1.78-2.12,2.77-2.12
			c0.29,0,0.44,0,0.67,0.04v3c-0.23-0.04-0.5-0.08-0.86-0.08c-1.18,0-1.97,0.63-2.18,1.62c-0.04,0.21-0.06,0.46-0.06,0.71v5.21
			h-3.19V41.02z"/>
		<path class="st4" d="M118.66,43.79c0.1,1.32,1.41,1.95,2.9,1.95c1.09,0,1.97-0.15,2.83-0.42l0.42,2.16
			c-1.05,0.42-2.33,0.63-3.72,0.63c-3.49,0-5.48-2.02-5.48-5.23c0-2.6,1.62-5.48,5.19-5.48c3.32,0,4.58,2.58,4.58,5.12
			c0,0.55-0.06,1.03-0.1,1.26H118.66z M122.41,41.61c0-0.78-0.34-2.08-1.81-2.08c-1.34,0-1.89,1.22-1.97,2.08H122.41z"/>
		<path class="st4" d="M127.27,45.12c0.59,0.36,1.81,0.78,2.75,0.78c0.97,0,1.36-0.34,1.36-0.86s-0.31-0.78-1.51-1.18
			c-2.12-0.71-2.94-1.87-2.92-3.09c0-1.91,1.64-3.36,4.18-3.36c1.2,0,2.27,0.27,2.9,0.59l-0.57,2.2c-0.46-0.25-1.34-0.59-2.23-0.59
			c-0.78,0-1.22,0.31-1.22,0.84c0,0.48,0.4,0.73,1.66,1.18c1.95,0.67,2.77,1.66,2.79,3.17c0,1.91-1.51,3.32-4.45,3.32
			c-1.34,0-2.54-0.29-3.32-0.71L127.27,45.12z"/>
		<path class="st4" d="M139.97,34.7v2.94h2.29v2.35h-2.29v3.72c0,1.24,0.29,1.81,1.26,1.81c0.4,0,0.71-0.04,0.94-0.08l0.02,2.41
			c-0.42,0.17-1.18,0.27-2.08,0.27c-1.03,0-1.89-0.36-2.39-0.88c-0.59-0.61-0.88-1.6-0.88-3.04v-4.2h-1.36v-2.35h1.36v-2.23
			L139.97,34.7z"/>
		<path class="st4" d="M150.83,33.76v14.15h-3.21V33.76H150.83z"/>
		<path class="st4" d="M153.56,40.92c0-1.28-0.04-2.37-0.08-3.28h2.77l0.15,1.41h0.06c0.42-0.65,1.47-1.64,3.17-1.64
			c2.1,0,3.67,1.39,3.67,4.41v6.09h-3.19v-5.69c0-1.32-0.46-2.23-1.62-2.23c-0.88,0-1.41,0.61-1.62,1.2
			c-0.08,0.19-0.13,0.5-0.13,0.8v5.92h-3.19V40.92z"/>
		<path class="st4" d="M166.22,47.91v-7.92h-1.34v-2.35h1.34v-0.4c0-1.24,0.38-2.6,1.3-3.44c0.8-0.76,1.91-1.03,2.83-1.03
			c0.71,0,1.26,0.08,1.7,0.21l-0.13,2.46c-0.27-0.08-0.61-0.15-1.03-0.15c-1.05,0-1.49,0.82-1.49,1.83v0.52h2.06v2.35h-2.04v7.92
			H166.22z"/>
		<path class="st4" d="M182.95,42.66c0,3.76-2.67,5.48-5.42,5.48c-3,0-5.31-1.97-5.31-5.29s2.18-5.44,5.48-5.44
			C180.86,37.41,182.95,39.57,182.95,42.66z M175.52,42.77c0,1.76,0.73,3.09,2.1,3.09c1.24,0,2.04-1.24,2.04-3.09
			c0-1.53-0.59-3.09-2.04-3.09C176.09,39.68,175.52,41.25,175.52,42.77z"/>
		<path class="st4" d="M184.93,41.02c0-1.51-0.04-2.5-0.08-3.38h2.75l0.1,1.89h0.08c0.53-1.49,1.79-2.12,2.77-2.12
			c0.29,0,0.44,0,0.67,0.04v3c-0.23-0.04-0.5-0.08-0.86-0.08c-1.18,0-1.97,0.63-2.18,1.62c-0.04,0.21-0.06,0.46-0.06,0.71v5.21
			h-3.19V41.02z"/>
		<path class="st4" d="M192.91,40.92c0-1.28-0.04-2.37-0.08-3.28h2.69l0.15,1.39h0.06c0.44-0.65,1.34-1.62,3.11-1.62
			c1.32,0,2.37,0.67,2.81,1.74h0.04c0.38-0.52,0.84-0.94,1.32-1.24c0.57-0.34,1.2-0.5,1.95-0.5c1.97,0,3.46,1.39,3.46,4.45v6.05
			h-3.11v-5.59c0-1.49-0.48-2.35-1.51-2.35c-0.73,0-1.26,0.5-1.47,1.11c-0.08,0.23-0.13,0.57-0.13,0.82v6.01h-3.11v-5.75
			c0-1.3-0.46-2.18-1.47-2.18c-0.82,0-1.3,0.63-1.49,1.15c-0.11,0.25-0.13,0.55-0.13,0.8v5.98h-3.11V40.92z"/>
		<path class="st4" d="M216.81,47.91l-0.19-1.03h-0.06c-0.67,0.82-1.72,1.26-2.94,1.26c-2.08,0-3.32-1.51-3.32-3.15
			c0-2.67,2.39-3.95,6.03-3.93v-0.15c0-0.55-0.29-1.32-1.87-1.32c-1.05,0-2.16,0.36-2.83,0.78l-0.59-2.06
			c0.71-0.4,2.12-0.9,3.99-0.9c3.42,0,4.51,2.02,4.51,4.43v3.57c0,0.99,0.04,1.93,0.15,2.5H216.81z M216.43,43.06
			c-1.68-0.02-2.98,0.38-2.98,1.62c0,0.82,0.55,1.22,1.26,1.22c0.8,0,1.45-0.52,1.66-1.18c0.04-0.17,0.06-0.36,0.06-0.55V43.06z"/>
		<path class="st4" d="M225.46,34.7v2.94h2.29v2.35h-2.29v3.72c0,1.24,0.29,1.81,1.26,1.81c0.4,0,0.71-0.04,0.94-0.08l0.02,2.41
			c-0.42,0.17-1.18,0.27-2.08,0.27c-1.03,0-1.89-0.36-2.39-0.88c-0.59-0.61-0.88-1.6-0.88-3.04v-4.2h-1.36v-2.35h1.36v-2.23
			L225.46,34.7z"/>
		<path class="st4" d="M232.89,34.79c0,0.88-0.67,1.6-1.72,1.6c-1.01,0-1.68-0.71-1.66-1.6c-0.02-0.92,0.65-1.62,1.68-1.62
			C232.22,33.17,232.87,33.86,232.89,34.79z M229.6,47.91V37.64h3.19v10.27H229.6z"/>
		<path class="st4" d="M245.49,42.66c0,3.76-2.67,5.48-5.42,5.48c-3,0-5.31-1.97-5.31-5.29s2.18-5.44,5.48-5.44
			C243.39,37.41,245.49,39.57,245.49,42.66z M238.06,42.77c0,1.76,0.74,3.09,2.1,3.09c1.24,0,2.04-1.24,2.04-3.09
			c0-1.53-0.59-3.09-2.04-3.09C238.63,39.68,238.06,41.25,238.06,42.77z"/>
		<path class="st4" d="M247.05,40.92c0-1.28-0.04-2.37-0.08-3.28h2.77l0.15,1.41h0.06c0.42-0.65,1.47-1.64,3.17-1.64
			c2.1,0,3.67,1.39,3.67,4.41v6.09h-3.19v-5.69c0-1.32-0.46-2.23-1.62-2.23c-0.88,0-1.41,0.61-1.62,1.2
			c-0.08,0.19-0.13,0.5-0.13,0.8v5.92h-3.19V40.92z"/>
		<path class="st4" d="M86.38,62.61c0.86,0.44,2.18,0.88,3.55,0.88c1.47,0,2.25-0.61,2.25-1.53c0-0.88-0.67-1.39-2.37-2
			c-2.35-0.82-3.88-2.12-3.88-4.18c0-2.42,2.02-4.26,5.35-4.26c1.6,0,2.77,0.34,3.61,0.71l-0.71,2.58
			c-0.57-0.27-1.57-0.67-2.96-0.67s-2.06,0.63-2.06,1.36c0,0.9,0.8,1.3,2.62,2c2.5,0.92,3.67,2.23,3.67,4.22
			c0,2.37-1.83,4.39-5.71,4.39c-1.62,0-3.21-0.42-4.01-0.86L86.38,62.61z"/>
		<path class="st4" d="M99.59,55.64l1.53,5.04c0.17,0.61,0.38,1.37,0.5,1.91h0.06c0.15-0.55,0.31-1.32,0.46-1.91l1.26-5.04h3.42
			l-2.39,6.76c-1.47,4.07-2.46,5.71-3.61,6.74c-1.11,0.97-2.29,1.3-3.09,1.41l-0.67-2.71c0.4-0.06,0.9-0.25,1.39-0.55
			c0.48-0.25,1.01-0.76,1.32-1.28c0.1-0.15,0.17-0.31,0.17-0.46c0-0.1-0.02-0.27-0.15-0.52l-3.76-9.39H99.59z"/>
		<path class="st4" d="M108.24,63.12c0.59,0.36,1.81,0.78,2.75,0.78c0.97,0,1.36-0.34,1.36-0.86c0-0.52-0.31-0.78-1.51-1.18
			c-2.12-0.71-2.94-1.87-2.92-3.09c0-1.91,1.64-3.36,4.18-3.36c1.2,0,2.27,0.27,2.9,0.59l-0.57,2.2c-0.46-0.25-1.34-0.59-2.23-0.59
			c-0.78,0-1.22,0.32-1.22,0.84c0,0.48,0.4,0.74,1.66,1.18c1.95,0.67,2.77,1.66,2.79,3.17c0,1.91-1.51,3.32-4.45,3.32
			c-1.34,0-2.54-0.29-3.32-0.71L108.24,63.12z"/>
		<path class="st4" d="M120.94,52.7v2.94h2.29v2.35h-2.29v3.72c0,1.24,0.29,1.81,1.26,1.81c0.4,0,0.71-0.04,0.94-0.08l0.02,2.41
			c-0.42,0.17-1.18,0.27-2.08,0.27c-1.03,0-1.89-0.36-2.39-0.88c-0.59-0.61-0.88-1.6-0.88-3.04v-4.2h-1.36v-2.35h1.36v-2.23
			L120.94,52.7z"/>
		<path class="st4" d="M127.85,61.79c0.1,1.32,1.41,1.95,2.9,1.95c1.09,0,1.97-0.15,2.83-0.42l0.42,2.16
			c-1.05,0.42-2.33,0.63-3.72,0.63c-3.49,0-5.48-2.02-5.48-5.23c0-2.6,1.62-5.48,5.19-5.48c3.32,0,4.58,2.58,4.58,5.12
			c0,0.55-0.06,1.03-0.1,1.26H127.85z M131.61,59.61c0-0.78-0.34-2.08-1.81-2.08c-1.34,0-1.89,1.22-1.97,2.08H131.61z"/>
		<path class="st4" d="M136.48,58.92c0-1.28-0.04-2.37-0.08-3.28h2.69l0.15,1.39h0.06c0.44-0.65,1.34-1.62,3.11-1.62
			c1.32,0,2.37,0.67,2.81,1.74h0.04c0.38-0.52,0.84-0.94,1.32-1.24c0.57-0.34,1.2-0.5,1.95-0.5c1.97,0,3.46,1.39,3.46,4.45v6.05
			h-3.11v-5.58c0-1.49-0.48-2.35-1.51-2.35c-0.73,0-1.26,0.5-1.47,1.11c-0.08,0.23-0.13,0.57-0.13,0.82v6h-3.11v-5.75
			c0-1.3-0.46-2.18-1.47-2.18c-0.82,0-1.3,0.63-1.49,1.15c-0.1,0.25-0.13,0.55-0.13,0.8v5.98h-3.11V58.92z"/>
		<path class="st4" d="M158.72,65.91v-7.92h-1.34v-2.35h1.34v-0.4c0-1.24,0.38-2.6,1.3-3.44c0.8-0.76,1.91-1.03,2.83-1.03
			c0.71,0,1.26,0.08,1.7,0.21l-0.13,2.46c-0.27-0.08-0.61-0.15-1.03-0.15c-1.05,0-1.49,0.82-1.49,1.83v0.52h2.06v2.35h-2.04v7.92
			H158.72z"/>
		<path class="st4" d="M175.46,60.66c0,3.76-2.67,5.48-5.42,5.48c-3,0-5.31-1.97-5.31-5.29c0-3.32,2.18-5.44,5.48-5.44
			C173.36,55.41,175.46,57.57,175.46,60.66z M168.02,60.77c0,1.76,0.73,3.09,2.1,3.09c1.24,0,2.04-1.24,2.04-3.09
			c0-1.53-0.59-3.09-2.04-3.09C168.59,57.68,168.02,59.25,168.02,60.77z"/>
		<path class="st4" d="M177.43,59.02c0-1.51-0.04-2.5-0.08-3.38h2.75l0.1,1.89h0.08c0.52-1.49,1.78-2.12,2.77-2.12
			c0.29,0,0.44,0,0.67,0.04v3c-0.23-0.04-0.5-0.08-0.86-0.08c-1.18,0-1.97,0.63-2.18,1.62c-0.04,0.21-0.06,0.46-0.06,0.71v5.21
			h-3.19V59.02z"/>
		<path class="st4" d="M196.92,59.93h-5.21v3.36h5.82v2.63h-9.03V51.76h8.73v2.62h-5.52v2.94h5.21V59.93z"/>
		<path class="st4" d="M209.08,62.61c0,1.34,0.04,2.44,0.08,3.3h-2.77l-0.15-1.45h-0.06c-0.4,0.63-1.36,1.68-3.21,1.68
			c-2.08,0-3.61-1.3-3.61-4.47v-6.03h3.21v5.52c0,1.49,0.48,2.39,1.6,2.39c0.88,0,1.39-0.61,1.6-1.11c0.08-0.19,0.11-0.44,0.11-0.69
			v-6.11h3.21V62.61z"/>
		<path class="st4" d="M212.06,59.02c0-1.51-0.04-2.5-0.08-3.38h2.75l0.1,1.89h0.08c0.53-1.49,1.79-2.12,2.77-2.12
			c0.29,0,0.44,0,0.67,0.04v3c-0.23-0.04-0.5-0.08-0.86-0.08c-1.18,0-1.97,0.63-2.18,1.62c-0.04,0.21-0.06,0.46-0.06,0.71v5.21
			h-3.19V59.02z"/>
		<path class="st4" d="M230.01,60.66c0,3.76-2.67,5.48-5.42,5.48c-3,0-5.31-1.97-5.31-5.29c0-3.32,2.18-5.44,5.48-5.44
			C227.91,55.41,230.01,57.57,230.01,60.66z M222.58,60.77c0,1.76,0.74,3.09,2.1,3.09c1.24,0,2.04-1.24,2.04-3.09
			c0-1.53-0.59-3.09-2.04-3.09C223.15,57.68,222.58,59.25,222.58,60.77z"/>
		<path class="st4" d="M231.99,59.09c0-1.34-0.04-2.5-0.08-3.44h2.77l0.15,1.43h0.04c0.76-1.09,1.93-1.66,3.42-1.66
			c2.25,0,4.26,1.95,4.26,5.23c0,3.74-2.37,5.5-4.66,5.5c-1.24,0-2.21-0.5-2.67-1.18h-0.04v5.1h-3.19V59.09z M235.18,61.5
			c0,0.25,0.02,0.48,0.06,0.67c0.21,0.86,0.94,1.51,1.87,1.51c1.39,0,2.21-1.16,2.21-2.9c0-1.64-0.73-2.88-2.16-2.88
			c-0.9,0-1.7,0.67-1.91,1.62c-0.04,0.17-0.06,0.38-0.06,0.57V61.5z"/>
		<path class="st4" d="M247.07,61.79c0.11,1.32,1.41,1.95,2.9,1.95c1.09,0,1.97-0.15,2.83-0.42l0.42,2.16
			c-1.05,0.42-2.33,0.63-3.72,0.63c-3.49,0-5.48-2.02-5.48-5.23c0-2.6,1.62-5.48,5.19-5.48c3.32,0,4.58,2.58,4.58,5.12
			c0,0.55-0.06,1.03-0.11,1.26H247.07z M250.82,59.61c0-0.78-0.34-2.08-1.8-2.08c-1.34,0-1.89,1.22-1.97,2.08H250.82z"/>
	</g>
</g>
</svg>
