<?xml version="1.0" encoding="UTF-8" standalone="no"?>
<!DOCTYPE svg PUBLIC "-//W3C//DTD SVG 1.1//EN" "http://www.w3.org/Graphics/SVG/1.1/DTD/svg11.dtd">
<svg width="100%" height="100%" viewBox="0 0 100 100" version="1.1" xmlns="http://www.w3.org/2000/svg" xmlns:xlink="http://www.w3.org/1999/xlink" xml:space="preserve" xmlns:serif="http://www.serif.com/" style="fill-rule:evenodd;clip-rule:evenodd;stroke-linejoin:round;stroke-miterlimit:2;">
    <g transform="matrix(0.149443,0,0,0.149443,2.64446,2.11399)">
        <path id="disease" d="M490,347C490,380 529.9,396.5 553.2,373.2C559.4,367 569.6,367 575.8,373.2C582,379.4 582,389.6 575.8,395.8C552.5,419.1 569,459 602,459C610.8,459 618,466.2 618,475C618,483.8 610.8,491 602,491C569,491 552.5,530.9 575.8,554.2C582,560.4 582,570.6 575.8,576.8C569.6,583 559.4,583 553.2,576.8C529.9,553.5 490,570 490,603C490,611.8 482.8,619 474,619C465.2,619 458,611.8 458,603C458,570 418.1,553.5 394.8,576.8C388.6,583 378.4,583 372.2,576.8C366,570.6 366,560.4 372.2,554.2C395.5,530.9 379,491 346,491C337.2,491 330,483.8 330,475C330,466.2 337.2,459 346,459C379,459 395.5,419.1 372.2,395.8C366,389.6 366,379.4 372.2,373.2C378.4,367 388.6,367 394.8,373.2C418.1,396.5 458,380 458,347C458,338.2 465.2,331 474,331C482.8,331 490,338.2 490,347ZM490,459C490,441.3 475.7,427 458,427C440.3,427 426,441.3 426,459C426,476.7 440.3,491 458,491C475.7,491 490,476.7 490,459ZM438.873,52.515L434.972,66.315C455.472,76.815 472.672,93.615 483.472,114.815L497.172,110.915C509.973,107.315 523.273,114.615 526.873,127.415C530.473,140.215 523.073,153.515 510.373,157.115L495.672,161.315C496.672,184.815 490.272,207.415 478.073,226.415L488.672,237.015C498.072,246.315 497.973,261.515 488.672,270.915C479.373,280.315 464.172,280.315 454.772,270.915L444.172,260.215C433.672,267.015 421.873,272.015 408.972,275.015C401.073,276.815 393.672,278.915 386.773,281.115L390.773,295.515C394.373,308.315 387.073,321.615 374.273,325.215C361.472,328.815 348.172,321.415 344.573,308.715L342.472,301.215C318.773,315.615 303.773,332.315 293.873,347.215L305.172,352.015C317.373,357.215 322.972,371.315 317.773,383.515C312.573,395.715 298.472,401.315 286.273,396.115L273.672,390.715L273.472,391.515C272.172,396.215 271.472,399.615 271.172,401.315L271.073,402.115C269.172,419.915 263.172,436.315 254.073,450.415L264.672,461.015C274.073,470.315 273.972,485.515 264.672,494.915C255.373,504.315 240.172,504.315 230.773,494.915L220.273,484.215C201.473,496.315 178.973,502.815 155.173,501.815L150.973,516.515C147.273,529.315 134.073,536.715 121.273,533.015C108.473,529.315 101.173,516.015 104.773,503.315L108.673,489.615C87.773,478.915 70.773,461.815 60.173,441.115L46.373,445.015C33.573,448.615 20.273,441.315 16.673,428.515C13.073,415.715 20.473,402.415 33.173,398.815L47.872,394.615C47.673,389.715 47.773,384.715 48.273,379.715L87.473,383.315C48.273,379.715 48.273,379.615 48.273,379.615L48.273,379.215L48.372,378.615L48.473,377.215C48.573,376.215 48.673,375.015 48.872,373.615C49.273,370.815 49.773,367.415 50.473,363.315C51.872,355.215 54.073,344.515 57.573,332.015C57.872,331.015 58.173,330.015 58.473,328.915L46.873,324.315C34.573,319.415 28.572,305.415 33.473,293.115C38.373,280.815 52.372,274.815 64.673,279.715L74.572,283.615C80.773,269.315 88.373,254.015 97.773,238.315C99.673,235.115 101.673,231.815 103.773,228.615L88.773,216.615C78.473,208.415 76.873,193.215 85.072,182.915C93.273,172.615 108.373,170.915 118.773,179.215L132.273,189.915C145.873,173.615 161.573,157.815 179.573,142.815L171.773,131.215C164.473,120.215 167.473,105.215 178.473,97.915C189.473,90.615 204.373,93.615 211.773,104.615L218.373,114.515C236.573,102.815 256.573,92.115 278.573,82.715L273.672,71.415C268.472,59.215 274.073,45.115 286.273,39.915C298.472,34.715 312.573,40.315 317.773,52.515L323.672,66.215C334.873,62.715 346.472,59.615 358.573,56.815C368.573,54.515 378.672,53.615 388.472,54.015L392.672,39.315C396.373,26.515 409.573,19.115 422.373,22.815C435.172,26.515 442.472,39.815 438.873,52.515ZM255.773,253.915C269.073,253.915 279.773,243.215 279.773,229.915C279.773,216.615 269.073,205.915 255.773,205.915C242.473,205.915 231.773,216.615 231.773,229.915C231.773,243.215 242.473,253.915 255.773,253.915ZM223.773,341.915C223.773,315.415 202.273,293.915 175.773,293.915C149.273,293.915 127.773,315.415 127.773,341.915C127.773,368.415 149.273,389.915 175.773,389.915C202.273,389.915 223.773,368.415 223.773,341.915Z"/>
    </g>
</svg>
