<?xml version="1.0" encoding="UTF-8" standalone="no"?>
<!DOCTYPE svg PUBLIC "-//W3C//DTD SVG 1.1//EN" "http://www.w3.org/Graphics/SVG/1.1/DTD/svg11.dtd">
<svg width="100%" height="100%" viewBox="0 0 100 100" version="1.1" xmlns="http://www.w3.org/2000/svg" xmlns:xlink="http://www.w3.org/1999/xlink" xml:space="preserve" xmlns:serif="http://www.serif.com/" style="fill-rule:evenodd;clip-rule:evenodd;stroke-linejoin:round;stroke-miterlimit:2;">
    <g transform="matrix(0.142857,0,0,0.142857,0.571429,2.8016)">
        <g transform="matrix(0.839817,0,0,0.839817,117.808,-29.8449)">
            <g transform="matrix(1.19074,0,0,1.19074,4.99156,-106.16)">
                <path d="M239,492.052L384.558,590.732L361.175,694.49L239,697.257L239,492.052ZM239,734.225L364.923,731.374L381.775,764L239,764L239,734.225ZM423.357,764L395.524,710.125L422.049,592.462L539,490.579L539,764L423.357,764ZM513.288,464L403.946,559.25L263.456,464L513.288,464Z"/>
            </g>
            <path d="M504,134.324C504,116.624 518.3,102.324 536,102.324C553.7,102.324 568,116.624 568,134.324L568,187.724C553.2,195.424 544,210.824 544,232.324C544,249.124 560,276.324 581.4,299.524C587.2,305.724 596.9,305.724 602.6,299.524C624,276.324 640,249.024 640,232.324C640,210.824 630.8,195.324 616,187.724L616,134.324C616,90.124 580.2,54.324 536,54.324C491.8,54.324 456,90.124 456,134.324L456,157.024C446.2,152.724 435.4,150.324 424,150.324C379.8,150.324 344,186.124 344,230.324L344,251.724C329.2,259.424 320,274.824 320,296.324C320,313.124 336,340.324 357.4,363.524C363.2,369.724 372.9,369.724 378.6,363.524C400,340.324 416,313.024 416,296.324C416,274.824 406.8,259.324 392,251.724L392,230.324C392,212.624 406.3,198.324 424,198.324C441.7,198.324 456,212.624 456,230.324L456,448L504,448L504,134.324Z" style="fill-rule:nonzero;"/>
        </g>
        <g transform="matrix(-0.839817,0,0,0.839817,689.334,23.8682)">
            <g transform="matrix(1,0,0,1,-13.0981,0)">
                <path d="M504,150.995C504,133.295 518.3,118.995 536,118.995C553.7,118.995 568,133.295 568,150.995L568,204.395C553.2,212.095 544,227.495 544,248.995C544,265.795 560,292.995 581.4,316.195C587.2,322.395 596.9,322.395 602.6,316.195C624,292.995 640,265.695 640,248.995C640,227.495 630.8,211.995 616,204.395L616,150.995C616,106.795 580.2,70.995 536,70.995C491.8,70.995 456,106.795 456,150.995L456,400.371L504,400.371L504,150.995Z" style="fill-rule:nonzero;"/>
            </g>
            <g transform="matrix(-1.19074,0,0,1.21786,1166.13,351.192)">
                <path d="M321,31.314C332.733,27.547 341.709,25.611 347.719,25.611C354.207,25.611 363.568,27.604 375.555,31.498C400.173,39.556 409.804,39.556 434.07,31.498C457.689,23.713 465.564,23.713 489.18,31.498C513.437,39.556 522.999,39.556 547.701,31.498C570.965,23.972 577.995,23.444 602.818,31.498C609.877,33.81 615.705,35.459 621,36.444L621,71.555C616.24,70.582 610.957,69.007 604.38,66.864C579.012,58.566 570.073,58.982 546.195,66.864C522.839,74.422 515.764,74.912 491.059,66.864C466.336,58.809 456.818,58.809 432.251,66.864C407.514,74.951 400.433,74.422 377.115,66.864C353.861,59.277 344.71,58.627 321,66.191L321,31.314ZM321,92.864C332.733,89.097 341.709,87.161 347.719,87.161C354.207,87.161 363.568,89.154 375.555,93.048C400.173,101.106 409.804,101.106 434.07,93.048C457.689,85.263 465.564,85.263 489.18,93.048C513.437,101.106 522.999,101.106 547.701,93.048C570.965,85.522 577.995,84.994 602.818,93.048C609.877,95.36 615.705,97.009 621,97.994L621,133.105C616.24,132.132 610.957,130.557 604.38,128.414C579.012,120.116 570.073,120.532 546.195,128.414C522.839,135.972 515.764,136.462 491.059,128.414C466.336,120.359 456.818,120.359 432.251,128.414C407.514,136.501 400.433,135.972 377.115,128.414C353.861,120.827 344.71,120.177 321,127.741L321,92.864ZM321,154.414C332.733,150.647 341.709,148.711 347.719,148.711C354.207,148.711 363.568,150.704 375.555,154.598C400.173,162.656 409.804,162.656 434.07,154.598C457.689,146.813 465.564,146.813 489.18,154.598C513.437,162.656 522.999,162.656 547.701,154.598C570.965,147.072 577.995,146.544 602.818,154.598C609.877,156.91 615.705,158.559 621,159.544L621,194.655C616.24,193.682 610.957,192.107 604.38,189.964C579.012,181.666 570.073,182.082 546.195,189.964C522.839,197.522 515.764,198.012 491.059,189.964C466.336,181.909 456.818,181.909 432.251,189.964C407.514,198.051 400.433,197.522 377.115,189.964C353.861,182.377 344.71,181.727 321,189.291L321,154.414ZM321,215.964C332.733,212.197 341.709,210.261 347.719,210.261C354.207,210.261 363.568,212.254 375.555,216.148C400.173,224.206 409.804,224.206 434.07,216.148C457.689,208.363 465.564,208.363 489.18,216.148C513.437,224.206 522.999,224.206 547.701,216.148C570.965,208.622 577.995,208.094 602.818,216.148C609.877,218.46 615.705,220.109 621,221.094L621,256.205C616.24,255.232 610.957,253.657 604.38,251.514C579.012,243.216 570.073,243.632 546.195,251.514C522.839,259.072 515.764,259.562 491.059,251.514C466.336,243.459 456.818,243.459 432.251,251.514C407.514,259.601 400.433,259.072 377.115,251.514C353.861,243.927 344.71,243.277 321,250.841L321,215.964ZM321,277.514C332.733,273.741 341.709,271.811 347.719,271.811C354.207,271.811 363.568,273.8 375.555,277.698C400.173,285.752 409.804,285.752 434.07,277.698C457.689,269.906 465.564,269.906 489.18,277.698C513.437,285.752 522.999,285.752 547.701,277.698C570.965,270.168 577.995,269.65 602.818,277.698C609.877,280.01 615.705,281.658 621,282.642L621,317.753C616.24,316.78 610.957,315.204 604.38,313.061C579.012,304.763 570.073,305.182 546.195,313.061C522.839,320.619 515.764,321.115 491.059,313.061C466.336,305.007 456.818,305.007 432.251,313.061C407.514,321.151 400.433,320.619 377.115,313.061C353.861,305.474 344.71,304.83 321,312.389L321,277.514Z"/>
            </g>
        </g>
    </g>
</svg>
