<svg width="56" height="28" viewBox="0 0 56 28" fill="none" xmlns="http://www.w3.org/2000/svg">
<path d="M13.3408 26.6064C19.9774 26.6064 25.3575 21.1282 25.3575 14.3705C25.3575 9.46699 22.5248 5.23719 18.4349 3.28516L17.5078 5.19354C20.9086 6.79729 23.2676 10.3034 23.2676 14.3705C23.2676 19.9529 18.8233 24.4784 13.3408 24.4784C7.85844 24.4784 3.41407 19.9529 3.41407 14.3705C3.41407 11.0875 4.95116 8.17004 7.33253 6.32363L6.02638 4.66167C3.16718 6.89843 1.32422 10.4153 1.32422 14.3705C1.32422 21.1282 6.70425 26.6064 13.3408 26.6064Z" fill="#005C96"/>
<ellipse cx="18.313" cy="4.15087" rx="2.78957" ry="2.83446" fill="#005C96"/>
<ellipse cx="24.2115" cy="11.0845" rx="2.78957" ry="2.83446" fill="#005C96"/>
<ellipse cx="2.78957" cy="11.0845" rx="2.78957" ry="2.83446" fill="#005C96"/>
<ellipse cx="3.87161" cy="20.397" rx="2.78957" ry="2.83446" fill="#005C96"/>
<ellipse cx="22.3833" cy="20.397" rx="2.78957" ry="2.83446" fill="#005C96"/>
<ellipse cx="13.2583" cy="25.1665" rx="2.78957" ry="2.83446" fill="#005C96"/>
<path d="M10.211 2.81036L7.94189 8.54373L4.20021 3.67604L10.211 2.81036Z" fill="#005C96"/>
<path d="M41.3408 26.6064C47.9774 26.6064 53.3575 21.1282 53.3575 14.3705C53.3575 9.46699 50.5248 5.23719 46.4349 3.28516L45.5078 5.19354C48.9086 6.79729 51.2676 10.3034 51.2676 14.3705C51.2676 19.9529 46.8233 24.4784 41.3408 24.4784C35.8584 24.4784 31.4141 19.9529 31.4141 14.3705C31.4141 11.0875 32.9512 8.17004 35.3325 6.32363L34.0264 4.66167C31.1672 6.89843 29.3242 10.4153 29.3242 14.3705C29.3242 21.1282 34.7042 26.6064 41.3408 26.6064Z" fill="#6B7427"/>
<ellipse cx="46.313" cy="4.15087" rx="2.78957" ry="2.83446" fill="#6B7427"/>
<ellipse cx="52.2114" cy="11.0845" rx="2.78957" ry="2.83446" fill="#6B7427"/>
<ellipse cx="30.7896" cy="11.0845" rx="2.78957" ry="2.83446" fill="#6B7427"/>
<ellipse cx="31.8716" cy="20.397" rx="2.78957" ry="2.83446" fill="#6B7427"/>
<ellipse cx="50.3833" cy="20.397" rx="2.78957" ry="2.83446" fill="#6B7427"/>
<ellipse cx="41.2583" cy="25.1665" rx="2.78957" ry="2.83446" fill="#6B7427"/>
<path d="M38.211 2.81036L35.9419 8.54373L32.2002 3.67604L38.211 2.81036Z" fill="#6B7427"/>
</svg>
