<svg width="1356" height="230" viewBox="0 0 1356 230" fill="none" xmlns="http://www.w3.org/2000/svg">
<path d="M852.717 61.8096C852.717 63.3753 852.331 64.7243 851.561 65.8564C850.802 66.9886 849.706 67.8558 848.272 68.458C846.851 69.0602 845.153 69.3613 843.178 69.3613C842.214 69.3613 841.293 69.3071 840.414 69.1987C839.534 69.0903 838.703 68.9338 837.92 68.729C837.15 68.5122 836.445 68.2533 835.807 67.9521V63.8691C836.879 64.3389 838.077 64.7664 839.402 65.1519C840.727 65.5252 842.076 65.7119 843.449 65.7119C844.569 65.7119 845.496 65.5674 846.231 65.2783C846.978 64.9772 847.532 64.5557 847.893 64.0137C848.254 63.4596 848.435 62.8153 848.435 62.0806C848.435 61.2977 848.224 60.6353 847.803 60.0933C847.381 59.5513 846.743 59.0575 845.888 58.6118C845.045 58.1541 843.985 57.6663 842.708 57.1484C841.841 56.7992 841.01 56.4017 840.215 55.9561C839.432 55.5104 838.733 54.9865 838.119 54.3843C837.505 53.7821 837.017 53.0715 836.656 52.2524C836.306 51.4214 836.132 50.4458 836.132 49.3257C836.132 47.8322 836.487 46.5555 837.198 45.4956C837.92 44.4357 838.932 43.6227 840.233 43.0566C841.546 42.4906 843.075 42.2075 844.822 42.2075C846.207 42.2075 847.508 42.3521 848.724 42.6411C849.953 42.9302 851.157 43.3397 852.337 43.8696L850.964 47.3564C849.88 46.9108 848.826 46.5555 847.803 46.2905C846.791 46.0256 845.755 45.8931 844.695 45.8931C843.78 45.8931 843.003 46.0316 842.365 46.3086C841.726 46.5856 841.239 46.9771 840.901 47.4829C840.576 47.9767 840.414 48.5669 840.414 49.2534C840.414 50.0243 840.6 50.6746 840.974 51.2046C841.359 51.7225 841.949 52.1982 842.744 52.6318C843.551 53.0654 844.587 53.5472 845.852 54.0771C847.309 54.6794 848.543 55.3117 849.555 55.9741C850.579 56.6366 851.362 57.4315 851.904 58.3589C852.446 59.2743 852.717 60.4245 852.717 61.8096ZM879.382 69H875.064V57.0762H862.887V69H858.552V42.5869H862.887V53.3906H875.064V42.5869H879.382V69ZM903.482 69L900.898 61.665H890.799L888.216 69H883.645L893.473 42.4785H898.279L908.089 69H903.482ZM899.778 57.9434L897.267 50.7168C897.171 50.4036 897.032 49.964 896.852 49.3979C896.671 48.8198 896.49 48.2357 896.31 47.6455C896.129 47.0433 895.978 46.5374 895.858 46.1279C895.737 46.6217 895.587 47.1758 895.406 47.79C895.238 48.3923 895.069 48.9583 894.9 49.4883C894.744 50.0182 894.623 50.4277 894.539 50.7168L892.01 57.9434H899.778ZM919.741 42.5869C922.017 42.5869 923.896 42.8639 925.378 43.418C926.871 43.972 927.979 44.8151 928.702 45.9473C929.437 47.0794 929.804 48.5187 929.804 50.2651C929.804 51.5659 929.563 52.674 929.081 53.5894C928.6 54.5047 927.967 55.2635 927.184 55.8657C926.401 56.4679 925.564 56.9497 924.673 57.311L932.171 69H927.275L920.897 58.4131H916.652V69H912.316V42.5869H919.741ZM919.452 46.2002H916.652V54.8359H919.651C921.662 54.8359 923.119 54.4626 924.023 53.7158C924.938 52.9691 925.396 51.867 925.396 50.4097C925.396 48.88 924.908 47.7961 923.932 47.1577C922.969 46.5194 921.475 46.2002 919.452 46.2002ZM936.687 69V42.5869H941.022V69H936.687ZM970.777 69H965.448L952.512 47.9165H952.349C952.398 48.6271 952.44 49.3799 952.476 50.1748C952.524 50.9697 952.56 51.7887 952.584 52.6318C952.62 53.4749 952.651 54.3301 952.675 55.1973V69H948.736V42.5869H954.03L966.947 63.5259H967.074C967.049 62.9116 967.019 62.207 966.983 61.4121C966.947 60.6172 966.911 59.7982 966.875 58.9551C966.851 58.0999 966.833 57.2749 966.821 56.48V42.5869H970.777V69ZM989.114 54.6553H998.978V67.916C997.593 68.3737 996.16 68.729 994.678 68.9819C993.197 69.2349 991.535 69.3613 989.692 69.3613C987.006 69.3613 984.73 68.8314 982.863 67.7715C981.008 66.6995 979.599 65.1519 978.635 63.1284C977.672 61.0929 977.19 58.6419 977.19 55.7754C977.19 53.0173 977.726 50.6265 978.798 48.603C979.87 46.5675 981.43 44.9958 983.477 43.8877C985.525 42.7676 988.006 42.2075 990.92 42.2075C992.354 42.2075 993.739 42.3521 995.076 42.6411C996.425 42.9181 997.659 43.3035 998.779 43.7974L997.262 47.3745C996.371 46.953 995.371 46.5977 994.263 46.3086C993.155 46.0195 992.004 45.875 990.812 45.875C988.921 45.875 987.289 46.2845 985.916 47.1035C984.555 47.9225 983.507 49.0788 982.773 50.5723C982.038 52.0537 981.67 53.8062 981.67 55.8296C981.67 57.7928 981.966 59.5151 982.556 60.9966C983.146 62.478 984.067 63.6343 985.32 64.4653C986.585 65.2843 988.217 65.6938 990.216 65.6938C991.216 65.6938 992.065 65.6396 992.763 65.5312C993.462 65.4229 994.106 65.3024 994.696 65.1699V58.3589H989.114V54.6553ZM1032.76 69L1030.18 61.665H1020.08L1017.49 69H1012.92L1022.75 42.4785H1027.56L1037.37 69H1032.76ZM1029.06 57.9434L1026.55 50.7168C1026.45 50.4036 1026.31 49.964 1026.13 49.3979C1025.95 48.8198 1025.77 48.2357 1025.59 47.6455C1025.41 47.0433 1025.26 46.5374 1025.14 46.1279C1025.02 46.6217 1024.87 47.1758 1024.69 47.79C1024.52 48.3923 1024.35 48.9583 1024.18 49.4883C1024.02 50.0182 1023.9 50.4277 1023.82 50.7168L1021.29 57.9434H1029.06ZM1063.04 55.5405C1063.04 58.5155 1062.49 61.0026 1061.38 63.002C1060.27 64.9893 1058.66 66.4888 1056.55 67.5005C1054.45 68.5002 1051.9 69 1048.93 69H1041.59V42.5869H1049.72C1052.46 42.5869 1054.82 43.0807 1056.81 44.0684C1058.79 45.0439 1060.33 46.4953 1061.41 48.4224C1062.5 50.3374 1063.04 52.7101 1063.04 55.5405ZM1058.52 55.667C1058.52 53.499 1058.18 51.7165 1057.49 50.3193C1056.82 48.9222 1055.82 47.8864 1054.49 47.2119C1053.18 46.5254 1051.56 46.1821 1049.63 46.1821H1045.93V65.3687H1049C1052.19 65.3687 1054.58 64.5557 1056.16 62.9297C1057.73 61.3037 1058.52 58.8828 1058.52 55.667ZM1085.84 69L1083.25 61.665H1073.16L1070.57 69H1066L1075.83 42.4785H1080.64L1090.45 69H1085.84ZM1082.13 57.9434L1079.62 50.7168C1079.53 50.4036 1079.39 49.964 1079.21 49.3979C1079.03 48.8198 1078.85 48.2357 1078.67 47.6455C1078.49 47.0433 1078.33 46.5374 1078.21 46.1279C1078.09 46.6217 1077.94 47.1758 1077.76 47.79C1077.59 48.3923 1077.43 48.9583 1077.26 49.4883C1077.1 50.0182 1076.98 50.4277 1076.9 50.7168L1074.37 57.9434H1082.13ZM1102.35 42.5869C1105.76 42.5869 1108.25 43.2855 1109.81 44.6826C1111.38 46.0798 1112.16 48.0369 1112.16 50.5542C1112.16 51.6984 1111.98 52.7884 1111.62 53.8242C1111.27 54.848 1110.69 55.7573 1109.88 56.5522C1109.08 57.3351 1108.01 57.9554 1106.69 58.4131C1105.37 58.8708 1103.75 59.0996 1101.83 59.0996H1099.01V69H1094.67V42.5869H1102.35ZM1102.06 46.1821H1099.01V55.4863H1101.37C1102.74 55.4863 1103.89 55.3298 1104.84 55.0166C1105.8 54.6914 1106.52 54.1795 1107.01 53.481C1107.51 52.7824 1107.75 51.861 1107.75 50.7168C1107.75 49.1872 1107.29 48.049 1106.36 47.3022C1105.45 46.5555 1104.01 46.1821 1102.06 46.1821ZM1127.34 69H1122.98V46.2725H1115.25V42.5869H1135.05V46.2725H1127.34V69ZM1156.2 69L1153.62 61.665H1143.52L1140.94 69H1136.37L1146.2 42.4785H1151L1160.81 69H1156.2ZM1152.5 57.9434L1149.99 50.7168C1149.89 50.4036 1149.76 49.964 1149.57 49.3979C1149.39 48.8198 1149.21 48.2357 1149.03 47.6455C1148.85 47.0433 1148.7 46.5374 1148.58 46.1279C1148.46 46.6217 1148.31 47.1758 1148.13 47.79C1147.96 48.3923 1147.79 48.9583 1147.62 49.4883C1147.47 50.0182 1147.35 50.4277 1147.26 50.7168L1144.73 57.9434H1152.5ZM1174.2 69H1169.84V46.2725H1162.11V42.5869H1181.91V46.2725H1174.2V69ZM1186.7 69V42.5869H1191.04V69H1186.7ZM1222.2 55.7573C1222.2 57.7928 1221.94 59.6476 1221.42 61.3218C1220.92 62.9839 1220.15 64.4172 1219.13 65.6216C1218.1 66.814 1216.82 67.7354 1215.28 68.3857C1213.74 69.0361 1211.93 69.3613 1209.86 69.3613C1207.75 69.3613 1205.92 69.0361 1204.37 68.3857C1202.83 67.7354 1201.54 66.8079 1200.52 65.6035C1199.51 64.3991 1198.75 62.9598 1198.24 61.2856C1197.74 59.6115 1197.48 57.7567 1197.48 55.7212C1197.48 52.9992 1197.93 50.6265 1198.82 48.603C1199.72 46.5675 1201.09 44.9897 1202.92 43.8696C1204.77 42.7375 1207.09 42.1714 1209.9 42.1714C1212.64 42.1714 1214.92 42.7314 1216.74 43.8516C1218.56 44.9717 1219.92 46.5495 1220.83 48.585C1221.74 50.6084 1222.2 52.9992 1222.2 55.7573ZM1202.04 55.7573C1202.04 57.7928 1202.31 59.5573 1202.87 61.0508C1203.42 62.5322 1204.27 63.6764 1205.42 64.4834C1206.57 65.2783 1208.05 65.6758 1209.86 65.6758C1211.68 65.6758 1213.16 65.2783 1214.3 64.4834C1215.45 63.6764 1216.29 62.5322 1216.83 61.0508C1217.38 59.5573 1217.65 57.7928 1217.65 55.7573C1217.65 52.6619 1217.03 50.241 1215.79 48.4946C1214.56 46.7362 1212.59 45.8569 1209.9 45.8569C1208.09 45.8569 1206.6 46.2544 1205.43 47.0493C1204.28 47.8442 1203.42 48.9824 1202.87 50.4639C1202.31 51.9333 1202.04 53.6978 1202.04 55.7573ZM1250.65 69H1245.32L1232.39 47.9165H1232.23C1232.27 48.6271 1232.32 49.3799 1232.35 50.1748C1232.4 50.9697 1232.44 51.7887 1232.46 52.6318C1232.5 53.4749 1232.53 54.3301 1232.55 55.1973V69H1228.61V42.5869H1233.91L1246.82 63.5259H1246.95C1246.93 62.9116 1246.9 62.207 1246.86 61.4121C1246.82 60.6172 1246.79 59.7982 1246.75 58.9551C1246.73 58.0999 1246.71 57.2749 1246.7 56.48V42.5869H1250.65V69ZM857.613 128H852.626L844.406 116.004L841.805 118.118V128H837.469V101.587H841.805V114.215C842.335 113.565 842.871 112.915 843.413 112.264C843.955 111.614 844.497 110.963 845.039 110.313L852.482 101.587H857.378L847.514 113.149L857.613 128ZM883.881 128H878.551L865.615 106.917H865.453C865.501 107.627 865.543 108.38 865.579 109.175C865.628 109.97 865.664 110.789 865.688 111.632C865.724 112.475 865.754 113.33 865.778 114.197V128H861.84V101.587H867.133L880.051 122.526H880.177C880.153 121.912 880.123 121.207 880.087 120.412C880.051 119.617 880.014 118.798 879.978 117.955C879.954 117.1 879.936 116.275 879.924 115.48V101.587H883.881V128ZM915.008 114.757C915.008 116.793 914.749 118.648 914.231 120.322C913.726 121.984 912.961 123.417 911.937 124.622C910.913 125.814 909.631 126.735 908.089 127.386C906.547 128.036 904.741 128.361 902.669 128.361C900.561 128.361 898.73 128.036 897.177 127.386C895.635 126.735 894.352 125.808 893.329 124.604C892.317 123.399 891.558 121.96 891.052 120.286C890.546 118.611 890.293 116.757 890.293 114.721C890.293 111.999 890.739 109.626 891.63 107.603C892.534 105.568 893.901 103.99 895.731 102.87C897.574 101.737 899.899 101.171 902.705 101.171C905.451 101.171 907.734 101.731 909.552 102.852C911.371 103.972 912.732 105.549 913.635 107.585C914.551 109.608 915.008 111.999 915.008 114.757ZM894.846 114.757C894.846 116.793 895.123 118.557 895.677 120.051C896.231 121.532 897.08 122.676 898.225 123.483C899.381 124.278 900.862 124.676 902.669 124.676C904.488 124.676 905.969 124.278 907.113 123.483C908.258 122.676 909.101 121.532 909.643 120.051C910.185 118.557 910.456 116.793 910.456 114.757C910.456 111.662 909.835 109.241 908.595 107.495C907.366 105.736 905.403 104.857 902.705 104.857C900.898 104.857 899.411 105.254 898.243 106.049C897.086 106.844 896.231 107.982 895.677 109.464C895.123 110.933 894.846 112.698 894.846 114.757ZM952.658 101.587L945.757 128H941.023L936.615 112.174C936.507 111.788 936.386 111.331 936.254 110.801C936.121 110.271 935.989 109.729 935.856 109.175C935.736 108.621 935.627 108.115 935.531 107.657C935.447 107.188 935.387 106.826 935.35 106.573C935.326 106.826 935.272 107.181 935.188 107.639C935.103 108.097 935.001 108.603 934.881 109.157C934.772 109.699 934.652 110.241 934.519 110.783C934.387 111.313 934.266 111.782 934.158 112.192L929.822 128H925.107L918.223 101.587H922.577L926.389 117.07C926.51 117.564 926.63 118.1 926.751 118.678C926.883 119.244 927.004 119.816 927.112 120.394C927.233 120.972 927.341 121.538 927.437 122.092C927.534 122.634 927.612 123.128 927.672 123.574C927.732 123.116 927.811 122.61 927.907 122.056C928.003 121.49 928.106 120.918 928.214 120.34C928.335 119.75 928.455 119.184 928.575 118.642C928.708 118.1 928.84 117.612 928.973 117.178L933.273 101.587H937.5L941.89 117.232C942.023 117.678 942.149 118.178 942.27 118.732C942.402 119.286 942.529 119.852 942.649 120.43C942.77 121.008 942.878 121.568 942.974 122.11C943.071 122.652 943.149 123.14 943.209 123.574C943.294 122.984 943.402 122.309 943.534 121.55C943.667 120.792 943.817 120.021 943.986 119.238C944.155 118.455 944.323 117.732 944.492 117.07L948.286 101.587H952.658ZM957.138 128V101.587H961.474V124.314H972.693V128H957.138ZM992.963 128H978.004V101.587H992.963V105.236H982.34V112.409H992.294V116.04H982.34V124.333H992.963V128ZM1020.86 114.541C1020.86 117.515 1020.3 120.003 1019.19 122.002C1018.09 123.989 1016.48 125.489 1014.37 126.5C1012.26 127.5 1009.72 128 1006.75 128H999.412V101.587H1007.54C1010.28 101.587 1012.64 102.081 1014.62 103.068C1016.61 104.044 1018.15 105.495 1019.23 107.422C1020.31 109.337 1020.86 111.71 1020.86 114.541ZM1016.34 114.667C1016.34 112.499 1016 110.716 1015.31 109.319C1014.64 107.922 1013.64 106.886 1012.31 106.212C1011 105.525 1009.38 105.182 1007.45 105.182H1003.75V124.369H1006.82C1010.01 124.369 1012.4 123.556 1013.97 121.93C1015.55 120.304 1016.34 117.883 1016.34 114.667ZM1037.95 113.655H1047.81V126.916C1046.43 127.374 1044.99 127.729 1043.51 127.982C1042.03 128.235 1040.37 128.361 1038.52 128.361C1035.84 128.361 1033.56 127.831 1031.7 126.771C1029.84 125.7 1028.43 124.152 1027.47 122.128C1026.5 120.093 1026.02 117.642 1026.02 114.775C1026.02 112.017 1026.56 109.626 1027.63 107.603C1028.7 105.568 1030.26 103.996 1032.31 102.888C1034.36 101.768 1036.84 101.208 1039.75 101.208C1041.19 101.208 1042.57 101.352 1043.91 101.641C1045.26 101.918 1046.49 102.304 1047.61 102.797L1046.09 106.375C1045.2 105.953 1044.2 105.598 1043.1 105.309C1041.99 105.02 1040.84 104.875 1039.64 104.875C1037.75 104.875 1036.12 105.285 1034.75 106.104C1033.39 106.923 1032.34 108.079 1031.61 109.572C1030.87 111.054 1030.5 112.806 1030.5 114.83C1030.5 116.793 1030.8 118.515 1031.39 119.997C1031.98 121.478 1032.9 122.634 1034.15 123.465C1035.42 124.284 1037.05 124.694 1039.05 124.694C1040.05 124.694 1040.9 124.64 1041.6 124.531C1042.29 124.423 1042.94 124.302 1043.53 124.17V117.359H1037.95V113.655ZM1069.83 128H1054.87V101.587H1069.83V105.236H1059.21V112.409H1069.16V116.04H1059.21V124.333H1069.83V128ZM1090.93 128H1086.63V101.587H1101.56V105.236H1090.93V113.475H1100.87V117.106H1090.93V128ZM1130.55 114.757C1130.55 116.793 1130.29 118.648 1129.78 120.322C1129.27 121.984 1128.5 123.417 1127.48 124.622C1126.46 125.814 1125.17 126.735 1123.63 127.386C1122.09 128.036 1120.28 128.361 1118.21 128.361C1116.11 128.361 1114.27 128.036 1112.72 127.386C1111.18 126.735 1109.9 125.808 1108.87 124.604C1107.86 123.399 1107.1 121.96 1106.6 120.286C1106.09 118.611 1105.84 116.757 1105.84 114.721C1105.84 111.999 1106.28 109.626 1107.17 107.603C1108.08 105.568 1109.44 103.99 1111.28 102.87C1113.12 101.737 1115.44 101.171 1118.25 101.171C1120.99 101.171 1123.28 101.731 1125.1 102.852C1126.91 103.972 1128.28 105.549 1129.18 107.585C1130.09 109.608 1130.55 111.999 1130.55 114.757ZM1110.39 114.757C1110.39 116.793 1110.67 118.557 1111.22 120.051C1111.78 121.532 1112.62 122.676 1113.77 123.483C1114.92 124.278 1116.41 124.676 1118.21 124.676C1120.03 124.676 1121.51 124.278 1122.66 123.483C1123.8 122.676 1124.64 121.532 1125.19 120.051C1125.73 118.557 1126 116.793 1126 114.757C1126 111.662 1125.38 109.241 1124.14 107.495C1122.91 105.736 1120.95 104.857 1118.25 104.857C1116.44 104.857 1114.95 105.254 1113.79 106.049C1112.63 106.844 1111.78 107.982 1111.22 109.464C1110.67 110.933 1110.39 112.698 1110.39 114.757ZM1144.39 101.587C1146.67 101.587 1148.55 101.864 1150.03 102.418C1151.52 102.972 1152.63 103.815 1153.35 104.947C1154.09 106.079 1154.45 107.519 1154.45 109.265C1154.45 110.566 1154.21 111.674 1153.73 112.589C1153.25 113.505 1152.62 114.264 1151.83 114.866C1151.05 115.468 1150.21 115.95 1149.32 116.311L1156.82 128H1151.92L1145.55 117.413H1141.3V128H1136.96V101.587H1144.39ZM1144.1 105.2H1141.3V113.836H1144.3C1146.31 113.836 1147.77 113.463 1148.67 112.716C1149.59 111.969 1150.05 110.867 1150.05 109.41C1150.05 107.88 1149.56 106.796 1148.58 106.158C1147.62 105.519 1146.12 105.2 1144.1 105.2ZM1188.06 128L1185.47 120.665H1175.37L1172.79 128H1168.22L1178.05 101.479H1182.85L1192.66 128H1188.06ZM1184.35 116.943L1181.84 109.717C1181.74 109.404 1181.61 108.964 1181.42 108.398C1181.24 107.82 1181.06 107.236 1180.88 106.646C1180.7 106.043 1180.55 105.537 1180.43 105.128C1180.31 105.622 1180.16 106.176 1179.98 106.79C1179.81 107.392 1179.64 107.958 1179.47 108.488C1179.32 109.018 1179.2 109.428 1179.11 109.717L1176.58 116.943H1184.35ZM848.724 163.893C847.459 163.893 846.327 164.122 845.328 164.58C844.34 165.037 843.503 165.7 842.816 166.567C842.13 167.422 841.606 168.464 841.245 169.692C840.883 170.909 840.703 172.282 840.703 173.812C840.703 175.859 840.992 177.624 841.57 179.105C842.148 180.574 843.027 181.707 844.208 182.501C845.388 183.284 846.881 183.676 848.688 183.676C849.808 183.676 850.898 183.567 851.958 183.351C853.018 183.134 854.114 182.839 855.246 182.465V186.151C854.174 186.572 853.09 186.88 851.994 187.072C850.898 187.265 849.633 187.361 848.2 187.361C845.502 187.361 843.262 186.801 841.479 185.681C839.709 184.561 838.384 182.983 837.505 180.948C836.638 178.912 836.204 176.528 836.204 173.793C836.204 171.794 836.481 169.963 837.035 168.301C837.589 166.639 838.396 165.206 839.456 164.001C840.516 162.785 841.823 161.852 843.376 161.201C844.942 160.539 846.731 160.208 848.742 160.208C850.067 160.208 851.368 160.358 852.645 160.659C853.933 160.948 855.126 161.364 856.222 161.906L854.704 165.483C853.789 165.049 852.831 164.676 851.832 164.363C850.832 164.05 849.796 163.893 848.724 163.893ZM861.659 187V160.587H865.995V183.314H877.214V187H861.659ZM882.525 187V160.587H886.861V187H882.525ZM905.974 187L898.368 164.941H898.206C898.242 165.435 898.284 166.109 898.332 166.964C898.38 167.819 898.423 168.735 898.459 169.71C898.495 170.686 898.513 171.619 898.513 172.511V187H894.574V160.587H900.663L907.98 181.67H908.088L915.658 160.587H921.728V187H917.591V172.294C917.591 171.487 917.603 170.614 917.627 169.674C917.663 168.735 917.699 167.844 917.736 167C917.784 166.157 917.82 165.483 917.844 164.977H917.699L909.804 187H905.974ZM945.792 187L943.209 179.665H933.109L930.526 187H925.955L935.783 160.479H940.589L950.399 187H945.792ZM942.088 175.943L939.577 168.717C939.481 168.404 939.342 167.964 939.162 167.398C938.981 166.82 938.8 166.236 938.62 165.646C938.439 165.043 938.288 164.537 938.168 164.128C938.048 164.622 937.897 165.176 937.716 165.79C937.548 166.392 937.379 166.958 937.21 167.488C937.054 168.018 936.933 168.428 936.849 168.717L934.32 175.943H942.088ZM963.785 187H959.431V164.272H951.699V160.587H971.5V164.272H963.785V187ZM991.246 187H976.287V160.587H991.246V164.236H980.623V171.409H990.577V175.04H980.623V183.333H991.246V187ZM995.527 178.87V175.275H1004.85V178.87H995.527ZM1017.78 160.587C1020.06 160.587 1021.94 160.864 1023.42 161.418C1024.91 161.972 1026.02 162.815 1026.74 163.947C1027.48 165.079 1027.85 166.519 1027.85 168.265C1027.85 169.566 1027.61 170.674 1027.12 171.589C1026.64 172.505 1026.01 173.264 1025.23 173.866C1024.44 174.468 1023.61 174.95 1022.72 175.311L1030.21 187H1025.32L1018.94 176.413H1014.69V187H1010.36V160.587H1017.78ZM1017.49 164.2H1014.69V172.836H1017.69C1019.7 172.836 1021.16 172.463 1022.07 171.716C1022.98 170.969 1023.44 169.867 1023.44 168.41C1023.44 166.88 1022.95 165.796 1021.98 165.158C1021.01 164.519 1019.52 164.2 1017.49 164.2ZM1049.69 187H1034.73V160.587H1049.69V164.236H1039.07V171.409H1049.02V175.04H1039.07V183.333H1049.69V187ZM1071.39 179.81C1071.39 181.375 1071 182.724 1070.23 183.856C1069.47 184.989 1068.37 185.856 1066.94 186.458C1065.52 187.06 1063.82 187.361 1061.85 187.361C1060.88 187.361 1059.96 187.307 1059.08 187.199C1058.2 187.09 1057.37 186.934 1056.59 186.729C1055.82 186.512 1055.11 186.253 1054.48 185.952V181.869C1055.55 182.339 1056.75 182.766 1058.07 183.152C1059.4 183.525 1060.74 183.712 1062.12 183.712C1063.24 183.712 1064.16 183.567 1064.9 183.278C1065.65 182.977 1066.2 182.556 1066.56 182.014C1066.92 181.46 1067.1 180.815 1067.1 180.081C1067.1 179.298 1066.89 178.635 1066.47 178.093C1066.05 177.551 1065.41 177.057 1064.56 176.612C1063.71 176.154 1062.65 175.666 1061.38 175.148C1060.51 174.799 1059.68 174.402 1058.88 173.956C1058.1 173.51 1057.4 172.986 1056.79 172.384C1056.17 171.782 1055.69 171.071 1055.32 170.252C1054.98 169.421 1054.8 168.446 1054.8 167.326C1054.8 165.832 1055.16 164.556 1055.87 163.496C1056.59 162.436 1057.6 161.623 1058.9 161.057C1060.21 160.491 1061.74 160.208 1063.49 160.208C1064.88 160.208 1066.18 160.352 1067.39 160.641C1068.62 160.93 1069.83 161.34 1071.01 161.87L1069.63 165.356C1068.55 164.911 1067.5 164.556 1066.47 164.291C1065.46 164.026 1064.42 163.893 1063.36 163.893C1062.45 163.893 1061.67 164.032 1061.03 164.309C1060.39 164.586 1059.91 164.977 1059.57 165.483C1059.24 165.977 1059.08 166.567 1059.08 167.253C1059.08 168.024 1059.27 168.675 1059.64 169.205C1060.03 169.722 1060.62 170.198 1061.41 170.632C1062.22 171.065 1063.26 171.547 1064.52 172.077C1065.98 172.679 1067.21 173.312 1068.22 173.974C1069.25 174.637 1070.03 175.431 1070.57 176.359C1071.11 177.274 1071.39 178.424 1071.39 179.81ZM1077.22 187V160.587H1081.56V187H1077.22ZM1089.27 187V160.587H1093.61V183.314H1104.82V187H1089.27ZM1110.14 187V160.587H1114.47V187H1110.14ZM1137.14 187H1122.19V160.587H1137.14V164.236H1126.52V171.409H1136.48V175.04H1126.52V183.333H1137.14V187ZM1165.63 187H1160.3L1147.37 165.917H1147.21C1147.25 166.627 1147.3 167.38 1147.33 168.175C1147.38 168.97 1147.42 169.789 1147.44 170.632C1147.48 171.475 1147.51 172.33 1147.53 173.197V187H1143.59V160.587H1148.89L1161.8 181.526H1161.93C1161.91 180.912 1161.88 180.207 1161.84 179.412C1161.8 178.617 1161.77 177.798 1161.73 176.955C1161.71 176.1 1161.69 175.275 1161.68 174.48V160.587H1165.63V187ZM1182.47 187H1178.12V164.272H1170.38V160.587H1190.19V164.272H1182.47V187ZM1220.28 187H1205.32V160.587H1220.28V164.236H1209.66V171.409H1219.61V175.04H1209.66V183.333H1220.28V187ZM1247.47 160.587V177.678C1247.47 179.521 1247.08 181.171 1246.3 182.628C1245.53 184.085 1244.36 185.242 1242.79 186.097C1241.23 186.94 1239.26 187.361 1236.89 187.361C1233.5 187.361 1230.92 186.476 1229.15 184.706C1227.39 182.923 1226.52 180.556 1226.52 177.605V160.587H1230.85V177.226C1230.85 179.43 1231.37 181.056 1232.4 182.104C1233.44 183.152 1234.99 183.676 1237.05 183.676C1238.47 183.676 1239.63 183.429 1240.52 182.935C1241.42 182.429 1242.08 181.694 1242.5 180.731C1242.94 179.755 1243.15 178.581 1243.15 177.208V160.587H1247.47ZM1262.39 160.587C1264.67 160.587 1266.55 160.864 1268.03 161.418C1269.52 161.972 1270.63 162.815 1271.36 163.947C1272.09 165.079 1272.46 166.519 1272.46 168.265C1272.46 169.566 1272.22 170.674 1271.73 171.589C1271.25 172.505 1270.62 173.264 1269.84 173.866C1269.05 174.468 1268.22 174.95 1267.33 175.311L1274.82 187H1269.93L1263.55 176.413H1259.3V187H1254.97V160.587H1262.39ZM1262.11 164.2H1259.3V172.836H1262.3C1264.32 172.836 1265.77 172.463 1266.68 171.716C1267.59 170.969 1268.05 169.867 1268.05 168.41C1268.05 166.88 1267.56 165.796 1266.59 165.158C1265.62 164.519 1264.13 164.2 1262.11 164.2ZM1302.79 173.757C1302.79 175.793 1302.53 177.648 1302.01 179.322C1301.51 180.984 1300.74 182.417 1299.72 183.622C1298.69 184.814 1297.41 185.735 1295.87 186.386C1294.33 187.036 1292.52 187.361 1290.45 187.361C1288.34 187.361 1286.51 187.036 1284.96 186.386C1283.42 185.735 1282.13 184.808 1281.11 183.604C1280.1 182.399 1279.34 180.96 1278.83 179.286C1278.33 177.611 1278.08 175.757 1278.08 173.721C1278.08 170.999 1278.52 168.626 1279.41 166.603C1280.32 164.568 1281.68 162.99 1283.51 161.87C1285.36 160.737 1287.68 160.171 1290.49 160.171C1293.23 160.171 1295.52 160.731 1297.33 161.852C1299.15 162.972 1300.51 164.549 1301.42 166.585C1302.33 168.608 1302.79 170.999 1302.79 173.757ZM1282.63 173.757C1282.63 175.793 1282.9 177.557 1283.46 179.051C1284.01 180.532 1284.86 181.676 1286.01 182.483C1287.16 183.278 1288.64 183.676 1290.45 183.676C1292.27 183.676 1293.75 183.278 1294.89 182.483C1296.04 181.676 1296.88 180.532 1297.42 179.051C1297.97 177.557 1298.24 175.793 1298.24 173.757C1298.24 170.662 1297.62 168.241 1296.38 166.495C1295.15 164.736 1293.18 163.857 1290.49 163.857C1288.68 163.857 1287.19 164.254 1286.02 165.049C1284.87 165.844 1284.01 166.982 1283.46 168.464C1282.9 169.933 1282.63 171.698 1282.63 173.757ZM1316.88 160.587C1320.29 160.587 1322.78 161.285 1324.34 162.683C1325.91 164.08 1326.69 166.037 1326.69 168.554C1326.69 169.698 1326.51 170.788 1326.15 171.824C1325.8 172.848 1325.22 173.757 1324.41 174.552C1323.61 175.335 1322.54 175.955 1321.22 176.413C1319.9 176.871 1318.28 177.1 1316.36 177.1H1313.54V187H1309.2V160.587H1316.88ZM1316.59 164.182H1313.54V173.486H1315.91C1317.27 173.486 1318.42 173.33 1319.37 173.017C1320.33 172.691 1321.05 172.18 1321.54 171.481C1322.04 170.782 1322.28 169.861 1322.28 168.717C1322.28 167.187 1321.82 166.049 1320.89 165.302C1319.98 164.556 1318.54 164.182 1316.59 164.182ZM1347.67 187H1332.71V160.587H1347.67V164.236H1337.04V171.409H1347V175.04H1337.04V183.333H1347.67V187Z" fill="#2F2F2F"/>
<path d="M796.425 0.350525H794.79V229.357H796.425V0.350525Z" fill="#2F2F2F"/>
<path d="M344.938 229.357L337.205 203.971H298.324L290.591 229.357H266.226L303.868 122.268H331.515L369.303 229.357H344.938ZM331.807 185.004C324.658 162.001 320.622 148.991 319.698 145.976C318.822 142.961 318.19 140.578 317.801 138.827C316.196 145.052 311.6 160.444 304.014 185.004H331.807Z" fill="#2F2F2F"/>
<path d="M471.139 175.01C471.139 192.566 466.13 206.013 456.111 215.35C446.142 224.688 431.722 229.357 412.853 229.357H382.652V122.705H416.135C433.546 122.705 447.066 127.301 456.695 136.493C466.324 145.684 471.139 158.523 471.139 175.01ZM447.649 175.593C447.649 152.687 437.534 141.234 417.302 141.234H405.266V210.682H414.968C436.756 210.682 447.649 198.986 447.649 175.593Z" fill="#2F2F2F"/>
<path d="M555.578 229.357L547.846 203.971H508.964L501.231 229.357H476.867L514.508 122.268H542.156L579.943 229.357H555.578ZM542.448 185.004C535.299 162.001 531.262 148.991 530.338 145.976C529.463 142.961 528.83 140.578 528.441 138.827C526.837 145.052 522.241 160.444 514.654 185.004H542.448Z" fill="#2F2F2F"/>
<path d="M615.944 172.894H623.384C630.339 172.894 635.543 171.532 638.995 168.809C642.448 166.037 644.175 162.025 644.175 156.772C644.175 151.472 642.716 147.557 639.798 145.028C636.929 142.499 632.406 141.234 626.229 141.234H615.944V172.894ZM667.008 155.97C667.008 167.447 663.409 176.225 656.211 182.305C649.062 188.384 638.874 191.423 625.646 191.423H615.944V229.357H593.329V122.705H627.397C640.333 122.705 650.157 125.502 656.868 131.094C663.628 136.639 667.008 144.93 667.008 155.97Z" fill="#2F2F2F"/>
<path d="M728.429 229.357H705.815V141.526H676.855V122.705H757.39V141.526H728.429V229.357Z" fill="#2F2F2F"/>
<path d="M310.059 21.1498C302.605 21.1498 296.833 23.9613 292.743 29.5842C288.654 35.1645 286.609 42.9599 286.609 52.9705C286.609 73.8008 294.426 84.216 310.059 84.216C316.619 84.216 324.564 82.576 333.893 79.2959V95.9091C326.225 99.1039 317.663 100.701 308.206 100.701C294.618 100.701 284.224 96.5907 277.025 88.3693C269.826 80.1053 266.226 68.2631 266.226 52.8426C266.226 43.1303 267.994 34.632 271.53 27.3478C275.065 20.021 280.134 14.4194 286.737 10.543C293.382 6.62395 301.156 4.66443 310.059 4.66443C319.133 4.66443 328.249 6.85822 337.407 11.2458L331.018 27.3478C327.525 25.6865 324.01 24.2382 320.475 23.0028C316.939 21.7675 313.467 21.1498 310.059 21.1498Z" fill="#2F2F2F"/>
<path d="M371.655 99.4234H352.166V0H371.655V99.4234Z" fill="#2F2F2F"/>
<path d="M391.208 9.52065C391.208 3.17356 394.744 0 401.815 0C408.886 0 412.422 3.17356 412.422 9.52065C412.422 12.5451 411.527 14.9092 409.738 16.6131C407.992 18.2745 405.35 19.1051 401.815 19.1051C394.744 19.1051 391.208 15.9103 391.208 9.52065ZM411.527 99.4234H392.039V27.9868H411.527V99.4234Z" fill="#2F2F2F"/>
<path d="M495.872 99.4236H476.384V57.699C476.384 52.5446 475.511 48.6895 473.764 46.1337C472.06 43.5352 469.355 42.236 465.649 42.236C460.665 42.236 457.044 44.0677 454.787 47.7311C452.529 51.3945 451.4 57.4221 451.4 65.8139V99.4236H431.912V27.987H446.8L449.419 37.1242H450.506C452.423 33.8442 455.191 31.2883 458.812 29.4566C462.433 27.5823 466.586 26.6451 471.272 26.6451C481.964 26.6451 489.206 30.1382 492.997 37.1242H494.722C496.639 33.8016 499.451 31.2244 503.157 29.3927C506.905 27.561 511.122 26.6451 515.808 26.6451C523.902 26.6451 530.014 28.7324 534.146 32.907C538.321 37.039 540.408 43.6843 540.408 52.8428V99.4236H520.856V57.699C520.856 52.5446 519.983 48.6895 518.236 46.1337C516.532 43.5352 513.827 42.236 510.121 42.236C505.35 42.236 501.772 43.9399 499.387 47.3477C497.044 50.7556 495.872 56.1655 495.872 63.5775V99.4236Z" fill="#2F2F2F"/>
<path d="M605.838 99.4236L602.068 89.7112H601.557C598.277 93.8432 594.891 96.7186 591.398 98.3373C587.947 99.9134 583.432 100.701 577.852 100.701C570.993 100.701 565.583 98.742 561.622 94.823C557.703 90.904 555.743 85.3237 555.743 78.082C555.743 70.4996 558.384 64.9193 563.666 61.341C568.991 57.7202 577 55.7181 587.692 55.3347L600.088 54.9513V51.8204C600.088 44.5788 596.382 40.958 588.97 40.958C583.262 40.958 576.552 42.6832 568.842 46.1336L562.389 32.9708C570.61 28.6685 579.726 26.5173 589.736 26.5173C599.321 26.5173 606.669 28.6046 611.781 32.7792C616.892 36.9538 619.448 43.3008 619.448 51.8204V99.4236H605.838ZM600.088 66.325L592.548 66.5805C586.882 66.7508 582.665 67.7732 579.896 69.6476C577.127 71.5219 575.743 74.3759 575.743 78.2097C575.743 83.7049 578.895 86.4524 585.2 86.4524C589.715 86.4524 593.315 85.1532 595.998 82.5547C598.724 79.9563 600.088 76.5058 600.088 72.2034V66.325Z" fill="#2F2F2F"/>
<path d="M669.542 85.1745C672.95 85.1745 677.04 84.429 681.811 82.938V97.4426C676.954 99.6151 670.991 100.701 663.919 100.701C656.124 100.701 650.437 98.7419 646.859 94.8228C643.323 90.8613 641.556 84.9401 641.556 77.0595V42.6192H632.227V34.3765L642.961 27.859L648.584 12.7794H661.044V27.9868H681.044V42.6192H661.044V77.0595C661.044 79.8284 661.811 81.8731 663.344 83.1936C664.92 84.5142 666.986 85.1745 669.542 85.1745Z" fill="#2F2F2F"/>
<path d="M725.773 40.5107C721.641 40.5107 718.404 41.8313 716.061 44.4723C713.718 47.0708 712.376 50.7768 712.035 55.5904H739.383C739.298 50.7768 738.041 47.0708 735.613 44.4723C733.185 41.8313 729.905 40.5107 725.773 40.5107ZM728.521 100.702C717.019 100.702 708.031 97.528 701.556 91.1809C695.081 84.8338 691.844 75.8457 691.844 64.2165C691.844 52.2465 694.826 43.0027 700.789 36.4852C706.796 29.9252 715.081 26.6451 725.645 26.6451C735.741 26.6451 743.6 29.5205 749.223 35.2712C754.846 41.0219 757.658 48.9664 757.658 59.1047V68.5614H711.588C711.801 74.0992 713.441 78.4228 716.508 81.5325C719.575 84.6421 723.877 86.197 729.415 86.197C733.718 86.197 737.786 85.7497 741.619 84.8551C745.453 83.9606 749.457 82.5335 753.632 80.5741V95.6537C750.224 97.3576 746.582 98.6142 742.706 99.4236C738.829 100.276 734.101 100.702 728.521 100.702Z" fill="#2F2F2F"/>
<path d="M69.4726 48.1777C83.1608 47.8165 90.2274 42.0045 91.644 31.2476C93.0609 20.4904 85.3428 11.3015 74.5144 9.89466C55.5841 7.4352 40.085 25.9155 30.582 45.8578C47.6926 41.2494 56.3617 48.5238 69.4726 48.1777Z" fill="#005C96"/>
<path d="M37.9484 88.7837C48.504 80.0685 50.4416 71.1399 44.8421 61.797C39.2426 52.4541 27.4271 49.9721 18.0203 55.5336C1.57497 65.256 0.904238 89.3538 5.86901 110.909C16.4688 96.7425 27.8379 97.1313 37.9484 88.7837Z" fill="#005C96"/>
<path d="M119.511 35.6968C130.502 43.8633 139.696 43.656 147.54 36.0721C155.385 28.4882 155.064 16.4978 147.428 8.70652C134.079 -4.91433 110.327 0.0485713 90.3765 9.86295C106.716 16.8027 108.983 27.8747 119.511 35.6968Z" fill="#005C96"/>
<path d="M113.215 229.357C177.164 229.357 229.005 177.868 229.005 114.354C229.005 84.82 217.796 57.8863 199.372 37.5204C214.144 126.22 123.171 108.322 66.9184 125.627C21.9165 139.471 21.9358 175.409 27.3786 191.692C141.357 236.072 191.902 167.62 203.12 127.802C199.854 203.666 115.538 222.556 73.7882 222.518C86.0942 226.943 99.3708 229.357 113.215 229.357Z" fill="#8A9C3A"/>
<path d="M189.966 29.5017C181.505 24.0505 170.635 20.402 159.775 18.2733C165.131 27.7403 165.303 35.2262 165.47 42.5132C165.575 47.0698 165.677 51.5488 167.045 56.3856C170.757 69.511 178.176 74.907 189.048 73.6357C189.475 73.5859 189.896 73.523 190.31 73.4475C193.186 65.0958 194.039 53.9601 191.516 38.8113L189.966 29.5017Z" fill="#005C96"/>
<path d="M39.0002 130.823C38.5541 122.931 34.4312 117.674 26.9254 114.724C16.7459 110.724 5.86435 115.927 1.83657 126.037C-3.89378 140.421 4.50288 156.005 17.0922 168.884C17.653 164.324 18.7709 159.604 20.6239 154.904C24.0737 146.155 29.9512 137.791 39.0002 130.823Z" fill="#005C96"/>
</svg>
