<svg width="72" height="33" viewBox="0 0 72 33" fill="none" xmlns="http://www.w3.org/2000/svg">
<path d="M15.5296 30.9687C23.2542 30.9687 29.5163 24.5924 29.5163 16.7269C29.5163 11.0195 26.2192 6.09627 21.4587 3.82422L20.3797 6.04547C24.338 7.91214 27.0838 11.993 27.0838 16.7269C27.0838 23.2245 21.9108 28.4919 15.5296 28.4919C9.14841 28.4919 3.97543 23.2245 3.97543 16.7269C3.97543 12.9057 5.76452 9.50993 8.53629 7.36082L7.016 5.4264C3.68806 8.02985 1.54297 12.1233 1.54297 16.7269C1.54297 24.5924 7.805 30.9687 15.5296 30.9687Z" fill="#005C96"/>
<ellipse cx="21.3172" cy="4.8304" rx="3.2469" ry="3.29915" fill="#005C96"/>
<ellipse cx="28.1805" cy="12.9007" rx="3.2469" ry="3.29915" fill="#005C96"/>
<ellipse cx="3.2469" cy="12.9007" rx="3.2469" ry="3.29915" fill="#005C96"/>
<ellipse cx="4.50471" cy="23.7406" rx="3.2469" ry="3.29915" fill="#005C96"/>
<ellipse cx="26.0516" cy="23.7406" rx="3.2469" ry="3.29915" fill="#005C96"/>
<ellipse cx="15.4305" cy="29.2913" rx="3.2469" ry="3.29915" fill="#005C96"/>
<path d="M11.8855 3.27109L9.24436 9.94439L4.88925 4.27869L11.8855 3.27109Z" fill="#005C96"/>
<path d="M55.5296 30.9687C63.2542 30.9687 69.5163 24.5924 69.5163 16.7269C69.5163 11.0195 66.2192 6.09627 61.4587 3.82422L60.3797 6.04547C64.338 7.91214 67.0838 11.993 67.0838 16.7269C67.0838 23.2245 61.9108 28.4919 55.5296 28.4919C49.1484 28.4919 43.9754 23.2245 43.9754 16.7269C43.9754 12.9057 45.7645 9.50993 48.5363 7.36082L47.016 5.4264C43.6881 8.02985 41.543 12.1233 41.543 16.7269C41.543 24.5924 47.805 30.9687 55.5296 30.9687Z" fill="#6B7427"/>
<ellipse cx="61.3172" cy="4.8304" rx="3.2469" ry="3.29915" fill="#6B7427"/>
<ellipse cx="68.1805" cy="12.9007" rx="3.2469" ry="3.29915" fill="#6B7427"/>
<ellipse cx="43.2469" cy="12.9007" rx="3.2469" ry="3.29915" fill="#6B7427"/>
<ellipse cx="44.5047" cy="23.7406" rx="3.2469" ry="3.29915" fill="#6B7427"/>
<ellipse cx="66.0516" cy="23.7406" rx="3.2469" ry="3.29915" fill="#6B7427"/>
<ellipse cx="55.4305" cy="29.2913" rx="3.2469" ry="3.29915" fill="#6B7427"/>
<path d="M51.8855 3.27109L49.2444 9.94439L44.8893 4.27869L51.8855 3.27109Z" fill="#6B7427"/>
</svg>
