<svg width="62" height="28" viewBox="0 0 62 28" fill="none" xmlns="http://www.w3.org/2000/svg">
<path d="M13.3408 26.6064C19.9774 26.6064 25.3575 21.1282 25.3575 14.3705C25.3575 9.46699 22.5248 5.23719 18.4349 3.28516L17.5078 5.19354C20.9086 6.79729 23.2676 10.3034 23.2676 14.3705C23.2676 19.9529 18.8233 24.4784 13.3408 24.4784C7.85844 24.4784 3.41407 19.9529 3.41407 14.3705C3.41407 11.0875 4.95116 8.17004 7.33253 6.32363L6.02638 4.66167C3.16718 6.89843 1.32422 10.4153 1.32422 14.3705C1.32422 21.1282 6.70425 26.6064 13.3408 26.6064Z" fill="#005C96"/>
<ellipse cx="18.313" cy="4.15087" rx="2.78957" ry="2.83446" fill="#005C96"/>
<ellipse cx="24.2115" cy="11.0845" rx="2.78957" ry="2.83446" fill="#005C96"/>
<ellipse cx="2.78957" cy="11.0845" rx="2.78957" ry="2.83446" fill="#005C96"/>
<ellipse cx="3.87161" cy="20.397" rx="2.78957" ry="2.83446" fill="#005C96"/>
<ellipse cx="22.3833" cy="20.397" rx="2.78957" ry="2.83446" fill="#005C96"/>
<ellipse cx="13.2583" cy="25.1665" rx="2.78957" ry="2.83446" fill="#005C96"/>
<path d="M10.211 2.81036L7.94189 8.54373L4.20021 3.67604L10.211 2.81036Z" fill="#005C96"/>
<path d="M47.3408 26.6064C53.9774 26.6064 59.3575 21.1282 59.3575 14.3705C59.3575 9.46699 56.5248 5.23719 52.4349 3.28516L51.5078 5.19354C54.9086 6.79729 57.2676 10.3034 57.2676 14.3705C57.2676 19.9529 52.8233 24.4784 47.3408 24.4784C41.8584 24.4784 37.4141 19.9529 37.4141 14.3705C37.4141 11.0875 38.9512 8.17004 41.3325 6.32363L40.0264 4.66167C37.1672 6.89843 35.3242 10.4153 35.3242 14.3705C35.3242 21.1282 40.7042 26.6064 47.3408 26.6064Z" fill="#6B7427"/>
<ellipse cx="52.313" cy="4.15087" rx="2.78957" ry="2.83446" fill="#6B7427"/>
<ellipse cx="58.2114" cy="11.0845" rx="2.78957" ry="2.83446" fill="#6B7427"/>
<ellipse cx="36.7896" cy="11.0845" rx="2.78957" ry="2.83446" fill="#6B7427"/>
<ellipse cx="37.8716" cy="20.397" rx="2.78957" ry="2.83446" fill="#6B7427"/>
<ellipse cx="56.3833" cy="20.397" rx="2.78957" ry="2.83446" fill="#6B7427"/>
<ellipse cx="47.2583" cy="25.1665" rx="2.78957" ry="2.83446" fill="#6B7427"/>
<path d="M44.211 2.81036L41.9419 8.54373L38.2002 3.67604L44.211 2.81036Z" fill="#6B7427"/>
</svg>
