<svg width="57" height="27" viewBox="0 0 57 27" fill="none" xmlns="http://www.w3.org/2000/svg">
<path fill-rule="evenodd" clip-rule="evenodd" d="M24.412 23.2586H17.647C17.2039 23.8336 16.6803 24.3603 16.0796 24.821C15.8642 24.9862 15.6433 25.1396 15.4178 25.2811H24.412C25.529 25.2811 26.4345 24.3756 26.4345 23.2586V6.66165C26.4345 6.09015 26.1927 5.54533 25.7689 5.1619L20.6414 0.522741C20.2695 0.186298 19.786 0 19.2845 0H6.61409C5.4971 0 4.5916 0.905498 4.5916 2.02249V12.9343C5.00162 12.4327 5.47521 11.9706 6.01024 11.5603C6.20712 11.4093 6.40861 11.2682 6.61409 11.137V2.02249L19.2845 2.02249L24.412 6.66165L24.412 23.2586ZM8.23056 6.84197C8.23056 6.63719 8.4185 6.47119 8.65035 6.47119L19.3389 6.47118C19.5708 6.47118 19.7587 6.63719 19.7587 6.84197V8.32513C19.7587 8.52991 19.5708 8.69592 19.3389 8.69592L8.65035 8.69592C8.4185 8.69592 8.23056 8.52991 8.23056 8.32513V6.84197ZM7.28063 13.2055C4.95595 14.9884 4.16379 18.0324 5.15314 20.6005L0.541653 24.1371C-0.0634794 24.6012 -0.179043 25.4721 0.283534 26.0823C0.746109 26.6924 1.61166 26.8109 2.21679 26.3468L6.70519 22.9045C8.90813 24.9706 12.3715 25.1765 14.891 23.2442C17.6985 21.0911 18.2708 17.0984 16.1692 14.3263C14.0677 11.5542 10.0881 11.0524 7.28063 13.2055ZM8.39386 14.6995C6.42739 16.2076 6.02653 19.0042 7.49852 20.9459C8.97052 22.8876 11.7579 23.2391 13.7244 21.731C15.6909 20.2228 16.0917 17.4262 14.6198 15.4845C13.1478 13.5428 10.3603 13.1914 8.39386 14.6995ZM22.3708 18.8135H19.3806C19.446 18.074 19.4141 17.3255 19.2812 16.5888H22.3708C22.6026 16.5888 22.7906 16.7548 22.7906 16.9596V18.4427C22.7906 18.6475 22.6026 18.8135 22.3708 18.8135ZM18.199 13.7559H22.3715C22.6034 13.7559 22.7913 13.5899 22.7913 13.3852V11.902C22.7913 11.6972 22.6034 11.5312 22.3715 11.5312H16.2102C16.7692 11.9644 17.2817 12.4781 17.7311 13.0709C17.9002 13.2939 18.0561 13.5225 18.199 13.7559ZM12.4757 16.6883C12.4757 17.4143 11.8872 18.0029 11.1611 18.0029C10.4351 18.0029 9.8465 17.4143 9.8465 16.6883C9.8465 15.9622 10.4351 15.3736 11.1611 15.3736C11.8872 15.3736 12.4757 15.9622 12.4757 16.6883ZM9.95999 17.9118C9.01318 18.4667 8.63626 19.596 8.63626 20.0221H13.6925C13.6925 19.5962 13.3159 18.4677 12.37 17.9126C12.0598 18.2173 11.6345 18.4052 11.1654 18.4052C10.6958 18.4052 10.2703 18.217 9.95999 17.9118Z" fill="#005C96"/>
<path fill-rule="evenodd" clip-rule="evenodd" d="M54.3253 23.2586H47.5642C47.1211 23.8336 46.5975 24.3603 45.9967 24.821C45.7814 24.9862 45.5605 25.1396 45.335 25.2811H54.3253C55.4423 25.2811 56.3478 24.3756 56.3478 23.2586V6.66165C56.3478 6.09015 56.106 5.54533 55.6822 5.1619L50.5547 0.522741C50.1828 0.186298 49.6993 0 49.1978 0H36.5274C35.4104 0 34.5049 0.905498 34.5049 2.02249V12.939C34.9158 12.4356 35.3907 11.9719 35.9274 11.5603C36.1231 11.4103 36.3233 11.27 36.5274 11.1395V2.02249L49.1978 2.02249L54.3253 6.66165L54.3253 23.2586ZM38.1455 6.84197C38.1455 6.63719 38.3334 6.47119 38.5653 6.47119L49.2539 6.47118C49.4857 6.47118 49.6737 6.63719 49.6737 6.84197V8.32513C49.6737 8.52991 49.4857 8.69592 49.2539 8.69592L38.5653 8.69592C38.3334 8.69592 38.1455 8.52991 38.1455 8.32513V6.84197ZM37.1947 13.2063C34.87 14.9891 34.0779 18.0332 35.0672 20.6013L30.4557 24.1379C29.8506 24.602 29.735 25.4728 30.1976 26.083C30.6602 26.6932 31.5257 26.8116 32.1309 26.3475L36.6193 22.9053C38.8222 24.9713 42.2856 25.1772 44.805 23.245C47.6125 21.0919 48.1848 17.0992 46.0833 14.3271C43.9817 11.555 40.0022 11.0532 37.1947 13.2063ZM38.3079 14.7002C36.3414 16.2084 35.9406 19.005 37.4126 20.9467C38.8846 22.8884 41.672 23.2399 43.6385 21.7317C45.605 20.2236 46.0058 17.427 44.5338 15.4853C43.0618 13.5436 40.2744 13.1921 38.3079 14.7002ZM52.2844 18.8135H49.2942C49.3596 18.074 49.3277 17.3255 49.1948 16.5888H52.2844C52.5162 16.5888 52.7042 16.7548 52.7042 16.9596V18.4427C52.7042 18.6475 52.5162 18.8135 52.2844 18.8135ZM48.1152 13.7559H52.2846C52.5165 13.7559 52.7044 13.5899 52.7044 13.3852V11.902C52.7044 11.6972 52.5165 11.5312 52.2846 11.5312H46.1264C46.6853 11.9644 47.1979 12.4781 47.6473 13.0709C47.8163 13.2939 47.9722 13.5225 48.1152 13.7559ZM42.3937 16.6883C42.3937 17.4143 41.8052 18.0029 41.0791 18.0029C40.3531 18.0029 39.7645 17.4143 39.7645 16.6883C39.7645 15.9622 40.3531 15.3736 41.0791 15.3736C41.8052 15.3736 42.3937 15.9622 42.3937 16.6883ZM39.8723 17.9118C38.9254 18.4667 38.5485 19.596 38.5485 20.0221H43.6048C43.6048 19.5962 43.2282 18.4677 42.2823 17.9126C41.9721 18.2173 41.5468 18.4052 41.0776 18.4052C40.6081 18.4052 40.1825 18.217 39.8723 17.9118Z" fill="#6B7427"/>
</svg>
