<svg width="74" height="34" viewBox="0 0 74 34" fill="none" xmlns="http://www.w3.org/2000/svg">
<path fill-rule="evenodd" clip-rule="evenodd" d="M30.8348 29.3721H22.2958C21.735 30.101 21.072 30.7686 20.3109 31.3523C20.0425 31.5582 19.7673 31.7494 19.4864 31.9262H30.8348C32.2454 31.9262 33.3889 30.7827 33.3889 29.3721V8.41266C33.3889 7.69094 33.0836 7.00291 32.5484 6.5187L26.0731 0.660142C25.6035 0.235267 24.9928 0 24.3596 0H8.35877C6.94818 0 5.80467 1.14351 5.80467 2.5541V16.3395C6.32214 15.7067 6.91976 15.1237 7.59481 14.606C7.84388 14.415 8.0988 14.2365 8.35877 14.0706V2.5541L24.3596 2.5541L30.8348 8.41266L30.8348 29.3721ZM10.4013 8.6418C10.4013 8.38319 10.6386 8.17355 10.9314 8.17355L24.4295 8.17355C24.7223 8.17355 24.9596 8.38319 24.9596 8.6418V10.5148C24.9596 10.7734 24.7223 10.9831 24.4295 10.9831H10.9314C10.6386 10.9831 10.4013 10.7734 10.4013 10.5148V8.6418ZM9.19433 16.6797C6.25862 18.9312 5.25823 22.7754 6.50764 26.0185L0.684025 30.4847C-0.0801648 31.0708 -0.226105 32.1705 0.35806 32.9411C0.942223 33.7117 2.03528 33.8612 2.79947 33.2752L8.46764 28.9281C11.2496 31.5372 15.6233 31.7972 18.805 29.3571C22.3505 26.638 23.0732 21.5959 20.4193 18.0951C17.7653 14.5944 12.7398 13.9607 9.19433 16.6797ZM10.6002 18.5664C8.11681 20.4709 7.6106 24.0026 9.4695 26.4547C11.3284 28.9067 14.8485 29.3506 17.3319 27.4461C19.8152 25.5415 20.3214 22.0098 18.4625 19.5578C16.6036 17.1057 13.0835 16.6618 10.6002 18.5664ZM28.2558 23.7625H24.4803C24.562 22.8285 24.5208 21.8833 24.352 20.953H28.2558C28.5486 20.953 28.786 21.1627 28.786 21.4213V23.2943C28.786 23.5529 28.5486 23.7625 28.2558 23.7625ZM22.9884 17.365H28.2592C28.552 17.365 28.7894 17.1554 28.7894 16.8968V15.0238C28.7894 14.7652 28.552 14.5555 28.2592 14.5555H20.4769C21.1827 15.1025 21.8299 15.7513 22.3975 16.4999C22.6109 16.7815 22.8078 17.0702 22.9884 17.365ZM15.7609 21.0749C15.7609 21.9917 15.0177 22.735 14.1008 22.735C13.1839 22.735 12.4406 21.9917 12.4406 21.0749C12.4406 20.158 13.1839 19.4147 14.1008 19.4147C15.0177 19.4147 15.7609 20.158 15.7609 21.0749ZM12.5856 22.6229C11.3888 23.3233 10.9123 24.7504 10.9123 25.2887H17.2976C17.2976 24.7504 16.8212 23.3233 15.6244 22.6229C15.2328 23.0066 14.6966 23.2432 14.105 23.2432C13.5135 23.2432 12.9772 23.0066 12.5856 22.6229Z" fill="#005C96"/>
<path fill-rule="evenodd" clip-rule="evenodd" d="M70.8296 29.3721H62.2996C61.7389 30.101 61.0758 30.7686 60.3147 31.3523C60.0463 31.5582 59.7712 31.7494 59.4903 31.9262H70.8296C72.2402 31.9262 73.3837 30.7827 73.3837 29.3721V8.41266C73.3837 7.69094 73.0784 7.00291 72.5432 6.5187L66.068 0.660142C65.5984 0.235267 64.9877 0 64.3544 0H48.3536C46.943 0 45.7995 1.14351 45.7995 2.5541V16.3505C46.319 15.7135 46.9197 15.1267 47.5987 14.606C47.8448 14.4172 48.0968 14.2407 48.3536 14.0763V2.5541L64.3544 2.5541L70.8296 8.41266L70.8296 29.3721ZM50.3971 8.6418C50.3971 8.38319 50.6345 8.17355 50.9273 8.17355L64.4253 8.17355C64.7181 8.17355 64.9555 8.38319 64.9555 8.6418V10.5148C64.9555 10.7734 64.7181 10.9831 64.4253 10.9831H50.9273C50.6345 10.9831 50.3971 10.7734 50.3971 10.5148V8.6418ZM49.1943 16.6797C46.2586 18.9312 45.2582 22.7754 46.5076 26.0185L40.684 30.4847C39.9198 31.0708 39.7739 32.1705 40.3581 32.9411C40.9422 33.7117 42.0353 33.8612 42.7995 33.2752L48.4676 28.9281C51.2496 31.5372 55.6233 31.7972 58.805 29.3571C62.3505 26.638 63.0732 21.5959 60.4193 18.0951C57.7653 14.5944 52.7398 13.9607 49.1943 16.6797ZM50.6002 18.5664C48.1168 20.4709 47.6106 24.0026 49.4695 26.4547C51.3284 28.9067 54.8485 29.3506 57.3319 27.4461C59.8152 25.5415 60.3214 22.0098 58.4625 19.5578C56.6036 17.1057 53.0835 16.6618 50.6002 18.5664ZM68.2555 23.7624H64.4799C64.5616 22.8284 64.5204 21.8832 64.3516 20.9529H68.2555C68.5483 20.9529 68.7856 21.1626 68.7856 21.4212V23.2942C68.7856 23.5528 68.5483 23.7624 68.2555 23.7624ZM62.983 17.365H68.2464C68.5391 17.365 68.7765 17.1554 68.7765 16.8968V15.0238C68.7765 14.7652 68.5391 14.5555 68.2464 14.5555H60.4707C61.1771 15.1027 61.8247 15.7518 62.3927 16.501C62.6059 16.7822 62.8026 17.0706 62.983 17.365ZM55.7603 21.0749C55.7603 21.9917 55.017 22.735 54.1001 22.735C53.1833 22.735 52.44 21.9917 52.44 21.0749C52.44 20.158 53.1833 19.4147 54.1001 19.4147C55.017 19.4147 55.7603 20.158 55.7603 21.0749ZM52.576 22.6229C51.3792 23.3233 50.9027 24.7504 50.9027 25.2887H57.288C57.288 24.7504 56.8116 23.3233 55.6148 22.6229C55.2232 23.0066 54.6869 23.2432 54.0954 23.2432C53.5039 23.2432 52.9676 23.0066 52.576 22.6229Z" fill="#6B7427"/>
</svg>
