<svg width="68" height="33" viewBox="0 0 68 33" fill="none" xmlns="http://www.w3.org/2000/svg">
<path d="M5.35688 4.60937C5.08643 4.60937 4.86719 4.81963 4.86719 5.07898L4.86719 6.95742C4.86719 7.21678 5.08643 7.42703 5.35688 7.42703L22.308 7.42703C22.5785 7.42703 22.7977 7.21678 22.7977 6.95742L22.7977 5.07898C22.7977 4.81963 22.5785 4.60937 22.308 4.60937L5.35688 4.60937Z" fill="#005C96"/>
<path d="M12.3116 9.74219C12.0208 9.74219 11.7852 9.95244 11.7852 10.2118L11.7852 12.0902C11.7852 12.3496 12.0208 12.5598 12.3116 12.5598L22.2732 12.5598C22.5639 12.5598 22.7996 12.3496 22.7996 12.0902L22.7996 10.2118C22.7996 9.95244 22.5639 9.74219 22.2732 9.74219L12.3116 9.74219Z" fill="#005C96"/>
<path fill-rule="evenodd" clip-rule="evenodd" d="M9.18597 12.2131C9.65288 13.0397 9.5728 13.0746 9.5728 13.0746C9.19295 13.4167 8.94368 13.6873 8.79051 13.868C8.84348 14.1247 8.87182 14.3899 8.87182 14.6622C8.87182 14.9628 8.83445 15.254 8.77039 15.5357C8.91945 15.7196 9.16379 15.9968 9.53913 16.3492C9.53913 16.3492 9.61797 16.3849 9.13463 17.2017C8.64965 18.0181 8.58108 17.9647 8.58108 17.9647C8.07269 17.7844 7.70515 17.6953 7.47724 17.6505C7.10026 17.9671 6.6621 18.2127 6.18328 18.3692C6.10361 18.5889 5.98739 18.9617 5.8757 19.503C5.8757 19.503 5.88514 19.5904 4.94721 19.5904C4.00805 19.5904 4.01832 19.503 4.01832 19.503C3.90292 18.9416 3.7826 18.5655 3.70294 18.3486C3.2196 18.1823 2.7802 17.9248 2.40404 17.5951C2.17531 17.6349 1.80531 17.7162 1.29158 17.8858C1.29158 17.8858 1.22218 17.9372 0.755683 17.1109C0.288772 16.2847 0.368438 16.2498 0.368438 16.2498C0.747881 15.9081 0.997558 15.6375 1.15073 15.4564C1.09776 15.1997 1.06942 14.9345 1.06942 14.6622C1.06942 14.3616 1.10679 14.07 1.17126 13.7892C1.0222 13.6048 0.777448 13.328 0.402522 12.9757C0.402522 12.9757 0.323677 12.9395 0.807836 12.1236C1.29117 11.3068 1.36016 11.3606 1.36016 11.3606C1.86896 11.5404 2.2365 11.6295 2.464 11.6743C2.84139 11.3577 3.27955 11.1121 3.75837 10.9557C3.83763 10.7355 3.95425 10.3631 4.06595 9.82143C4.06595 9.82143 4.05569 9.73438 4.99526 9.73438C5.93319 9.73438 5.92374 9.82143 5.92374 9.82143C6.03955 10.3824 6.16028 10.7594 6.23954 10.9758C6.72246 11.1421 7.16145 11.3996 7.53761 11.7289C7.76634 11.6891 8.13634 11.6082 8.64965 11.4386C8.64965 11.4386 8.71947 11.3864 9.18597 12.2131ZM2.59569 16.932C3.19385 17.5577 4.03675 17.9474 4.97062 17.9474C6.78488 17.9474 8.25584 16.4765 8.25584 14.6622C8.25584 13.9374 8.02107 13.2674 7.62343 12.7241C8.02073 13.2672 8.25527 13.937 8.25527 14.6615C8.25527 16.4759 6.78443 17.9467 4.97005 17.9467C4.03644 17.9467 3.19379 17.5573 2.59569 16.932ZM3.09278 14.6615C3.09278 15.6982 3.93333 16.5388 4.97005 16.5388C6.00677 16.5388 6.84732 15.6982 6.84732 14.6615C6.84732 13.6248 6.00677 12.7843 4.97005 12.7843C3.93333 12.7843 3.09278 13.6248 3.09278 14.6615Z" fill="#005C96"/>
<path fill-rule="evenodd" clip-rule="evenodd" d="M26.176 18.3414C26.176 18.3414 26.2467 18.2706 25.4027 17.5856C24.5591 16.9004 24.5066 16.9853 24.5066 16.9853C24.0308 17.3812 23.6705 17.6225 23.4435 17.7608C22.9046 17.5676 22.329 17.4773 21.7447 17.5026C21.5696 17.3052 21.2829 16.9542 20.9243 16.405C20.9243 16.405 20.8979 16.3083 19.8986 16.7015C18.8975 17.0954 18.945 17.1839 18.945 17.1839C19.053 17.8078 19.0849 18.2535 19.0928 18.5213C18.6482 18.8887 18.2843 19.334 18.0149 19.8296C17.7538 19.8773 17.3248 19.9364 16.7073 19.958C16.7073 19.958 16.6113 19.9297 16.4387 21.0025C16.2649 22.0749 16.3641 22.0803 16.3641 22.0803C16.5982 22.1737 16.8011 22.2623 16.9751 22.3436C17.025 22.1605 17.0783 21.9426 17.1309 21.6882C17.1331 21.6766 17.1356 21.6651 17.1384 21.6536C17.1586 21.5699 17.1927 21.4965 17.2332 21.4345C17.3112 21.3149 17.4082 21.2447 17.4725 21.2065C17.5934 21.1345 17.7209 21.104 17.8115 21.0869C18.0094 21.0494 18.3288 21.0249 18.8759 21.0249C19.4221 21.0249 19.7413 21.0494 19.9392 21.0869C19.9478 21.0885 19.9568 21.0903 19.966 21.0922C20.1864 20.5912 20.597 20.1738 21.1464 19.9576C22.251 19.523 23.4989 20.0662 23.9335 21.1707C24.2179 21.8935 24.0837 22.6775 23.6475 23.255C23.6661 23.2752 23.6828 23.2945 23.6977 23.3122C23.8272 23.4666 24.0061 23.7343 24.2775 24.2151C24.3793 24.3954 24.4622 24.5491 24.5295 24.6809C25.6032 23.6567 26.0104 22.0465 25.4336 20.5805C25.2238 20.0473 24.9058 19.5889 24.5146 19.2205C24.908 19.5897 25.2278 20.0497 25.4384 20.585C26.0155 22.0516 25.6075 23.6628 24.5326 24.687C24.6432 24.904 24.7112 25.0612 24.7517 25.1797C24.7708 25.2356 24.7924 25.3063 24.805 25.3861C25.2402 25.022 25.5969 24.5829 25.8616 24.0953C26.1232 24.0474 26.5522 23.9883 27.1694 23.9672C27.1694 23.9672 27.2649 23.9953 27.4393 22.9222C27.6119 21.8494 27.5129 21.8443 27.5129 21.8443C26.9653 21.6263 26.5888 21.4334 26.3528 21.2999C26.303 20.9729 26.2207 20.647 26.0947 20.3267C25.9806 20.0366 25.8392 19.7659 25.6751 19.5146C25.7626 19.2579 25.9147 18.8651 26.176 18.3414Z" fill="#005C96"/>
<path fill-rule="evenodd" clip-rule="evenodd" d="M23.6875 24.5528C24.2221 25.4993 24.1304 25.5393 24.1304 25.5393C23.6955 25.9309 23.4101 26.2408 23.2347 26.4477C23.2954 26.7415 23.3278 27.0453 23.3278 27.357C23.3278 27.7012 23.285 28.0345 23.2117 28.3571C23.3824 28.5677 23.6621 28.8851 24.0919 29.2885C24.0919 29.2885 24.1821 29.3294 23.6287 30.2646C23.0735 31.1993 22.9949 31.1382 22.9949 31.1382C22.4129 30.9317 21.992 30.8297 21.7311 30.7785C21.2995 31.141 20.7978 31.4221 20.2496 31.6013C20.1584 31.8528 20.0253 32.2798 19.8974 32.8994C19.8974 32.8994 19.9082 32.9996 18.8343 32.9996C17.759 32.9996 17.7708 32.8994 17.7708 32.8994C17.6387 32.2567 17.5009 31.826 17.4097 31.5778C16.8563 31.3874 16.3532 31.0926 15.9225 30.715C15.6606 30.7606 15.237 30.8537 14.6488 31.0479C14.6488 31.0479 14.5693 31.1067 14.0352 30.1607C13.5006 29.2147 13.5918 29.1747 13.5918 29.1747C14.0263 28.7835 14.3122 28.4737 14.4875 28.2663C14.4269 27.9724 14.3944 27.6687 14.3944 27.357C14.3944 27.0128 14.4372 26.679 14.511 26.3574C14.3404 26.1463 14.0601 25.8294 13.6309 25.426C13.6309 25.426 13.5406 25.3846 14.0949 24.4503C14.6483 23.5152 14.7273 23.5767 14.7273 23.5767C15.3099 23.7827 15.7307 23.8847 15.9912 23.936C16.4233 23.5735 16.9249 23.2923 17.4732 23.1132C17.5639 22.8611 17.6974 22.4347 17.8253 21.8145C17.8253 21.8145 17.8136 21.7148 18.8893 21.7148C19.9632 21.7148 19.9524 21.8145 19.9524 21.8145C20.085 22.4568 20.2232 22.8884 20.314 23.1362C20.8669 23.3266 21.3695 23.6214 21.8002 23.9985C22.0621 23.9529 22.4857 23.8603 23.0735 23.6661C23.0735 23.6661 23.1534 23.6064 23.6875 24.5528ZM17.4373 30.8395C17.8765 31.0193 18.3572 31.1184 18.8611 31.1184C20.9384 31.1184 22.6226 29.4342 22.6226 27.357C22.6226 25.7942 21.6693 24.4538 20.3125 23.8858C21.6656 24.4555 22.6155 25.7938 22.6155 27.3541C22.6155 29.4315 20.9315 31.1155 18.8541 31.1155C18.3529 31.1155 17.8746 31.0175 17.4373 30.8395ZM16.7047 27.3541C16.7047 28.5411 17.6671 29.5035 18.8541 29.5035C20.0411 29.5035 21.0035 28.5411 21.0035 27.3541C21.0035 26.1671 20.0411 25.2047 18.8541 25.2047C17.6671 25.2047 16.7047 26.1671 16.7047 27.3541Z" fill="#005C96"/>
<path fill-rule="evenodd" clip-rule="evenodd" d="M13.8125 19.0872C14.1453 19.6765 14.0882 19.7013 14.0882 19.7013C13.8175 19.9452 13.6398 20.1381 13.5306 20.2669C13.5684 20.4498 13.5886 20.6389 13.5886 20.833C13.5886 21.0473 13.5619 21.2548 13.5163 21.4556C13.6225 21.5868 13.7967 21.7844 14.0642 22.0355C14.0642 22.0355 14.1204 22.061 13.7759 22.6432C13.4302 23.2251 13.3813 23.1871 13.3813 23.1871C13.0189 23.0586 12.7569 22.9951 12.5945 22.9632C12.3257 23.1888 12.0134 23.3639 11.6721 23.4754C11.6153 23.632 11.5325 23.8978 11.4528 24.2836C11.4528 24.2836 11.4596 24.346 10.791 24.346C10.1215 24.346 10.1288 24.2836 10.1288 24.2836C10.0466 23.8835 9.96082 23.6153 9.90403 23.4608C9.5595 23.3422 9.24628 23.1587 8.97815 22.9236C8.8151 22.952 8.55136 23.01 8.18516 23.1309C8.18516 23.1309 8.13569 23.1675 7.80315 22.5785C7.47033 21.9896 7.52711 21.9647 7.52711 21.9647C7.79759 21.7211 7.97557 21.5282 8.08475 21.3991C8.04699 21.2162 8.02679 21.0271 8.02679 20.833C8.02679 20.6187 8.05343 20.4109 8.09939 20.2107C7.99313 20.0792 7.81867 19.8819 7.55141 19.6308C7.55141 19.6308 7.49521 19.605 7.84033 19.0234C8.18486 18.4412 8.23404 18.4795 8.23404 18.4795C8.59673 18.6077 8.85872 18.6712 9.02089 18.7031C9.2899 18.4775 9.60224 18.3024 9.94355 18.1909C10 18.034 10.0832 17.7685 10.1628 17.3824C10.1628 17.3824 10.1555 17.3203 10.8252 17.3203C11.4938 17.3203 11.4871 17.3824 11.4871 17.3824C11.5696 17.7822 11.6557 18.051 11.7122 18.2052C12.0564 18.3238 12.3694 18.5073 12.6375 18.7421C12.8005 18.7137 13.0643 18.656 13.4302 18.5351C13.4302 18.5351 13.48 18.4979 13.8125 19.0872ZM11.0794 18.5068C10.9916 18.4968 10.9022 18.4917 10.8117 18.4917C9.51838 18.4917 8.46993 19.5401 8.46993 20.8335C8.46993 22.0339 9.37318 23.0234 10.5371 23.1593C9.37129 23.0252 8.46588 22.0348 8.46588 20.833C8.46588 19.5397 9.51442 18.4912 10.8077 18.4912C10.8996 18.4912 10.9903 18.4965 11.0794 18.5068ZM9.47355 20.8335C9.47355 21.5725 10.0727 22.1716 10.8117 22.1716C11.5507 22.1716 12.1499 21.5725 12.1499 20.8335C12.1499 20.0945 11.5507 19.4953 10.8117 19.4953C10.0727 19.4953 9.47355 20.0945 9.47355 20.8335Z" fill="#005C96"/>
<path d="M2.0492 23.0614C2.0492 23.4751 1.96243 23.7915 1.78889 24.0107C1.61534 24.2298 1.36128 24.3394 1.02668 24.3394C0.696257 24.3394 0.443577 24.2319 0.268645 24.0168C0.0937135 23.8018 0.00416504 23.4936 0 23.0922V22.5416C0 22.1238 0.0874659 21.8067 0.262398 21.5903C0.438718 21.3738 0.692092 21.2656 1.02252 21.2656C1.35295 21.2656 1.60562 21.3732 1.78056 21.5882C1.95549 21.8019 2.04504 22.1094 2.0492 22.5108V23.0614ZM1.44735 22.4573C1.44735 22.2094 1.41264 22.0293 1.34323 21.917C1.2752 21.8033 1.16829 21.7464 1.02252 21.7464C0.880907 21.7464 0.776087 21.8005 0.708058 21.9087C0.641417 22.0156 0.606014 22.1834 0.601849 22.4121V23.1395C0.601849 23.3833 0.635169 23.5648 0.70181 23.684C0.769839 23.8018 0.87813 23.8607 1.02668 23.8607C1.17385 23.8607 1.28006 23.8038 1.34531 23.6901C1.41056 23.5765 1.44458 23.4025 1.44735 23.1683V22.4573Z" fill="#005C96"/>
<path d="M4.10888 24.3372H3.52506V22.1843L2.82812 22.3911V21.937L4.04625 21.5195H4.10888V24.3372Z" fill="#005C96"/>
<path d="M2.0492 27.4169C2.0492 27.8306 1.96243 28.147 1.78889 28.3661C1.61534 28.5853 1.36128 28.6949 1.02668 28.6949C0.696257 28.6949 0.443577 28.5874 0.268645 28.3723C0.0937135 28.1573 0.00416504 27.8491 0 27.4477V26.8971C0 26.4793 0.0874659 26.1622 0.262398 25.9457C0.438718 25.7293 0.692092 25.6211 1.02252 25.6211C1.35295 25.6211 1.60562 25.7286 1.78056 25.9437C1.95549 26.1574 2.04504 26.4649 2.0492 26.8662V27.4169ZM1.44735 26.8128C1.44735 26.5649 1.41264 26.3848 1.34323 26.2724C1.2752 26.1587 1.16829 26.1019 1.02252 26.1019C0.880907 26.1019 0.776087 26.156 0.708058 26.2642C0.641417 26.3711 0.606014 26.5389 0.601849 26.7676V27.495C0.601849 27.7388 0.635169 27.9203 0.70181 28.0395C0.769839 28.1573 0.87813 28.2162 1.02668 28.2162C1.17385 28.2162 1.28006 28.1593 1.34531 28.0456C1.41056 27.9319 1.44458 27.758 1.44735 27.5237V26.8128Z" fill="#005C96"/>
<path d="M2.0492 31.5106C2.0492 31.9243 1.96243 32.2407 1.78889 32.4599C1.61534 32.6791 1.36128 32.7886 1.02668 32.7886C0.696257 32.7886 0.443577 32.6811 0.268645 32.4661C0.0937135 32.251 0.00416504 31.9428 0 31.5415V30.9908C0 30.573 0.0874659 30.2559 0.262398 30.0395C0.438718 29.8231 0.692092 29.7148 1.02252 29.7148C1.35295 29.7148 1.60562 29.8224 1.78056 30.0374C1.95549 30.2511 2.04504 30.5586 2.0492 30.96V31.5106ZM1.44735 30.9066C1.44735 30.6586 1.41264 30.4785 1.34323 30.3662C1.2752 30.2525 1.16829 30.1956 1.02252 30.1956C0.880907 30.1956 0.776087 30.2497 0.708058 30.358C0.641417 30.4648 0.606014 30.6326 0.601849 30.8614V31.5887C0.601849 31.8325 0.635169 32.014 0.70181 32.1332C0.769839 32.251 0.87813 32.3099 1.02668 32.3099C1.17385 32.3099 1.28006 32.2531 1.34531 32.1394C1.41056 32.0257 1.44458 31.8517 1.44735 31.6175V30.9066Z" fill="#005C96"/>
<path d="M10.2445 27.4169C10.2445 27.8306 10.1577 28.147 9.9842 28.3661C9.81066 28.5853 9.55659 28.6949 9.222 28.6949C8.89157 28.6949 8.63889 28.5874 8.46396 28.3723C8.28903 28.1573 8.19948 27.8491 8.19531 27.4477V26.8971C8.19531 26.4793 8.28278 26.1622 8.45771 25.9457C8.63403 25.7293 8.8874 25.6211 9.21783 25.6211C9.54826 25.6211 9.80094 25.7286 9.97587 25.9437C10.1508 26.1574 10.2403 26.4649 10.2445 26.8662V27.4169ZM9.64267 26.8128C9.64267 26.5649 9.60796 26.3848 9.53854 26.2724C9.47051 26.1587 9.36361 26.1019 9.21783 26.1019C9.07622 26.1019 8.9714 26.156 8.90337 26.2642C8.83673 26.3711 8.80133 26.5389 8.79716 26.7676V27.495C8.79716 27.7388 8.83048 27.9203 8.89712 28.0395C8.96515 28.1573 9.07344 28.2162 9.222 28.2162C9.36916 28.2162 9.47537 28.1593 9.54062 28.0456C9.60587 27.9319 9.63989 27.758 9.64267 27.5237V26.8128Z" fill="#005C96"/>
<path d="M7.4242 31.5106C7.4242 31.9243 7.33743 32.2407 7.16389 32.4599C6.99034 32.6791 6.73628 32.7886 6.40168 32.7886C6.07126 32.7886 5.81858 32.6811 5.64365 32.4661C5.46871 32.251 5.37917 31.9428 5.375 31.5415V30.9908C5.375 30.573 5.46247 30.2559 5.6374 30.0395C5.81372 29.8231 6.06709 29.7148 6.39752 29.7148C6.72795 29.7148 6.98062 29.8224 7.15556 30.0374C7.33049 30.2511 7.42004 30.5586 7.4242 30.96V31.5106ZM6.82235 30.9066C6.82235 30.6586 6.78764 30.4785 6.71823 30.3662C6.6502 30.2525 6.54329 30.1956 6.39752 30.1956C6.25591 30.1956 6.15109 30.2497 6.08306 30.358C6.01642 30.4648 5.98101 30.6326 5.97685 30.8614V31.5887C5.97685 31.8325 6.01017 32.014 6.07681 32.1332C6.14484 32.251 6.25313 32.3099 6.40168 32.3099C6.54885 32.3099 6.65506 32.2531 6.72031 32.1394C6.78556 32.0257 6.81958 31.8517 6.82235 31.6175V30.9066Z" fill="#005C96"/>
<path d="M4.10888 28.4387H3.52506V26.2859L2.82812 26.4927V26.0385L4.04625 25.6211H4.10888V28.4387Z" fill="#005C96"/>
<path d="M4.10888 32.7886H3.52506V30.4401L2.82812 30.6657V30.1702L4.04625 29.7148H4.10888V32.7886Z" fill="#005C96"/>
<path d="M6.91747 28.4387H6.33366V26.2859L5.63672 26.4927V26.0385L6.85485 25.6211H6.91747V28.4387Z" fill="#005C96"/>
<path d="M9.72997 32.7886H9.14616V30.4401L8.44922 30.6657V30.1702L9.66735 29.7148H9.72997V32.7886Z" fill="#005C96"/>
<path d="M12.5503 32.7886H11.9665V30.4401L11.2695 30.6657V30.1702L12.4877 29.7148H12.5503V32.7886Z" fill="#005C96"/>
<path d="M24.5904 2.5615H3.0738C2.79087 2.5615 2.5615 2.79087 2.5615 3.0738V10.3741H0V2.5615C0 1.14682 1.14682 0 2.5615 0H25.1027C26.5174 0 27.6642 1.14682 27.6642 2.5615V15.4971H25.1027V3.0738C25.1027 2.79087 24.8734 2.5615 24.5904 2.5615Z" fill="#005C96"/>
<path d="M45.3608 4.60937C45.0903 4.60937 44.8711 4.81963 44.8711 5.07898L44.8711 6.95742C44.8711 7.21678 45.0903 7.42703 45.3608 7.42703L62.3119 7.42703C62.5824 7.42703 62.8016 7.21678 62.8016 6.95742L62.8016 5.07898C62.8016 4.81963 62.5824 4.60937 62.3119 4.60937L45.3608 4.60937Z" fill="#6B7427"/>
<path d="M52.3155 9.74219C52.0248 9.74219 51.7891 9.95244 51.7891 10.2118L51.7891 12.0902C51.7891 12.3496 52.0248 12.5598 52.3155 12.5598L62.2771 12.5598C62.5678 12.5598 62.8035 12.3496 62.8035 12.0902L62.8035 10.2118C62.8035 9.95244 62.5678 9.74219 62.2771 9.74219L52.3155 9.74219Z" fill="#6B7427"/>
<path fill-rule="evenodd" clip-rule="evenodd" d="M49.1977 12.2131C49.6646 13.0397 49.5845 13.0746 49.5845 13.0746C49.2047 13.4167 48.9554 13.6873 48.8022 13.868C48.8552 14.1247 48.8835 14.3899 48.8835 14.6622C48.8835 14.9628 48.8462 15.254 48.7821 15.5357C48.9312 15.7196 49.1755 15.9968 49.5508 16.3492C49.5508 16.3492 49.6297 16.3849 49.1464 17.2017C48.6614 18.0181 48.5928 17.9647 48.5928 17.9647C48.0844 17.7844 47.7169 17.6953 47.489 17.6505C47.112 17.9671 46.6738 18.2127 46.195 18.3692C46.1153 18.5889 45.9991 18.9617 45.8874 19.503C45.8874 19.503 45.8969 19.5904 44.9589 19.5904C44.0198 19.5904 44.03 19.503 44.03 19.503C43.9146 18.9416 43.7943 18.5655 43.7147 18.3486C43.2313 18.1823 42.7919 17.9248 42.4158 17.5951C42.187 17.6349 41.817 17.7162 41.3033 17.8858C41.3033 17.8858 41.2339 17.9372 40.7674 17.1109C40.3005 16.2847 40.3802 16.2498 40.3802 16.2498C40.7596 15.9081 41.0093 15.6375 41.1624 15.4564C41.1095 15.1997 41.0811 14.9345 41.0811 14.6622C41.0811 14.3616 41.1185 14.07 41.183 13.7892C41.0339 13.6048 40.7892 13.328 40.4142 12.9757C40.4142 12.9757 40.3354 12.9395 40.8196 12.1236C41.3029 11.3068 41.3719 11.3606 41.3719 11.3606C41.8807 11.5404 42.2482 11.6295 42.4757 11.6743C42.8531 11.3577 43.2913 11.1121 43.7701 10.9557C43.8493 10.7355 43.966 10.3631 44.0777 9.82143C44.0777 9.82143 44.0674 9.73438 45.007 9.73438C45.9449 9.73438 45.9355 9.82143 45.9355 9.82143C46.0513 10.3824 46.172 10.7594 46.2513 10.9758C46.7342 11.1421 47.1732 11.3996 47.5493 11.7289C47.7781 11.6891 48.1481 11.6082 48.6614 11.4386C48.6614 11.4386 48.7312 11.3864 49.1977 12.2131ZM42.6074 16.932C43.2056 17.5577 44.0485 17.9474 44.9823 17.9474C46.7966 17.9474 48.2676 16.4765 48.2676 14.6622C48.2676 13.9374 48.0328 13.2674 47.6351 12.7241C48.0324 13.2672 48.267 13.937 48.267 14.6615C48.267 16.4759 46.7961 17.9467 44.9818 17.9467C44.0482 17.9467 43.2055 17.5573 42.6074 16.932ZM43.1045 14.6615C43.1045 15.6982 43.945 16.5388 44.9818 16.5388C46.0185 16.5388 46.859 15.6982 46.859 14.6615C46.859 13.6248 46.0185 12.7843 44.9818 12.7843C43.945 12.7843 43.1045 13.6248 43.1045 14.6615Z" fill="#6B7427"/>
<path fill-rule="evenodd" clip-rule="evenodd" d="M66.1956 18.3414C66.1956 18.3414 66.2662 18.2706 65.4222 17.5856C64.5786 16.9004 64.5261 16.9853 64.5261 16.9853C64.0503 17.3812 63.69 17.6225 63.463 17.7608C62.9242 17.5676 62.3485 17.4773 61.7643 17.5026C61.5891 17.3052 61.3024 16.9542 60.9439 16.405C60.9439 16.405 60.9174 16.3083 59.9181 16.7015C58.9171 17.0954 58.9645 17.1839 58.9645 17.1839C59.0726 17.8078 59.1045 18.2535 59.1123 18.5213C58.6677 18.8887 58.3038 19.334 58.0345 19.8296C57.7733 19.8773 57.3444 19.9364 56.7269 19.958C56.7269 19.958 56.6308 19.9297 56.4583 21.0025C56.2845 22.0749 56.3836 22.0803 56.3836 22.0803C56.6154 22.1727 56.8166 22.2605 56.9895 22.3412C57.0395 22.1575 57.093 21.9387 57.146 21.6832C57.1482 21.6716 57.1506 21.6601 57.1534 21.6486C57.1736 21.5649 57.2077 21.4914 57.2482 21.4295C57.3263 21.3099 57.4232 21.2397 57.4875 21.2015C57.6084 21.1295 57.7359 21.099 57.8265 21.0819C58.0245 21.0444 58.3439 21.0199 58.8909 21.0199C59.4372 21.0199 59.7563 21.0444 59.9542 21.0819C59.9647 21.0839 59.9758 21.086 59.9872 21.0884C60.208 20.5892 60.6178 20.1733 61.1659 19.9576C62.2705 19.523 63.5184 20.0662 63.953 21.1707C64.2374 21.8934 64.1032 22.6775 63.6671 23.255C63.6839 23.2733 63.6991 23.2909 63.7127 23.3072C63.8422 23.4616 64.0212 23.7292 64.2926 24.2101C64.396 24.3932 64.4799 24.549 64.5478 24.6822C65.6224 23.658 66.0302 22.0471 65.4531 20.5805C65.2434 20.0473 64.9253 19.5889 64.5342 19.2205C64.9275 19.5897 65.2473 20.0497 65.458 20.585C66.0353 22.0522 65.6267 23.6641 64.5508 24.6882C64.6595 24.902 64.7266 25.0574 64.7668 25.1747C64.7865 25.2324 64.8088 25.3059 64.8213 25.3889C65.2579 25.0242 65.6158 24.5841 65.8812 24.0953C66.1428 24.0474 66.5717 23.9883 67.1889 23.9672C67.1889 23.9672 67.2844 23.9953 67.4589 22.9222C67.6314 21.8494 67.5324 21.8443 67.5324 21.8443C66.9848 21.6263 66.6083 21.4334 66.3723 21.2999C66.3225 20.9729 66.2403 20.647 66.1142 20.3267C66.0001 20.0366 65.8587 19.7659 65.6947 19.5146C65.7821 19.2579 65.9342 18.8651 66.1956 18.3414Z" fill="#6B7427"/>
<path fill-rule="evenodd" clip-rule="evenodd" d="M63.6758 24.5528C64.2104 25.4993 64.1187 25.5393 64.1187 25.5393C63.6838 25.9309 63.3984 26.2408 63.223 26.4477C63.2837 26.7415 63.3161 27.0453 63.3161 27.357C63.3161 27.7012 63.2733 28.0345 63.2 28.3571C63.3706 28.5677 63.6504 28.8851 64.0801 29.2885C64.0801 29.2885 64.1704 29.3294 63.617 30.2646C63.0617 31.1993 62.9832 31.1382 62.9832 31.1382C62.4011 30.9317 61.9803 30.8297 61.7194 30.7785C61.2878 31.141 60.7861 31.4221 60.2378 31.6013C60.1466 31.8528 60.0136 32.2798 59.8857 32.8994C59.8857 32.8994 59.8965 32.9996 58.8226 32.9996C57.7473 32.9996 57.7591 32.8994 57.7591 32.8994C57.6269 32.2567 57.4892 31.826 57.398 31.5778C56.8446 31.3874 56.3415 31.0926 55.9108 30.715C55.6489 30.7606 55.2253 30.8537 54.6371 31.0479C54.6371 31.0479 54.5576 31.1067 54.0235 30.1607C53.4889 29.2147 53.5801 29.1747 53.5801 29.1747C54.0146 28.7835 54.3004 28.4737 54.4758 28.2663C54.4152 27.9724 54.3827 27.6687 54.3827 27.357C54.3827 27.0128 54.4255 26.679 54.4993 26.3574C54.3286 26.1463 54.0484 25.8294 53.6191 25.426C53.6191 25.426 53.5289 25.3846 54.0832 24.4503C54.6366 23.5152 54.7156 23.5767 54.7156 23.5767C55.2982 23.7827 55.719 23.8847 55.9794 23.936C56.4115 23.5735 56.9132 23.2923 57.4614 23.1132C57.5522 22.8611 57.6857 22.4347 57.8136 21.8145C57.8136 21.8145 57.8019 21.7148 58.8776 21.7148C59.9515 21.7148 59.9407 21.8145 59.9407 21.8145C60.0733 22.4568 60.2115 22.8884 60.3023 23.1362C60.8552 23.3266 61.3578 23.6214 61.7885 23.9985C62.0504 23.9529 62.474 23.8603 63.0617 23.6661C63.0617 23.6661 63.1417 23.6064 63.6758 24.5528ZM55.4363 28.9398C56.0339 30.2263 57.3376 31.1184 58.8494 31.1184C60.9267 31.1184 62.6108 29.4342 62.6108 27.357C62.6108 26.827 62.5012 26.3225 62.3033 25.8651C62.5004 26.3217 62.6095 26.8252 62.6095 27.3541C62.6095 29.4315 60.9255 31.1155 58.8481 31.1155C57.3373 31.1155 56.0345 30.2248 55.4363 28.9398ZM56.6987 27.3541C56.6987 28.5411 57.6611 29.5035 58.8481 29.5035C60.0351 29.5035 60.9975 28.5411 60.9975 27.3541C60.9975 26.1671 60.0351 25.2047 58.8481 25.2047C57.6611 25.2047 56.6987 26.1671 56.6987 27.3541Z" fill="#6B7427"/>
<path fill-rule="evenodd" clip-rule="evenodd" d="M53.8047 19.0872C54.1375 19.6765 54.0804 19.7013 54.0804 19.7013C53.8097 19.9452 53.632 20.1381 53.5228 20.2669C53.5605 20.4498 53.5807 20.6389 53.5807 20.833C53.5807 21.0473 53.5541 21.2548 53.5084 21.4556C53.6147 21.5868 53.7889 21.7844 54.0564 22.0355C54.0564 22.0355 54.1126 22.061 53.7681 22.6432C53.4224 23.2251 53.3735 23.1871 53.3735 23.1871C53.0111 23.0586 52.7491 22.9951 52.5867 22.9632C52.3179 23.1888 52.0056 23.3639 51.6643 23.4754C51.6075 23.632 51.5246 23.8978 51.445 24.2836C51.445 24.2836 51.4518 24.346 50.7832 24.346C50.1137 24.346 50.121 24.2836 50.121 24.2836C50.0388 23.8835 49.953 23.6153 49.8962 23.4608C49.5517 23.3422 49.2385 23.1587 48.9703 22.9236C48.8073 22.952 48.5435 23.01 48.1773 23.1309C48.1773 23.1309 48.1279 23.1675 47.7953 22.5785C47.4625 21.9896 47.5193 21.9647 47.5193 21.9647C47.7898 21.7211 47.9678 21.5282 48.0769 21.3991C48.0392 21.2162 48.019 21.0271 48.019 20.833C48.019 20.6187 48.0456 20.4109 48.0916 20.2107C47.9853 20.0792 47.8109 19.8819 47.5436 19.6308C47.5436 19.6308 47.4874 19.605 47.8325 19.0234C48.1771 18.4412 48.2262 18.4795 48.2262 18.4795C48.5889 18.6077 48.8509 18.6712 49.0131 18.7031C49.2821 18.4775 49.5944 18.3024 49.9357 18.1909C49.9922 18.034 50.0754 17.7685 50.155 17.3824C50.155 17.3824 50.1477 17.3203 50.8174 17.3203C51.486 17.3203 51.4793 17.3824 51.4793 17.3824C51.5618 17.7822 51.6479 18.051 51.7044 18.2052C52.0486 18.3238 52.3615 18.5073 52.6297 18.7421C52.7927 18.7137 53.0565 18.656 53.4224 18.5351C53.4224 18.5351 53.4721 18.4979 53.8047 19.0872ZM51.1036 18.5107C51.0054 18.4982 50.9052 18.4917 50.8035 18.4917C49.5102 18.4917 48.4617 19.5401 48.4617 20.8335C48.4617 22.022 49.3472 23.0038 50.4944 23.1551C49.3455 23.0054 48.4581 22.0227 48.4581 20.833C48.4581 19.5397 49.5066 18.4912 50.7999 18.4912C50.9028 18.4912 51.0042 18.4979 51.1036 18.5107ZM49.4654 20.8335C49.4654 21.5725 50.0645 22.1716 50.8035 22.1716C51.5425 22.1716 52.1417 21.5725 52.1417 20.8335C52.1417 20.0945 51.5425 19.4953 50.8035 19.4953C50.0645 19.4953 49.4654 20.0945 49.4654 20.8335Z" fill="#6B7427"/>
<path d="M42.0492 23.0614C42.0492 23.4751 41.9624 23.7915 41.7889 24.0107C41.6153 24.2298 41.3613 24.3394 41.0267 24.3394C40.6963 24.3394 40.4436 24.2319 40.2686 24.0168C40.0937 23.8018 40.0042 23.4936 40 23.0922V22.5416C40 22.1238 40.0875 21.8067 40.2624 21.5903C40.4387 21.3738 40.6921 21.2656 41.0225 21.2656C41.3529 21.2656 41.6056 21.3732 41.7806 21.5882C41.9555 21.8019 42.045 22.1094 42.0492 22.5108V23.0614ZM41.4474 22.4573C41.4474 22.2094 41.4126 22.0293 41.3432 21.917C41.2752 21.8033 41.1683 21.7464 41.0225 21.7464C40.8809 21.7464 40.7761 21.8005 40.7081 21.9087C40.6414 22.0156 40.606 22.1834 40.6018 22.4121V23.1395C40.6018 23.3833 40.6352 23.5648 40.7018 23.684C40.7698 23.8018 40.8781 23.8607 41.0267 23.8607C41.1738 23.8607 41.2801 23.8038 41.3453 23.6901C41.4106 23.5765 41.4446 23.4025 41.4474 23.1683V22.4573Z" fill="#6B7427"/>
<path d="M44.105 24.3372H43.5212V22.1843L42.8242 22.3911V21.937L44.0423 21.5195H44.105V24.3372Z" fill="#6B7427"/>
<path d="M42.0492 27.413C42.0492 27.8267 41.9624 28.1431 41.7889 28.3622C41.6153 28.5814 41.3613 28.691 41.0267 28.691C40.6963 28.691 40.4436 28.5835 40.2686 28.3684C40.0937 28.1533 40.0042 27.8451 40 27.4438V26.8931C40 26.4754 40.0875 26.1583 40.2624 25.9418C40.4387 25.7254 40.6921 25.6172 41.0225 25.6172C41.3529 25.6172 41.6056 25.7247 41.7806 25.9398C41.9555 26.1535 42.045 26.461 42.0492 26.8623V27.413ZM41.4474 26.8089C41.4474 26.561 41.4126 26.3808 41.3432 26.2685C41.2752 26.1548 41.1683 26.098 41.0225 26.098C40.8809 26.098 40.7761 26.1521 40.7081 26.2603C40.6414 26.3671 40.606 26.5349 40.6018 26.7637V27.4911C40.6018 27.7349 40.6352 27.9164 40.7018 28.0355C40.7698 28.1533 40.8781 28.2122 41.0267 28.2122C41.1738 28.2122 41.2801 28.1554 41.3453 28.0417C41.4106 27.928 41.4446 27.7541 41.4474 27.5198V26.8089Z" fill="#6B7427"/>
<path d="M42.0492 31.5106C42.0492 31.9243 41.9624 32.2407 41.7889 32.4599C41.6153 32.6791 41.3613 32.7886 41.0267 32.7886C40.6963 32.7886 40.4436 32.6811 40.2686 32.4661C40.0937 32.251 40.0042 31.9428 40 31.5415V30.9908C40 30.573 40.0875 30.2559 40.2624 30.0395C40.4387 29.8231 40.6921 29.7148 41.0225 29.7148C41.3529 29.7148 41.6056 29.8224 41.7806 30.0374C41.9555 30.2511 42.045 30.5586 42.0492 30.96V31.5106ZM41.4474 30.9066C41.4474 30.6586 41.4126 30.4785 41.3432 30.3662C41.2752 30.2525 41.1683 30.1956 41.0225 30.1956C40.8809 30.1956 40.7761 30.2497 40.7081 30.358C40.6414 30.4648 40.606 30.6326 40.6018 30.8614V31.5887C40.6018 31.8325 40.6352 32.014 40.7018 32.1332C40.7698 32.251 40.8781 32.3099 41.0267 32.3099C41.1738 32.3099 41.2801 32.2531 41.3453 32.1394C41.4106 32.0257 41.4446 31.8517 41.4474 31.6175V30.9066Z" fill="#6B7427"/>
<path d="M50.2445 27.413C50.2445 27.8267 50.1577 28.1431 49.9842 28.3622C49.8107 28.5814 49.5566 28.691 49.222 28.691C48.8916 28.691 48.6389 28.5835 48.464 28.3684C48.289 28.1533 48.1995 27.8451 48.1953 27.4438V26.8931C48.1953 26.4754 48.2828 26.1583 48.4577 25.9418C48.634 25.7254 48.8874 25.6172 49.2178 25.6172C49.5483 25.6172 49.8009 25.7247 49.9759 25.9398C50.1508 26.1535 50.2403 26.461 50.2445 26.8623V27.413ZM49.6427 26.8089C49.6427 26.561 49.608 26.3808 49.5385 26.2685C49.4705 26.1548 49.3636 26.098 49.2178 26.098C49.0762 26.098 48.9714 26.1521 48.9034 26.2603C48.8367 26.3671 48.8013 26.5349 48.7972 26.7637V27.4911C48.7972 27.7349 48.8305 27.9164 48.8971 28.0355C48.9652 28.1533 49.0734 28.2122 49.222 28.2122C49.3692 28.2122 49.4754 28.1554 49.5406 28.0417C49.6059 27.928 49.6399 27.7541 49.6427 27.5198V26.8089Z" fill="#6B7427"/>
<path d="M47.4242 31.5106C47.4242 31.9243 47.3374 32.2407 47.1639 32.4599C46.9903 32.6791 46.7363 32.7886 46.4017 32.7886C46.0713 32.7886 45.8186 32.6811 45.6436 32.4661C45.4687 32.251 45.3792 31.9428 45.375 31.5415V30.9908C45.375 30.573 45.4625 30.2559 45.6374 30.0395C45.8137 29.8231 46.0671 29.7148 46.3975 29.7148C46.7279 29.7148 46.9806 29.8224 47.1556 30.0374C47.3305 30.2511 47.42 30.5586 47.4242 30.96V31.5106ZM46.8224 30.9066C46.8224 30.6586 46.7876 30.4785 46.7182 30.3662C46.6502 30.2525 46.5433 30.1956 46.3975 30.1956C46.2559 30.1956 46.1511 30.2497 46.0831 30.358C46.0164 30.4648 45.981 30.6326 45.9768 30.8614V31.5887C45.9768 31.8325 46.0102 32.014 46.0768 32.1332C46.1448 32.251 46.2531 32.3099 46.4017 32.3099C46.5488 32.3099 46.6551 32.2531 46.7203 32.1394C46.7856 32.0257 46.8196 31.8517 46.8224 31.6175V30.9066Z" fill="#6B7427"/>
<path d="M44.105 28.4348H43.5212V26.282L42.8242 26.4888V26.0346L44.0423 25.6172H44.105V28.4348Z" fill="#6B7427"/>
<path d="M44.105 32.7886H43.5212V30.4401L42.8242 30.6657V30.1702L44.0423 29.7148H44.105V32.7886Z" fill="#6B7427"/>
<path d="M46.9175 28.4348H46.3337V26.282L45.6367 26.4888V26.0346L46.8548 25.6172H46.9175V28.4348Z" fill="#6B7427"/>
<path d="M49.73 32.7886H49.1462V30.4401L48.4492 30.6657V30.1702L49.6673 29.7148H49.73V32.7886Z" fill="#6B7427"/>
<path d="M52.5503 32.7886H51.9665V30.4401L51.2695 30.6657V30.1702L52.4877 29.7148H52.5503V32.7886Z" fill="#6B7427"/>
<path d="M64.5904 2.5615H43.0738C42.7909 2.5615 42.5615 2.79087 42.5615 3.0738V10.3741H40V2.5615C40 1.14682 41.1468 0 42.5615 0H65.1027C66.5174 0 67.6642 1.14682 67.6642 2.5615V15.4971H65.1027V3.0738C65.1027 2.79087 64.8734 2.5615 64.5904 2.5615Z" fill="#6B7427"/>
</svg>
