<svg width="87" height="44" viewBox="0 0 87 44" fill="none" xmlns="http://www.w3.org/2000/svg">
<path d="M7.47016 6.00781C7.11773 6.00781 6.83203 6.28179 6.83203 6.61977L6.83203 9.06758C6.83203 9.40555 7.11773 9.67953 7.47016 9.67953L29.5594 9.67953C29.9118 9.67953 30.1975 9.40555 30.1975 9.06758L30.1975 6.61977C30.1975 6.28179 29.9118 6.00781 29.5594 6.00781L7.47016 6.00781Z" fill="#005C96"/>
<path d="M16.5336 12.6914C16.1548 12.6914 15.8477 12.9654 15.8477 13.3034L15.8477 15.7512C15.8477 16.0891 16.1548 16.3631 16.5336 16.3631L29.5147 16.3631C29.8936 16.3631 30.2007 16.0891 30.2007 15.7512L30.2007 13.3034C30.2007 12.9654 29.8936 12.6914 29.5147 12.6914L16.5336 12.6914Z" fill="#005C96"/>
<path fill-rule="evenodd" clip-rule="evenodd" d="M12.4618 15.9136C13.0702 16.9908 12.9659 17.0363 12.9659 17.0363C12.4709 17.4821 12.1461 17.8347 11.9465 18.0702C12.0155 18.4046 12.0524 18.7503 12.0524 19.1051C12.0524 19.4968 12.0037 19.8762 11.9202 20.2433C12.1145 20.4831 12.4329 20.8443 12.922 21.3034C12.922 21.3034 13.0247 21.35 12.3949 22.4143C11.7629 23.4782 11.6736 23.4086 11.6736 23.4086C11.0111 23.1737 10.5321 23.0575 10.2351 22.9992C9.74389 23.4118 9.17291 23.7318 8.54895 23.9357C8.44514 24.222 8.29369 24.7079 8.14814 25.4132C8.14814 25.4132 8.16045 25.5272 6.93822 25.5272C5.71439 25.5272 5.72776 25.4132 5.72776 25.4132C5.57739 24.6817 5.4206 24.1915 5.31679 23.9089C4.68694 23.6922 4.11436 23.3567 3.62418 22.927C3.32612 22.9789 2.84397 23.0848 2.17453 23.3058C2.17453 23.3058 2.08409 23.3727 1.47619 22.2961C0.867749 21.2194 0.971564 21.1739 0.971564 21.1739C1.46602 20.7287 1.79138 20.376 1.99098 20.14C1.92195 19.8056 1.88502 19.4599 1.88502 19.1051C1.88502 18.7134 1.93372 18.3335 2.01774 17.9674C1.82348 17.7272 1.50455 17.3665 1.01598 16.9073C1.01598 16.9073 0.913235 16.8603 1.54415 15.797C2.17399 14.7326 2.26389 14.8027 2.26389 14.8027C2.92691 15.0371 3.40585 15.1532 3.70231 15.2115C4.19409 14.7989 4.76507 14.4789 5.38903 14.2751C5.49231 13.9882 5.64429 13.5029 5.78984 12.797C5.78984 12.797 5.77646 12.6836 7.00083 12.6836C8.22306 12.6836 8.21075 12.797 8.21075 12.797C8.36166 13.528 8.51898 14.0193 8.62226 14.3013C9.25157 14.518 9.82362 14.8535 10.3138 15.2827C10.6119 15.2308 11.094 15.1254 11.7629 14.9044C11.7629 14.9044 11.8539 14.8364 12.4618 15.9136ZM11.0439 17.7899C10.4879 16.0708 8.87403 14.8274 6.96977 14.8274C4.60543 14.8274 2.68877 16.7441 2.68877 19.1085C2.68877 19.5442 2.75387 19.9648 2.87489 20.3609C2.7532 19.9638 2.68771 19.5421 2.68771 19.1051C2.68771 16.7409 4.60453 14.8241 6.96872 14.8241C8.87407 14.8241 10.4889 16.0691 11.0439 17.7899ZM4.52348 19.1085C4.52348 20.4594 5.61881 21.5547 6.96977 21.5547C8.32074 21.5547 9.41606 20.4594 9.41606 19.1085C9.41606 17.7575 8.32074 16.6622 6.96977 16.6622C5.61881 16.6622 4.52348 17.7575 4.52348 19.1085Z" fill="#005C96"/>
<path fill-rule="evenodd" clip-rule="evenodd" d="M34.6001 23.9081C34.6001 23.9081 34.6922 23.8158 33.5923 22.9232C32.4931 22.0303 32.4246 22.1409 32.4246 22.1409C31.8046 22.6568 31.3351 22.9712 31.0393 23.1515C30.3371 22.8997 29.587 22.7821 28.8256 22.815C28.5973 22.5578 28.2238 22.1004 27.7566 21.3848C27.7566 21.3848 27.7221 21.2588 26.4199 21.7711C25.1154 22.2844 25.1772 22.3997 25.1772 22.3997C25.318 23.2127 25.3596 23.7936 25.3698 24.1425C24.7905 24.6213 24.3163 25.2016 23.9653 25.8473C23.625 25.9095 23.066 25.9865 22.2613 26.0148C22.2613 26.0148 22.1361 25.9778 21.9113 27.3758C21.6848 28.7732 21.814 28.7803 21.814 28.7803C22.1189 28.9019 22.3832 29.0173 22.6099 29.1232C22.6753 28.8835 22.7452 28.5977 22.8144 28.2637C22.8172 28.2487 22.8205 28.2337 22.8241 28.2187C22.8505 28.1097 22.8949 28.0139 22.9476 27.9331C23.0494 27.7773 23.1757 27.6859 23.2595 27.636C23.417 27.5423 23.5832 27.5025 23.7012 27.4802C23.9592 27.4313 24.3754 27.3994 25.0883 27.3994C25.8001 27.3994 26.2159 27.4313 26.4738 27.4802C26.4873 27.4827 26.5015 27.4855 26.5161 27.4886C26.8041 26.8391 27.3377 26.2983 28.051 26.0176C29.4903 25.4513 31.1165 26.1591 31.6829 27.5985C32.053 28.5392 31.8789 29.5597 31.3121 30.3119C31.334 30.3359 31.3538 30.3588 31.3716 30.38C31.5404 30.5812 31.7736 30.93 32.1272 31.5566C32.2621 31.7955 32.3715 31.9985 32.46 32.1722C33.8588 30.8375 34.3893 28.7395 33.6377 26.8293C33.5793 26.6809 33.5145 26.537 33.4436 26.3976C33.5149 26.5377 33.5802 26.6824 33.6389 26.8317C34.3905 28.7417 33.8599 30.8398 32.4612 32.1746C32.6043 32.4557 32.6925 32.6597 32.7451 32.8136C32.7704 32.8874 32.7989 32.981 32.8153 33.0867C33.3815 32.6125 33.8458 32.0408 34.1904 31.406C34.5313 31.3436 35.0902 31.2666 35.8946 31.2391C35.8946 31.2391 36.0189 31.2758 36.2463 29.8774C36.4712 28.4793 36.3422 28.4728 36.3422 28.4728C35.6286 28.1887 35.1379 27.9373 34.8305 27.7633C34.7655 27.3372 34.6583 26.9125 34.4941 26.4952C34.3454 26.1172 34.1611 25.7643 33.9474 25.4369C34.0613 25.1024 34.2596 24.5905 34.6001 23.9081Z" fill="#005C96"/>
<path fill-rule="evenodd" clip-rule="evenodd" d="M31.3549 31.9951C32.0515 33.2285 31.932 33.2805 31.932 33.2805C31.3653 33.7909 30.9934 34.1947 30.7649 34.4643C30.8439 34.8472 30.8862 35.243 30.8862 35.6492C30.8862 36.0977 30.8304 36.5321 30.7348 36.9524C30.9572 37.2269 31.3218 37.6405 31.8818 38.1662C31.8818 38.1662 31.9994 38.2195 31.2783 39.4381C30.5547 40.6562 30.4524 40.5765 30.4524 40.5765C29.6939 40.3075 29.1455 40.1746 28.8055 40.1078C28.243 40.5802 27.5893 40.9466 26.8749 41.18C26.756 41.5078 26.5826 42.0641 26.416 42.8717C26.416 42.8717 26.43 43.0022 25.0306 43.0022C23.6294 43.0022 23.6447 42.8717 23.6447 42.8717C23.4726 42.0341 23.293 41.4729 23.1742 41.1494C22.453 40.9012 21.7975 40.5171 21.2362 40.0251C20.895 40.0845 20.3429 40.2058 19.5764 40.4589C19.5764 40.4589 19.4729 40.5355 18.7769 39.3027C18.0802 38.07 18.1991 38.0179 18.1991 38.0179C18.7652 37.5081 19.1377 37.1044 19.3663 36.8342C19.2872 36.4512 19.245 36.0554 19.245 35.6492C19.245 35.2007 19.3007 34.7657 19.3969 34.3466C19.1745 34.0715 18.8093 33.6586 18.25 33.1329C18.25 33.1329 18.1323 33.079 18.8547 31.8615C19.5758 30.6429 19.6788 30.7231 19.6788 30.7231C20.4379 30.9915 20.9863 31.1245 21.3257 31.1912C21.8887 30.7189 22.5425 30.3525 23.2569 30.119C23.3751 29.7906 23.5492 29.2349 23.7158 28.4268C23.7158 28.4268 23.7005 28.2969 25.1023 28.2969C26.5017 28.2969 26.4876 28.4268 26.4876 28.4268C26.6604 29.2637 26.8406 29.8262 26.9588 30.1491C27.6793 30.3972 28.3343 30.7814 28.8955 31.2727C29.2368 31.2133 29.7888 31.0926 30.5547 30.8396C30.5547 30.8396 30.6589 30.7617 31.3549 31.9951ZM24.1328 40.4621C24.4348 40.5203 24.7466 40.5508 25.0656 40.5508C27.7725 40.5508 29.9671 38.3561 29.9671 35.6492C29.9671 33.2626 28.261 31.2741 26.002 30.837C28.2562 31.278 29.9571 33.264 29.9571 35.6473C29.9571 38.3544 27.7626 40.5488 25.0556 40.5488C24.7401 40.5488 24.4317 40.5191 24.1328 40.4621ZM22.2547 35.6473C22.2547 37.1941 23.5088 38.4482 25.0556 38.4482C26.6024 38.4482 27.8565 37.1941 27.8565 35.6473C27.8565 34.1005 26.6024 32.8464 25.0556 32.8464C23.5088 32.8464 22.2547 34.1005 22.2547 35.6473Z" fill="#005C96"/>
<path fill-rule="evenodd" clip-rule="evenodd" d="M18.4922 24.8767C18.9259 25.6445 18.8515 25.677 18.8515 25.677C18.4987 25.9947 18.2672 26.2461 18.1249 26.4139C18.1741 26.6523 18.2004 26.8987 18.2004 27.1516C18.2004 27.4309 18.1657 27.7013 18.1062 27.963C18.2447 28.1339 18.4716 28.3914 18.8203 28.7187C18.8203 28.7187 18.8935 28.7518 18.4445 29.5106C17.994 30.2689 17.9303 30.2193 17.9303 30.2193C17.4581 30.0518 17.1167 29.9691 16.905 29.9275C16.5548 30.2216 16.1478 30.4497 15.703 30.595C15.629 30.7991 15.5211 31.1455 15.4173 31.6482C15.4173 31.6482 15.4261 31.7295 14.5549 31.7295C13.6825 31.7295 13.692 31.6482 13.692 31.6482C13.5848 31.1268 13.4731 30.7774 13.3991 30.5759C12.9501 30.4215 12.5419 30.1823 12.1925 29.876C11.9801 29.913 11.6364 29.9885 11.1592 30.1461C11.1592 30.1461 11.0947 30.1937 10.6614 29.4263C10.2277 28.6588 10.3017 28.6263 10.3017 28.6263C10.6541 28.309 10.8861 28.0576 11.0283 27.8894C10.9791 27.651 10.9528 27.4046 10.9528 27.1516C10.9528 26.8724 10.9875 26.6016 11.0474 26.3407C10.9089 26.1694 10.6816 25.9123 10.3333 25.585C10.3333 25.585 10.2601 25.5515 10.7098 24.7935C11.1588 24.0348 11.2229 24.0848 11.2229 24.0848C11.6955 24.2518 12.0369 24.3346 12.2482 24.3762C12.5988 24.0821 13.0058 23.854 13.4506 23.7087C13.5242 23.5042 13.6325 23.1582 13.7363 22.6551C13.7363 22.6551 13.7267 22.5742 14.5995 22.5742C15.4707 22.5742 15.462 22.6551 15.462 22.6551C15.5695 23.1762 15.6817 23.5263 15.7553 23.7273C16.2039 23.8818 16.6117 24.121 16.9611 24.4269C17.1735 24.3899 17.5172 24.3148 17.994 24.1572C17.994 24.1572 18.0589 24.1088 18.4922 24.8767ZM11.525 27.1516C11.525 28.8369 12.8913 30.2033 14.5766 30.2033C15.4046 30.2033 16.1556 29.8734 16.7055 29.338C16.1557 29.873 15.405 30.2025 14.5773 30.2025C12.892 30.2025 11.5257 28.8362 11.5257 27.1508C11.5257 26.4121 11.7883 25.7346 12.2251 25.2066C11.7878 25.7347 11.525 26.4125 11.525 27.1516ZM12.8336 27.1508C12.8336 28.1139 13.6143 28.8946 14.5773 28.8946C15.5403 28.8946 16.3211 28.1139 16.3211 27.1508C16.3211 26.1878 15.5403 25.4071 14.5773 25.4071C13.6143 25.4071 12.8336 26.1878 12.8336 27.1508Z" fill="#005C96"/>
<path d="M3.15862 30.0511C3.15862 30.5901 3.04555 31.0025 2.8194 31.2881C2.59325 31.5736 2.26218 31.7164 1.82616 31.7164C1.39558 31.7164 1.06631 31.5763 0.838356 31.2961C0.6104 31.0158 0.493709 30.6142 0.488281 30.0912V29.3737C0.488281 28.8292 0.602259 28.416 0.830215 28.134C1.05998 27.852 1.39015 27.7109 1.82074 27.7109C2.25132 27.7109 2.58059 27.8511 2.80855 28.1313C3.0365 28.4098 3.15319 28.8105 3.15862 29.3335V30.0511ZM2.37434 29.2639C2.37434 28.9408 2.32912 28.7061 2.23866 28.5597C2.15001 28.4115 2.0107 28.3375 1.82074 28.3375C1.6362 28.3375 1.49961 28.408 1.41096 28.549C1.32412 28.6882 1.27799 28.9069 1.27256 29.205V30.1528C1.27256 30.4705 1.31598 30.707 1.40282 30.8623C1.49147 31.0158 1.63258 31.0926 1.82616 31.0926C2.01794 31.0926 2.15634 31.0185 2.24137 30.8704C2.3264 30.7222 2.37073 30.4955 2.37434 30.1903V29.2639Z" fill="#005C96"/>
<path d="M5.84084 31.7186H5.08006V28.9132L4.17188 29.1826V28.5908L5.75923 28.0469H5.84084V31.7186Z" fill="#005C96"/>
<path d="M3.15862 35.7229C3.15862 36.262 3.04555 36.6743 2.8194 36.9599C2.59325 37.2455 2.26218 37.3883 1.82616 37.3883C1.39558 37.3883 1.06631 37.2482 0.838356 36.968C0.6104 36.6877 0.493709 36.2861 0.488281 35.7631V35.0455C0.488281 34.5011 0.602259 34.0879 0.830215 33.8059C1.05998 33.5238 1.39015 33.3828 1.82074 33.3828C2.25132 33.3828 2.58059 33.5229 2.80855 33.8032C3.0365 34.0816 3.15319 34.4824 3.15862 35.0054V35.7229ZM2.37434 34.9358C2.37434 34.6127 2.32912 34.3779 2.23866 34.2316C2.15001 34.0834 2.0107 34.0093 1.82074 34.0093C1.6362 34.0093 1.49961 34.0798 1.41096 34.2209C1.32412 34.3601 1.27799 34.5788 1.27256 34.8768V35.8247C1.27256 36.1424 1.31598 36.3789 1.40282 36.5342C1.49147 36.6877 1.63258 36.7645 1.82616 36.7645C2.01794 36.7645 2.15634 36.6904 2.24137 36.5422C2.3264 36.3941 2.37073 36.1674 2.37434 35.8622V34.9358Z" fill="#005C96"/>
<path d="M3.15862 41.0667C3.15862 41.6057 3.04555 42.0181 2.8194 42.3037C2.59325 42.5893 2.26218 42.7321 1.82616 42.7321C1.39558 42.7321 1.06631 42.592 0.838356 42.3117C0.6104 42.0315 0.493709 41.6298 0.488281 41.1068V40.3893C0.488281 39.8449 0.602259 39.4316 0.830215 39.1496C1.05998 38.8676 1.39015 38.7266 1.82074 38.7266C2.25132 38.7266 2.58059 38.8667 2.80855 39.1469C3.0365 39.4254 3.15319 39.8261 3.15862 40.3491V41.0667ZM2.37434 40.2795C2.37434 39.9564 2.32912 39.7217 2.23866 39.5753C2.15001 39.4272 2.0107 39.3531 1.82074 39.3531C1.6362 39.3531 1.49961 39.4236 1.41096 39.5646C1.32412 39.7038 1.27799 39.9225 1.27256 40.2206V41.1684C1.27256 41.4862 1.31598 41.7227 1.40282 41.878C1.49147 42.0315 1.63258 42.1082 1.82616 42.1082C2.01794 42.1082 2.15634 42.0341 2.24137 41.886C2.3264 41.7378 2.37073 41.5111 2.37434 41.2059V40.2795Z" fill="#005C96"/>
<path d="M13.8383 35.7229C13.8383 36.262 13.7252 36.6743 13.4991 36.9599C13.2729 37.2455 12.9419 37.3883 12.5059 37.3883C12.0753 37.3883 11.746 37.2482 11.518 36.968C11.2901 36.6877 11.1734 36.2861 11.168 35.7631V35.0455C11.168 34.5011 11.2819 34.0879 11.5099 33.8059C11.7397 33.5238 12.0698 33.3828 12.5004 33.3828C12.931 33.3828 13.2603 33.5229 13.4882 33.8032C13.7162 34.0816 13.8329 34.4824 13.8383 35.0054V35.7229ZM13.054 34.9358C13.054 34.6127 13.0088 34.3779 12.9183 34.2316C12.8297 34.0834 12.6904 34.0093 12.5004 34.0093C12.3159 34.0093 12.1793 34.0798 12.0906 34.2209C12.0038 34.3601 11.9577 34.5788 11.9522 34.8768V35.8247C11.9522 36.1424 11.9957 36.3789 12.0825 36.5342C12.1712 36.6877 12.3123 36.7645 12.5059 36.7645C12.6976 36.7645 12.836 36.6904 12.9211 36.5422C13.0061 36.3941 13.0504 36.1674 13.054 35.8622V34.9358Z" fill="#005C96"/>
<path d="M10.1664 41.0667C10.1664 41.6057 10.0534 42.0181 9.82721 42.3037C9.60107 42.5893 9.26999 42.7321 8.83398 42.7321C8.40339 42.7321 8.07412 42.592 7.84617 42.3117C7.61821 42.0315 7.50152 41.6298 7.49609 41.1068V40.3893C7.49609 39.8449 7.61007 39.4316 7.83803 39.1496C8.06779 38.8676 8.39797 38.7266 8.82855 38.7266C9.25913 38.7266 9.5884 38.8667 9.81636 39.1469C10.0443 39.4254 10.161 39.8261 10.1664 40.3491V41.0667ZM9.38216 40.2795C9.38216 39.9564 9.33693 39.7217 9.24647 39.5753C9.15782 39.4272 9.01851 39.3531 8.82855 39.3531C8.64401 39.3531 8.50742 39.4236 8.41877 39.5646C8.33193 39.7038 8.2858 39.9225 8.28037 40.2206V41.1684C8.28037 41.4862 8.32379 41.7227 8.41063 41.878C8.49928 42.0315 8.6404 42.1082 8.83398 42.1082C9.02575 42.1082 9.16415 42.0341 9.24918 41.886C9.33421 41.7378 9.37854 41.5111 9.38216 41.2059V40.2795Z" fill="#005C96"/>
<path d="M5.84084 37.0545H5.08006V34.2491L4.17188 34.5186V33.9268L5.75923 33.3828H5.84084V37.0545Z" fill="#005C96"/>
<path d="M5.84084 42.7321H5.08006V39.6716L4.17188 39.9656V39.32L5.75923 38.7266H5.84084V42.7321Z" fill="#005C96"/>
<path d="M9.50099 37.0545H8.74022V34.2491L7.83203 34.5186V33.9268L9.41939 33.3828H9.50099V37.0545Z" fill="#005C96"/>
<path d="M13.1729 42.7321H12.4121V39.6716L11.5039 39.9656V39.32L13.0913 38.7266H13.1729V42.7321Z" fill="#005C96"/>
<path d="M16.8447 42.7321H16.084V39.6716L15.1758 39.9656V39.32L16.7631 38.7266H16.8447V42.7321Z" fill="#005C96"/>
<path d="M32.5324 3.33792H4.49379C4.12509 3.33792 3.82621 3.63681 3.82621 4.00551V13.5186H0.488281V3.33792C0.488281 1.49444 1.98272 0 3.82621 0H33.1999C35.0434 0 36.5379 1.49444 36.5379 3.33792V20.1944H33.1999V4.00551C33.1999 3.63681 32.9011 3.33792 32.5324 3.33792Z" fill="#005C96"/>
<path d="M57.4389 6.00781C57.0865 6.00781 56.8008 6.28179 56.8008 6.61977L56.8008 9.06758C56.8008 9.40555 57.0865 9.67953 57.4389 9.67953L79.5281 9.67953C79.8806 9.67953 80.1663 9.40555 80.1663 9.06758L80.1663 6.61977C80.1663 6.28179 79.8806 6.00781 79.5281 6.00781L57.4389 6.00781Z" fill="#6B7427"/>
<path d="M66.5024 12.6914C66.1235 12.6914 65.8164 12.9654 65.8164 13.3034L65.8164 15.7512C65.8164 16.0891 66.1235 16.3631 66.5024 16.3631L79.4835 16.3631C79.8624 16.3631 80.1695 16.0891 80.1695 15.7512L80.1695 13.3034C80.1695 12.9654 79.8624 12.6914 79.4835 12.6914L66.5024 12.6914Z" fill="#6B7427"/>
<path fill-rule="evenodd" clip-rule="evenodd" d="M62.4384 15.9136C63.0468 16.9908 62.9424 17.0363 62.9424 17.0363C62.4475 17.4821 62.1226 17.8347 61.923 18.0702C61.9921 18.4046 62.029 18.7503 62.029 19.1051C62.029 19.4968 61.9803 19.8762 61.8968 20.2433C62.0911 20.4831 62.4095 20.8443 62.8986 21.3034C62.8986 21.3034 63.0013 21.35 62.3715 22.4143C61.7395 23.4782 61.6501 23.4086 61.6501 23.4086C60.9876 23.1737 60.5087 23.0575 60.2117 22.9992C59.7204 23.4118 59.1495 23.7318 58.5255 23.9357C58.4217 24.222 58.2703 24.7079 58.1247 25.4132C58.1247 25.4132 58.137 25.5272 56.9148 25.5272C55.6909 25.5272 55.7043 25.4132 55.7043 25.4132C55.554 24.6817 55.3972 24.1915 55.2934 23.9089C54.6635 23.6922 54.0909 23.3567 53.6007 22.927C53.3027 22.9789 52.8205 23.0848 52.1511 23.3058C52.1511 23.3058 52.0607 23.3727 51.4528 22.2961C50.8443 21.2194 50.9481 21.1739 50.9481 21.1739C51.4426 20.7287 51.7679 20.376 51.9675 20.14C51.8985 19.8056 51.8616 19.4599 51.8616 19.1051C51.8616 18.7134 51.9103 18.3335 51.9943 17.9674C51.8 17.7272 51.4811 17.3665 50.9925 16.9073C50.9925 16.9073 50.8898 16.8603 51.5207 15.797C52.1506 14.7326 52.2405 14.8027 52.2405 14.8027C52.9035 15.0371 53.3824 15.1532 53.6789 15.2115C54.1707 14.7989 54.7416 14.4789 55.3656 14.2751C55.4689 13.9882 55.6208 13.5029 55.7664 12.797C55.7664 12.797 55.753 12.6836 56.9774 12.6836C58.1996 12.6836 58.1873 12.797 58.1873 12.797C58.3382 13.528 58.4955 14.0193 58.5988 14.3013C59.2281 14.518 59.8002 14.8535 60.2904 15.2827C60.5884 15.2308 61.0706 15.1254 61.7395 14.9044C61.7395 14.9044 61.8305 14.8364 62.4384 15.9136ZM61.0204 17.7899C60.4645 16.0708 58.8506 14.8274 56.9463 14.8274C54.582 14.8274 52.6653 16.7441 52.6653 19.1085C52.6653 19.5442 52.7304 19.9648 52.8515 20.3609C52.7298 19.9638 52.6643 19.5421 52.6643 19.1051C52.6643 16.7409 54.5811 14.8241 56.9453 14.8241C58.8506 14.8241 60.4654 16.0691 61.0204 17.7899ZM54.5 19.1085C54.5 20.4594 55.5954 21.5547 56.9463 21.5547C58.2973 21.5547 59.3926 20.4594 59.3926 19.1085C59.3926 17.7575 58.2973 16.6622 56.9463 16.6622C55.5954 16.6622 54.5 17.7575 54.5 19.1085Z" fill="#6B7427"/>
<path fill-rule="evenodd" clip-rule="evenodd" d="M84.5806 23.9002C84.5806 23.9002 84.6727 23.808 83.5728 22.9154C82.4735 22.0225 82.4051 22.1331 82.4051 22.1331C81.7851 22.649 81.3156 22.9634 81.0197 23.1437C80.3176 22.8919 79.5674 22.7742 78.8061 22.8072C78.5778 22.55 78.2043 22.0925 77.737 21.377C77.737 21.377 77.7026 21.251 76.4004 21.7633C75.0959 22.2766 75.1577 22.3919 75.1577 22.3919C75.2985 23.2049 75.34 23.7858 75.3503 24.1347C74.7709 24.6135 74.2967 25.1938 73.9457 25.8395C73.6054 25.9017 73.0465 25.9787 72.2418 26.0069C72.2418 26.0069 72.1166 25.9699 71.8918 27.368C71.6653 28.7654 71.7945 28.7725 71.7945 28.7725C72.0994 28.8941 72.3636 29.0095 72.5904 29.1154C72.6558 28.8757 72.7257 28.5899 72.7949 28.2559C72.7977 28.2409 72.8009 28.2259 72.8046 28.2109C72.8309 28.1018 72.8753 28.0061 72.9281 27.9253C73.0298 27.7695 73.1561 27.6781 73.24 27.6282C73.3975 27.5345 73.5637 27.4947 73.6817 27.4723C73.9396 27.4235 74.3559 27.3916 75.0687 27.3916C75.7805 27.3916 76.1964 27.4235 76.4543 27.4723C76.4678 27.4749 76.4819 27.4777 76.4966 27.4808C76.7846 26.8313 77.3182 26.2904 78.0314 26.0098C79.4708 25.4434 81.097 26.1513 81.6634 27.5907C82.0335 28.5314 81.8594 29.5518 81.2926 30.3041C81.3145 30.328 81.3343 30.351 81.352 30.3722C81.5209 30.5733 81.754 30.9222 82.1077 31.5488C82.2426 31.7876 82.352 31.9907 82.4405 32.1644C83.8392 30.8297 84.3698 28.7317 83.6182 26.8215C83.5598 26.6731 83.4949 26.5291 83.4241 26.3898C83.4954 26.5299 83.5606 26.6746 83.6194 26.8239C84.3709 28.7339 83.8403 30.832 82.4416 32.1668C82.5848 32.4479 82.673 32.6519 82.7256 32.8058C82.7508 32.8795 82.7793 32.9732 82.7957 33.0789C83.362 32.6047 83.8263 32.033 84.1709 31.3982C84.5117 31.3358 85.0707 31.2588 85.875 31.2313C85.875 31.2313 85.9994 31.268 86.2268 29.8696C86.4516 28.4715 86.3227 28.465 86.3227 28.465C85.6091 28.1809 85.1184 27.9295 84.8109 27.7555C84.746 27.3294 84.6388 26.9047 84.4746 26.4874C84.3259 26.1094 84.1416 25.7565 83.9278 25.4291C84.0418 25.0946 84.24 24.5827 84.5806 23.9002Z" fill="#6B7427"/>
<path fill-rule="evenodd" clip-rule="evenodd" d="M81.3119 31.9951C82.0086 33.2285 81.8891 33.2805 81.8891 33.2805C81.3223 33.7909 80.9504 34.1947 80.7219 34.4643C80.8009 34.8472 80.8432 35.243 80.8432 35.6492C80.8432 36.0977 80.7875 36.5321 80.6919 36.9524C80.9143 37.2269 81.2788 37.6405 81.8388 38.1662C81.8388 38.1662 81.9565 38.2195 81.2353 39.4381C80.5117 40.6562 80.4094 40.5765 80.4094 40.5765C79.6509 40.3075 79.1025 40.1746 78.7625 40.1078C78.2 40.5802 77.5463 40.9466 76.8319 41.18C76.713 41.5078 76.5396 42.0641 76.373 42.8717C76.373 42.8717 76.3871 43.0022 74.9877 43.0022C73.5864 43.0022 73.6018 42.8717 73.6018 42.8717C73.4296 42.0341 73.2501 41.4729 73.1312 41.1494C72.4101 40.9012 71.7545 40.5171 71.1933 40.0251C70.852 40.0845 70.3 40.2058 69.5335 40.4589C69.5335 40.4589 69.4299 40.5355 68.7339 39.3027C68.0373 38.07 68.1561 38.0179 68.1561 38.0179C68.7223 37.5081 69.0948 37.1044 69.3233 36.8342C69.2443 36.4512 69.202 36.0554 69.202 35.6492C69.202 35.2007 69.2578 34.7657 69.354 34.3466C69.1315 34.0715 68.7664 33.6586 68.207 33.1329C68.207 33.1329 68.0893 33.079 68.8117 31.8615C69.5329 30.6429 69.6358 30.7231 69.6358 30.7231C70.3949 30.9915 70.9433 31.1245 71.2827 31.1912C71.8458 30.7189 72.4995 30.3525 73.2139 30.119C73.3322 29.7906 73.5062 29.2349 73.6728 28.4268C73.6728 28.4268 73.6575 28.2969 75.0594 28.2969C76.4588 28.2969 76.4447 28.4268 76.4447 28.4268C76.6174 29.2637 76.7976 29.8262 76.9158 30.1491C77.6364 30.3972 78.2913 30.7814 78.8526 31.2727C79.1938 31.2133 79.7459 31.0926 80.5117 30.8396C80.5117 30.8396 80.6159 30.7617 81.3119 31.9951ZM71.367 38.9144C72.2646 39.9186 73.5698 40.5508 75.0226 40.5508C77.7295 40.5508 79.9242 38.3561 79.9242 35.6492C79.9242 34.4291 79.4782 33.313 78.7405 32.4551C79.4749 33.3121 79.9186 34.4257 79.9186 35.6429C79.9186 38.3499 77.7241 40.5444 75.017 40.5444C73.5672 40.5444 72.2644 39.915 71.367 38.9144ZM72.2161 35.6429C72.2161 37.1897 73.4702 38.4438 75.017 38.4438C76.5638 38.4438 77.8179 37.1897 77.8179 35.6429C77.8179 34.0961 76.5638 32.842 75.017 32.842C73.4702 32.842 72.2161 34.0961 72.2161 35.6429Z" fill="#6B7427"/>
<path fill-rule="evenodd" clip-rule="evenodd" d="M68.4532 24.8767C68.8869 25.6445 68.8125 25.677 68.8125 25.677C68.4596 25.9947 68.2281 26.2461 68.0858 26.4139C68.135 26.6523 68.1613 26.8987 68.1613 27.1516C68.1613 27.4309 68.1266 27.7013 68.0671 27.963C68.2056 28.1339 68.4326 28.3914 68.7812 28.7187C68.7812 28.7187 68.8544 28.7518 68.4055 29.5106C67.955 30.2689 67.8913 30.2193 67.8913 30.2193C67.419 30.0518 67.0776 29.9691 66.8659 29.9275C66.5158 30.2216 66.1087 30.4497 65.664 30.595C65.59 30.7991 65.482 31.1455 65.3783 31.6482C65.3783 31.6482 65.387 31.7295 64.5158 31.7295C63.6434 31.7295 63.653 31.6482 63.653 31.6482C63.5458 31.1268 63.434 30.7774 63.36 30.5759C62.911 30.4215 62.5029 30.1823 62.1535 29.876C61.941 29.913 61.5973 29.9885 61.1201 30.1461C61.1201 30.1461 61.0556 30.1937 60.6223 29.4263C60.1886 28.6588 60.2626 28.6263 60.2626 28.6263C60.6151 28.309 60.847 28.0576 60.9893 27.8894C60.9401 27.651 60.9137 27.4046 60.9137 27.1516C60.9137 26.8724 60.9485 26.6016 61.0083 26.3407C60.8699 26.1694 60.6425 25.9123 60.2943 25.585C60.2943 25.585 60.221 25.5515 60.6708 24.7935C61.1197 24.0348 61.1838 24.0848 61.1838 24.0848C61.6564 24.2518 61.9978 24.3346 62.2092 24.3762C62.5597 24.0821 62.9667 23.854 63.4115 23.7087C63.4851 23.5042 63.5934 23.1582 63.6972 22.6551C63.6972 22.6551 63.6877 22.5742 64.5604 22.5742C65.4317 22.5742 65.4229 22.6551 65.4229 22.6551C65.5305 23.1762 65.6426 23.5263 65.7162 23.7273C66.1648 23.8818 66.5726 24.121 66.922 24.4269C67.1345 24.3899 67.4782 24.3148 67.955 24.1572C67.955 24.1572 68.0198 24.1088 68.4532 24.8767ZM61.4859 27.1516C61.4859 28.8369 62.8523 30.2033 64.5375 30.2033C65.2832 30.2033 65.9664 29.9358 66.4965 29.4915C65.9665 29.9355 65.2835 30.2028 64.538 30.2028C62.8527 30.2028 61.4864 28.8365 61.4864 27.1512C61.4864 26.3925 61.7632 25.6986 62.2214 25.1648C61.7629 25.6987 61.4859 26.3928 61.4859 27.1516ZM62.7942 27.1512C62.7942 28.1142 63.575 28.8949 64.538 28.8949C65.501 28.8949 66.2818 28.1142 66.2818 27.1512C66.2818 26.1882 65.501 25.4074 64.538 25.4074C63.575 25.4074 62.7942 26.1882 62.7942 27.1512Z" fill="#6B7427"/>
<path d="M53.1274 30.0511C53.1274 30.5901 53.0143 31.0025 52.7882 31.2881C52.562 31.5736 52.2309 31.7164 51.7949 31.7164C51.3643 31.7164 51.0351 31.5763 50.8071 31.2961C50.5792 31.0158 50.4625 30.6142 50.457 30.0912V29.3737C50.457 28.8292 50.571 28.416 50.799 28.134C51.0287 27.852 51.3589 27.7109 51.7895 27.7109C52.2201 27.7109 52.5493 27.8511 52.7773 28.1313C53.0053 28.4098 53.1219 28.8105 53.1274 29.3335V30.0511ZM52.3431 29.2639C52.3431 28.9408 52.2979 28.7061 52.2074 28.5597C52.1188 28.4115 51.9795 28.3375 51.7895 28.3375C51.605 28.3375 51.4684 28.408 51.3797 28.549C51.2929 28.6882 51.2467 28.9069 51.2413 29.205V30.1528C51.2413 30.4705 51.2847 30.707 51.3716 30.8623C51.4602 31.0158 51.6013 31.0926 51.7949 31.0926C51.9867 31.0926 52.1251 31.0185 52.2101 30.8704C52.2952 30.7222 52.3395 30.4955 52.3431 30.1903V29.2639Z" fill="#6B7427"/>
<path d="M55.8018 31.7186H55.041V28.9132L54.1328 29.1826V28.5908L55.7202 28.0469H55.8018V31.7186Z" fill="#6B7427"/>
<path d="M53.1274 35.7229C53.1274 36.262 53.0143 36.6743 52.7882 36.9599C52.562 37.2455 52.2309 37.3883 51.7949 37.3883C51.3643 37.3883 51.0351 37.2482 50.8071 36.968C50.5792 36.6877 50.4625 36.2861 50.457 35.7631V35.0455C50.457 34.5011 50.571 34.0879 50.799 33.8059C51.0287 33.5238 51.3589 33.3828 51.7895 33.3828C52.2201 33.3828 52.5493 33.5229 52.7773 33.8032C53.0053 34.0816 53.1219 34.4824 53.1274 35.0054V35.7229ZM52.3431 34.9358C52.3431 34.6127 52.2979 34.3779 52.2074 34.2316C52.1188 34.0834 51.9795 34.0093 51.7895 34.0093C51.605 34.0093 51.4684 34.0798 51.3797 34.2209C51.2929 34.3601 51.2467 34.5788 51.2413 34.8768V35.8247C51.2413 36.1424 51.2847 36.3789 51.3716 36.5342C51.4602 36.6877 51.6013 36.7645 51.7949 36.7645C51.9867 36.7645 52.1251 36.6904 52.2101 36.5422C52.2952 36.3941 52.3395 36.1674 52.3431 35.8622V34.9358Z" fill="#6B7427"/>
<path d="M53.1274 41.0667C53.1274 41.6057 53.0143 42.0181 52.7882 42.3037C52.562 42.5893 52.2309 42.7321 51.7949 42.7321C51.3643 42.7321 51.0351 42.592 50.8071 42.3117C50.5792 42.0315 50.4625 41.6298 50.457 41.1068V40.3893C50.457 39.8449 50.571 39.4316 50.799 39.1496C51.0287 38.8676 51.3589 38.7266 51.7895 38.7266C52.2201 38.7266 52.5493 38.8667 52.7773 39.1469C53.0053 39.4254 53.1219 39.8261 53.1274 40.3491V41.0667ZM52.3431 40.2795C52.3431 39.9564 52.2979 39.7217 52.2074 39.5753C52.1188 39.4272 51.9795 39.3531 51.7895 39.3531C51.605 39.3531 51.4684 39.4236 51.3797 39.5646C51.2929 39.7038 51.2467 39.9225 51.2413 40.2206V41.1684C51.2413 41.4862 51.2847 41.7227 51.3716 41.878C51.4602 42.0315 51.6013 42.1082 51.7949 42.1082C51.9867 42.1082 52.1251 42.0341 52.2101 41.886C52.2952 41.7378 52.3395 41.5111 52.3431 41.2059V40.2795Z" fill="#6B7427"/>
<path d="M63.8071 35.7229C63.8071 36.262 63.694 36.6743 63.4678 36.9599C63.2417 37.2455 62.9106 37.3883 62.4746 37.3883C62.044 37.3883 61.7147 37.2482 61.4868 36.968C61.2588 36.6877 61.1421 36.2861 61.1367 35.7631V35.0455C61.1367 34.5011 61.2507 34.0879 61.4787 33.8059C61.7084 33.5238 62.0386 33.3828 62.4692 33.3828C62.8998 33.3828 63.229 33.5229 63.457 33.8032C63.6849 34.0816 63.8016 34.4824 63.8071 35.0054V35.7229ZM63.0228 34.9358C63.0228 34.6127 62.9776 34.3779 62.8871 34.2316C62.7984 34.0834 62.6591 34.0093 62.4692 34.0093C62.2846 34.0093 62.148 34.0798 62.0594 34.2209C61.9726 34.3601 61.9264 34.5788 61.921 34.8768V35.8247C61.921 36.1424 61.9644 36.3789 62.0513 36.5342C62.1399 36.6877 62.281 36.7645 62.4746 36.7645C62.6664 36.7645 62.8048 36.6904 62.8898 36.5422C62.9748 36.3941 63.0192 36.1674 63.0228 35.8622V34.9358Z" fill="#6B7427"/>
<path d="M60.1352 41.0667C60.1352 41.6057 60.0221 42.0181 59.796 42.3037C59.5698 42.5893 59.2387 42.7321 58.8027 42.7321C58.3721 42.7321 58.0429 42.592 57.8149 42.3117C57.587 42.0315 57.4703 41.6298 57.4648 41.1068V40.3893C57.4648 39.8449 57.5788 39.4316 57.8068 39.1496C58.0365 38.8676 58.3667 38.7266 58.7973 38.7266C59.2279 38.7266 59.5572 38.8667 59.7851 39.1469C60.0131 39.4254 60.1298 39.8261 60.1352 40.3491V41.0667ZM59.3509 40.2795C59.3509 39.9564 59.3057 39.7217 59.2152 39.5753C59.1266 39.4272 58.9873 39.3531 58.7973 39.3531C58.6128 39.3531 58.4762 39.4236 58.3875 39.5646C58.3007 39.7038 58.2545 39.9225 58.2491 40.2206V41.1684C58.2491 41.4862 58.2925 41.7227 58.3794 41.878C58.468 42.0315 58.6091 42.1082 58.8027 42.1082C58.9945 42.1082 59.1329 42.0341 59.2179 41.886C59.303 41.7378 59.3473 41.5111 59.3509 41.2059V40.2795Z" fill="#6B7427"/>
<path d="M55.8018 37.0545H55.041V34.2491L54.1328 34.5186V33.9268L55.7202 33.3828H55.8018V37.0545Z" fill="#6B7427"/>
<path d="M55.8018 42.7321H55.041V39.6716L54.1328 39.9656V39.32L55.7202 38.7266H55.8018V42.7321Z" fill="#6B7427"/>
<path d="M59.4697 37.0545H58.709V34.2491L57.8008 34.5186V33.9268L59.3881 33.3828H59.4697V37.0545Z" fill="#6B7427"/>
<path d="M63.1416 42.7321H62.3808V39.6716L61.4727 39.9656V39.32L63.06 38.7266H63.1416V42.7321Z" fill="#6B7427"/>
<path d="M66.8135 42.7321H66.0527V39.6716L65.1445 39.9656V39.32L66.7319 38.7266H66.8135V42.7321Z" fill="#6B7427"/>
<path d="M82.5011 3.33792H54.4625C54.0938 3.33792 53.795 3.63681 53.795 4.00551V13.5186H50.457V3.33792C50.457 1.49444 51.9515 0 53.795 0H83.1687C85.0122 0 86.5066 1.49444 86.5066 3.33792V20.1944H83.1687V4.00551C83.1687 3.63681 82.8698 3.33792 82.5011 3.33792Z" fill="#6B7427"/>
</svg>
