<svg width="54" height="28" viewBox="0 0 54 28" fill="none" xmlns="http://www.w3.org/2000/svg">
<path d="M7.74282 1.60281C7.8543 1.15235 8.25856 0.835938 8.72262 0.835938H14.8361C15.3002 0.835938 15.7044 1.15235 15.8159 1.60282L16.4154 4.02526C16.5729 4.66173 16.0913 5.27709 15.4356 5.27709H8.12312C7.46746 5.27709 6.98582 4.66173 7.14333 4.02526L7.74282 1.60281Z" fill="#005C96"/>
<path fill-rule="evenodd" clip-rule="evenodd" d="M6.54797 2.24609H2.99917C1.88427 2.24609 0.980469 3.1499 0.980469 4.2648V25.4612C0.980469 26.5761 1.88427 27.4799 2.99917 27.4799H20.7638C21.8787 27.4799 22.7825 26.5761 22.7825 25.4612V4.2648C22.7825 3.1499 21.8787 2.24609 20.7638 2.24609H17.019L17.3993 3.78286C17.4394 3.94501 17.4588 4.10648 17.4594 4.2648H20.36C20.583 4.2648 20.7638 4.44556 20.7638 4.66854V25.0575C20.7638 25.2804 20.583 25.4612 20.36 25.4612H3.40292C3.17993 25.4612 2.99917 25.2804 2.99917 25.0575V4.66854C2.99917 4.44556 3.17994 4.2648 3.40292 4.2648H6.10758C6.10814 4.10648 6.12753 3.94501 6.16766 3.78286L6.54797 2.24609Z" fill="#005C96"/>
<path d="M11.837 9.91797C11.6056 9.91797 11.418 10.0837 11.418 10.2881L11.418 11.7684C11.418 11.9728 11.6056 12.1385 11.837 12.1385L18.67 12.1385C18.9015 12.1385 19.0891 11.9728 19.0891 11.7684L19.0891 10.2881C19.0891 10.0837 18.9015 9.91797 18.67 9.91797L11.837 9.91797Z" fill="#005C96"/>
<path d="M11.837 15.3711C11.6056 15.3711 11.418 15.5368 11.418 15.7412L11.418 17.2216C11.418 17.426 11.6056 17.5917 11.837 17.5917L18.67 17.5917C18.9015 17.5917 19.089 17.426 19.089 17.2216L19.089 15.7412C19.089 15.5368 18.9015 15.3711 18.67 15.3711L11.837 15.3711Z" fill="#005C96"/>
<path d="M11.837 20.8203C11.6056 20.8203 11.418 20.986 11.418 21.1904L11.418 22.6708C11.418 22.8752 11.6056 23.0409 11.837 23.0409L18.67 23.0409C18.9015 23.0409 19.089 22.8752 19.089 22.6708L19.089 21.1904C19.089 20.986 18.9015 20.8203 18.67 20.8203L11.837 20.8203Z" fill="#005C96"/>
<circle cx="7.27826" cy="21.9306" r="1.11029" fill="#005C96"/>
<circle cx="7.27826" cy="16.4814" r="1.11029" fill="#005C96"/>
<path fill-rule="evenodd" clip-rule="evenodd" d="M9.76679 8.12643C9.95473 8.2374 10.0205 8.47764 9.91518 8.66884L7.8853 12.3552C7.76931 12.5658 7.49608 12.629 7.29939 12.4907L4.98794 10.8653C4.80398 10.736 4.76118 10.4812 4.89275 10.2988L5.29785 9.73731C5.42345 9.56321 5.66333 9.51784 5.84384 9.63405L7.03168 10.3988C7.06115 10.4178 7.10051 10.4079 7.11746 10.3772L8.50698 7.86467C8.61705 7.66564 8.86971 7.59677 9.06556 7.7124L9.40606 7.91345L9.76679 8.12643Z" fill="#005C96"/>
<path d="M37.9655 1.60281C38.077 1.15235 38.4812 0.835938 38.9453 0.835938H45.0588C45.5228 0.835938 45.9271 1.15235 46.0386 1.60282L46.6381 4.02526C46.7956 4.66173 46.3139 5.27709 45.6583 5.27709H38.3458C37.6901 5.27709 37.2085 4.66173 37.366 4.02526L37.9655 1.60281Z" fill="#6B7427"/>
<path fill-rule="evenodd" clip-rule="evenodd" d="M36.7667 2.24609H33.2179C32.103 2.24609 31.1992 3.1499 31.1992 4.2648V25.4612C31.1992 26.5761 32.103 27.4799 33.2179 27.4799H50.9825C52.0974 27.4799 53.0012 26.5761 53.0012 25.4612V4.2648C53.0012 3.1499 52.0974 2.24609 50.9825 2.24609H47.2378L47.6181 3.78286C47.6582 3.94501 47.6776 4.10648 47.6781 4.2648H50.5788C50.8018 4.2648 50.9825 4.44556 50.9825 4.66854V25.0575C50.9825 25.2804 50.8018 25.4612 50.5788 25.4612H33.6217C33.3987 25.4612 33.2179 25.2804 33.2179 25.0575V4.66854C33.2179 4.44556 33.3987 4.2648 33.6217 4.2648H36.3263C36.3269 4.10648 36.3463 3.94501 36.3864 3.78286L36.7667 2.24609Z" fill="#6B7427"/>
<path d="M42.0557 9.91797C41.8243 9.91797 41.6367 10.0837 41.6367 10.2881L41.6367 11.7684C41.6367 11.9728 41.8243 12.1385 42.0557 12.1385L48.8888 12.1385C49.1202 12.1385 49.3078 11.9728 49.3078 11.7684L49.3078 10.2881C49.3078 10.0837 49.1202 9.91797 48.8888 9.91797L42.0557 9.91797Z" fill="#6B7427"/>
<path d="M42.0557 15.3711C41.8243 15.3711 41.6367 15.5368 41.6367 15.7412L41.6367 17.2216C41.6367 17.426 41.8243 17.5917 42.0557 17.5917L48.8888 17.5917C49.1202 17.5917 49.3078 17.426 49.3078 17.2216L49.3078 15.7412C49.3078 15.5368 49.1202 15.3711 48.8888 15.3711L42.0557 15.3711Z" fill="#6B7427"/>
<path d="M42.0557 20.8203C41.8243 20.8203 41.6367 20.986 41.6367 21.1904L41.6367 22.6708C41.6367 22.8752 41.8243 23.0409 42.0557 23.0409L48.8888 23.0409C49.1202 23.0409 49.3078 22.8752 49.3078 22.6708L49.3078 21.1904C49.3078 20.986 49.1202 20.8203 48.8888 20.8203L42.0557 20.8203Z" fill="#6B7427"/>
<circle cx="37.497" cy="21.9306" r="1.11029" fill="#6B7427"/>
<circle cx="37.497" cy="16.4814" r="1.11029" fill="#6B7427"/>
<path fill-rule="evenodd" clip-rule="evenodd" d="M39.9855 8.12643C40.1735 8.2374 40.2392 8.47764 40.1339 8.66884L38.104 12.3552C37.9881 12.5658 37.7148 12.629 37.5181 12.4907L35.2067 10.8653C35.0227 10.736 34.9799 10.4812 35.1115 10.2988L35.5166 9.73731C35.6422 9.56321 35.8821 9.51784 36.0626 9.63405L37.2504 10.3988C37.2799 10.4178 37.3193 10.4079 37.3362 10.3772L38.7257 7.86467C38.8358 7.66564 39.0885 7.59677 39.2843 7.7124L39.6248 7.91345L39.9855 8.12643Z" fill="#6B7427"/>
</svg>
