<svg width="69" height="35" viewBox="0 0 69 35" fill="none" xmlns="http://www.w3.org/2000/svg">
<path d="M8.7957 0.99783C8.94075 0.411702 9.46676 0 10.0706 0H18.0252C18.629 0 19.155 0.411704 19.3001 0.997831L20.0801 4.14982C20.285 4.97797 19.6584 5.77865 18.8052 5.77865H9.29053C8.4374 5.77865 7.81071 4.97796 8.01566 4.14982L8.7957 0.99783Z" fill="#005C96"/>
<path fill-rule="evenodd" clip-rule="evenodd" d="M7.24331 1.83594H2.62666C1.176 1.83594 0 3.01193 0 4.46259V32.0425C0 33.4932 1.176 34.6692 2.62666 34.6692H25.7412C27.1919 34.6692 28.3679 33.4932 28.3679 32.0425V4.4626C28.3679 3.01193 27.1919 1.83594 25.7412 1.83594H20.8671L21.3623 3.83699C21.4144 4.04747 21.4396 4.25706 21.4405 4.4626H25.2159C25.5061 4.4626 25.7412 4.69779 25.7412 4.98793V31.5172C25.7412 31.8073 25.5061 32.0425 25.2159 32.0425H3.15199C2.86186 32.0425 2.62666 31.8073 2.62666 31.5172V4.98793C2.62666 4.69779 2.86186 4.4626 3.15199 4.4626H6.66994C6.67079 4.25706 6.69601 4.04747 6.7481 3.83698L7.24331 1.83594Z" fill="#005C96"/>
<path d="M14.1272 11.8164C13.8261 11.8164 13.582 12.032 13.582 12.298L13.582 14.2242C13.582 14.4901 13.8261 14.7057 14.1272 14.7057L23.0181 14.7057C23.3192 14.7057 23.5633 14.4901 23.5633 14.2242L23.5633 12.298C23.5633 12.032 23.3192 11.8164 23.0181 11.8164L14.1272 11.8164Z" fill="#005C96"/>
<path d="M14.1272 18.9141C13.8261 18.9141 13.582 19.1297 13.582 19.3956L13.582 21.3218C13.582 21.5878 13.8261 21.8034 14.1272 21.8034L23.0181 21.8034C23.3192 21.8034 23.5633 21.5878 23.5633 21.3218L23.5633 19.3956C23.5633 19.1297 23.3192 18.9141 23.0181 18.9141L14.1272 18.9141Z" fill="#005C96"/>
<path d="M14.1272 26.0039C13.8261 26.0039 13.582 26.2195 13.582 26.4855L13.582 28.4117C13.582 28.6776 13.8261 28.8932 14.1272 28.8932L23.0181 28.8932C23.3192 28.8932 23.5633 28.6776 23.5633 28.4117L23.5633 26.4855C23.5633 26.2195 23.3192 26.0039 23.0181 26.0039L14.1272 26.0039Z" fill="#005C96"/>
<circle cx="8.19857" cy="27.4486" r="1.44466" fill="#005C96"/>
<circle cx="8.19857" cy="20.3587" r="1.44466" fill="#005C96"/>
<path fill-rule="evenodd" clip-rule="evenodd" d="M11.4373 9.48678C11.6819 9.63116 11.7674 9.94377 11.6304 10.1925L8.98921 14.9891C8.8383 15.2632 8.48278 15.3454 8.22685 15.1654L5.21929 13.0505C4.97993 12.8822 4.92423 12.5507 5.09543 12.3134L5.62253 11.5828C5.78595 11.3563 6.09808 11.2972 6.33294 11.4484L7.87852 12.4435C7.91686 12.4682 7.96807 12.4553 7.99014 12.4154L9.79812 9.14619C9.94134 8.88722 10.2701 8.7976 10.5249 8.94806L10.968 9.20965L11.4373 9.48678Z" fill="#005C96"/>
<path d="M48.8035 0.99783C48.9486 0.411702 49.4746 0 50.0784 0H58.033C58.6368 0 59.1628 0.411704 59.3079 0.997831L60.0879 4.14982C60.2929 4.97797 59.6662 5.77865 58.813 5.77865H49.2983C48.4452 5.77865 47.8185 4.97796 48.0235 4.14982L48.8035 0.99783Z" fill="#6B7427"/>
<path fill-rule="evenodd" clip-rule="evenodd" d="M47.2441 1.83594H42.6267C41.176 1.83594 40 3.01193 40 4.46259V32.0425C40 33.4932 41.176 34.6692 42.6267 34.6692H65.7412C67.1919 34.6692 68.3679 33.4932 68.3679 32.0425V4.4626C68.3679 3.01193 67.1919 1.83594 65.7412 1.83594H60.868L61.3631 3.83657C61.4153 4.04719 61.4405 4.25693 61.4413 4.4626H65.2159C65.5061 4.4626 65.7412 4.69779 65.7412 4.98793V31.5172C65.7412 31.8073 65.5061 32.0425 65.2159 32.0425H43.152C42.8619 32.0425 42.6267 31.8073 42.6267 31.5172V4.98793C42.6267 4.69779 42.8619 4.4626 43.152 4.4626H46.6708C46.6716 4.25693 46.6968 4.04719 46.749 3.83657L47.2441 1.83594Z" fill="#6B7427"/>
<path d="M54.1233 11.8164C53.8222 11.8164 53.5781 12.032 53.5781 12.298L53.5781 14.2242C53.5781 14.4901 53.8222 14.7057 54.1233 14.7057L63.0142 14.7057C63.3153 14.7057 63.5594 14.4901 63.5594 14.2242L63.5594 12.298C63.5594 12.032 63.3153 11.8164 63.0142 11.8164L54.1233 11.8164Z" fill="#6B7427"/>
<path d="M54.1233 18.9141C53.8222 18.9141 53.5781 19.1297 53.5781 19.3956L53.5781 21.3218C53.5781 21.5878 53.8222 21.8034 54.1233 21.8034L63.0142 21.8034C63.3153 21.8034 63.5594 21.5878 63.5594 21.3218L63.5594 19.3956C63.5594 19.1297 63.3153 18.9141 63.0142 18.9141L54.1233 18.9141Z" fill="#6B7427"/>
<path d="M54.1233 26.0039C53.8222 26.0039 53.5781 26.2195 53.5781 26.4855L53.5781 28.4117C53.5781 28.6776 53.8222 28.8932 54.1233 28.8932L63.0142 28.8932C63.3153 28.8932 63.5594 28.6776 63.5594 28.4117L63.5594 26.4855C63.5594 26.2195 63.3153 26.0039 63.0142 26.0039L54.1233 26.0039Z" fill="#6B7427"/>
<circle cx="48.1908" cy="27.4486" r="1.44466" fill="#6B7427"/>
<circle cx="48.1908" cy="20.3587" r="1.44466" fill="#6B7427"/>
<path fill-rule="evenodd" clip-rule="evenodd" d="M51.4256 9.48678C51.6702 9.63116 51.7557 9.94377 51.6187 10.1925L48.9775 14.9891C48.8266 15.2632 48.4711 15.3454 48.2151 15.1654L45.2076 13.0505C44.9682 12.8822 44.9125 12.5507 45.0837 12.3134L45.6108 11.5828C45.7742 11.3563 46.0864 11.2972 46.3212 11.4484L47.8668 12.4435C47.9051 12.4682 47.9564 12.4553 47.9784 12.4154L49.7864 9.14619C49.9296 8.88722 50.2584 8.7976 50.5132 8.94806L50.9563 9.20965L51.4256 9.48678Z" fill="#6B7427"/>
</svg>
