<svg width="68" height="37" viewBox="0 0 68 37" fill="none" xmlns="http://www.w3.org/2000/svg">
<path fill-rule="evenodd" clip-rule="evenodd" d="M19.132 23.7561C22.6339 21.9101 25.0213 18.2339 25.0213 14C25.0213 7.91312 20.0869 2.97872 14 2.97872C7.91312 2.97872 2.97872 7.91312 2.97872 14C2.97872 18.3662 5.51761 22.1393 9.19957 23.9237V27.1553C3.83199 25.1962 0 20.0456 0 14C0 6.26801 6.26801 0 14 0C21.732 0 28 6.26801 28 14C28 18.5285 25.8499 22.5549 22.5148 25.1138C22.0112 24.3773 21.1644 23.8939 20.2048 23.8939C19.9333 23.8939 19.6711 23.9326 19.4232 24.0046C19.332 23.9153 19.2347 23.8323 19.132 23.7561ZM20.893 15.4151C21.6454 14.9734 21.6454 13.8855 20.893 13.4438L11.4364 7.89307C10.6745 7.44587 9.71498 7.99526 9.71498 8.87869L9.71497 18.2387C10.2215 17.5241 11.0552 17.0578 11.998 17.0578C13.2674 17.0578 14.3389 17.9031 14.6805 19.0616L20.893 15.4151ZM11.991 18.4854C11.2353 18.4854 10.6232 19.0975 10.6232 19.8533V26.0085H10.6287V30.4521C10.3986 30.2981 10.204 30.1683 10.027 30.0502L10.0257 30.0493L10.0244 30.0485L10.0243 30.0484C9.32776 29.5838 8.90364 29.3009 7.66269 28.4376C5.98664 27.2717 4.10804 28.6577 5.76685 30.4521C6.08953 30.8012 6.42625 31.1946 6.78014 31.6081L6.78015 31.6081C8.64433 33.7861 10.9852 36.5212 14.263 36.2654H18.8356C20.3464 36.2654 21.5713 35.0405 21.5713 33.5297V26.6906H21.5712C21.5712 25.9352 20.9588 25.3228 20.2034 25.3228C19.6565 25.3228 19.1846 25.6438 18.9657 26.1076C18.8757 26.0468 18.8356 26.0067 18.8356 26.0067H18.8353V26.0055C18.8353 25.25 18.223 24.6376 17.4675 24.6376C16.7121 24.6376 16.0997 25.25 16.0997 26.0055L16.0997 26.0067L16.0995 26.0066L16.0995 26.0042V25.3203C16.0995 24.5646 15.4874 23.9525 14.7316 23.9525C13.9759 23.9525 13.3638 24.5646 13.3638 25.3203V25.6647L13.3589 25.6641V19.8533C13.3589 19.0975 12.7468 18.4854 11.991 18.4854Z" fill="#005C96"/>
<path fill-rule="evenodd" clip-rule="evenodd" d="M59.132 23.7561C62.6339 21.9101 65.0213 18.2339 65.0213 14C65.0213 7.91312 60.0869 2.97872 54 2.97872C47.9131 2.97872 42.9787 7.91312 42.9787 14C42.9787 18.3662 45.5176 22.1393 49.1996 23.9237V27.1553C43.832 25.1962 40 20.0456 40 14C40 6.26801 46.268 0 54 0C61.732 0 68 6.26801 68 14C68 18.5285 65.8499 22.5549 62.5148 25.1138C62.0112 24.3773 61.1644 23.8939 60.2048 23.8939C59.9333 23.8939 59.6711 23.9326 59.4232 24.0046C59.332 23.9153 59.2347 23.8323 59.132 23.7561ZM60.893 15.4151C61.6454 14.9734 61.6454 13.8855 60.893 13.4438L51.4364 7.89307C50.6745 7.44587 49.715 7.99526 49.715 8.87869L49.715 18.2387C50.2215 17.5241 51.0552 17.0578 51.998 17.0578C53.2674 17.0578 54.3389 17.9031 54.6805 19.0616L60.893 15.4151ZM51.991 18.4854C51.2353 18.4854 50.6232 19.0975 50.6232 19.8533V26.0085H50.6287V30.4521C50.3975 30.2973 50.2021 30.167 50.0244 30.0485L50.0243 30.0484C49.3278 29.5838 48.9036 29.3009 47.6627 28.4376C45.9866 27.2717 44.108 28.6577 45.7669 30.4521C46.0895 30.8012 46.4262 31.1945 46.7801 31.608L46.7801 31.6081L46.7802 31.6081C48.6443 33.7861 50.9852 36.5212 54.263 36.2654H58.8356C60.3464 36.2654 61.5713 35.0405 61.5713 33.5297V26.6906L61.5712 26.6906C61.5712 25.9352 60.9588 25.3228 60.2034 25.3228C59.6565 25.3228 59.1846 25.6438 58.9657 26.1076C58.8757 26.0468 58.8356 26.0067 58.8356 26.0067H58.8353L58.8353 26.0055C58.8353 25.25 58.223 24.6376 57.4675 24.6376C56.7121 24.6376 56.0997 25.25 56.0997 26.0055V26.0067L56.0995 26.0066L56.0995 26.0042V25.3203C56.0995 24.5646 55.4874 23.9525 54.7316 23.9525C53.9759 23.9525 53.3638 24.5646 53.3638 25.3203V25.6647L53.3589 25.6641V19.8533C53.3589 19.0975 52.7468 18.4854 51.991 18.4854Z" fill="#6B7427"/>
</svg>
