<svg width="54" height="30" viewBox="0 0 54 30" fill="none" xmlns="http://www.w3.org/2000/svg">
<path fill-rule="evenodd" clip-rule="evenodd" d="M15.8162 19.6388C18.7112 18.1128 20.6848 15.0737 20.6848 11.5736C20.6848 6.54168 16.6056 2.46247 11.5736 2.46247C6.54168 2.46247 2.46247 6.54168 2.46247 11.5736C2.46247 15.1831 4.56134 18.3023 7.60517 19.7774V22.449C3.16786 20.8294 0 16.5714 0 11.5736C0 5.18169 5.18169 0 11.5736 0C17.9656 0 23.1473 5.18169 23.1473 11.5736C23.1473 15.3173 21.3698 18.6458 18.6127 20.7613C18.1964 20.1524 17.4964 19.7528 16.7031 19.7528C16.4787 19.7528 16.2619 19.7847 16.0569 19.8443C15.9815 19.7705 15.9011 19.7018 15.8162 19.6388ZM17.272 12.7443C17.894 12.3792 17.894 11.4798 17.272 11.1147L9.4543 6.52596C8.82446 6.15626 8.03125 6.61043 8.03125 7.34075L8.03125 15.0786C8.44998 14.4878 9.13917 14.1023 9.91859 14.1023C10.968 14.1023 11.8538 14.8011 12.1362 15.7588L17.272 12.7443ZM9.91201 15.2812C9.28727 15.2812 8.78125 15.7873 8.78125 16.412V21.5005H8.78576V25.174C8.59482 25.0461 8.43341 24.9384 8.28664 24.8405L8.28619 24.8402L8.28613 24.8402C7.7103 24.4561 7.35967 24.2222 6.33383 23.5086C4.94825 22.5448 3.39524 23.6905 4.76656 25.174C5.03328 25.4625 5.3116 25.7877 5.60411 26.1294L5.60412 26.1294L5.60422 26.1296L5.60424 26.1296C7.14533 27.9301 9.08052 30.1912 11.7902 29.9797H15.5704C16.8193 29.9797 17.8319 28.9671 17.8319 27.7182V22.0644H17.8318C17.8318 21.4399 17.3256 20.9336 16.7011 20.9336C16.249 20.9336 15.8588 21.1989 15.6779 21.5824C15.6035 21.5321 15.5704 21.499 15.5704 21.499H15.5701V21.498C15.5701 20.8734 15.0639 20.3672 14.4394 20.3672C13.8149 20.3672 13.3086 20.8734 13.3086 21.498V21.4989L13.3084 21.4989L13.3084 21.4969V20.9315C13.3084 20.3068 12.8024 19.8008 12.1776 19.8008C11.5529 19.8008 11.0469 20.3068 11.0469 20.9315V21.2162L11.0428 21.2157V16.412C11.0428 15.7873 10.5368 15.2812 9.91201 15.2812Z" fill="#005C96"/>
<path fill-rule="evenodd" clip-rule="evenodd" d="M45.8162 19.6388C48.7112 18.1128 50.6848 15.0737 50.6848 11.5736C50.6848 6.54168 46.6056 2.46247 41.5736 2.46247C36.5417 2.46247 32.4625 6.54168 32.4625 11.5736C32.4625 15.1831 34.5613 18.3023 37.6052 19.7774V22.449C33.1679 20.8294 30 16.5714 30 11.5736C30 5.18169 35.1817 0 41.5736 0C47.9656 0 53.1473 5.18169 53.1473 11.5736C53.1473 15.3173 51.3698 18.6458 48.6127 20.7613C48.1964 20.1524 47.4964 19.7528 46.7031 19.7528C46.4787 19.7528 46.2619 19.7847 46.0569 19.8443C45.9815 19.7705 45.9011 19.7018 45.8162 19.6388ZM47.2759 12.7443C47.8979 12.3792 47.8979 11.4798 47.2759 11.1147L39.4582 6.52596C38.8284 6.15626 38.0352 6.61043 38.0352 7.34075L38.0352 15.0786C38.4539 14.4878 39.1431 14.1023 39.9225 14.1023C40.9719 14.1023 41.8577 14.8011 42.1401 15.7588L47.2759 12.7443ZM39.9159 15.2812C39.2912 15.2812 38.7852 15.7873 38.7852 16.412V21.5005H38.7897V25.174C38.5987 25.0461 38.4373 24.9384 38.2905 24.8405L38.2901 24.8402L38.29 24.8402C37.7142 24.4561 37.3636 24.2222 36.3377 23.5086C34.9522 22.5448 33.3991 23.6905 34.7705 25.174C35.0372 25.4625 35.3155 25.7877 35.608 26.1294L35.608 26.1294L35.6081 26.1296L35.6081 26.1296C37.1492 27.9301 39.0844 30.1912 41.7941 29.9797H45.5743C46.8232 29.9797 47.8358 28.9671 47.8358 27.7182V22.0644H47.8357C47.8357 21.4399 47.3295 20.9336 46.705 20.9336C46.2529 20.9336 45.8627 21.1989 45.6818 21.5824C45.6074 21.5321 45.5743 21.499 45.5743 21.499H45.574V21.498C45.574 20.8734 45.0678 20.3672 44.4433 20.3672C43.8188 20.3672 43.3125 20.8734 43.3125 21.498V21.4989L43.3123 21.4989L43.3123 21.4969V20.9315C43.3123 20.3068 42.8063 19.8008 42.1815 19.8008C41.5568 19.8008 41.0508 20.3068 41.0508 20.9315V21.2162L41.0467 21.2157V16.412C41.0467 15.7873 40.5407 15.2812 39.9159 15.2812Z" fill="#6B7427"/>
</svg>
