<svg width="82" height="40" viewBox="0 0 82 40" fill="none" xmlns="http://www.w3.org/2000/svg">
<path fill-rule="evenodd" clip-rule="evenodd" d="M38.1631 33.9648C38.8423 33.2266 39.2188 32.2578 39.2188 31.2539V4C39.2188 1.78906 37.4277 0 35.2188 0H9.21875C7.00952 0 5.21875 1.78906 5.21875 4V21H8.21875V4C8.21875 3.86719 8.24536 3.73828 8.2937 3.62109C8.34229 3.50391 8.41235 3.39453 8.49927 3.30469C8.62256 3.17578 8.77979 3.08203 8.95605 3.03516C9.03979 3.01172 9.12793 3 9.21875 3H35.2188C35.771 3 36.2188 3.44922 36.2188 4V31.2539C36.2188 31.3828 36.1938 31.5117 36.1465 31.6289C36.1021 31.7422 36.0376 31.8438 35.9551 31.9336L31.5928 36.6758C31.4033 36.8828 31.1362 37 30.8564 37H9.21875C8.6665 37 8.21875 36.5508 8.21875 36V34.8477H5.21875V36C5.21875 38.2109 7.00952 40 9.21875 40H30.8564C31.4126 40 31.9561 39.8828 32.4551 39.6641C32.9604 39.4453 33.4204 39.1211 33.8013 38.707L38.1631 33.9648ZM13.1768 5.35547C13.0991 5.30469 13.0068 5.27734 12.908 5.27734H10.908C10.8005 5.27734 10.7012 5.3125 10.6196 5.36719C10.4915 5.45703 10.408 5.60938 10.408 5.77734V12.75C10.408 12.8594 10.4443 12.9648 10.5056 13.0469C10.5432 13.0977 10.5906 13.1406 10.6448 13.1758C10.7212 13.2227 10.8113 13.25 10.908 13.25H12.908C12.9509 13.25 12.9927 13.2461 13.0325 13.2344C13.0786 13.2227 13.1223 13.2031 13.1624 13.1797L13.2129 13.1445C13.3315 13.0547 13.408 12.9102 13.408 12.75V5.77734C13.408 5.66797 13.3733 5.56641 13.3142 5.48438C13.2771 5.43359 13.2305 5.39062 13.1768 5.35547ZM17.9277 6.91797L18.0269 6.97656L18.1035 7.05469L18.1548 7.12891C18.1958 7.19922 18.2188 7.28125 18.2188 7.37109V12.75C18.2188 12.8398 18.1943 12.9258 18.1514 13L18.0991 13.0703L18.0308 13.1367C17.9819 13.1758 17.9263 13.207 17.8652 13.2266L17.792 13.2461L17.7188 13.25H15.7188C15.4426 13.25 15.2188 13.0234 15.2188 12.75V7.37109C15.2188 7.26562 15.2524 7.16406 15.3098 7.08203L15.3674 7.01953L15.437 6.95703C15.5173 6.90234 15.6143 6.87109 15.7188 6.87109H17.7188L17.7925 6.875L17.8838 6.90234L17.9277 6.91797ZM22.7188 8.46875C22.9951 8.46875 23.2188 8.69141 23.2188 8.96875V12.7539C23.2188 12.8711 23.1777 12.9805 23.1089 13.0664C23.0176 13.1797 22.8765 13.2539 22.7188 13.2539H20.7188C20.6685 13.2539 20.6201 13.2461 20.5747 13.2344L20.5 13.2031C20.3911 13.1523 20.3042 13.0586 20.2573 12.9453L20.2319 12.8672L20.2188 12.7539V8.96875C20.2188 8.69141 20.4424 8.46875 20.7188 8.46875H22.7188ZM23.2188 16.5C23.2188 16.2227 23.4424 16 23.7188 16H31.8726C32.019 16 32.1509 16.0625 32.2422 16.1602C32.3232 16.25 32.3726 16.3711 32.3726 16.5V18.5L32.3657 18.582L32.3472 18.6562L32.3179 18.7266L32.2739 18.7969C32.1831 18.9219 32.0371 19 31.8726 19H23.7188C23.6123 19 23.5137 18.9648 23.4321 18.9102L23.3916 18.875C23.3447 18.8398 23.3057 18.7891 23.2764 18.7344C23.2397 18.6641 23.2188 18.5859 23.2188 18.5V16.5ZM23.3179 21.1992C23.2559 21.2852 23.2188 21.3867 23.2188 21.5V23.5C23.2188 23.7773 23.4424 24 23.7188 24H31.8726C31.9497 24 32.0229 23.9844 32.0879 23.9531C32.1719 23.9141 32.2427 23.8516 32.2925 23.7734C32.3433 23.6953 32.3726 23.6016 32.3726 23.5V21.5C32.3726 21.2227 32.1489 21 31.8726 21H23.7188C23.5547 21 23.4092 21.0781 23.3179 21.1992ZM6.81274 27.9141C6.56177 24.9453 8.30811 22.0195 11.2649 20.875C14.8335 19.4883 18.8145 21.2188 20.1558 24.7344C21.4976 28.25 19.6924 32.2227 16.1235 33.6094C12.9229 34.8516 9.39038 33.5859 7.72803 30.7773L2.02881 32.9883C1.25977 33.2891 0.396729 32.9023 0.101318 32.1289C-0.0410156 31.7578 -0.0256348 31.3633 0.114502 31.0195C0.193115 30.8281 0.310791 30.6523 0.46167 30.5078C0.600586 30.3711 0.768066 30.2617 0.959229 30.1875L6.81274 27.9141ZM12.3364 23.6836C10.2537 24.4922 9.29492 26.7539 10.0237 28.6641C10.7524 30.5742 12.9692 31.6094 15.052 30.8008C17.1348 29.9922 18.0938 27.7266 17.3647 25.8164C16.6362 23.9062 14.4192 22.875 12.3364 23.6836Z" fill="#0170B7"/>
<path fill-rule="evenodd" clip-rule="evenodd" d="M80.7847 33.0703C81.0679 32.5117 81.2188 31.8906 81.2188 31.2539V4C81.2188 1.78906 79.4277 0 77.2188 0H51.2188C49.0098 0 47.2188 1.78906 47.2188 4V21H50.2188V4C50.2188 3.44922 50.6665 3 51.2188 3H77.2188C77.3936 3 77.5576 3.04297 77.7007 3.12109C78.0093 3.29297 78.2188 3.625 78.2188 4V31.2539L78.2085 31.3945L78.1865 31.5078C78.1631 31.5977 78.1274 31.6836 78.0806 31.7617C78.0449 31.8242 78.0029 31.8828 77.9551 31.9336L73.5928 36.6758C73.4033 36.8828 73.1362 37 72.8564 37H51.2188C50.6665 37 50.2188 36.5508 50.2188 36V34.8477H47.2188V36C47.2188 38.2109 49.0098 40 51.2188 40H72.8564C73.9756 40 75.0439 39.5312 75.8013 38.707L80.1631 33.9648C80.2534 33.8672 80.3384 33.7656 80.418 33.6602C80.5576 33.4727 80.6802 33.2773 80.7847 33.0703ZM55.4082 5.77734C55.4082 5.5 55.1846 5.27734 54.9082 5.27734H52.9082C52.6318 5.27734 52.4082 5.5 52.4082 5.77734V12.75C52.4082 13.0273 52.6318 13.25 52.9082 13.25H54.9082C55.1846 13.25 55.4082 13.0273 55.4082 12.75V5.77734ZM59.7188 6.87109C59.9951 6.87109 60.2188 7.09375 60.2188 7.37109V12.75C60.2188 13.0234 59.9951 13.25 59.7188 13.25H57.7188C57.4424 13.25 57.2188 13.0234 57.2188 12.75V7.37109C57.2188 7.09375 57.4424 6.87109 57.7188 6.87109H59.7188ZM64.7188 8.46875C64.9951 8.46875 65.2188 8.69141 65.2188 8.96875V12.7539C65.2188 13.0273 64.9951 13.2539 64.7188 13.2539H62.7188C62.4424 13.2539 62.2188 13.0273 62.2188 12.7539V8.96875C62.2188 8.69141 62.4424 8.46875 62.7188 8.46875H64.7188ZM65.2188 16.5C65.2188 16.2227 65.4424 16 65.7188 16H73.8726C74.1489 16 74.3726 16.2227 74.3726 16.5V18.5C74.3726 18.5898 74.3496 18.6719 74.3096 18.7422C74.2246 18.8945 74.0605 19 73.8726 19H65.7188C65.4424 19 65.2188 18.7773 65.2188 18.5V16.5ZM65.3623 21.1484C65.2734 21.2383 65.2188 21.3633 65.2188 21.5V23.5C65.2188 23.7773 65.4424 24 65.7188 24H73.8726C74.0532 24 74.2119 23.9062 74.2993 23.7617C74.3457 23.6875 74.3726 23.5977 74.3726 23.5V21.5C74.3726 21.4258 74.356 21.3516 74.3262 21.2891L74.2925 21.2266C74.2036 21.0898 74.0488 21 73.8726 21H65.7188C65.6611 21 65.6055 21.0078 65.5537 21.0273C65.481 21.0547 65.4155 21.0977 65.3623 21.1484ZM48.813 27.9141C48.562 24.9453 50.3081 22.0195 53.2646 20.875C56.8335 19.4883 60.8145 21.2188 62.1558 24.7344C63.4976 28.25 61.6924 32.2227 58.1235 33.6094C54.9229 34.8516 51.3906 33.5859 49.728 30.7773L44.0288 32.9883C43.2598 33.2891 42.3965 32.9023 42.1016 32.1289C41.8062 31.3555 42.1899 30.4844 42.9595 30.1875L48.813 27.9141ZM54.3364 23.6836C52.2539 24.4922 51.2949 26.7539 52.0234 28.6641C52.7524 30.5742 54.9692 31.6094 57.0522 30.8008C59.1348 29.9922 60.0938 27.7266 59.3647 25.8164C58.6362 23.9062 56.4189 22.875 54.3364 23.6836Z" fill="#7D9600"/>
</svg>
