<svg width="177" height="61" viewBox="0 0 177 61" fill="none" xmlns="http://www.w3.org/2000/svg">
<path d="M82.976 15.71V17.07H74.782V5H82.823V6.36H76.312V10.27H81.973V11.545H76.312V15.71H82.976Z" fill="#2F2F2F"/>
<path d="M84.6026 13.517V8.196H86.0986V13.228C86.0986 15.0413 86.7276 15.948 87.9856 15.948C88.5976 15.948 89.1699 15.7553 89.7026 15.37C90.2466 14.9733 90.6489 14.435 90.9096 13.755V8.196H92.4056V15.37C92.4056 15.7213 92.5642 15.9027 92.8816 15.914V17.07C92.7116 17.0927 92.5756 17.104 92.4736 17.104C92.3829 17.1153 92.2922 17.121 92.2016 17.121C91.9182 17.121 91.6746 17.036 91.4706 16.866C91.2666 16.6847 91.1589 16.4637 91.1476 16.203L91.1136 15.166C90.7282 15.8233 90.2069 16.3333 89.5496 16.696C88.9036 17.0587 88.1952 17.24 87.4246 17.24C85.5432 17.24 84.6026 15.999 84.6026 13.517Z" fill="#2F2F2F"/>
<path d="M99.5895 9.505C98.8415 9.51633 98.1785 9.709 97.6005 10.083C97.0338 10.4457 96.6315 10.95 96.3935 11.596V17.07H94.8975V8.196H96.2915V10.253C96.5975 9.641 96.9998 9.148 97.4985 8.774C98.0085 8.38867 98.5412 8.17333 99.0965 8.128C99.2098 8.128 99.3062 8.128 99.3855 8.128C99.4648 8.128 99.5328 8.13367 99.5895 8.145V9.505Z" fill="#2F2F2F"/>
<path d="M104.75 17.24C103.866 17.24 103.084 17.0303 102.404 16.611C101.735 16.1803 101.214 15.6193 100.84 14.928C100.466 14.2253 100.279 13.466 100.279 12.65C100.279 11.8227 100.466 11.0633 100.84 10.372C101.225 9.66933 101.752 9.10833 102.421 8.689C103.101 8.25833 103.877 8.043 104.75 8.043C105.634 8.043 106.41 8.25833 107.079 8.689C107.759 9.10833 108.286 9.66933 108.66 10.372C109.045 11.0633 109.238 11.8227 109.238 12.65C109.238 13.466 109.045 14.2253 108.66 14.928C108.286 15.6193 107.765 16.1803 107.096 16.611C106.427 17.0303 105.645 17.24 104.75 17.24ZM101.809 12.667C101.809 13.279 101.939 13.8343 102.2 14.333C102.472 14.8317 102.829 15.2283 103.271 15.523C103.713 15.8063 104.206 15.948 104.75 15.948C105.294 15.948 105.787 15.8007 106.229 15.506C106.682 15.2113 107.039 14.8147 107.3 14.316C107.572 13.806 107.708 13.245 107.708 12.633C107.708 12.021 107.572 11.4657 107.3 10.967C107.039 10.4683 106.682 10.0717 106.229 9.777C105.787 9.48233 105.294 9.335 104.75 9.335C104.206 9.335 103.713 9.488 103.271 9.794C102.829 10.0887 102.472 10.4853 102.2 10.984C101.939 11.4827 101.809 12.0437 101.809 12.667Z" fill="#2F2F2F"/>
<path d="M115.828 17.24C115.103 17.24 114.457 17.0587 113.89 16.696C113.323 16.3333 112.876 15.8743 112.547 15.319V20.691H111.051V8.196H112.377V9.862C112.728 9.318 113.187 8.88167 113.754 8.553C114.321 8.213 114.938 8.043 115.607 8.043C116.219 8.043 116.78 8.16767 117.29 8.417C117.8 8.66633 118.242 9.00633 118.616 9.437C118.99 9.86767 119.279 10.3607 119.483 10.916C119.698 11.46 119.806 12.0323 119.806 12.633C119.806 13.4717 119.636 14.2423 119.296 14.945C118.967 15.6477 118.503 16.2087 117.902 16.628C117.301 17.036 116.61 17.24 115.828 17.24ZM115.369 15.948C115.958 15.948 116.468 15.7893 116.899 15.472C117.33 15.1547 117.664 14.741 117.902 14.231C118.151 13.721 118.276 13.1883 118.276 12.633C118.276 12.0323 118.14 11.4827 117.868 10.984C117.607 10.4853 117.245 10.0887 116.78 9.794C116.327 9.488 115.811 9.335 115.233 9.335C114.882 9.335 114.508 9.42567 114.111 9.607C113.726 9.78833 113.386 10.032 113.091 10.338C112.808 10.6327 112.626 10.9613 112.547 11.324V13.857C112.796 14.4463 113.176 14.945 113.686 15.353C114.207 15.7497 114.768 15.948 115.369 15.948Z" fill="#2F2F2F"/>
<path d="M125.57 17.24C124.686 17.24 123.904 17.0303 123.224 16.611C122.544 16.1917 122.011 15.6307 121.626 14.928C121.24 14.2253 121.048 13.4603 121.048 12.633C121.048 11.7943 121.24 11.0293 121.626 10.338C122.011 9.64667 122.544 9.09133 123.224 8.672C123.915 8.25267 124.703 8.043 125.587 8.043C126.482 8.043 127.258 8.25833 127.916 8.689C128.584 9.10833 129.1 9.66367 129.463 10.355C129.837 11.035 130.024 11.7717 130.024 12.565C130.024 12.8143 130.012 13.007 129.99 13.143H122.629C122.674 13.721 122.833 14.2367 123.105 14.69C123.388 15.132 123.751 15.4833 124.193 15.744C124.635 15.9933 125.111 16.118 125.621 16.118C126.165 16.118 126.675 15.982 127.151 15.71C127.638 15.438 127.972 15.081 128.154 14.639L129.446 14.996C129.162 15.6533 128.669 16.1917 127.967 16.611C127.264 17.0303 126.465 17.24 125.57 17.24ZM122.578 12.106H128.63C128.584 11.528 128.42 11.018 128.137 10.576C127.853 10.134 127.491 9.78833 127.049 9.539C126.607 9.28967 126.119 9.165 125.587 9.165C125.065 9.165 124.584 9.28967 124.142 9.539C123.7 9.78833 123.337 10.134 123.054 10.576C122.782 11.018 122.623 11.528 122.578 12.106Z" fill="#2F2F2F"/>
<path d="M130.99 14.503C130.99 13.9363 131.148 13.449 131.466 13.041C131.794 12.6217 132.242 12.2987 132.809 12.072C133.375 11.8453 134.033 11.732 134.781 11.732C135.177 11.732 135.597 11.766 136.039 11.834C136.481 11.8907 136.872 11.9813 137.212 12.106V11.46C137.212 10.78 137.008 10.2473 136.6 9.862C136.192 9.46533 135.614 9.267 134.866 9.267C134.378 9.267 133.908 9.35767 133.455 9.539C133.013 9.709 132.542 9.95833 132.044 10.287L131.5 9.233C132.078 8.83633 132.656 8.54167 133.234 8.349C133.812 8.145 134.412 8.043 135.036 8.043C136.169 8.043 137.064 8.36033 137.722 8.995C138.379 9.61833 138.708 10.491 138.708 11.613V15.37C138.708 15.7213 138.866 15.9027 139.184 15.914V17.07C139.036 17.0927 138.906 17.1097 138.793 17.121C138.691 17.1323 138.606 17.138 138.538 17.138C138.186 17.138 137.92 17.0417 137.739 16.849C137.569 16.6563 137.472 16.4523 137.45 16.237L137.416 15.676C137.03 16.1747 136.526 16.56 135.903 16.832C135.279 17.104 134.662 17.24 134.05 17.24C133.46 17.24 132.933 17.121 132.469 16.883C132.004 16.6337 131.641 16.305 131.381 15.897C131.12 15.4777 130.99 15.013 130.99 14.503ZM136.77 15.132C136.906 14.9733 137.013 14.8147 137.093 14.656C137.172 14.486 137.212 14.3443 137.212 14.231V13.126C136.486 12.8427 135.738 12.701 134.968 12.701C134.208 12.701 133.591 12.854 133.115 13.16C132.65 13.4547 132.418 13.8627 132.418 14.384C132.418 14.6673 132.491 14.945 132.639 15.217C132.797 15.4777 133.024 15.693 133.319 15.863C133.625 16.033 133.999 16.118 134.441 16.118C134.905 16.118 135.347 16.0273 135.767 15.846C136.186 15.6533 136.52 15.4153 136.77 15.132Z" fill="#2F2F2F"/>
<path d="M148.801 17.07H147.305V12.106C147.305 11.1653 147.157 10.4797 146.863 10.049C146.579 9.607 146.143 9.386 145.554 9.386C145.146 9.386 144.738 9.488 144.33 9.692C143.933 9.896 143.576 10.1737 143.259 10.525C142.953 10.865 142.732 11.2617 142.596 11.715V17.07H141.1V8.196H142.46V10.1C142.811 9.47667 143.315 8.978 143.973 8.604C144.641 8.23 145.367 8.043 146.149 8.043C146.84 8.043 147.373 8.20733 147.747 8.536C148.132 8.85333 148.404 9.29533 148.563 9.862C148.721 10.4173 148.801 11.052 148.801 11.766V17.07Z" fill="#2F2F2F"/>
<path d="M74 28.95C74 28.2133 74.1247 27.4937 74.374 26.791C74.6347 26.077 75.0087 25.431 75.496 24.853C75.9947 24.2637 76.601 23.799 77.315 23.459C78.029 23.1077 78.8393 22.932 79.746 22.932C80.8227 22.932 81.7463 23.1813 82.517 23.68C83.2877 24.1673 83.86 24.7963 84.234 25.567L83.027 26.349C82.789 25.839 82.483 25.4367 82.109 25.142C81.7463 24.836 81.3497 24.6207 80.919 24.496C80.4997 24.3713 80.086 24.309 79.678 24.309C79.0093 24.309 78.4143 24.445 77.893 24.717C77.383 24.989 76.9523 25.3517 76.601 25.805C76.2497 26.2583 75.9833 26.7683 75.802 27.335C75.632 27.8903 75.547 28.4513 75.547 29.018C75.547 29.6413 75.649 30.242 75.853 30.82C76.0683 31.398 76.363 31.908 76.737 32.35C77.111 32.792 77.553 33.1433 78.063 33.404C78.573 33.6647 79.1283 33.795 79.729 33.795C80.1483 33.795 80.579 33.7213 81.021 33.574C81.463 33.4267 81.8767 33.2 82.262 32.894C82.6473 32.5767 82.9533 32.1687 83.18 31.67L84.455 32.367C84.2057 32.9677 83.8203 33.4777 83.299 33.897C82.7777 34.3163 82.194 34.6337 81.548 34.849C80.9133 35.0643 80.2843 35.172 79.661 35.172C78.8337 35.172 78.0743 34.9963 77.383 34.645C76.6917 34.2823 76.091 33.8063 75.581 33.217C75.0823 32.6163 74.6913 31.9477 74.408 31.211C74.136 30.463 74 29.7093 74 28.95Z" fill="#2F2F2F"/>
<path d="M86.1659 22.66H87.6619V32.775C87.6619 33.2623 87.7299 33.5627 87.8659 33.676C88.0019 33.7893 88.1662 33.846 88.3589 33.846C88.5969 33.846 88.8236 33.8233 89.0389 33.778C89.2542 33.7213 89.4356 33.6647 89.5829 33.608L89.8209 34.832C89.5716 34.934 89.2769 35.019 88.9369 35.087C88.5969 35.155 88.2966 35.189 88.0359 35.189C87.4579 35.189 86.9989 35.0247 86.6589 34.696C86.3302 34.3673 86.1659 33.9083 86.1659 33.319V22.66Z" fill="#2F2F2F"/>
<path d="M90.9961 24.53V22.66H92.4921V24.53H90.9961ZM90.9961 35.07V26.196H92.4921V35.07H90.9961Z" fill="#2F2F2F"/>
<path d="M108.293 35.07H106.797V30.106C106.797 29.1767 106.644 28.491 106.338 28.049C106.043 27.607 105.601 27.386 105.012 27.386C104.411 27.386 103.867 27.607 103.38 28.049C102.893 28.4797 102.547 29.0407 102.343 29.732V35.07H100.847V30.106C100.847 29.1653 100.7 28.4797 100.405 28.049C100.11 27.607 99.6684 27.386 99.0791 27.386C98.4898 27.386 97.9458 27.6013 97.4471 28.032C96.9598 28.4513 96.6141 29.0123 96.4101 29.715V35.07H94.9141V26.196H96.2741V28.1C96.6368 27.4427 97.1071 26.9383 97.6851 26.587C98.2631 26.2243 98.9148 26.043 99.6401 26.043C100.377 26.043 100.966 26.247 101.408 26.655C101.85 27.0517 102.122 27.5673 102.224 28.202C103.017 26.7627 104.145 26.043 105.607 26.043C106.287 26.043 106.82 26.2073 107.205 26.536C107.602 26.8533 107.879 27.2953 108.038 27.862C108.208 28.4173 108.293 29.052 108.293 29.766V35.07Z" fill="#2F2F2F"/>
<path d="M109.922 32.503C109.922 31.9363 110.081 31.449 110.398 31.041C110.727 30.6217 111.175 30.2987 111.741 30.072C112.308 29.8453 112.965 29.732 113.713 29.732C114.11 29.732 114.529 29.766 114.971 29.834C115.413 29.8907 115.804 29.9813 116.144 30.106V29.46C116.144 28.78 115.94 28.2473 115.532 27.862C115.124 27.4653 114.546 27.267 113.798 27.267C113.311 27.267 112.841 27.3577 112.387 27.539C111.945 27.709 111.475 27.9583 110.976 28.287L110.432 27.233C111.01 26.8363 111.588 26.5417 112.166 26.349C112.744 26.145 113.345 26.043 113.968 26.043C115.102 26.043 115.997 26.3603 116.654 26.995C117.312 27.6183 117.64 28.491 117.64 29.613V33.37C117.64 33.7213 117.799 33.9027 118.116 33.914V35.07C117.969 35.0927 117.839 35.1097 117.725 35.121C117.623 35.1323 117.538 35.138 117.47 35.138C117.119 35.138 116.853 35.0417 116.671 34.849C116.501 34.6563 116.405 34.4523 116.382 34.237L116.348 33.676C115.963 34.1747 115.459 34.56 114.835 34.832C114.212 35.104 113.594 35.24 112.982 35.24C112.393 35.24 111.866 35.121 111.401 34.883C110.937 34.6337 110.574 34.305 110.313 33.897C110.053 33.4777 109.922 33.013 109.922 32.503ZM115.702 33.132C115.838 32.9733 115.946 32.8147 116.025 32.656C116.105 32.486 116.144 32.3443 116.144 32.231V31.126C115.419 30.8427 114.671 30.701 113.9 30.701C113.141 30.701 112.523 30.854 112.047 31.16C111.583 31.4547 111.35 31.8627 111.35 32.384C111.35 32.6673 111.424 32.945 111.571 33.217C111.73 33.4777 111.957 33.693 112.251 33.863C112.557 34.033 112.931 34.118 113.373 34.118C113.838 34.118 114.28 34.0273 114.699 33.846C115.119 33.6533 115.453 33.4153 115.702 33.132Z" fill="#2F2F2F"/>
<path d="M124.556 34.628C124.375 34.7073 124.086 34.8207 123.689 34.968C123.304 35.1153 122.873 35.189 122.397 35.189C121.853 35.189 121.383 35.0417 120.986 34.747C120.589 34.441 120.391 33.9707 120.391 33.336V27.369H119.184V26.196H120.391V23.238H121.887V26.196H123.876V27.369H121.887V32.877C121.91 33.1943 122.017 33.4323 122.21 33.591C122.403 33.7383 122.629 33.812 122.89 33.812C123.185 33.812 123.457 33.761 123.706 33.659C123.955 33.557 124.12 33.4833 124.199 33.438L124.556 34.628Z" fill="#2F2F2F"/>
<path d="M129.753 35.24C128.869 35.24 128.087 35.0303 127.407 34.611C126.727 34.1917 126.195 33.6307 125.809 32.928C125.424 32.2253 125.231 31.4603 125.231 30.633C125.231 29.7943 125.424 29.0293 125.809 28.338C126.195 27.6467 126.727 27.0913 127.407 26.672C128.099 26.2527 128.886 26.043 129.77 26.043C130.666 26.043 131.442 26.2583 132.099 26.689C132.768 27.1083 133.284 27.6637 133.646 28.355C134.02 29.035 134.207 29.7717 134.207 30.565C134.207 30.8143 134.196 31.007 134.173 31.143H126.812C126.858 31.721 127.016 32.2367 127.288 32.69C127.572 33.132 127.934 33.4833 128.376 33.744C128.818 33.9933 129.294 34.118 129.804 34.118C130.348 34.118 130.858 33.982 131.334 33.71C131.822 33.438 132.156 33.081 132.337 32.639L133.629 32.996C133.346 33.6533 132.853 34.1917 132.15 34.611C131.448 35.0303 130.649 35.24 129.753 35.24ZM126.761 30.106H132.813C132.768 29.528 132.604 29.018 132.32 28.576C132.037 28.134 131.674 27.7883 131.232 27.539C130.79 27.2897 130.303 27.165 129.77 27.165C129.249 27.165 128.767 27.2897 128.325 27.539C127.883 27.7883 127.521 28.134 127.237 28.576C126.965 29.018 126.807 29.528 126.761 30.106Z" fill="#2F2F2F"/>
<path d="M140.408 35.07V23H144.59C145.882 23 146.959 23.272 147.82 23.816C148.693 24.3487 149.344 25.074 149.775 25.992C150.206 26.8987 150.421 27.9073 150.421 29.018C150.421 30.242 150.183 31.3073 149.707 32.214C149.231 33.1207 148.557 33.8233 147.684 34.322C146.811 34.8207 145.78 35.07 144.59 35.07H140.408ZM148.874 29.018C148.874 28.1113 148.704 27.3067 148.364 26.604C148.035 25.9013 147.554 25.3517 146.919 24.955C146.284 24.5583 145.508 24.36 144.59 24.36H141.938V33.71H144.59C145.519 33.71 146.301 33.506 146.936 33.098C147.571 32.6787 148.052 32.1177 148.381 31.415C148.71 30.701 148.874 29.902 148.874 29.018Z" fill="#2F2F2F"/>
<path d="M151.559 32.503C151.559 31.9363 151.718 31.449 152.035 31.041C152.364 30.6217 152.811 30.2987 153.378 30.072C153.945 29.8453 154.602 29.732 155.35 29.732C155.747 29.732 156.166 29.766 156.608 29.834C157.05 29.8907 157.441 29.9813 157.781 30.106V29.46C157.781 28.78 157.577 28.2473 157.169 27.862C156.761 27.4653 156.183 27.267 155.435 27.267C154.948 27.267 154.477 27.3577 154.024 27.539C153.582 27.709 153.112 27.9583 152.613 28.287L152.069 27.233C152.647 26.8363 153.225 26.5417 153.803 26.349C154.381 26.145 154.982 26.043 155.605 26.043C156.738 26.043 157.634 26.3603 158.291 26.995C158.948 27.6183 159.277 28.491 159.277 29.613V33.37C159.277 33.7213 159.436 33.9027 159.753 33.914V35.07C159.606 35.0927 159.475 35.1097 159.362 35.121C159.26 35.1323 159.175 35.138 159.107 35.138C158.756 35.138 158.489 35.0417 158.308 34.849C158.138 34.6563 158.042 34.4523 158.019 34.237L157.985 33.676C157.6 34.1747 157.095 34.56 156.472 34.832C155.849 35.104 155.231 35.24 154.619 35.24C154.03 35.24 153.503 35.121 153.038 34.883C152.573 34.6337 152.211 34.305 151.95 33.897C151.689 33.4777 151.559 33.013 151.559 32.503ZM157.339 33.132C157.475 32.9733 157.583 32.8147 157.662 32.656C157.741 32.486 157.781 32.3443 157.781 32.231V31.126C157.056 30.8427 156.308 30.701 155.537 30.701C154.778 30.701 154.16 30.854 153.684 31.16C153.219 31.4547 152.987 31.8627 152.987 32.384C152.987 32.6673 153.061 32.945 153.208 33.217C153.367 33.4777 153.593 33.693 153.888 33.863C154.194 34.033 154.568 34.118 155.01 34.118C155.475 34.118 155.917 34.0273 156.336 33.846C156.755 33.6533 157.09 33.4153 157.339 33.132Z" fill="#2F2F2F"/>
<path d="M166.193 34.628C166.011 34.7073 165.722 34.8207 165.326 34.968C164.94 35.1153 164.51 35.189 164.034 35.189C163.49 35.189 163.019 35.0417 162.623 34.747C162.226 34.441 162.028 33.9707 162.028 33.336V27.369H160.821V26.196H162.028V23.238H163.524V26.196H165.513V27.369H163.524V32.877C163.546 33.1943 163.654 33.4323 163.847 33.591C164.039 33.7383 164.266 33.812 164.527 33.812C164.821 33.812 165.093 33.761 165.343 33.659C165.592 33.557 165.756 33.4833 165.836 33.438L166.193 34.628Z" fill="#2F2F2F"/>
<path d="M166.882 32.503C166.882 31.9363 167.041 31.449 167.358 31.041C167.687 30.6217 168.134 30.2987 168.701 30.072C169.268 29.8453 169.925 29.732 170.673 29.732C171.07 29.732 171.489 29.766 171.931 29.834C172.373 29.8907 172.764 29.9813 173.104 30.106V29.46C173.104 28.78 172.9 28.2473 172.492 27.862C172.084 27.4653 171.506 27.267 170.758 27.267C170.271 27.267 169.8 27.3577 169.347 27.539C168.905 27.709 168.435 27.9583 167.936 28.287L167.392 27.233C167.97 26.8363 168.548 26.5417 169.126 26.349C169.704 26.145 170.305 26.043 170.928 26.043C172.061 26.043 172.957 26.3603 173.614 26.995C174.271 27.6183 174.6 28.491 174.6 29.613V33.37C174.6 33.7213 174.759 33.9027 175.076 33.914V35.07C174.929 35.0927 174.798 35.1097 174.685 35.121C174.583 35.1323 174.498 35.138 174.43 35.138C174.079 35.138 173.812 35.0417 173.631 34.849C173.461 34.6563 173.365 34.4523 173.342 34.237L173.308 33.676C172.923 34.1747 172.418 34.56 171.795 34.832C171.172 35.104 170.554 35.24 169.942 35.24C169.353 35.24 168.826 35.121 168.361 34.883C167.896 34.6337 167.534 34.305 167.273 33.897C167.012 33.4777 166.882 33.013 166.882 32.503ZM172.662 33.132C172.798 32.9733 172.906 32.8147 172.985 32.656C173.064 32.486 173.104 32.3443 173.104 32.231V31.126C172.379 30.8427 171.631 30.701 170.86 30.701C170.101 30.701 169.483 30.854 169.007 31.16C168.542 31.4547 168.31 31.8627 168.31 32.384C168.31 32.6673 168.384 32.945 168.531 33.217C168.69 33.4777 168.916 33.693 169.211 33.863C169.517 34.033 169.891 34.118 170.333 34.118C170.798 34.118 171.24 34.0273 171.659 33.846C172.078 33.6533 172.413 33.4153 172.662 33.132Z" fill="#2F2F2F"/>
<path d="M82.976 51.71V53.07H74.782V41H82.823V42.36H76.312V46.27H81.973V47.545H76.312V51.71H82.976Z" fill="#2F2F2F"/>
<path d="M85.5 44.196L87.846 47.46L87.982 47.732L88.135 47.46L90.464 44.196H92.13L88.849 48.65L92.147 53.07H90.481L88.135 49.823L87.982 49.568L87.846 49.823L85.5 53.07H83.834L87.132 48.65L83.851 44.196H85.5Z" fill="#2F2F2F"/>
<path d="M98.3298 53.24C97.6045 53.24 96.9585 53.0587 96.3918 52.696C95.8251 52.3333 95.3775 51.8743 95.0488 51.319V56.691H93.5528V44.196H94.8788V45.862C95.2301 45.318 95.6891 44.8817 96.2558 44.553C96.8225 44.213 97.4401 44.043 98.1088 44.043C98.7208 44.043 99.2818 44.1677 99.7918 44.417C100.302 44.6663 100.744 45.0063 101.118 45.437C101.492 45.8677 101.781 46.3607 101.985 46.916C102.2 47.46 102.308 48.0323 102.308 48.633C102.308 49.4717 102.138 50.2423 101.798 50.945C101.469 51.6477 101.004 52.2087 100.404 52.628C99.8031 53.036 99.1118 53.24 98.3298 53.24ZM97.8708 51.948C98.4601 51.948 98.9701 51.7893 99.4008 51.472C99.8315 51.1547 100.166 50.741 100.404 50.231C100.653 49.721 100.778 49.1883 100.778 48.633C100.778 48.0323 100.642 47.4827 100.37 46.984C100.109 46.4853 99.7465 46.0887 99.2818 45.794C98.8285 45.488 98.3128 45.335 97.7348 45.335C97.3835 45.335 97.0095 45.4257 96.6128 45.607C96.2275 45.7883 95.8875 46.032 95.5928 46.338C95.3095 46.6327 95.1281 46.9613 95.0488 47.324V49.857C95.2981 50.4463 95.6778 50.945 96.1878 51.353C96.7091 51.7497 97.2701 51.948 97.8708 51.948Z" fill="#2F2F2F"/>
<path d="M104.179 40.66H105.675V50.775C105.675 51.2623 105.743 51.5627 105.879 51.676C106.015 51.7893 106.179 51.846 106.372 51.846C106.61 51.846 106.836 51.8233 107.052 51.778C107.267 51.7213 107.448 51.6647 107.596 51.608L107.834 52.832C107.584 52.934 107.29 53.019 106.95 53.087C106.61 53.155 106.309 53.189 106.049 53.189C105.471 53.189 105.012 53.0247 104.672 52.696C104.343 52.3673 104.179 51.9083 104.179 51.319V40.66Z" fill="#2F2F2F"/>
<path d="M112.885 53.24C112.001 53.24 111.219 53.0303 110.539 52.611C109.87 52.1803 109.349 51.6193 108.975 50.928C108.601 50.2253 108.414 49.466 108.414 48.65C108.414 47.8227 108.601 47.0633 108.975 46.372C109.36 45.6693 109.887 45.1083 110.556 44.689C111.236 44.2583 112.012 44.043 112.885 44.043C113.769 44.043 114.545 44.2583 115.214 44.689C115.894 45.1083 116.421 45.6693 116.795 46.372C117.18 47.0633 117.373 47.8227 117.373 48.65C117.373 49.466 117.18 50.2253 116.795 50.928C116.421 51.6193 115.9 52.1803 115.231 52.611C114.562 53.0303 113.78 53.24 112.885 53.24ZM109.944 48.667C109.944 49.279 110.074 49.8343 110.335 50.333C110.607 50.8317 110.964 51.2283 111.406 51.523C111.848 51.8063 112.341 51.948 112.885 51.948C113.429 51.948 113.922 51.8007 114.364 51.506C114.817 51.2113 115.174 50.8147 115.435 50.316C115.707 49.806 115.843 49.245 115.843 48.633C115.843 48.021 115.707 47.4657 115.435 46.967C115.174 46.4683 114.817 46.0717 114.364 45.777C113.922 45.4823 113.429 45.335 112.885 45.335C112.341 45.335 111.848 45.488 111.406 45.794C110.964 46.0887 110.607 46.4853 110.335 46.984C110.074 47.4827 109.944 48.0437 109.944 48.667Z" fill="#2F2F2F"/>
<path d="M123.878 45.505C123.13 45.5163 122.467 45.709 121.889 46.083C121.322 46.4457 120.92 46.95 120.682 47.596V53.07H119.186V44.196H120.58V46.253C120.886 45.641 121.288 45.148 121.787 44.774C122.297 44.3887 122.829 44.1733 123.385 44.128C123.498 44.128 123.594 44.128 123.674 44.128C123.753 44.128 123.821 44.1337 123.878 44.145V45.505Z" fill="#2F2F2F"/>
<path d="M129.089 53.24C128.205 53.24 127.423 53.0303 126.743 52.611C126.063 52.1917 125.53 51.6307 125.145 50.928C124.76 50.2253 124.567 49.4603 124.567 48.633C124.567 47.7943 124.76 47.0293 125.145 46.338C125.53 45.6467 126.063 45.0913 126.743 44.672C127.434 44.2527 128.222 44.043 129.106 44.043C130.001 44.043 130.778 44.2583 131.435 44.689C132.104 45.1083 132.619 45.6637 132.982 46.355C133.356 47.035 133.543 47.7717 133.543 48.565C133.543 48.8143 133.532 49.007 133.509 49.143H126.148C126.194 49.721 126.352 50.2367 126.624 50.69C126.907 51.132 127.27 51.4833 127.712 51.744C128.154 51.9933 128.63 52.118 129.14 52.118C129.684 52.118 130.194 51.982 130.67 51.71C131.158 51.438 131.492 51.081 131.673 50.639L132.965 50.996C132.682 51.6533 132.189 52.1917 131.486 52.611C130.784 53.0303 129.984 53.24 129.089 53.24ZM126.097 48.106H132.149C132.104 47.528 131.939 47.018 131.656 46.576C131.373 46.134 131.01 45.7883 130.568 45.539C130.126 45.2897 129.639 45.165 129.106 45.165C128.585 45.165 128.103 45.2897 127.661 45.539C127.219 45.7883 126.856 46.134 126.573 46.576C126.301 47.018 126.142 47.528 126.097 48.106Z" fill="#2F2F2F"/>
<path d="M139.898 45.505C139.15 45.5163 138.487 45.709 137.909 46.083C137.342 46.4457 136.94 46.95 136.702 47.596V53.07H135.206V44.196H136.6V46.253C136.906 45.641 137.308 45.148 137.807 44.774C138.317 44.3887 138.85 44.1733 139.405 44.128C139.518 44.128 139.615 44.128 139.694 44.128C139.773 44.128 139.841 44.1337 139.898 44.145V45.505Z" fill="#2F2F2F"/>
<path fill-rule="evenodd" clip-rule="evenodd" d="M26.8917 4.44836C14.4966 4.44836 4.44836 14.4966 4.44836 26.8917C4.44836 39.2868 14.4966 49.335 26.8917 49.335C39.2868 49.335 49.335 39.2868 49.335 26.8917C49.335 14.4966 39.2868 4.44836 26.8917 4.44836ZM2 26.8917C2 13.1444 13.1444 2 26.8917 2C40.6389 2 51.7833 13.1444 51.7833 26.8917C51.7833 40.6389 40.6389 51.7833 26.8917 51.7833C13.1444 51.7833 2 40.6389 2 26.8917Z" fill="#2F2F2F"/>
<path fill-rule="evenodd" clip-rule="evenodd" d="M26.3221 6.48877C15.3186 6.77861 6.48865 15.6826 6.48865 26.6248C6.48865 33.5055 9.98012 39.5805 15.308 43.2142C15.3917 43.1109 15.4791 43.0088 15.5701 42.9086C16.8292 41.5237 18.2765 41.1133 19.394 40.7964L19.526 40.7589C20.6375 40.4424 21.6974 40.1285 23.0064 39.1278C25.4287 37.2762 28.1359 37.9312 29.9234 38.4095C30.1113 38.4596 30.2905 38.5087 30.4626 38.5558L30.5427 38.5779C31.2595 38.7746 31.8546 38.9378 32.4538 39.0294C33.1734 39.1391 33.6785 39.1023 34.085 38.944C35.5366 38.379 35.905 38.1488 36.1708 37.9828L36.235 37.9429C36.8007 37.5949 37.312 37.3487 38.9329 36.8351C39.4585 36.6688 39.698 36.4795 39.8168 36.3529C39.9357 36.2259 40.0341 36.0541 40.1107 35.7652C40.1944 35.4502 40.2349 35.0681 40.2677 34.5339C40.2728 34.4503 40.2778 34.3609 40.283 34.2662C40.2956 34.0403 40.3097 33.7867 40.3308 33.5239C40.3511 33.2712 40.3779 33.0103 40.4161 32.7573C40.5003 32.1989 40.6149 31.7231 40.6984 31.3763L40.6991 31.3736L40.722 31.2786C40.7388 31.2082 40.7532 31.1471 40.7657 31.0927L40.7327 31.0761L40.6791 31.0496C40.6572 31.0389 40.6366 31.029 40.617 31.0201C40.5612 31.1123 40.5008 31.219 40.4273 31.3521L40.3689 31.4578L40.3658 31.4633C40.3023 31.5789 40.2295 31.7114 40.1567 31.8389C39.9227 32.2493 39.5367 32.6965 38.9344 32.9534C38.3188 33.2159 37.7128 33.179 37.2401 33.0392C36.4106 32.7939 35.8008 32.1859 35.4307 31.7492C34.6153 30.7871 33.9018 29.3674 33.5434 28.0076C33.4341 27.5924 33.3012 27.2564 33.1683 27.0053C33.0453 27.1243 32.9245 27.2383 32.8156 27.3416L32.787 27.3686C32.6958 27.4547 32.6138 27.5321 32.5468 27.597C32.4669 27.6741 32.3994 27.7412 32.3423 27.7999C32.2729 27.8715 32.2189 27.9302 32.1765 27.9794C32.757 28.8314 33.1511 29.8122 33.0314 30.8225C32.8985 31.9447 32.1571 32.7951 31.1721 33.1268C29.3069 33.755 27.3458 32.4444 27.0686 30.3559C27.0446 30.1755 26.9698 29.9194 26.8391 29.6505C26.0805 30.6682 25.3857 31.2503 24.8202 31.724C24.5996 31.9087 24.3986 32.0771 24.2212 32.2483C24.082 32.383 23.9128 32.592 23.6477 32.9439L23.5492 33.0748C23.4586 33.1956 23.3583 33.3293 23.2508 33.4689C23.0958 33.6699 22.9259 33.8826 22.7488 34.0845C22.0745 34.8539 20.8952 35.9456 19.1084 35.8842C18.8903 35.8768 18.6543 35.9118 18.2056 35.985L18.1512 35.9942C17.7944 36.0529 17.1505 36.1592 16.5049 36.0689C15.6626 35.9512 14.8706 35.5227 14.3096 34.6937C13.8277 33.9816 13.5929 33.0838 13.4648 32.1186C13.349 31.2466 13.2842 30.402 13.4274 29.6711C13.506 29.2703 13.6561 28.8492 13.9331 28.4573C14.2143 28.0593 14.5612 27.7836 14.9037 27.5893C15.4127 27.3007 16.0428 27.1403 16.4493 27.0367L16.5798 27.0032C17.0756 26.8738 17.6128 26.7265 18.256 26.4604C18.3727 26.4121 18.4715 26.3672 18.5548 26.327L18.5509 26.3208L18.507 26.2489C18.3319 25.9634 18.0328 25.4759 17.8492 24.9423C17.6343 24.318 17.6706 23.676 17.9189 23.1039C18.1419 22.5903 18.4936 22.2283 18.7666 21.9938C19.2538 21.5754 19.8986 21.2339 20.3348 21.0031L20.4049 20.9659C20.9404 20.6816 21.3123 20.4797 21.5836 20.2722C21.6582 20.215 21.7048 20.1726 21.7323 20.145C22.1373 18.381 23.6617 17.4454 24.7225 16.9794C25.897 16.463 27.1749 16.2193 27.989 16.1139C27.9874 16.1142 28.0079 16.1114 28.054 16.0997C28.099 16.0884 28.1585 16.0708 28.2335 16.0453C28.3853 15.9937 28.5709 15.9193 28.7865 15.8219C29.2192 15.6264 29.7037 15.3697 30.1724 15.103C30.6368 14.8386 31.0623 14.5777 31.3728 14.3819C31.5173 14.2909 31.6355 14.215 31.7195 14.1603L31.734 14.1458C31.822 14.0585 31.9479 13.9307 32.0942 13.7758C32.3099 13.5468 32.5548 13.2735 32.7829 12.9914C31.1908 12.6846 30.2057 12.7218 29.6047 12.85C28.9381 12.992 28.6483 13.2625 28.3951 13.5668C28.3171 13.6608 28.2418 13.7601 28.1492 13.8846L28.1172 13.9276C28.0378 14.0346 27.9338 14.1747 27.8291 14.3041C27.6076 14.5777 27.1625 15.094 26.4368 15.3618C25.6295 15.6599 24.8504 15.5268 24.2152 15.2695C23.6187 15.028 23.0155 14.6259 22.3953 14.14C22.1153 13.9208 21.6861 13.5621 21.3589 13.0851C21.0107 12.5777 20.6522 11.7358 20.9599 10.7408C21.2396 9.83689 21.9416 9.25197 22.5773 8.87115C23.2426 8.4728 24.1137 8.1304 25.1862 7.8175C25.7401 7.65614 25.8356 7.48555 26.3221 6.48877Z" fill="#005C96"/>
<path fill-rule="evenodd" clip-rule="evenodd" d="M33.042 15.7131C33.042 15.7131 29.8144 17.9102 28.3752 18.1004C26.936 18.2906 24.0954 18.9612 23.7462 20.7778C23.5728 21.6802 22.4911 22.2657 21.5047 22.7997C20.5055 23.3406 19.604 23.8286 19.8439 24.5394C19.9567 24.8736 20.1501 25.1972 20.3392 25.5136C20.949 26.534 21.5137 27.4789 19.1833 28.4627C18.3667 28.8074 17.6959 28.985 17.1601 29.127C15.6926 29.5156 15.237 29.6363 15.5688 32.1862C15.9129 34.8304 16.905 34.6648 18.1355 34.4595C18.525 34.3945 18.9384 34.3256 19.3626 34.3404C20.6257 34.3847 21.4391 33.2792 22.1801 32.2723C22.4745 31.8722 22.7575 31.4877 23.0526 31.197C23.3539 30.9003 23.6259 30.6679 23.8871 30.4447C24.5258 29.8989 25.0998 29.4085 25.8791 28.1678C27.0918 26.237 28.8707 28.6576 29.0972 30.3981C29.3721 32.5099 32.5058 31.9775 30.711 29.2996C29.8048 27.9474 30.5945 27.187 31.6269 26.1929C31.8363 25.9912 32.0556 25.78 32.2729 25.5522C33.5611 24.2017 34.9012 25.4999 35.491 27.7825C36.0809 30.0652 37.8598 32.4857 38.5723 31.2112C38.6382 31.0934 38.7016 30.9759 38.764 30.8604C39.3758 29.7266 39.8832 28.7865 41.5875 29.6324C43.035 30.3507 42.8988 30.9279 42.6177 32.1192C42.534 32.4736 42.4376 32.8824 42.3662 33.3654C42.3032 33.7915 42.2786 34.2367 42.2539 34.684C42.1565 36.4484 42.0572 38.2468 39.5916 39.0435C37.9699 39.5675 37.6746 39.7537 37.2776 40.004C36.918 40.2307 36.475 40.5101 34.8871 41.1407C33.3837 41.7378 31.7428 41.2775 30.1018 40.8172C28.0962 40.2546 26.0905 39.692 24.3361 41.0599C22.7221 42.3184 21.3702 42.7112 20.1968 43.0522C19.0511 43.385 18.0756 43.6685 17.1921 44.6599C17.1768 44.6771 17.1615 44.6944 17.1464 44.7118C20.0683 46.3571 23.4359 47.2948 27.0207 47.2948C38.2177 47.2948 47.2946 38.147 47.2946 26.8627C47.2946 16.1011 39.0392 7.28268 28.5624 6.48877C28.4434 6.71861 28.3362 6.95039 28.2305 7.17898C27.7475 8.22363 27.2953 9.2016 25.8791 9.62309C21.9049 10.8059 22.7683 11.9166 23.7462 12.6981C25.6982 14.2581 26.0812 13.732 26.7211 12.8532C27.57 11.6872 28.8711 9.90036 34.8871 11.5387C36.8158 12.0639 33.042 15.7131 33.042 15.7131Z" fill="#8A9C3A"/>
<path fill-rule="evenodd" clip-rule="evenodd" d="M41.9197 49.5567L49.4257 57.8103C50.5575 59.0203 52.456 59.0837 53.666 57.9519L57.5 54.3658C58.71 53.234 58.7734 51.3355 57.6416 50.1255L49.8128 41.5269C47.7691 44.721 45.076 47.4597 41.9197 49.5567Z" fill="#2F2F2F"/>
</svg>
