<svg width="172" height="58" viewBox="0 0 172 58" fill="none" xmlns="http://www.w3.org/2000/svg">
<path fill-rule="evenodd" clip-rule="evenodd" d="M40.3577 50.4734L45.2905 55.455C46.3691 56.5443 48.1178 56.5443 49.1964 55.455L54.2389 50.3627C55.3175 49.2734 55.3175 47.5074 54.2389 46.4181L49.4499 41.5818C47.1421 45.2072 44.0256 48.2577 40.3577 50.4734Z" fill="#2F2F2F"/>
<path fill-rule="evenodd" clip-rule="evenodd" d="M26.8917 4.44836C14.4966 4.44836 4.44836 14.4966 4.44836 26.8917C4.44836 39.2868 14.4966 49.335 26.8917 49.335C39.2868 49.335 49.335 39.2868 49.335 26.8917C49.335 14.4966 39.2868 4.44836 26.8917 4.44836ZM2 26.8917C2 13.1444 13.1444 2 26.8917 2C40.6389 2 51.7833 13.1444 51.7833 26.8917C51.7833 40.6389 40.6389 51.7833 26.8917 51.7833C13.1444 51.7833 2 40.6389 2 26.8917Z" fill="#2F2F2F"/>
<path fill-rule="evenodd" clip-rule="evenodd" d="M26.3221 6.48877C15.3186 6.77861 6.48865 15.6826 6.48865 26.6248C6.48865 33.5055 9.98012 39.5805 15.308 43.2142C15.3917 43.1109 15.4791 43.0088 15.5701 42.9086C16.8292 41.5237 18.2765 41.1133 19.394 40.7964L19.526 40.7589C20.6375 40.4424 21.6974 40.1285 23.0064 39.1278C25.4287 37.2762 28.1359 37.9312 29.9234 38.4095C30.1113 38.4596 30.2905 38.5087 30.4626 38.5558L30.5427 38.5779C31.2595 38.7746 31.8546 38.9378 32.4538 39.0294C33.1734 39.1391 33.6785 39.1023 34.085 38.944C35.5366 38.379 35.905 38.1488 36.1708 37.9828L36.235 37.9429C36.8007 37.5949 37.312 37.3487 38.9329 36.8351C39.4585 36.6688 39.698 36.4795 39.8168 36.3529C39.9357 36.2259 40.0341 36.0541 40.1107 35.7652C40.1944 35.4502 40.2349 35.0681 40.2677 34.5339C40.2728 34.4503 40.2778 34.3609 40.283 34.2662C40.2956 34.0403 40.3097 33.7867 40.3308 33.5239C40.3511 33.2712 40.3779 33.0103 40.4161 32.7573C40.5003 32.1989 40.6149 31.7231 40.6984 31.3763L40.6991 31.3736L40.722 31.2786C40.7388 31.2082 40.7532 31.1471 40.7657 31.0927L40.7327 31.0761L40.6791 31.0496C40.6572 31.0389 40.6366 31.029 40.617 31.0201C40.5612 31.1123 40.5008 31.219 40.4273 31.3521L40.3689 31.4578L40.3658 31.4633C40.3023 31.5789 40.2295 31.7114 40.1567 31.8389C39.9227 32.2493 39.5367 32.6965 38.9344 32.9534C38.3188 33.2159 37.7128 33.179 37.2401 33.0392C36.4106 32.7939 35.8008 32.1859 35.4307 31.7492C34.6153 30.7871 33.9018 29.3674 33.5434 28.0076C33.4341 27.5924 33.3012 27.2564 33.1683 27.0053C33.0453 27.1243 32.9245 27.2383 32.8156 27.3416L32.787 27.3686C32.6958 27.4547 32.6138 27.5321 32.5468 27.597C32.4669 27.6741 32.3994 27.7412 32.3423 27.7999C32.2729 27.8715 32.2189 27.9302 32.1765 27.9794C32.757 28.8314 33.1511 29.8122 33.0314 30.8225C32.8985 31.9447 32.1571 32.7951 31.1721 33.1268C29.3069 33.755 27.3458 32.4444 27.0686 30.3559C27.0446 30.1755 26.9698 29.9194 26.8391 29.6505C26.0805 30.6682 25.3857 31.2503 24.8202 31.724C24.5996 31.9087 24.3986 32.0771 24.2212 32.2483C24.082 32.383 23.9128 32.592 23.6477 32.9439L23.5492 33.0748C23.4586 33.1956 23.3583 33.3293 23.2508 33.4689C23.0958 33.6699 22.9259 33.8826 22.7488 34.0845C22.0745 34.8539 20.8952 35.9456 19.1084 35.8842C18.8903 35.8768 18.6543 35.9118 18.2056 35.985L18.1512 35.9942C17.7944 36.0529 17.1505 36.1592 16.5049 36.0689C15.6626 35.9512 14.8706 35.5227 14.3096 34.6937C13.8277 33.9816 13.5929 33.0838 13.4648 32.1186C13.349 31.2466 13.2842 30.402 13.4274 29.6711C13.506 29.2703 13.6561 28.8492 13.9331 28.4573C14.2143 28.0593 14.5612 27.7836 14.9037 27.5893C15.4127 27.3007 16.0428 27.1403 16.4493 27.0367L16.5798 27.0032C17.0756 26.8738 17.6128 26.7265 18.256 26.4604C18.3727 26.4121 18.4715 26.3672 18.5548 26.327L18.5509 26.3208L18.507 26.2489C18.3319 25.9634 18.0328 25.4759 17.8492 24.9423C17.6343 24.318 17.6706 23.676 17.9189 23.1039C18.1419 22.5903 18.4936 22.2283 18.7666 21.9938C19.2538 21.5754 19.8986 21.2339 20.3348 21.0031L20.4049 20.9659C20.9404 20.6816 21.3123 20.4797 21.5836 20.2722C21.6582 20.215 21.7048 20.1726 21.7323 20.145C22.1373 18.381 23.6617 17.4454 24.7225 16.9794C25.897 16.463 27.1749 16.2193 27.989 16.1139C27.9874 16.1142 28.0079 16.1114 28.054 16.0997C28.099 16.0884 28.1585 16.0708 28.2335 16.0453C28.3853 15.9937 28.5709 15.9193 28.7865 15.8219C29.2192 15.6264 29.7037 15.3697 30.1724 15.103C30.6368 14.8386 31.0623 14.5777 31.3728 14.3819C31.5173 14.2909 31.6355 14.215 31.7195 14.1603L31.734 14.1458C31.822 14.0585 31.9479 13.9307 32.0942 13.7758C32.3099 13.5468 32.5548 13.2735 32.7829 12.9914C31.1908 12.6846 30.2057 12.7218 29.6047 12.85C28.9381 12.992 28.6483 13.2625 28.3951 13.5668C28.3171 13.6608 28.2418 13.7601 28.1492 13.8846L28.1172 13.9276C28.0378 14.0346 27.9338 14.1747 27.8291 14.3041C27.6076 14.5777 27.1625 15.094 26.4368 15.3618C25.6295 15.6599 24.8504 15.5268 24.2152 15.2695C23.6187 15.028 23.0155 14.6259 22.3953 14.14C22.1153 13.9208 21.6861 13.5621 21.3589 13.0851C21.0107 12.5777 20.6522 11.7358 20.9599 10.7408C21.2396 9.83689 21.9416 9.25197 22.5773 8.87115C23.2426 8.4728 24.1137 8.1304 25.1862 7.8175C25.7401 7.65614 25.8356 7.48555 26.3221 6.48877Z" fill="#005C96"/>
<path fill-rule="evenodd" clip-rule="evenodd" d="M33.042 15.7131C33.042 15.7131 29.8144 17.9102 28.3752 18.1004C26.936 18.2906 24.0954 18.9612 23.7462 20.7778C23.5728 21.6802 22.4911 22.2657 21.5047 22.7997C20.5055 23.3406 19.604 23.8286 19.8439 24.5394C19.9567 24.8736 20.1501 25.1972 20.3392 25.5136C20.949 26.534 21.5137 27.4789 19.1833 28.4627C18.3667 28.8074 17.6959 28.985 17.1601 29.127C15.6926 29.5156 15.237 29.6363 15.5688 32.1862C15.9129 34.8304 16.905 34.6648 18.1355 34.4595C18.525 34.3945 18.9384 34.3256 19.3626 34.3404C20.6257 34.3847 21.4391 33.2792 22.1801 32.2723C22.4745 31.8722 22.7575 31.4877 23.0526 31.197C23.3539 30.9003 23.6259 30.6679 23.8871 30.4447C24.5258 29.8989 25.0998 29.4085 25.8791 28.1678C27.0918 26.237 28.8707 28.6576 29.0972 30.3981C29.3721 32.5099 32.5058 31.9775 30.711 29.2996C29.8048 27.9474 30.5945 27.187 31.6269 26.1929C31.8363 25.9912 32.0556 25.78 32.2729 25.5522C33.5611 24.2017 34.9012 25.4999 35.491 27.7825C36.0809 30.0652 37.8598 32.4857 38.5723 31.2112C38.6382 31.0934 38.7016 30.9759 38.764 30.8604C39.3758 29.7266 39.8832 28.7865 41.5875 29.6324C43.035 30.3507 42.8988 30.9279 42.6177 32.1192C42.534 32.4736 42.4376 32.8824 42.3662 33.3654C42.3032 33.7915 42.2786 34.2367 42.2539 34.684C42.1565 36.4484 42.0572 38.2468 39.5916 39.0435C37.9699 39.5675 37.6746 39.7537 37.2776 40.004C36.918 40.2307 36.475 40.5101 34.8871 41.1407C33.3837 41.7378 31.7428 41.2775 30.1018 40.8172C28.0962 40.2546 26.0905 39.692 24.3361 41.0599C22.7221 42.3184 21.3702 42.7112 20.1968 43.0522C19.0511 43.385 18.0756 43.6685 17.1921 44.6599C17.1768 44.6771 17.1615 44.6944 17.1464 44.7118C20.0683 46.3571 23.4359 47.2948 27.0207 47.2948C38.2177 47.2948 47.2946 38.147 47.2946 26.8627C47.2946 16.1011 39.0392 7.28268 28.5624 6.48877C28.4434 6.71861 28.3362 6.95039 28.2305 7.17898C27.7475 8.22363 27.2953 9.2016 25.8791 9.62309C21.9049 10.8059 22.7683 11.9166 23.7462 12.6981C25.6982 14.2581 26.0812 13.732 26.7211 12.8532C27.57 11.6872 28.8711 9.90036 34.8871 11.5387C36.8158 12.0639 33.042 15.7131 33.042 15.7131Z" fill="#8A9C3A"/>
<path d="M76.976 14.71V16.07H68.782V4H76.823V5.36H70.312V9.27H75.973V10.545H70.312V14.71H76.976Z" fill="#2F2F2F"/>
<path d="M78.6026 12.517V7.196H80.0986V12.228C80.0986 14.0413 80.7276 14.948 81.9856 14.948C82.5976 14.948 83.1699 14.7553 83.7026 14.37C84.2466 13.9733 84.6489 13.435 84.9096 12.755V7.196H86.4056V14.37C86.4056 14.7213 86.5642 14.9027 86.8816 14.914V16.07C86.7116 16.0927 86.5756 16.104 86.4736 16.104C86.3829 16.1153 86.2922 16.121 86.2016 16.121C85.9182 16.121 85.6746 16.036 85.4706 15.866C85.2666 15.6847 85.1589 15.4637 85.1476 15.203L85.1136 14.166C84.7282 14.8233 84.2069 15.3333 83.5496 15.696C82.9036 16.0587 82.1952 16.24 81.4246 16.24C79.5432 16.24 78.6026 14.999 78.6026 12.517Z" fill="#2F2F2F"/>
<path d="M93.5895 8.505C92.8415 8.51633 92.1785 8.709 91.6005 9.083C91.0338 9.44567 90.6315 9.95 90.3935 10.596V16.07H88.8975V7.196H90.2915V9.253C90.5975 8.641 90.9998 8.148 91.4985 7.774C92.0085 7.38867 92.5412 7.17333 93.0965 7.128C93.2098 7.128 93.3062 7.128 93.3855 7.128C93.4648 7.128 93.5328 7.13367 93.5895 7.145V8.505Z" fill="#2F2F2F"/>
<path d="M98.7501 16.24C97.8661 16.24 97.0841 16.0303 96.4041 15.611C95.7354 15.1803 95.2141 14.6193 94.8401 13.928C94.4661 13.2253 94.2791 12.466 94.2791 11.65C94.2791 10.8227 94.4661 10.0633 94.8401 9.372C95.2254 8.66933 95.7524 8.10833 96.4211 7.689C97.1011 7.25833 97.8774 7.043 98.7501 7.043C99.6341 7.043 100.41 7.25833 101.079 7.689C101.759 8.10833 102.286 8.66933 102.66 9.372C103.045 10.0633 103.238 10.8227 103.238 11.65C103.238 12.466 103.045 13.2253 102.66 13.928C102.286 14.6193 101.765 15.1803 101.096 15.611C100.427 16.0303 99.6454 16.24 98.7501 16.24ZM95.8091 11.667C95.8091 12.279 95.9394 12.8343 96.2001 13.333C96.4721 13.8317 96.8291 14.2283 97.2711 14.523C97.7131 14.8063 98.2061 14.948 98.7501 14.948C99.2941 14.948 99.7871 14.8007 100.229 14.506C100.682 14.2113 101.039 13.8147 101.3 13.316C101.572 12.806 101.708 12.245 101.708 11.633C101.708 11.021 101.572 10.4657 101.3 9.967C101.039 9.46833 100.682 9.07167 100.229 8.777C99.7871 8.48233 99.2941 8.335 98.7501 8.335C98.2061 8.335 97.7131 8.488 97.2711 8.794C96.8291 9.08867 96.4721 9.48533 96.2001 9.984C95.9394 10.4827 95.8091 11.0437 95.8091 11.667Z" fill="#2F2F2F"/>
<path d="M109.828 16.24C109.103 16.24 108.457 16.0587 107.89 15.696C107.323 15.3333 106.876 14.8743 106.547 14.319V19.691H105.051V7.196H106.377V8.862C106.728 8.318 107.187 7.88167 107.754 7.553C108.321 7.213 108.938 7.043 109.607 7.043C110.219 7.043 110.78 7.16767 111.29 7.417C111.8 7.66633 112.242 8.00633 112.616 8.437C112.99 8.86767 113.279 9.36067 113.483 9.916C113.698 10.46 113.806 11.0323 113.806 11.633C113.806 12.4717 113.636 13.2423 113.296 13.945C112.967 14.6477 112.503 15.2087 111.902 15.628C111.301 16.036 110.61 16.24 109.828 16.24ZM109.369 14.948C109.958 14.948 110.468 14.7893 110.899 14.472C111.33 14.1547 111.664 13.741 111.902 13.231C112.151 12.721 112.276 12.1883 112.276 11.633C112.276 11.0323 112.14 10.4827 111.868 9.984C111.607 9.48533 111.245 9.08867 110.78 8.794C110.327 8.488 109.811 8.335 109.233 8.335C108.882 8.335 108.508 8.42567 108.111 8.607C107.726 8.78833 107.386 9.032 107.091 9.338C106.808 9.63267 106.626 9.96133 106.547 10.324V12.857C106.796 13.4463 107.176 13.945 107.686 14.353C108.207 14.7497 108.768 14.948 109.369 14.948Z" fill="#2F2F2F"/>
<path d="M119.57 16.24C118.686 16.24 117.904 16.0303 117.224 15.611C116.544 15.1917 116.011 14.6307 115.626 13.928C115.24 13.2253 115.048 12.4603 115.048 11.633C115.048 10.7943 115.24 10.0293 115.626 9.338C116.011 8.64667 116.544 8.09133 117.224 7.672C117.915 7.25267 118.703 7.043 119.587 7.043C120.482 7.043 121.258 7.25833 121.916 7.689C122.584 8.10833 123.1 8.66367 123.463 9.355C123.837 10.035 124.024 10.7717 124.024 11.565C124.024 11.8143 124.012 12.007 123.99 12.143H116.629C116.674 12.721 116.833 13.2367 117.105 13.69C117.388 14.132 117.751 14.4833 118.193 14.744C118.635 14.9933 119.111 15.118 119.621 15.118C120.165 15.118 120.675 14.982 121.151 14.71C121.638 14.438 121.972 14.081 122.154 13.639L123.446 13.996C123.162 14.6533 122.669 15.1917 121.967 15.611C121.264 16.0303 120.465 16.24 119.57 16.24ZM116.578 11.106H122.63C122.584 10.528 122.42 10.018 122.137 9.576C121.853 9.134 121.491 8.78833 121.049 8.539C120.607 8.28967 120.119 8.165 119.587 8.165C119.065 8.165 118.584 8.28967 118.142 8.539C117.7 8.78833 117.337 9.134 117.054 9.576C116.782 10.018 116.623 10.528 116.578 11.106Z" fill="#2F2F2F"/>
<path d="M124.99 13.503C124.99 12.9363 125.148 12.449 125.466 12.041C125.794 11.6217 126.242 11.2987 126.809 11.072C127.375 10.8453 128.033 10.732 128.781 10.732C129.177 10.732 129.597 10.766 130.039 10.834C130.481 10.8907 130.872 10.9813 131.212 11.106V10.46C131.212 9.78 131.008 9.24733 130.6 8.862C130.192 8.46533 129.614 8.267 128.866 8.267C128.378 8.267 127.908 8.35767 127.455 8.539C127.013 8.709 126.542 8.95833 126.044 9.287L125.5 8.233C126.078 7.83633 126.656 7.54167 127.234 7.349C127.812 7.145 128.412 7.043 129.036 7.043C130.169 7.043 131.064 7.36033 131.722 7.995C132.379 8.61833 132.708 9.491 132.708 10.613V14.37C132.708 14.7213 132.866 14.9027 133.184 14.914V16.07C133.036 16.0927 132.906 16.1097 132.793 16.121C132.691 16.1323 132.606 16.138 132.538 16.138C132.186 16.138 131.92 16.0417 131.739 15.849C131.569 15.6563 131.472 15.4523 131.45 15.237L131.416 14.676C131.03 15.1747 130.526 15.56 129.903 15.832C129.279 16.104 128.662 16.24 128.05 16.24C127.46 16.24 126.933 16.121 126.469 15.883C126.004 15.6337 125.641 15.305 125.381 14.897C125.12 14.4777 124.99 14.013 124.99 13.503ZM130.77 14.132C130.906 13.9733 131.013 13.8147 131.093 13.656C131.172 13.486 131.212 13.3443 131.212 13.231V12.126C130.486 11.8427 129.738 11.701 128.968 11.701C128.208 11.701 127.591 11.854 127.115 12.16C126.65 12.4547 126.418 12.8627 126.418 13.384C126.418 13.6673 126.491 13.945 126.639 14.217C126.797 14.4777 127.024 14.693 127.319 14.863C127.625 15.033 127.999 15.118 128.441 15.118C128.905 15.118 129.347 15.0273 129.767 14.846C130.186 14.6533 130.52 14.4153 130.77 14.132Z" fill="#2F2F2F"/>
<path d="M142.801 16.07H141.305V11.106C141.305 10.1653 141.157 9.47967 140.863 9.049C140.579 8.607 140.143 8.386 139.554 8.386C139.146 8.386 138.738 8.488 138.33 8.692C137.933 8.896 137.576 9.17367 137.259 9.525C136.953 9.865 136.732 10.2617 136.596 10.715V16.07H135.1V7.196H136.46V9.1C136.811 8.47667 137.315 7.978 137.973 7.604C138.641 7.23 139.367 7.043 140.149 7.043C140.84 7.043 141.373 7.20733 141.747 7.536C142.132 7.85333 142.404 8.29533 142.563 8.862C142.721 9.41733 142.801 10.052 142.801 10.766V16.07Z" fill="#2F2F2F"/>
<path d="M68 27.95C68 27.2133 68.1247 26.4937 68.374 25.791C68.6347 25.077 69.0087 24.431 69.496 23.853C69.9947 23.2637 70.601 22.799 71.315 22.459C72.029 22.1077 72.8393 21.932 73.746 21.932C74.8227 21.932 75.7463 22.1813 76.517 22.68C77.2877 23.1673 77.86 23.7963 78.234 24.567L77.027 25.349C76.789 24.839 76.483 24.4367 76.109 24.142C75.7463 23.836 75.3497 23.6207 74.919 23.496C74.4997 23.3713 74.086 23.309 73.678 23.309C73.0093 23.309 72.4143 23.445 71.893 23.717C71.383 23.989 70.9523 24.3517 70.601 24.805C70.2497 25.2583 69.9833 25.7683 69.802 26.335C69.632 26.8903 69.547 27.4513 69.547 28.018C69.547 28.6413 69.649 29.242 69.853 29.82C70.0683 30.398 70.363 30.908 70.737 31.35C71.111 31.792 71.553 32.1433 72.063 32.404C72.573 32.6647 73.1283 32.795 73.729 32.795C74.1483 32.795 74.579 32.7213 75.021 32.574C75.463 32.4267 75.8767 32.2 76.262 31.894C76.6473 31.5767 76.9533 31.1687 77.18 30.67L78.455 31.367C78.2057 31.9677 77.8203 32.4777 77.299 32.897C76.7777 33.3163 76.194 33.6337 75.548 33.849C74.9133 34.0643 74.2843 34.172 73.661 34.172C72.8337 34.172 72.0743 33.9963 71.383 33.645C70.6917 33.2823 70.091 32.8063 69.581 32.217C69.0823 31.6163 68.6913 30.9477 68.408 30.211C68.136 29.463 68 28.7093 68 27.95Z" fill="#2F2F2F"/>
<path d="M80.1659 21.66H81.6619V31.775C81.6619 32.2623 81.7299 32.5627 81.8659 32.676C82.0019 32.7893 82.1662 32.846 82.3589 32.846C82.5969 32.846 82.8236 32.8233 83.0389 32.778C83.2542 32.7213 83.4356 32.6647 83.5829 32.608L83.8209 33.832C83.5716 33.934 83.2769 34.019 82.9369 34.087C82.5969 34.155 82.2966 34.189 82.0359 34.189C81.4579 34.189 80.9989 34.0247 80.6589 33.696C80.3302 33.3673 80.1659 32.9083 80.1659 32.319V21.66Z" fill="#2F2F2F"/>
<path d="M84.9961 23.53V21.66H86.4921V23.53H84.9961ZM84.9961 34.07V25.196H86.4921V34.07H84.9961Z" fill="#2F2F2F"/>
<path d="M102.293 34.07H100.797V29.106C100.797 28.1767 100.644 27.491 100.338 27.049C100.043 26.607 99.6015 26.386 99.0121 26.386C98.4115 26.386 97.8675 26.607 97.3801 27.049C96.8928 27.4797 96.5471 28.0407 96.3431 28.732V34.07H94.8471V29.106C94.8471 28.1653 94.6998 27.4797 94.4051 27.049C94.1105 26.607 93.6685 26.386 93.0791 26.386C92.4898 26.386 91.9458 26.6013 91.4471 27.032C90.9598 27.4513 90.6141 28.0123 90.4101 28.715V34.07H88.9141V25.196H90.2741V27.1C90.6368 26.4427 91.1071 25.9383 91.6851 25.587C92.2631 25.2243 92.9148 25.043 93.6401 25.043C94.3768 25.043 94.9661 25.247 95.4081 25.655C95.8501 26.0517 96.1221 26.5673 96.2241 27.202C97.0175 25.7627 98.1451 25.043 99.6071 25.043C100.287 25.043 100.82 25.2073 101.205 25.536C101.602 25.8533 101.879 26.2953 102.038 26.862C102.208 27.4173 102.293 28.052 102.293 28.766V34.07Z" fill="#2F2F2F"/>
<path d="M103.922 31.503C103.922 30.9363 104.081 30.449 104.398 30.041C104.727 29.6217 105.175 29.2987 105.741 29.072C106.308 28.8453 106.965 28.732 107.713 28.732C108.11 28.732 108.529 28.766 108.971 28.834C109.413 28.8907 109.804 28.9813 110.144 29.106V28.46C110.144 27.78 109.94 27.2473 109.532 26.862C109.124 26.4653 108.546 26.267 107.798 26.267C107.311 26.267 106.841 26.3577 106.387 26.539C105.945 26.709 105.475 26.9583 104.976 27.287L104.432 26.233C105.01 25.8363 105.588 25.5417 106.166 25.349C106.744 25.145 107.345 25.043 107.968 25.043C109.102 25.043 109.997 25.3603 110.654 25.995C111.312 26.6183 111.64 27.491 111.64 28.613V32.37C111.64 32.7213 111.799 32.9027 112.116 32.914V34.07C111.969 34.0927 111.839 34.1097 111.725 34.121C111.623 34.1323 111.538 34.138 111.47 34.138C111.119 34.138 110.853 34.0417 110.671 33.849C110.501 33.6563 110.405 33.4523 110.382 33.237L110.348 32.676C109.963 33.1747 109.459 33.56 108.835 33.832C108.212 34.104 107.594 34.24 106.982 34.24C106.393 34.24 105.866 34.121 105.401 33.883C104.937 33.6337 104.574 33.305 104.313 32.897C104.053 32.4777 103.922 32.013 103.922 31.503ZM109.702 32.132C109.838 31.9733 109.946 31.8147 110.025 31.656C110.105 31.486 110.144 31.3443 110.144 31.231V30.126C109.419 29.8427 108.671 29.701 107.9 29.701C107.141 29.701 106.523 29.854 106.047 30.16C105.583 30.4547 105.35 30.8627 105.35 31.384C105.35 31.6673 105.424 31.945 105.571 32.217C105.73 32.4777 105.957 32.693 106.251 32.863C106.557 33.033 106.931 33.118 107.373 33.118C107.838 33.118 108.28 33.0273 108.699 32.846C109.119 32.6533 109.453 32.4153 109.702 32.132Z" fill="#2F2F2F"/>
<path d="M118.556 33.628C118.375 33.7073 118.086 33.8207 117.689 33.968C117.304 34.1153 116.873 34.189 116.397 34.189C115.853 34.189 115.383 34.0417 114.986 33.747C114.589 33.441 114.391 32.9707 114.391 32.336V26.369H113.184V25.196H114.391V22.238H115.887V25.196H117.876V26.369H115.887V31.877C115.91 32.1943 116.017 32.4323 116.21 32.591C116.403 32.7383 116.629 32.812 116.89 32.812C117.185 32.812 117.457 32.761 117.706 32.659C117.955 32.557 118.12 32.4833 118.199 32.438L118.556 33.628Z" fill="#2F2F2F"/>
<path d="M123.753 34.24C122.869 34.24 122.087 34.0303 121.407 33.611C120.727 33.1917 120.195 32.6307 119.809 31.928C119.424 31.2253 119.231 30.4603 119.231 29.633C119.231 28.7943 119.424 28.0293 119.809 27.338C120.195 26.6467 120.727 26.0913 121.407 25.672C122.099 25.2527 122.886 25.043 123.77 25.043C124.666 25.043 125.442 25.2583 126.099 25.689C126.768 26.1083 127.284 26.6637 127.646 27.355C128.02 28.035 128.207 28.7717 128.207 29.565C128.207 29.8143 128.196 30.007 128.173 30.143H120.812C120.858 30.721 121.016 31.2367 121.288 31.69C121.572 32.132 121.934 32.4833 122.376 32.744C122.818 32.9933 123.294 33.118 123.804 33.118C124.348 33.118 124.858 32.982 125.334 32.71C125.822 32.438 126.156 32.081 126.337 31.639L127.629 31.996C127.346 32.6533 126.853 33.1917 126.15 33.611C125.448 34.0303 124.649 34.24 123.753 34.24ZM120.761 29.106H126.813C126.768 28.528 126.604 28.018 126.32 27.576C126.037 27.134 125.674 26.7883 125.232 26.539C124.79 26.2897 124.303 26.165 123.77 26.165C123.249 26.165 122.767 26.2897 122.325 26.539C121.883 26.7883 121.521 27.134 121.237 27.576C120.965 28.018 120.807 28.528 120.761 29.106Z" fill="#2F2F2F"/>
<path d="M134.408 34.07V22H138.59C139.882 22 140.959 22.272 141.82 22.816C142.693 23.3487 143.344 24.074 143.775 24.992C144.206 25.8987 144.421 26.9073 144.421 28.018C144.421 29.242 144.183 30.3073 143.707 31.214C143.231 32.1207 142.557 32.8233 141.684 33.322C140.811 33.8207 139.78 34.07 138.59 34.07H134.408ZM142.874 28.018C142.874 27.1113 142.704 26.3067 142.364 25.604C142.035 24.9013 141.554 24.3517 140.919 23.955C140.284 23.5583 139.508 23.36 138.59 23.36H135.938V32.71H138.59C139.519 32.71 140.301 32.506 140.936 32.098C141.571 31.6787 142.052 31.1177 142.381 30.415C142.71 29.701 142.874 28.902 142.874 28.018Z" fill="#2F2F2F"/>
<path d="M145.559 31.503C145.559 30.9363 145.718 30.449 146.035 30.041C146.364 29.6217 146.811 29.2987 147.378 29.072C147.945 28.8453 148.602 28.732 149.35 28.732C149.747 28.732 150.166 28.766 150.608 28.834C151.05 28.8907 151.441 28.9813 151.781 29.106V28.46C151.781 27.78 151.577 27.2473 151.169 26.862C150.761 26.4653 150.183 26.267 149.435 26.267C148.948 26.267 148.477 26.3577 148.024 26.539C147.582 26.709 147.112 26.9583 146.613 27.287L146.069 26.233C146.647 25.8363 147.225 25.5417 147.803 25.349C148.381 25.145 148.982 25.043 149.605 25.043C150.738 25.043 151.634 25.3603 152.291 25.995C152.948 26.6183 153.277 27.491 153.277 28.613V32.37C153.277 32.7213 153.436 32.9027 153.753 32.914V34.07C153.606 34.0927 153.475 34.1097 153.362 34.121C153.26 34.1323 153.175 34.138 153.107 34.138C152.756 34.138 152.489 34.0417 152.308 33.849C152.138 33.6563 152.042 33.4523 152.019 33.237L151.985 32.676C151.6 33.1747 151.095 33.56 150.472 33.832C149.849 34.104 149.231 34.24 148.619 34.24C148.03 34.24 147.503 34.121 147.038 33.883C146.573 33.6337 146.211 33.305 145.95 32.897C145.689 32.4777 145.559 32.013 145.559 31.503ZM151.339 32.132C151.475 31.9733 151.583 31.8147 151.662 31.656C151.741 31.486 151.781 31.3443 151.781 31.231V30.126C151.056 29.8427 150.308 29.701 149.537 29.701C148.778 29.701 148.16 29.854 147.684 30.16C147.219 30.4547 146.987 30.8627 146.987 31.384C146.987 31.6673 147.061 31.945 147.208 32.217C147.367 32.4777 147.593 32.693 147.888 32.863C148.194 33.033 148.568 33.118 149.01 33.118C149.475 33.118 149.917 33.0273 150.336 32.846C150.755 32.6533 151.09 32.4153 151.339 32.132Z" fill="#2F2F2F"/>
<path d="M160.193 33.628C160.011 33.7073 159.722 33.8207 159.326 33.968C158.94 34.1153 158.51 34.189 158.034 34.189C157.49 34.189 157.019 34.0417 156.623 33.747C156.226 33.441 156.028 32.9707 156.028 32.336V26.369H154.821V25.196H156.028V22.238H157.524V25.196H159.513V26.369H157.524V31.877C157.546 32.1943 157.654 32.4323 157.847 32.591C158.039 32.7383 158.266 32.812 158.527 32.812C158.821 32.812 159.093 32.761 159.343 32.659C159.592 32.557 159.756 32.4833 159.836 32.438L160.193 33.628Z" fill="#2F2F2F"/>
<path d="M160.882 31.503C160.882 30.9363 161.041 30.449 161.358 30.041C161.687 29.6217 162.134 29.2987 162.701 29.072C163.268 28.8453 163.925 28.732 164.673 28.732C165.07 28.732 165.489 28.766 165.931 28.834C166.373 28.8907 166.764 28.9813 167.104 29.106V28.46C167.104 27.78 166.9 27.2473 166.492 26.862C166.084 26.4653 165.506 26.267 164.758 26.267C164.271 26.267 163.8 26.3577 163.347 26.539C162.905 26.709 162.435 26.9583 161.936 27.287L161.392 26.233C161.97 25.8363 162.548 25.5417 163.126 25.349C163.704 25.145 164.305 25.043 164.928 25.043C166.061 25.043 166.957 25.3603 167.614 25.995C168.271 26.6183 168.6 27.491 168.6 28.613V32.37C168.6 32.7213 168.759 32.9027 169.076 32.914V34.07C168.929 34.0927 168.798 34.1097 168.685 34.121C168.583 34.1323 168.498 34.138 168.43 34.138C168.079 34.138 167.812 34.0417 167.631 33.849C167.461 33.6563 167.365 33.4523 167.342 33.237L167.308 32.676C166.923 33.1747 166.418 33.56 165.795 33.832C165.172 34.104 164.554 34.24 163.942 34.24C163.353 34.24 162.826 34.121 162.361 33.883C161.896 33.6337 161.534 33.305 161.273 32.897C161.012 32.4777 160.882 32.013 160.882 31.503ZM166.662 32.132C166.798 31.9733 166.906 31.8147 166.985 31.656C167.064 31.486 167.104 31.3443 167.104 31.231V30.126C166.379 29.8427 165.631 29.701 164.86 29.701C164.101 29.701 163.483 29.854 163.007 30.16C162.542 30.4547 162.31 30.8627 162.31 31.384C162.31 31.6673 162.384 31.945 162.531 32.217C162.69 32.4777 162.916 32.693 163.211 32.863C163.517 33.033 163.891 33.118 164.333 33.118C164.798 33.118 165.24 33.0273 165.659 32.846C166.078 32.6533 166.413 32.4153 166.662 32.132Z" fill="#2F2F2F"/>
<path d="M76.976 50.71V52.07H68.782V40H76.823V41.36H70.312V45.27H75.973V46.545H70.312V50.71H76.976Z" fill="#2F2F2F"/>
<path d="M79.5 43.196L81.846 46.46L81.982 46.732L82.135 46.46L84.464 43.196H86.13L82.849 47.65L86.147 52.07H84.481L82.135 48.823L81.982 48.568L81.846 48.823L79.5 52.07H77.834L81.132 47.65L77.851 43.196H79.5Z" fill="#2F2F2F"/>
<path d="M92.3298 52.24C91.6045 52.24 90.9585 52.0587 90.3918 51.696C89.8251 51.3333 89.3775 50.8743 89.0488 50.319V55.691H87.5528V43.196H88.8788V44.862C89.2301 44.318 89.6891 43.8817 90.2558 43.553C90.8225 43.213 91.4401 43.043 92.1088 43.043C92.7208 43.043 93.2818 43.1677 93.7918 43.417C94.3018 43.6663 94.7438 44.0063 95.1178 44.437C95.4918 44.8677 95.7808 45.3607 95.9848 45.916C96.2001 46.46 96.3078 47.0323 96.3078 47.633C96.3078 48.4717 96.1378 49.2423 95.7978 49.945C95.4691 50.6477 95.0045 51.2087 94.4038 51.628C93.8031 52.036 93.1118 52.24 92.3298 52.24ZM91.8708 50.948C92.4601 50.948 92.9701 50.7893 93.4008 50.472C93.8315 50.1547 94.1658 49.741 94.4038 49.231C94.6531 48.721 94.7778 48.1883 94.7778 47.633C94.7778 47.0323 94.6418 46.4827 94.3698 45.984C94.1091 45.4853 93.7465 45.0887 93.2818 44.794C92.8285 44.488 92.3128 44.335 91.7348 44.335C91.3835 44.335 91.0095 44.4257 90.6128 44.607C90.2275 44.7883 89.8875 45.032 89.5928 45.338C89.3095 45.6327 89.1281 45.9613 89.0488 46.324V48.857C89.2981 49.4463 89.6778 49.945 90.1878 50.353C90.7091 50.7497 91.2701 50.948 91.8708 50.948Z" fill="#2F2F2F"/>
<path d="M98.1786 39.66H99.6746V49.775C99.6746 50.2623 99.7426 50.5627 99.8786 50.676C100.015 50.7893 100.179 50.846 100.372 50.846C100.61 50.846 100.836 50.8233 101.052 50.778C101.267 50.7213 101.448 50.6647 101.596 50.608L101.834 51.832C101.584 51.934 101.29 52.019 100.95 52.087C100.61 52.155 100.309 52.189 100.049 52.189C99.4706 52.189 99.0116 52.0247 98.6716 51.696C98.3429 51.3673 98.1786 50.9083 98.1786 50.319V39.66Z" fill="#2F2F2F"/>
<path d="M106.885 52.24C106.001 52.24 105.219 52.0303 104.539 51.611C103.87 51.1803 103.349 50.6193 102.975 49.928C102.601 49.2253 102.414 48.466 102.414 47.65C102.414 46.8227 102.601 46.0633 102.975 45.372C103.36 44.6693 103.887 44.1083 104.556 43.689C105.236 43.2583 106.012 43.043 106.885 43.043C107.769 43.043 108.545 43.2583 109.214 43.689C109.894 44.1083 110.421 44.6693 110.795 45.372C111.18 46.0633 111.373 46.8227 111.373 47.65C111.373 48.466 111.18 49.2253 110.795 49.928C110.421 50.6193 109.9 51.1803 109.231 51.611C108.562 52.0303 107.78 52.24 106.885 52.24ZM103.944 47.667C103.944 48.279 104.074 48.8343 104.335 49.333C104.607 49.8317 104.964 50.2283 105.406 50.523C105.848 50.8063 106.341 50.948 106.885 50.948C107.429 50.948 107.922 50.8007 108.364 50.506C108.817 50.2113 109.174 49.8147 109.435 49.316C109.707 48.806 109.843 48.245 109.843 47.633C109.843 47.021 109.707 46.4657 109.435 45.967C109.174 45.4683 108.817 45.0717 108.364 44.777C107.922 44.4823 107.429 44.335 106.885 44.335C106.341 44.335 105.848 44.488 105.406 44.794C104.964 45.0887 104.607 45.4853 104.335 45.984C104.074 46.4827 103.944 47.0437 103.944 47.667Z" fill="#2F2F2F"/>
<path d="M117.878 44.505C117.13 44.5163 116.467 44.709 115.889 45.083C115.322 45.4457 114.92 45.95 114.682 46.596V52.07H113.186V43.196H114.58V45.253C114.886 44.641 115.288 44.148 115.787 43.774C116.297 43.3887 116.829 43.1733 117.385 43.128C117.498 43.128 117.594 43.128 117.674 43.128C117.753 43.128 117.821 43.1337 117.878 43.145V44.505Z" fill="#2F2F2F"/>
<path d="M123.089 52.24C122.205 52.24 121.423 52.0303 120.743 51.611C120.063 51.1917 119.53 50.6307 119.145 49.928C118.76 49.2253 118.567 48.4603 118.567 47.633C118.567 46.7943 118.76 46.0293 119.145 45.338C119.53 44.6467 120.063 44.0913 120.743 43.672C121.434 43.2527 122.222 43.043 123.106 43.043C124.002 43.043 124.778 43.2583 125.435 43.689C126.104 44.1083 126.619 44.6637 126.982 45.355C127.356 46.035 127.543 46.7717 127.543 47.565C127.543 47.8143 127.532 48.007 127.509 48.143H120.148C120.193 48.721 120.352 49.2367 120.624 49.69C120.907 50.132 121.27 50.4833 121.712 50.744C122.154 50.9933 122.63 51.118 123.14 51.118C123.684 51.118 124.194 50.982 124.67 50.71C125.157 50.438 125.492 50.081 125.673 49.639L126.965 49.996C126.682 50.6533 126.189 51.1917 125.486 51.611C124.784 52.0303 123.984 52.24 123.089 52.24ZM120.097 47.106H126.149C126.104 46.528 125.939 46.018 125.656 45.576C125.373 45.134 125.01 44.7883 124.568 44.539C124.126 44.2897 123.639 44.165 123.106 44.165C122.585 44.165 122.103 44.2897 121.661 44.539C121.219 44.7883 120.856 45.134 120.573 45.576C120.301 46.018 120.142 46.528 120.097 47.106Z" fill="#2F2F2F"/>
<path d="M133.898 44.505C133.15 44.5163 132.487 44.709 131.909 45.083C131.342 45.4457 130.94 45.95 130.702 46.596V52.07H129.206V43.196H130.6V45.253C130.906 44.641 131.308 44.148 131.807 43.774C132.317 43.3887 132.85 43.1733 133.405 43.128C133.518 43.128 133.615 43.128 133.694 43.128C133.773 43.128 133.841 43.1337 133.898 43.145V44.505Z" fill="#2F2F2F"/>
</svg>
