<svg width="177" height="61" viewBox="0 0 177 61" fill="none" xmlns="http://www.w3.org/2000/svg">
<path d="M79.976 15.71V17.07H71.782V5H79.823V6.36H73.312V10.27H78.973V11.545H73.312V15.71H79.976Z" fill="#2F2F2F"/>
<path d="M81.6026 13.517V8.196H83.0986V13.228C83.0986 15.0413 83.7276 15.948 84.9856 15.948C85.5976 15.948 86.1699 15.7553 86.7026 15.37C87.2466 14.9733 87.6489 14.435 87.9096 13.755V8.196H89.4056V15.37C89.4056 15.7213 89.5642 15.9027 89.8816 15.914V17.07C89.7116 17.0927 89.5756 17.104 89.4736 17.104C89.3829 17.1153 89.2922 17.121 89.2016 17.121C88.9182 17.121 88.6746 17.036 88.4706 16.866C88.2666 16.6847 88.1589 16.4637 88.1476 16.203L88.1136 15.166C87.7282 15.8233 87.2069 16.3333 86.5496 16.696C85.9036 17.0587 85.1952 17.24 84.4246 17.24C82.5432 17.24 81.6026 15.999 81.6026 13.517Z" fill="#2F2F2F"/>
<path d="M96.5895 9.505C95.8415 9.51633 95.1785 9.709 94.6005 10.083C94.0338 10.4457 93.6315 10.95 93.3935 11.596V17.07H91.8975V8.196H93.2915V10.253C93.5975 9.641 93.9998 9.148 94.4985 8.774C95.0085 8.38867 95.5412 8.17333 96.0965 8.128C96.2098 8.128 96.3062 8.128 96.3855 8.128C96.4648 8.128 96.5328 8.13367 96.5895 8.145V9.505Z" fill="#2F2F2F"/>
<path d="M101.75 17.24C100.866 17.24 100.084 17.0303 99.4041 16.611C98.7354 16.1803 98.2141 15.6193 97.8401 14.928C97.4661 14.2253 97.2791 13.466 97.2791 12.65C97.2791 11.8227 97.4661 11.0633 97.8401 10.372C98.2254 9.66933 98.7524 9.10833 99.4211 8.689C100.101 8.25833 100.877 8.043 101.75 8.043C102.634 8.043 103.41 8.25833 104.079 8.689C104.759 9.10833 105.286 9.66933 105.66 10.372C106.045 11.0633 106.238 11.8227 106.238 12.65C106.238 13.466 106.045 14.2253 105.66 14.928C105.286 15.6193 104.765 16.1803 104.096 16.611C103.427 17.0303 102.645 17.24 101.75 17.24ZM98.8091 12.667C98.8091 13.279 98.9394 13.8343 99.2001 14.333C99.4721 14.8317 99.8291 15.2283 100.271 15.523C100.713 15.8063 101.206 15.948 101.75 15.948C102.294 15.948 102.787 15.8007 103.229 15.506C103.682 15.2113 104.039 14.8147 104.3 14.316C104.572 13.806 104.708 13.245 104.708 12.633C104.708 12.021 104.572 11.4657 104.3 10.967C104.039 10.4683 103.682 10.0717 103.229 9.777C102.787 9.48233 102.294 9.335 101.75 9.335C101.206 9.335 100.713 9.488 100.271 9.794C99.8291 10.0887 99.4721 10.4853 99.2001 10.984C98.9394 11.4827 98.8091 12.0437 98.8091 12.667Z" fill="#2F2F2F"/>
<path d="M112.828 17.24C112.103 17.24 111.457 17.0587 110.89 16.696C110.323 16.3333 109.876 15.8743 109.547 15.319V20.691H108.051V8.196H109.377V9.862C109.728 9.318 110.187 8.88167 110.754 8.553C111.321 8.213 111.938 8.043 112.607 8.043C113.219 8.043 113.78 8.16767 114.29 8.417C114.8 8.66633 115.242 9.00633 115.616 9.437C115.99 9.86767 116.279 10.3607 116.483 10.916C116.698 11.46 116.806 12.0323 116.806 12.633C116.806 13.4717 116.636 14.2423 116.296 14.945C115.967 15.6477 115.503 16.2087 114.902 16.628C114.301 17.036 113.61 17.24 112.828 17.24ZM112.369 15.948C112.958 15.948 113.468 15.7893 113.899 15.472C114.33 15.1547 114.664 14.741 114.902 14.231C115.151 13.721 115.276 13.1883 115.276 12.633C115.276 12.0323 115.14 11.4827 114.868 10.984C114.607 10.4853 114.245 10.0887 113.78 9.794C113.327 9.488 112.811 9.335 112.233 9.335C111.882 9.335 111.508 9.42567 111.111 9.607C110.726 9.78833 110.386 10.032 110.091 10.338C109.808 10.6327 109.626 10.9613 109.547 11.324V13.857C109.796 14.4463 110.176 14.945 110.686 15.353C111.207 15.7497 111.768 15.948 112.369 15.948Z" fill="#2F2F2F"/>
<path d="M122.57 17.24C121.686 17.24 120.904 17.0303 120.224 16.611C119.544 16.1917 119.011 15.6307 118.626 14.928C118.24 14.2253 118.048 13.4603 118.048 12.633C118.048 11.7943 118.24 11.0293 118.626 10.338C119.011 9.64667 119.544 9.09133 120.224 8.672C120.915 8.25267 121.703 8.043 122.587 8.043C123.482 8.043 124.258 8.25833 124.916 8.689C125.584 9.10833 126.1 9.66367 126.463 10.355C126.837 11.035 127.024 11.7717 127.024 12.565C127.024 12.8143 127.012 13.007 126.99 13.143H119.629C119.674 13.721 119.833 14.2367 120.105 14.69C120.388 15.132 120.751 15.4833 121.193 15.744C121.635 15.9933 122.111 16.118 122.621 16.118C123.165 16.118 123.675 15.982 124.151 15.71C124.638 15.438 124.972 15.081 125.154 14.639L126.446 14.996C126.162 15.6533 125.669 16.1917 124.967 16.611C124.264 17.0303 123.465 17.24 122.57 17.24ZM119.578 12.106H125.63C125.584 11.528 125.42 11.018 125.137 10.576C124.853 10.134 124.491 9.78833 124.049 9.539C123.607 9.28967 123.119 9.165 122.587 9.165C122.065 9.165 121.584 9.28967 121.142 9.539C120.7 9.78833 120.337 10.134 120.054 10.576C119.782 11.018 119.623 11.528 119.578 12.106Z" fill="#2F2F2F"/>
<path d="M127.99 14.503C127.99 13.9363 128.148 13.449 128.466 13.041C128.794 12.6217 129.242 12.2987 129.809 12.072C130.375 11.8453 131.033 11.732 131.781 11.732C132.177 11.732 132.597 11.766 133.039 11.834C133.481 11.8907 133.872 11.9813 134.212 12.106V11.46C134.212 10.78 134.008 10.2473 133.6 9.862C133.192 9.46533 132.614 9.267 131.866 9.267C131.378 9.267 130.908 9.35767 130.455 9.539C130.013 9.709 129.542 9.95833 129.044 10.287L128.5 9.233C129.078 8.83633 129.656 8.54167 130.234 8.349C130.812 8.145 131.412 8.043 132.036 8.043C133.169 8.043 134.064 8.36033 134.722 8.995C135.379 9.61833 135.708 10.491 135.708 11.613V15.37C135.708 15.7213 135.866 15.9027 136.184 15.914V17.07C136.036 17.0927 135.906 17.1097 135.793 17.121C135.691 17.1323 135.606 17.138 135.538 17.138C135.186 17.138 134.92 17.0417 134.739 16.849C134.569 16.6563 134.472 16.4523 134.45 16.237L134.416 15.676C134.03 16.1747 133.526 16.56 132.903 16.832C132.279 17.104 131.662 17.24 131.05 17.24C130.46 17.24 129.933 17.121 129.469 16.883C129.004 16.6337 128.641 16.305 128.381 15.897C128.12 15.4777 127.99 15.013 127.99 14.503ZM133.77 15.132C133.906 14.9733 134.013 14.8147 134.093 14.656C134.172 14.486 134.212 14.3443 134.212 14.231V13.126C133.486 12.8427 132.738 12.701 131.968 12.701C131.208 12.701 130.591 12.854 130.115 13.16C129.65 13.4547 129.418 13.8627 129.418 14.384C129.418 14.6673 129.491 14.945 129.639 15.217C129.797 15.4777 130.024 15.693 130.319 15.863C130.625 16.033 130.999 16.118 131.441 16.118C131.905 16.118 132.347 16.0273 132.767 15.846C133.186 15.6533 133.52 15.4153 133.77 15.132Z" fill="#2F2F2F"/>
<path d="M145.801 17.07H144.305V12.106C144.305 11.1653 144.157 10.4797 143.863 10.049C143.579 9.607 143.143 9.386 142.554 9.386C142.146 9.386 141.738 9.488 141.33 9.692C140.933 9.896 140.576 10.1737 140.259 10.525C139.953 10.865 139.732 11.2617 139.596 11.715V17.07H138.1V8.196H139.46V10.1C139.811 9.47667 140.315 8.978 140.973 8.604C141.641 8.23 142.367 8.043 143.149 8.043C143.84 8.043 144.373 8.20733 144.747 8.536C145.132 8.85333 145.404 9.29533 145.563 9.862C145.721 10.4173 145.801 11.052 145.801 11.766V17.07Z" fill="#2F2F2F"/>
<path d="M71 28.95C71 28.2133 71.1247 27.4937 71.374 26.791C71.6347 26.077 72.0087 25.431 72.496 24.853C72.9947 24.2637 73.601 23.799 74.315 23.459C75.029 23.1077 75.8393 22.932 76.746 22.932C77.8227 22.932 78.7463 23.1813 79.517 23.68C80.2877 24.1673 80.86 24.7963 81.234 25.567L80.027 26.349C79.789 25.839 79.483 25.4367 79.109 25.142C78.7463 24.836 78.3497 24.6207 77.919 24.496C77.4997 24.3713 77.086 24.309 76.678 24.309C76.0093 24.309 75.4143 24.445 74.893 24.717C74.383 24.989 73.9523 25.3517 73.601 25.805C73.2497 26.2583 72.9833 26.7683 72.802 27.335C72.632 27.8903 72.547 28.4513 72.547 29.018C72.547 29.6413 72.649 30.242 72.853 30.82C73.0683 31.398 73.363 31.908 73.737 32.35C74.111 32.792 74.553 33.1433 75.063 33.404C75.573 33.6647 76.1283 33.795 76.729 33.795C77.1483 33.795 77.579 33.7213 78.021 33.574C78.463 33.4267 78.8767 33.2 79.262 32.894C79.6473 32.5767 79.9533 32.1687 80.18 31.67L81.455 32.367C81.2057 32.9677 80.8203 33.4777 80.299 33.897C79.7777 34.3163 79.194 34.6337 78.548 34.849C77.9133 35.0643 77.2843 35.172 76.661 35.172C75.8337 35.172 75.0743 34.9963 74.383 34.645C73.6917 34.2823 73.091 33.8063 72.581 33.217C72.0823 32.6163 71.6913 31.9477 71.408 31.211C71.136 30.463 71 29.7093 71 28.95Z" fill="#2F2F2F"/>
<path d="M83.1659 22.66H84.6619V32.775C84.6619 33.2623 84.7299 33.5627 84.8659 33.676C85.0019 33.7893 85.1662 33.846 85.3589 33.846C85.5969 33.846 85.8236 33.8233 86.0389 33.778C86.2542 33.7213 86.4356 33.6647 86.5829 33.608L86.8209 34.832C86.5716 34.934 86.2769 35.019 85.9369 35.087C85.5969 35.155 85.2966 35.189 85.0359 35.189C84.4579 35.189 83.9989 35.0247 83.6589 34.696C83.3302 34.3673 83.1659 33.9083 83.1659 33.319V22.66Z" fill="#2F2F2F"/>
<path d="M87.9961 24.53V22.66H89.4921V24.53H87.9961ZM87.9961 35.07V26.196H89.4921V35.07H87.9961Z" fill="#2F2F2F"/>
<path d="M105.293 35.07H103.797V30.106C103.797 29.1767 103.644 28.491 103.338 28.049C103.043 27.607 102.601 27.386 102.012 27.386C101.411 27.386 100.867 27.607 100.38 28.049C99.8928 28.4797 99.5471 29.0407 99.3431 29.732V35.07H97.8471V30.106C97.8471 29.1653 97.6998 28.4797 97.4051 28.049C97.1105 27.607 96.6684 27.386 96.0791 27.386C95.4898 27.386 94.9458 27.6013 94.4471 28.032C93.9598 28.4513 93.6141 29.0123 93.4101 29.715V35.07H91.9141V26.196H93.2741V28.1C93.6368 27.4427 94.1071 26.9383 94.6851 26.587C95.2631 26.2243 95.9148 26.043 96.6401 26.043C97.3768 26.043 97.9661 26.247 98.4081 26.655C98.8501 27.0517 99.1221 27.5673 99.2241 28.202C100.017 26.7627 101.145 26.043 102.607 26.043C103.287 26.043 103.82 26.2073 104.205 26.536C104.602 26.8533 104.879 27.2953 105.038 27.862C105.208 28.4173 105.293 29.052 105.293 29.766V35.07Z" fill="#2F2F2F"/>
<path d="M106.922 32.503C106.922 31.9363 107.081 31.449 107.398 31.041C107.727 30.6217 108.175 30.2987 108.741 30.072C109.308 29.8453 109.965 29.732 110.713 29.732C111.11 29.732 111.529 29.766 111.971 29.834C112.413 29.8907 112.804 29.9813 113.144 30.106V29.46C113.144 28.78 112.94 28.2473 112.532 27.862C112.124 27.4653 111.546 27.267 110.798 27.267C110.311 27.267 109.841 27.3577 109.387 27.539C108.945 27.709 108.475 27.9583 107.976 28.287L107.432 27.233C108.01 26.8363 108.588 26.5417 109.166 26.349C109.744 26.145 110.345 26.043 110.968 26.043C112.102 26.043 112.997 26.3603 113.654 26.995C114.312 27.6183 114.64 28.491 114.64 29.613V33.37C114.64 33.7213 114.799 33.9027 115.116 33.914V35.07C114.969 35.0927 114.839 35.1097 114.725 35.121C114.623 35.1323 114.538 35.138 114.47 35.138C114.119 35.138 113.853 35.0417 113.671 34.849C113.501 34.6563 113.405 34.4523 113.382 34.237L113.348 33.676C112.963 34.1747 112.459 34.56 111.835 34.832C111.212 35.104 110.594 35.24 109.982 35.24C109.393 35.24 108.866 35.121 108.401 34.883C107.937 34.6337 107.574 34.305 107.313 33.897C107.053 33.4777 106.922 33.013 106.922 32.503ZM112.702 33.132C112.838 32.9733 112.946 32.8147 113.025 32.656C113.105 32.486 113.144 32.3443 113.144 32.231V31.126C112.419 30.8427 111.671 30.701 110.9 30.701C110.141 30.701 109.523 30.854 109.047 31.16C108.583 31.4547 108.35 31.8627 108.35 32.384C108.35 32.6673 108.424 32.945 108.571 33.217C108.73 33.4777 108.957 33.693 109.251 33.863C109.557 34.033 109.931 34.118 110.373 34.118C110.838 34.118 111.28 34.0273 111.699 33.846C112.119 33.6533 112.453 33.4153 112.702 33.132Z" fill="#2F2F2F"/>
<path d="M121.556 34.628C121.375 34.7073 121.086 34.8207 120.689 34.968C120.304 35.1153 119.873 35.189 119.397 35.189C118.853 35.189 118.383 35.0417 117.986 34.747C117.589 34.441 117.391 33.9707 117.391 33.336V27.369H116.184V26.196H117.391V23.238H118.887V26.196H120.876V27.369H118.887V32.877C118.91 33.1943 119.017 33.4323 119.21 33.591C119.403 33.7383 119.629 33.812 119.89 33.812C120.185 33.812 120.457 33.761 120.706 33.659C120.955 33.557 121.12 33.4833 121.199 33.438L121.556 34.628Z" fill="#2F2F2F"/>
<path d="M126.753 35.24C125.869 35.24 125.087 35.0303 124.407 34.611C123.727 34.1917 123.195 33.6307 122.809 32.928C122.424 32.2253 122.231 31.4603 122.231 30.633C122.231 29.7943 122.424 29.0293 122.809 28.338C123.195 27.6467 123.727 27.0913 124.407 26.672C125.099 26.2527 125.886 26.043 126.77 26.043C127.666 26.043 128.442 26.2583 129.099 26.689C129.768 27.1083 130.284 27.6637 130.646 28.355C131.02 29.035 131.207 29.7717 131.207 30.565C131.207 30.8143 131.196 31.007 131.173 31.143H123.812C123.858 31.721 124.016 32.2367 124.288 32.69C124.572 33.132 124.934 33.4833 125.376 33.744C125.818 33.9933 126.294 34.118 126.804 34.118C127.348 34.118 127.858 33.982 128.334 33.71C128.822 33.438 129.156 33.081 129.337 32.639L130.629 32.996C130.346 33.6533 129.853 34.1917 129.15 34.611C128.448 35.0303 127.649 35.24 126.753 35.24ZM123.761 30.106H129.813C129.768 29.528 129.604 29.018 129.32 28.576C129.037 28.134 128.674 27.7883 128.232 27.539C127.79 27.2897 127.303 27.165 126.77 27.165C126.249 27.165 125.767 27.2897 125.325 27.539C124.883 27.7883 124.521 28.134 124.237 28.576C123.965 29.018 123.807 29.528 123.761 30.106Z" fill="#2F2F2F"/>
<path d="M137.408 35.07V23H141.59C142.882 23 143.959 23.272 144.82 23.816C145.693 24.3487 146.344 25.074 146.775 25.992C147.206 26.8987 147.421 27.9073 147.421 29.018C147.421 30.242 147.183 31.3073 146.707 32.214C146.231 33.1207 145.557 33.8233 144.684 34.322C143.811 34.8207 142.78 35.07 141.59 35.07H137.408ZM145.874 29.018C145.874 28.1113 145.704 27.3067 145.364 26.604C145.035 25.9013 144.554 25.3517 143.919 24.955C143.284 24.5583 142.508 24.36 141.59 24.36H138.938V33.71H141.59C142.519 33.71 143.301 33.506 143.936 33.098C144.571 32.6787 145.052 32.1177 145.381 31.415C145.71 30.701 145.874 29.902 145.874 29.018Z" fill="#2F2F2F"/>
<path d="M148.559 32.503C148.559 31.9363 148.718 31.449 149.035 31.041C149.364 30.6217 149.811 30.2987 150.378 30.072C150.945 29.8453 151.602 29.732 152.35 29.732C152.747 29.732 153.166 29.766 153.608 29.834C154.05 29.8907 154.441 29.9813 154.781 30.106V29.46C154.781 28.78 154.577 28.2473 154.169 27.862C153.761 27.4653 153.183 27.267 152.435 27.267C151.948 27.267 151.477 27.3577 151.024 27.539C150.582 27.709 150.112 27.9583 149.613 28.287L149.069 27.233C149.647 26.8363 150.225 26.5417 150.803 26.349C151.381 26.145 151.982 26.043 152.605 26.043C153.738 26.043 154.634 26.3603 155.291 26.995C155.948 27.6183 156.277 28.491 156.277 29.613V33.37C156.277 33.7213 156.436 33.9027 156.753 33.914V35.07C156.606 35.0927 156.475 35.1097 156.362 35.121C156.26 35.1323 156.175 35.138 156.107 35.138C155.756 35.138 155.489 35.0417 155.308 34.849C155.138 34.6563 155.042 34.4523 155.019 34.237L154.985 33.676C154.6 34.1747 154.095 34.56 153.472 34.832C152.849 35.104 152.231 35.24 151.619 35.24C151.03 35.24 150.503 35.121 150.038 34.883C149.573 34.6337 149.211 34.305 148.95 33.897C148.689 33.4777 148.559 33.013 148.559 32.503ZM154.339 33.132C154.475 32.9733 154.583 32.8147 154.662 32.656C154.741 32.486 154.781 32.3443 154.781 32.231V31.126C154.056 30.8427 153.308 30.701 152.537 30.701C151.778 30.701 151.16 30.854 150.684 31.16C150.219 31.4547 149.987 31.8627 149.987 32.384C149.987 32.6673 150.061 32.945 150.208 33.217C150.367 33.4777 150.593 33.693 150.888 33.863C151.194 34.033 151.568 34.118 152.01 34.118C152.475 34.118 152.917 34.0273 153.336 33.846C153.755 33.6533 154.09 33.4153 154.339 33.132Z" fill="#2F2F2F"/>
<path d="M163.193 34.628C163.011 34.7073 162.722 34.8207 162.326 34.968C161.94 35.1153 161.51 35.189 161.034 35.189C160.49 35.189 160.019 35.0417 159.623 34.747C159.226 34.441 159.028 33.9707 159.028 33.336V27.369H157.821V26.196H159.028V23.238H160.524V26.196H162.513V27.369H160.524V32.877C160.546 33.1943 160.654 33.4323 160.847 33.591C161.039 33.7383 161.266 33.812 161.527 33.812C161.821 33.812 162.093 33.761 162.343 33.659C162.592 33.557 162.756 33.4833 162.836 33.438L163.193 34.628Z" fill="#2F2F2F"/>
<path d="M163.882 32.503C163.882 31.9363 164.041 31.449 164.358 31.041C164.687 30.6217 165.134 30.2987 165.701 30.072C166.268 29.8453 166.925 29.732 167.673 29.732C168.07 29.732 168.489 29.766 168.931 29.834C169.373 29.8907 169.764 29.9813 170.104 30.106V29.46C170.104 28.78 169.9 28.2473 169.492 27.862C169.084 27.4653 168.506 27.267 167.758 27.267C167.271 27.267 166.8 27.3577 166.347 27.539C165.905 27.709 165.435 27.9583 164.936 28.287L164.392 27.233C164.97 26.8363 165.548 26.5417 166.126 26.349C166.704 26.145 167.305 26.043 167.928 26.043C169.061 26.043 169.957 26.3603 170.614 26.995C171.271 27.6183 171.6 28.491 171.6 29.613V33.37C171.6 33.7213 171.759 33.9027 172.076 33.914V35.07C171.929 35.0927 171.798 35.1097 171.685 35.121C171.583 35.1323 171.498 35.138 171.43 35.138C171.079 35.138 170.812 35.0417 170.631 34.849C170.461 34.6563 170.365 34.4523 170.342 34.237L170.308 33.676C169.923 34.1747 169.418 34.56 168.795 34.832C168.172 35.104 167.554 35.24 166.942 35.24C166.353 35.24 165.826 35.121 165.361 34.883C164.896 34.6337 164.534 34.305 164.273 33.897C164.012 33.4777 163.882 33.013 163.882 32.503ZM169.662 33.132C169.798 32.9733 169.906 32.8147 169.985 32.656C170.064 32.486 170.104 32.3443 170.104 32.231V31.126C169.379 30.8427 168.631 30.701 167.86 30.701C167.101 30.701 166.483 30.854 166.007 31.16C165.542 31.4547 165.31 31.8627 165.31 32.384C165.31 32.6673 165.384 32.945 165.531 33.217C165.69 33.4777 165.916 33.693 166.211 33.863C166.517 34.033 166.891 34.118 167.333 34.118C167.798 34.118 168.24 34.0273 168.659 33.846C169.078 33.6533 169.413 33.4153 169.662 33.132Z" fill="#2F2F2F"/>
<path d="M79.976 51.71V53.07H71.782V41H79.823V42.36H73.312V46.27H78.973V47.545H73.312V51.71H79.976Z" fill="#2F2F2F"/>
<path d="M82.5 44.196L84.846 47.46L84.982 47.732L85.135 47.46L87.464 44.196H89.13L85.849 48.65L89.147 53.07H87.481L85.135 49.823L84.982 49.568L84.846 49.823L82.5 53.07H80.834L84.132 48.65L80.851 44.196H82.5Z" fill="#2F2F2F"/>
<path d="M95.3298 53.24C94.6045 53.24 93.9585 53.0587 93.3918 52.696C92.8251 52.3333 92.3775 51.8743 92.0488 51.319V56.691H90.5528V44.196H91.8788V45.862C92.2301 45.318 92.6891 44.8817 93.2558 44.553C93.8225 44.213 94.4401 44.043 95.1088 44.043C95.7208 44.043 96.2818 44.1677 96.7918 44.417C97.3018 44.6663 97.7438 45.0063 98.1178 45.437C98.4918 45.8677 98.7808 46.3607 98.9848 46.916C99.2001 47.46 99.3078 48.0323 99.3078 48.633C99.3078 49.4717 99.1378 50.2423 98.7978 50.945C98.4691 51.6477 98.0045 52.2087 97.4038 52.628C96.8031 53.036 96.1118 53.24 95.3298 53.24ZM94.8708 51.948C95.4601 51.948 95.9701 51.7893 96.4008 51.472C96.8315 51.1547 97.1658 50.741 97.4038 50.231C97.6531 49.721 97.7778 49.1883 97.7778 48.633C97.7778 48.0323 97.6418 47.4827 97.3698 46.984C97.1091 46.4853 96.7465 46.0887 96.2818 45.794C95.8285 45.488 95.3128 45.335 94.7348 45.335C94.3835 45.335 94.0095 45.4257 93.6128 45.607C93.2275 45.7883 92.8875 46.032 92.5928 46.338C92.3095 46.6327 92.1281 46.9613 92.0488 47.324V49.857C92.2981 50.4463 92.6778 50.945 93.1878 51.353C93.7091 51.7497 94.2701 51.948 94.8708 51.948Z" fill="#2F2F2F"/>
<path d="M101.179 40.66H102.675V50.775C102.675 51.2623 102.743 51.5627 102.879 51.676C103.015 51.7893 103.179 51.846 103.372 51.846C103.61 51.846 103.836 51.8233 104.052 51.778C104.267 51.7213 104.448 51.6647 104.596 51.608L104.834 52.832C104.584 52.934 104.29 53.019 103.95 53.087C103.61 53.155 103.309 53.189 103.049 53.189C102.471 53.189 102.012 53.0247 101.672 52.696C101.343 52.3673 101.179 51.9083 101.179 51.319V40.66Z" fill="#2F2F2F"/>
<path d="M109.885 53.24C109.001 53.24 108.219 53.0303 107.539 52.611C106.87 52.1803 106.349 51.6193 105.975 50.928C105.601 50.2253 105.414 49.466 105.414 48.65C105.414 47.8227 105.601 47.0633 105.975 46.372C106.36 45.6693 106.887 45.1083 107.556 44.689C108.236 44.2583 109.012 44.043 109.885 44.043C110.769 44.043 111.545 44.2583 112.214 44.689C112.894 45.1083 113.421 45.6693 113.795 46.372C114.18 47.0633 114.373 47.8227 114.373 48.65C114.373 49.466 114.18 50.2253 113.795 50.928C113.421 51.6193 112.9 52.1803 112.231 52.611C111.562 53.0303 110.78 53.24 109.885 53.24ZM106.944 48.667C106.944 49.279 107.074 49.8343 107.335 50.333C107.607 50.8317 107.964 51.2283 108.406 51.523C108.848 51.8063 109.341 51.948 109.885 51.948C110.429 51.948 110.922 51.8007 111.364 51.506C111.817 51.2113 112.174 50.8147 112.435 50.316C112.707 49.806 112.843 49.245 112.843 48.633C112.843 48.021 112.707 47.4657 112.435 46.967C112.174 46.4683 111.817 46.0717 111.364 45.777C110.922 45.4823 110.429 45.335 109.885 45.335C109.341 45.335 108.848 45.488 108.406 45.794C107.964 46.0887 107.607 46.4853 107.335 46.984C107.074 47.4827 106.944 48.0437 106.944 48.667Z" fill="#2F2F2F"/>
<path d="M120.878 45.505C120.13 45.5163 119.467 45.709 118.889 46.083C118.322 46.4457 117.92 46.95 117.682 47.596V53.07H116.186V44.196H117.58V46.253C117.886 45.641 118.288 45.148 118.787 44.774C119.297 44.3887 119.829 44.1733 120.385 44.128C120.498 44.128 120.594 44.128 120.674 44.128C120.753 44.128 120.821 44.1337 120.878 44.145V45.505Z" fill="#2F2F2F"/>
<path d="M126.089 53.24C125.205 53.24 124.423 53.0303 123.743 52.611C123.063 52.1917 122.53 51.6307 122.145 50.928C121.76 50.2253 121.567 49.4603 121.567 48.633C121.567 47.7943 121.76 47.0293 122.145 46.338C122.53 45.6467 123.063 45.0913 123.743 44.672C124.434 44.2527 125.222 44.043 126.106 44.043C127.001 44.043 127.778 44.2583 128.435 44.689C129.104 45.1083 129.619 45.6637 129.982 46.355C130.356 47.035 130.543 47.7717 130.543 48.565C130.543 48.8143 130.532 49.007 130.509 49.143H123.148C123.194 49.721 123.352 50.2367 123.624 50.69C123.907 51.132 124.27 51.4833 124.712 51.744C125.154 51.9933 125.63 52.118 126.14 52.118C126.684 52.118 127.194 51.982 127.67 51.71C128.158 51.438 128.492 51.081 128.673 50.639L129.965 50.996C129.682 51.6533 129.189 52.1917 128.486 52.611C127.784 53.0303 126.984 53.24 126.089 53.24ZM123.097 48.106H129.149C129.104 47.528 128.939 47.018 128.656 46.576C128.373 46.134 128.01 45.7883 127.568 45.539C127.126 45.2897 126.639 45.165 126.106 45.165C125.585 45.165 125.103 45.2897 124.661 45.539C124.219 45.7883 123.856 46.134 123.573 46.576C123.301 47.018 123.142 47.528 123.097 48.106Z" fill="#2F2F2F"/>
<path d="M136.898 45.505C136.15 45.5163 135.487 45.709 134.909 46.083C134.342 46.4457 133.94 46.95 133.702 47.596V53.07H132.206V44.196H133.6V46.253C133.906 45.641 134.308 45.148 134.807 44.774C135.317 44.3887 135.85 44.1733 136.405 44.128C136.518 44.128 136.615 44.128 136.694 44.128C136.773 44.128 136.841 44.1337 136.898 44.145V45.505Z" fill="#2F2F2F"/>
<path fill-rule="evenodd" clip-rule="evenodd" d="M24.8038 5.243C13.4484 5.243 4.243 14.4484 4.243 25.8038C4.243 37.1592 13.4484 46.3646 24.8038 46.3646C36.1592 46.3646 45.3646 37.1592 45.3646 25.8038C45.3646 14.4484 36.1592 5.243 24.8038 5.243ZM2 25.8038C2 13.2096 12.2096 3 24.8038 3C37.398 3 47.6076 13.2096 47.6076 25.8038C47.6076 38.398 37.398 48.6076 24.8038 48.6076C12.2096 48.6076 2 38.398 2 25.8038Z" fill="#2F2F2F"/>
<path fill-rule="evenodd" clip-rule="evenodd" d="M24.282 7.1123C14.2015 7.37784 6.11218 15.535 6.11218 25.5594C6.11218 31.8629 9.3108 37.4284 14.1918 40.7573C14.2685 40.6627 14.3485 40.5692 14.4319 40.4774C15.5854 39.2086 16.9113 38.8327 17.935 38.5423L18.056 38.508C19.0743 38.218 20.0453 37.9305 21.2445 37.0136C23.4636 35.3174 25.9438 35.9174 27.5813 36.3556C27.7535 36.4015 27.9176 36.4465 28.0753 36.4896L28.1487 36.5099C28.8054 36.6901 29.3505 36.8396 29.8994 36.9235C30.5587 37.0241 31.0215 36.9903 31.3938 36.8452C32.7237 36.3277 33.0611 36.1168 33.3047 35.9647L33.3635 35.9281C33.8818 35.6094 34.3501 35.3838 35.8351 34.9133C36.3166 34.761 36.5361 34.5875 36.6448 34.4715C36.7537 34.3552 36.8439 34.1978 36.9142 33.9331C36.9907 33.6445 37.0279 33.2945 37.0579 32.8051C37.0626 32.7285 37.0672 32.6466 37.072 32.5598C37.0835 32.3529 37.0964 32.1206 37.1158 31.8798C37.1344 31.6483 37.1589 31.4093 37.1939 31.1775C37.271 30.6659 37.376 30.23 37.4525 29.9124L37.4531 29.9098L37.4741 29.8228C37.4895 29.7584 37.5028 29.7023 37.5142 29.6525L37.484 29.6373L37.4349 29.6131C37.4148 29.6032 37.3959 29.5942 37.3779 29.586C37.3268 29.6705 37.2715 29.7682 37.2041 29.8901L37.1507 29.987L37.1478 29.9921C37.0896 30.0979 37.0229 30.2193 36.9562 30.3362C36.7419 30.7121 36.3882 31.1218 35.8365 31.3572C35.2725 31.5977 34.7173 31.5639 34.2843 31.4357C33.5243 31.211 32.9657 30.6541 32.6266 30.2539C31.8797 29.3726 31.226 28.072 30.8977 26.8262C30.7975 26.4458 30.6758 26.138 30.554 25.908C30.4413 26.017 30.3307 26.1214 30.2309 26.216L30.2047 26.2408C30.1212 26.3197 30.046 26.3906 29.9846 26.45C29.9115 26.5207 29.8497 26.5821 29.7973 26.6359C29.7337 26.7015 29.6842 26.7553 29.6454 26.8003C30.1772 27.5809 30.5382 28.4794 30.4286 29.405C30.3068 30.433 29.6276 31.2122 28.7252 31.516C27.0165 32.0916 25.2199 30.8909 24.9659 28.9775C24.944 28.8122 24.8755 28.5777 24.7557 28.3313C24.0607 29.2636 23.4242 29.7969 22.9061 30.2309C22.704 30.4001 22.5199 30.5544 22.3574 30.7112C22.2299 30.8346 22.0748 31.026 21.8319 31.3485L21.7417 31.4684C21.6587 31.5791 21.5668 31.7016 21.4684 31.8294C21.3264 32.0136 21.1707 32.2084 21.0085 32.3934C20.3907 33.0982 19.3103 34.0984 17.6734 34.0421C17.4736 34.0353 17.2574 34.0674 16.8464 34.1344L16.7965 34.1429C16.4697 34.1967 15.8797 34.2941 15.2883 34.2113C14.5167 34.1035 13.7911 33.7109 13.2772 32.9515C12.8357 32.2991 12.6205 31.4766 12.5032 30.5924C12.3971 29.7936 12.3377 29.0198 12.469 28.3502C12.541 27.983 12.6785 27.5972 12.9322 27.2382C13.1899 26.8735 13.5076 26.621 13.8214 26.443C14.2877 26.1786 14.865 26.0316 15.2374 25.9367L15.3569 25.906C15.8111 25.7875 16.3032 25.6526 16.8926 25.4087C16.9995 25.3645 17.09 25.3234 17.1663 25.2865L17.1627 25.2809L17.1225 25.215C16.9621 24.9534 16.688 24.5068 16.5199 24.018C16.323 23.4461 16.3562 22.8579 16.5837 22.3339C16.788 21.8633 17.1102 21.5316 17.3603 21.3168C17.8066 20.9335 18.3973 20.6207 18.7969 20.4092L18.8612 20.3752C19.3517 20.1147 19.6925 19.9297 19.9411 19.7396C20.0093 19.6873 20.0521 19.6484 20.0772 19.623C20.4483 18.007 21.8448 17.1499 22.8166 16.723C23.8926 16.25 25.0633 16.0267 25.8091 15.9301C25.8077 15.9304 25.8265 15.9278 25.8687 15.9171C25.9099 15.9067 25.9645 15.8907 26.0331 15.8673C26.1722 15.82 26.3422 15.7518 26.5397 15.6626C26.9362 15.4835 27.3801 15.2484 27.8094 15.004C28.2348 14.7618 28.6247 14.5227 28.9092 14.3434C29.0415 14.26 29.1498 14.1905 29.2267 14.1403L29.24 14.1271C29.3206 14.0471 29.436 13.93 29.57 13.7881C29.7676 13.5783 29.992 13.328 30.2009 13.0695C28.7424 12.7885 27.8399 12.8225 27.2893 12.94C26.6786 13.07 26.4131 13.3178 26.1812 13.5966C26.1097 13.6828 26.0407 13.7737 25.9559 13.8878L25.9266 13.9272C25.8539 14.0252 25.7586 14.1536 25.6627 14.2721C25.4597 14.5227 25.0519 14.9958 24.3871 15.2411C23.6475 15.5142 22.9338 15.3923 22.3519 15.1566C21.8054 14.9353 21.2528 14.5669 20.6846 14.1218C20.4281 13.921 20.0349 13.5924 19.7352 13.1554C19.4162 12.6905 19.0877 11.9192 19.3697 11.0077C19.6258 10.1796 20.269 9.64374 20.8514 9.29486C21.4608 8.92992 22.2589 8.61624 23.2415 8.32959C23.7489 8.18176 23.8364 8.02548 24.282 7.1123Z" fill="#005C96"/>
<path fill-rule="evenodd" clip-rule="evenodd" d="M30.4382 15.5629C30.4382 15.5629 27.4814 17.5757 26.1629 17.75C24.8444 17.9243 22.2421 18.5386 21.9222 20.2028C21.7633 21.0295 20.7723 21.5659 19.8687 22.0551C18.9532 22.5507 18.1274 22.9977 18.3472 23.6489C18.4505 23.9551 18.6277 24.2516 18.8009 24.5414C19.3596 25.4762 19.8769 26.3419 17.742 27.2431C16.9939 27.5589 16.3794 27.7217 15.8884 27.8517C14.5441 28.2077 14.1267 28.3183 14.4307 30.6543C14.7459 33.0767 15.6548 32.9251 16.7821 32.737C17.1389 32.6774 17.5176 32.6142 17.9063 32.6279C19.0634 32.6684 19.8086 31.6557 20.4874 30.7332C20.7571 30.3667 21.0164 30.0144 21.2868 29.7481C21.5628 29.4763 21.8119 29.2634 22.0512 29.0589C22.6364 28.5589 23.1622 28.1096 23.8761 26.9729C24.9871 25.2042 26.6168 27.4217 26.8244 29.0162C27.0761 30.9509 29.947 30.4631 28.3028 28.0098C27.4726 26.7711 28.1961 26.0744 29.1418 25.1637C29.3337 24.9789 29.5346 24.7854 29.7336 24.5768C30.9138 23.3395 32.1415 24.5288 32.6818 26.62C33.2222 28.7112 34.852 30.9287 35.5047 29.7611C35.5651 29.6532 35.6232 29.5455 35.6803 29.4397C36.2408 28.401 36.7056 27.5398 38.267 28.3147C39.593 28.9728 39.4683 29.5015 39.2107 30.5929C39.1341 30.9176 39.0457 31.2921 38.9803 31.7346C38.9226 32.125 38.9001 32.5328 38.8775 32.9426C38.7882 34.559 38.6973 36.2066 36.4385 36.9364C34.9528 37.4165 34.6823 37.5871 34.3186 37.8164C33.9891 38.0241 33.5833 38.28 32.1286 38.8577C30.7513 39.4047 29.248 38.983 27.7447 38.5613C25.9073 38.0459 24.0699 37.5305 22.4626 38.7837C20.984 39.9367 19.7455 40.2965 18.6705 40.6089C17.6209 40.9138 16.7272 41.1735 15.9178 42.0817C15.9037 42.0975 15.8898 42.1134 15.876 42.1293C18.5528 43.6366 21.6379 44.4956 24.922 44.4956C35.1798 44.4956 43.4954 36.1151 43.4954 25.7773C43.4954 15.9184 35.9324 7.83962 26.3344 7.1123C26.2253 7.32287 26.1272 7.53521 26.0303 7.74462C25.5878 8.70165 25.1736 9.59759 23.8761 9.98373C20.2353 11.0673 21.0263 12.0849 21.9222 12.8009C23.7105 14.2299 24.0613 13.748 24.6476 12.9429C25.4253 11.8747 26.6172 10.2377 32.1286 11.7386C33.8955 12.2198 30.4382 15.5629 30.4382 15.5629Z" fill="#8A9C3A"/>
<path fill-rule="evenodd" clip-rule="evenodd" d="M38.5713 46.5678L50.5 59.1813C51.5369 60.2898 53.2761 60.3479 54.3846 59.311L57.897 56.0257C59.0056 54.9888 59.0637 53.2496 58.0268 52.1411L45.8024 39.2114C43.9301 42.1377 41.4628 44.6467 38.5713 46.5678Z" fill="#2F2F2F"/>
</svg>
