<svg id="svg8" xmlns="http://www.w3.org/2000/svg" viewBox="0 0 208 50"><defs><style>.cls-1{fill:#005c96;}.cls-2{fill:#8a9c3a;}.cls-3{fill:#2f2f2f;}</style></defs><title>Logo SVG</title><path class="cls-1" d="M3.74,25.94h9L15.52,21a1.42,1.42,0,0,1,1.23-.73h0A1.41,1.41,0,0,1,18,21l4.36,7.71,5.85-16a1.41,1.41,0,0,1,1.33-.93h0a1.41,1.41,0,0,1,1.33.92l4.89,13.22H48.6q.67-1.16,1.24-2.38a15.92,15.92,0,0,0,1.36-4.77,1.54,1.54,0,0,1,.09-.29V14.35a27.11,27.11,0,0,0-.6-2.85C48.87,5.85,45.12,2.33,39.42,1.35c-5.2-.9-9.55.91-13.07,5l-.14.21c-.67-.68-1.27-1.38-1.94-2-7.87-7-20.52-2.74-22.8,7.73A18.05,18.05,0,0,0,3.66,25.81Z"/><path class="cls-2" d="M34.75,28.77a1.41,1.41,0,0,1-1.33-.92L29.53,17.3,23.94,32.55a1.41,1.41,0,0,1-1.21.92,1.44,1.44,0,0,1-1.35-.71l-4.62-8.17L14.86,28a1.41,1.41,0,0,1-1.24.73h-8a44.76,44.76,0,0,0,6.06,6.78A91,91,0,0,0,25.8,46.23a.6.6,0,0,0,.75,0,85.55,85.55,0,0,0,17.2-13.84,32.26,32.26,0,0,0,3-3.63Z"/><path class="cls-3" d="M73.48,11.23v1.28H65.76V1.15h7.57V2.43H67.2V6.11h5.33v1.2H67.2v3.92Z"/><path class="cls-3" d="M77.44,12.67a2.34,2.34,0,0,1-2-.88,4.28,4.28,0,0,1-.67-2.62v-5h1.41V8.89q0,2.56,1.78,2.56a2.72,2.72,0,0,0,1.62-.55,3.26,3.26,0,0,0,1.13-1.51V4.16h1.41v6.62q0,.5.45.51v1.22l-.38,0h-.26a1,1,0,0,1-.7-.25.84.84,0,0,1-.3-.62l0-1a3.87,3.87,0,0,1-1.47,1.45A4.07,4.07,0,0,1,77.44,12.67Z"/><path class="cls-3" d="M88.83,5.39A3.62,3.62,0,0,0,87,5.93a2.78,2.78,0,0,0-1.14,1.42v5.15H84.42V4.16h1.31V6.09a3.94,3.94,0,0,1,1.14-1.4,2.83,2.83,0,0,1,1.5-.6h.27l.19,0Z"/><path class="cls-3" d="M93.56,12.67a4.1,4.1,0,0,1-3-1.3A4.24,4.24,0,0,1,89.66,10a4.52,4.52,0,0,1-.3-1.65,4.46,4.46,0,0,1,.31-1.66,4.36,4.36,0,0,1,.86-1.38,4.19,4.19,0,0,1,6.08,0,4.36,4.36,0,0,1,.86,1.38,4.46,4.46,0,0,1,.31,1.66,4.53,4.53,0,0,1-.3,1.65,4.15,4.15,0,0,1-2.2,2.32A4.11,4.11,0,0,1,93.56,12.67Zm-2.77-4.3A3.35,3.35,0,0,0,91,9.58a3.08,3.08,0,0,0,.59,1,2.78,2.78,0,0,0,.88.66,2.55,2.55,0,0,0,2.16,0,2.82,2.82,0,0,0,.89-.66,3.09,3.09,0,0,0,.6-1,3.41,3.41,0,0,0,.22-1.22,3.37,3.37,0,0,0-.22-1.21,3.1,3.1,0,0,0-.6-1,2.82,2.82,0,0,0-.89-.66,2.48,2.48,0,0,0-1.08-.24,2.42,2.42,0,0,0-1.08.25,2.85,2.85,0,0,0-.88.67,3.17,3.17,0,0,0-.59,1A3.41,3.41,0,0,0,90.79,8.36Z"/><path class="cls-3" d="M103.92,12.67a3.3,3.3,0,0,1-1.83-.51,3.9,3.9,0,0,1-1.26-1.3v5.05H99.42V4.16h1.25V5.72A3.87,3.87,0,0,1,102,4.48,3.36,3.36,0,0,1,103.71,4a3.56,3.56,0,0,1,1.58.35,4,4,0,0,1,1.25,1,4.46,4.46,0,0,1,.82,1.38,4.58,4.58,0,0,1,.3,1.63,5.16,5.16,0,0,1-.27,1.69,4.22,4.22,0,0,1-.77,1.38,3.72,3.72,0,0,1-1.18.93A3.36,3.36,0,0,1,103.92,12.67Zm-.43-1.22a2.38,2.38,0,0,0,1.13-.26,2.75,2.75,0,0,0,.86-.7,3.2,3.2,0,0,0,.55-1,3.53,3.53,0,0,0,.19-1.15,3.28,3.28,0,0,0-.83-2.18,2.89,2.89,0,0,0-.9-.67,2.59,2.59,0,0,0-1.13-.25,2.26,2.26,0,0,0-.79.15,3.48,3.48,0,0,0-.77.4,2.74,2.74,0,0,0-.62.59,1.8,1.8,0,0,0-.34.73V9.48a3.63,3.63,0,0,0,.45.78,3.13,3.13,0,0,0,.62.62,3.06,3.06,0,0,0,.75.42A2.32,2.32,0,0,0,103.49,11.45Z"/><path class="cls-3" d="M113.06,12.67a4.27,4.27,0,0,1-1.73-.34,4.09,4.09,0,0,1-1.34-.94,4.26,4.26,0,0,1-.87-1.38,4.52,4.52,0,0,1-.31-1.67,4.46,4.46,0,0,1,.31-1.66,4.18,4.18,0,0,1,4-2.66A4.06,4.06,0,0,1,117,6.66a4.47,4.47,0,0,1,.3,1.61c0,.12,0,.22,0,.32a1.75,1.75,0,0,1,0,.22h-6.93a3.24,3.24,0,0,0,.29,1.14,2.93,2.93,0,0,0,.62.88,2.88,2.88,0,0,0,.87.58,2.6,2.6,0,0,0,1,.21,2.75,2.75,0,0,0,.75-.1,3.23,3.23,0,0,0,.69-.28,2.38,2.38,0,0,0,.57-.43,1.76,1.76,0,0,0,.38-.58l1.22.34a3.07,3.07,0,0,1-.57.85,3.75,3.75,0,0,1-.83.66,4.26,4.26,0,0,1-1,.44A4.47,4.47,0,0,1,113.06,12.67Zm2.86-4.9a3,3,0,0,0-.3-1.1,2.93,2.93,0,0,0-.62-.86,2.86,2.86,0,0,0-3-.55,2.73,2.73,0,0,0-.87.56,2.84,2.84,0,0,0-.61.86,3.16,3.16,0,0,0-.28,1.09Z"/><path class="cls-3" d="M120.93,12.67a3,3,0,0,1-1.1-.2,2.73,2.73,0,0,1-.89-.55,2.6,2.6,0,0,1-.59-.82,2.45,2.45,0,0,1-.22-1,2.16,2.16,0,0,1,.26-1,2.38,2.38,0,0,1,.73-.81,3.76,3.76,0,0,1,1.12-.53,5,5,0,0,1,1.42-.19,7,7,0,0,1,1.23.11,5.7,5.7,0,0,1,1.1.3V7.23a2.19,2.19,0,0,0-.58-1.61A2.19,2.19,0,0,0,121.78,5a4.67,4.67,0,0,0-2.66,1l-.46-.91A5.78,5.78,0,0,1,121.91,4a3.56,3.56,0,0,1,2.57.88,3.27,3.27,0,0,1,.92,2.48v3.41q0,.5.45.51v1.22l-.37,0-.3,0a.9.9,0,0,1-.66-.25,1,1,0,0,1-.3-.6l0-.59a3.61,3.61,0,0,1-1.42,1.14A4.34,4.34,0,0,1,120.93,12.67Zm.37-1.06a3.49,3.49,0,0,0,1.4-.28,2.3,2.3,0,0,0,1-.74A.89.89,0,0,0,124,10V8.73a5.8,5.8,0,0,0-2.13-.4,3,3,0,0,0-1.72.45,1.36,1.36,0,0,0-.66,1.17,1.59,1.59,0,0,0,.14.66,1.56,1.56,0,0,0,.38.53,1.84,1.84,0,0,0,.58.35A2,2,0,0,0,121.3,11.61Z"/><path class="cls-3" d="M134.8,12.51H133.4V7.84a3.59,3.59,0,0,0-.41-2,1.39,1.39,0,0,0-1.24-.61,2.36,2.36,0,0,0-.86.17,3.42,3.42,0,0,0-.82.46,3.19,3.19,0,0,0-.67.69,3,3,0,0,0-.43.88v5h-1.41V4.16h1.28V5.95a3.68,3.68,0,0,1,1.43-1.41,4.09,4.09,0,0,1,2-.53,2.46,2.46,0,0,1,1.2.26,2,2,0,0,1,.77.74,3.28,3.28,0,0,1,.41,1.11,7.6,7.6,0,0,1,.12,1.39Z"/><path class="cls-3" d="M65,23.41a6.07,6.07,0,0,1,.36-2,5.67,5.67,0,0,1,1.06-1.82,5.34,5.34,0,0,1,1.7-1.3,5.12,5.12,0,0,1,2.29-.5,4.78,4.78,0,0,1,2.61.69,4.28,4.28,0,0,1,1.62,1.79L73.52,21a3.31,3.31,0,0,0-.62-.91,3.17,3.17,0,0,0-.78-.59,3.39,3.39,0,0,0-.87-.32,4.23,4.23,0,0,0-.88-.1,3.47,3.47,0,0,0-1.67.39,3.85,3.85,0,0,0-1.22,1,4.43,4.43,0,0,0-.74,1.42,5.3,5.3,0,0,0-.25,1.59,4.92,4.92,0,0,0,.3,1.7,4.7,4.7,0,0,0,.82,1.43,4,4,0,0,0,1.25,1,3.4,3.4,0,0,0,1.57.37,4,4,0,0,0,.92-.11,3.36,3.36,0,0,0,.9-.36,3.83,3.83,0,0,0,.81-.62,3,3,0,0,0,.62-.9l1.2.66a3.54,3.54,0,0,1-.76,1.13,4.81,4.81,0,0,1-1.1.82,5.63,5.63,0,0,1-1.3.51,5.41,5.41,0,0,1-1.34.18,4.54,4.54,0,0,1-2.14-.51,5.7,5.7,0,0,1-1.69-1.34,6.22,6.22,0,0,1-1.5-4Z"/><path class="cls-3" d="M76.26,17.49h1.41V27a1,1,0,0,0,.25.73.91.91,0,0,0,.7.26,1.88,1.88,0,0,0,.42-.06,3.45,3.45,0,0,0,.45-.14l.22,1.14a4.57,4.57,0,0,1-.83.24,4.35,4.35,0,0,1-.85.1,1.76,1.76,0,0,1-1.29-.46,1.74,1.74,0,0,1-.47-1.3Z"/><path class="cls-3" d="M80.82,19.25V17.49h1.41v1.76Zm0,9.92V20.82h1.41v8.35Z"/><path class="cls-3" d="M97,29.17H95.56V24.5a3.5,3.5,0,0,0-.42-1.94,1.42,1.42,0,0,0-1.26-.62,2.24,2.24,0,0,0-1.54.62,3.39,3.39,0,0,0-1,1.59v5H90V24.5a3.54,3.54,0,0,0-.42-2,1.41,1.41,0,0,0-1.25-.61,2.28,2.28,0,0,0-1.54.6,3.26,3.26,0,0,0-1,1.59v5H84.38V20.82h1.28v1.79A3.79,3.79,0,0,1,87,21.18a3.43,3.43,0,0,1,1.84-.5,2.37,2.37,0,0,1,1.67.57,2.46,2.46,0,0,1,.76,1.46,3.48,3.48,0,0,1,3.18-2,2.52,2.52,0,0,1,1.21.26,2,2,0,0,1,.78.74,3.4,3.4,0,0,1,.42,1.11A7.09,7.09,0,0,1,97,24.18Z"/><path class="cls-3" d="M101.24,29.33a3,3,0,0,1-1.1-.2,2.73,2.73,0,0,1-.89-.55,2.6,2.6,0,0,1-.59-.82,2.45,2.45,0,0,1-.22-1,2.16,2.16,0,0,1,.26-1,2.39,2.39,0,0,1,.73-.81,3.76,3.76,0,0,1,1.12-.53,5,5,0,0,1,1.42-.19,6.91,6.91,0,0,1,1.23.11,5.66,5.66,0,0,1,1.1.3v-.67a2,2,0,0,0-2.21-2.19,4.67,4.67,0,0,0-2.66,1L99,21.76a5.78,5.78,0,0,1,3.25-1.09,3.57,3.57,0,0,1,2.57.88,3.27,3.27,0,0,1,.92,2.48v3.41q0,.5.45.51v1.22l-.37,0-.3,0a.9.9,0,0,1-.66-.25,1,1,0,0,1-.3-.6l0-.59a3.61,3.61,0,0,1-1.42,1.14A4.34,4.34,0,0,1,101.24,29.33Zm.37-1.06A3.49,3.49,0,0,0,103,28a2.3,2.3,0,0,0,1-.74.89.89,0,0,0,.3-.62V25.4a5.8,5.8,0,0,0-2.13-.4,3,3,0,0,0-1.72.45,1.36,1.36,0,0,0-.66,1.17,1.59,1.59,0,0,0,.14.66,1.56,1.56,0,0,0,.38.53,1.84,1.84,0,0,0,.58.35A2,2,0,0,0,101.61,28.28Z"/><path class="cls-3" d="M112,28.76l-.34.15-.47.18a4.1,4.1,0,0,1-.58.14,3.68,3.68,0,0,1-.65.06,2.14,2.14,0,0,1-1.33-.42,1.55,1.55,0,0,1-.56-1.32V21.92h-1.14v-1.1h1.14V18h1.41v2.78h1.87v1.1h-1.87v5.18a.87.87,0,0,0,.3.67,1,1,0,0,0,.64.21,2,2,0,0,0,.76-.14,3.23,3.23,0,0,0,.47-.22Z"/><path class="cls-3" d="M116.69,29.33A4.27,4.27,0,0,1,115,29a4.09,4.09,0,0,1-1.34-.94,4.26,4.26,0,0,1-.87-1.38,4.52,4.52,0,0,1-.31-1.67,4.46,4.46,0,0,1,.31-1.66,4.18,4.18,0,0,1,4-2.66,4.1,4.1,0,0,1,3,1.29,4.16,4.16,0,0,1,.84,1.36,4.48,4.48,0,0,1,.3,1.61c0,.12,0,.22,0,.32a1.76,1.76,0,0,1,0,.22h-6.93a3.24,3.24,0,0,0,.29,1.14,2.92,2.92,0,0,0,.62.88,2.88,2.88,0,0,0,.87.58,2.6,2.6,0,0,0,1,.21,2.75,2.75,0,0,0,.75-.1,3.23,3.23,0,0,0,.69-.28,2.38,2.38,0,0,0,.57-.43,1.76,1.76,0,0,0,.38-.58l1.22.34a3.07,3.07,0,0,1-.57.85,3.75,3.75,0,0,1-.83.66,4.26,4.26,0,0,1-1,.44A4.47,4.47,0,0,1,116.69,29.33Zm2.86-4.9a3,3,0,0,0-.3-1.1,3,3,0,0,0-.62-.86,2.86,2.86,0,0,0-3-.55,2.74,2.74,0,0,0-.87.56,2.85,2.85,0,0,0-.61.86,3.16,3.16,0,0,0-.28,1.09Z"/><path class="cls-3" d="M128.64,29.33a3,3,0,0,1-1.1-.2,2.73,2.73,0,0,1-.89-.55,2.6,2.6,0,0,1-.59-.82,2.45,2.45,0,0,1-.22-1,2.16,2.16,0,0,1,.26-1,2.39,2.39,0,0,1,.73-.81,3.76,3.76,0,0,1,1.12-.53,5,5,0,0,1,1.42-.19,6.91,6.91,0,0,1,1.23.11,5.66,5.66,0,0,1,1.1.3v-.67a2,2,0,0,0-2.21-2.19,4.67,4.67,0,0,0-2.66,1l-.46-.91a5.78,5.78,0,0,1,3.25-1.09,3.57,3.57,0,0,1,2.57.88A3.27,3.27,0,0,1,133.1,24v3.41q0,.5.45.51v1.22l-.37,0-.3,0a.9.9,0,0,1-.66-.25,1,1,0,0,1-.3-.6l0-.59a3.61,3.61,0,0,1-1.42,1.14A4.34,4.34,0,0,1,128.64,29.33Zm.37-1.06a3.49,3.49,0,0,0,1.4-.28,2.3,2.3,0,0,0,1-.74.89.89,0,0,0,.3-.62V25.4a5.8,5.8,0,0,0-2.13-.4,3,3,0,0,0-1.72.45,1.36,1.36,0,0,0-.66,1.17,1.59,1.59,0,0,0,.14.66,1.56,1.56,0,0,0,.38.53,1.84,1.84,0,0,0,.58.35A2,2,0,0,0,129,28.28Z"/><path class="cls-3" d="M142.51,29.17H141.1V24.5a3.59,3.59,0,0,0-.41-2,1.39,1.39,0,0,0-1.24-.61,2.38,2.38,0,0,0-.86.17,3.45,3.45,0,0,0-.82.46,3.18,3.18,0,0,0-.67.69,2.94,2.94,0,0,0-.43.88v5h-1.41V20.82h1.28v1.79A3.67,3.67,0,0,1,138,21.21a4.08,4.08,0,0,1,2-.53,2.47,2.47,0,0,1,1.2.26,2,2,0,0,1,.77.74,3.28,3.28,0,0,1,.41,1.11,7.6,7.6,0,0,1,.12,1.39Z"/><path class="cls-3" d="M148.08,29.33a3.65,3.65,0,0,1-1.6-.35,4,4,0,0,1-1.26-.94,4.36,4.36,0,0,1-.82-1.38,4.63,4.63,0,0,1-.3-1.65,5,5,0,0,1,.28-1.67,4.34,4.34,0,0,1,.78-1.38,3.74,3.74,0,0,1,1.2-.94,3.41,3.41,0,0,1,1.53-.34,3.17,3.17,0,0,1,1.8.53,4.15,4.15,0,0,1,1.26,1.28v-5h1.41v10q0,.5.45.51v1.22l-.36,0-.26,0a1.06,1.06,0,0,1-.73-.28.85.85,0,0,1-.31-.65v-.7a3.6,3.6,0,0,1-3.06,1.73Zm.34-1.22a2.36,2.36,0,0,0,.79-.14,3.08,3.08,0,0,0,.77-.4,2.9,2.9,0,0,0,.62-.6,1.78,1.78,0,0,0,.34-.73v-2.4a2.64,2.64,0,0,0-.43-.76,3.4,3.4,0,0,0-.65-.62,3.18,3.18,0,0,0-.77-.42,2.3,2.3,0,0,0-.81-.15,2.4,2.4,0,0,0-1.13.26,2.78,2.78,0,0,0-.86.7,3.2,3.2,0,0,0-.55,1,3.6,3.6,0,0,0-.19,1.16,3.21,3.21,0,0,0,.22,1.19,3.11,3.11,0,0,0,.61,1,2.93,2.93,0,0,0,.9.66A2.59,2.59,0,0,0,148.42,28.12Z"/><path class="cls-3" d="M168.11,17.81V29.17h-1.44V24h-6.25v5.17H159V17.81h1.44v4.91h6.25V17.81Z"/><path class="cls-3" d="M174.25,29.33a4.27,4.27,0,0,1-1.73-.34,4.09,4.09,0,0,1-1.34-.94,4.26,4.26,0,0,1-.87-1.38A4.52,4.52,0,0,1,170,25a4.46,4.46,0,0,1,.31-1.66,4.18,4.18,0,0,1,4-2.66,4.1,4.1,0,0,1,3,1.29,4.16,4.16,0,0,1,.84,1.36,4.48,4.48,0,0,1,.3,1.61c0,.12,0,.22,0,.32a1.76,1.76,0,0,1,0,.22h-6.93a3.24,3.24,0,0,0,.29,1.14,2.92,2.92,0,0,0,.62.88,2.88,2.88,0,0,0,.87.58,2.6,2.6,0,0,0,1,.21,2.75,2.75,0,0,0,.75-.1,3.23,3.23,0,0,0,.69-.28,2.38,2.38,0,0,0,.57-.43,1.76,1.76,0,0,0,.38-.58l1.22.34a3.07,3.07,0,0,1-.57.85,3.75,3.75,0,0,1-.83.66,4.26,4.26,0,0,1-1,.44A4.47,4.47,0,0,1,174.25,29.33Zm2.86-4.9a3,3,0,0,0-.3-1.1,3,3,0,0,0-.62-.86,2.86,2.86,0,0,0-3-.55,2.74,2.74,0,0,0-.87.56,2.85,2.85,0,0,0-.61.86,3.16,3.16,0,0,0-.28,1.09Z"/><path class="cls-3" d="M182.13,29.33a3,3,0,0,1-1.1-.2,2.73,2.73,0,0,1-.89-.55,2.6,2.6,0,0,1-.59-.82,2.45,2.45,0,0,1-.22-1,2.16,2.16,0,0,1,.26-1,2.39,2.39,0,0,1,.73-.81,3.76,3.76,0,0,1,1.12-.53,5,5,0,0,1,1.42-.19,6.91,6.91,0,0,1,1.23.11,5.66,5.66,0,0,1,1.1.3v-.67A2,2,0,0,0,183,21.7a4.67,4.67,0,0,0-2.66,1l-.46-.91a5.78,5.78,0,0,1,3.25-1.09,3.57,3.57,0,0,1,2.57.88,3.27,3.27,0,0,1,.92,2.48v3.41q0,.5.45.51v1.22l-.37,0-.3,0a.9.9,0,0,1-.66-.25,1,1,0,0,1-.3-.6l0-.59A3.61,3.61,0,0,1,184,28.94,4.34,4.34,0,0,1,182.13,29.33Zm.37-1.06a3.49,3.49,0,0,0,1.4-.28,2.3,2.3,0,0,0,1-.74.89.89,0,0,0,.3-.62V25.4a5.8,5.8,0,0,0-2.13-.4,3,3,0,0,0-1.72.45,1.36,1.36,0,0,0-.66,1.17,1.59,1.59,0,0,0,.14.66,1.56,1.56,0,0,0,.38.53,1.84,1.84,0,0,0,.58.35A2,2,0,0,0,182.5,28.28Z"/><path class="cls-3" d="M188.72,17.49h1.41V27a1,1,0,0,0,.25.73.91.91,0,0,0,.7.26,1.88,1.88,0,0,0,.42-.06,3.45,3.45,0,0,0,.45-.14l.22,1.14a4.57,4.57,0,0,1-.83.24,4.35,4.35,0,0,1-.85.1,1.76,1.76,0,0,1-1.29-.46,1.74,1.74,0,0,1-.47-1.3Z"/><path class="cls-3" d="M197.3,28.76l-.34.15-.47.18a4.1,4.1,0,0,1-.58.14,3.68,3.68,0,0,1-.65.06,2.14,2.14,0,0,1-1.33-.42,1.55,1.55,0,0,1-.56-1.32V21.92h-1.14v-1.1h1.14V18h1.41v2.78h1.87v1.1h-1.87v5.18a.87.87,0,0,0,.3.67,1,1,0,0,0,.64.21,2,2,0,0,0,.76-.14,3.23,3.23,0,0,0,.47-.22Z"/><path class="cls-3" d="M205.77,29.17h-1.41V24.5a3.36,3.36,0,0,0-.45-1.93,1.51,1.51,0,0,0-1.31-.63,2.22,2.22,0,0,0-.83.17,3.12,3.12,0,0,0-.78.46,3.3,3.3,0,0,0-.64.69,3,3,0,0,0-.42.88v5h-1.41V17.49h1.41v5.12a3.69,3.69,0,0,1,1.34-1.42,3.53,3.53,0,0,1,1.86-.51,2.63,2.63,0,0,1,1.25.27,2.18,2.18,0,0,1,.82.74,3.22,3.22,0,0,1,.44,1.11,6.75,6.75,0,0,1,.14,1.38Z"/><path class="cls-3" d="M70.37,45.92a4.83,4.83,0,0,1-2.18-.49,5.38,5.38,0,0,1-1.69-1.3,5.88,5.88,0,0,1-1.09-1.85A6.1,6.1,0,0,1,65,40.16,5.91,5.91,0,0,1,65.44,38a6,6,0,0,1,1.13-1.84,5.42,5.42,0,0,1,1.7-1.27,4.87,4.87,0,0,1,2.14-.47,4.67,4.67,0,0,1,2.18.5,5.57,5.57,0,0,1,1.68,1.32,6.13,6.13,0,0,1,1.47,4,6,6,0,0,1-1.53,4,5.38,5.38,0,0,1-1.7,1.26A4.87,4.87,0,0,1,70.37,45.92Zm-3.89-5.76a5.06,5.06,0,0,0,.28,1.67,4.59,4.59,0,0,0,.79,1.43,3.82,3.82,0,0,0,1.23,1,3.45,3.45,0,0,0,1.6.37A3.36,3.36,0,0,0,72,44.23a4,4,0,0,0,1.22-1A4.58,4.58,0,0,0,74,41.77a5.13,5.13,0,0,0,.26-1.62A5.08,5.08,0,0,0,74,38.48a4.45,4.45,0,0,0-.8-1.42,4,4,0,0,0-1.23-1,3.61,3.61,0,0,0-3.21,0,3.93,3.93,0,0,0-1.22,1,4.6,4.6,0,0,0-.78,1.42A5,5,0,0,0,66.48,40.16Z"/><path class="cls-3" d="M81.82,46A3.38,3.38,0,0,1,80,45.52a3.62,3.62,0,0,1-1.26-1.25v1.57H77.54V34.16h1.41v5a4.35,4.35,0,0,1,1.3-1.31,3.47,3.47,0,0,1,3.34-.13,3.82,3.82,0,0,1,1.18,1,4.38,4.38,0,0,1,.75,1.39,5.1,5.1,0,0,1,.26,1.62,4.56,4.56,0,0,1-.3,1.66,4.37,4.37,0,0,1-.83,1.37,4,4,0,0,1-1.26.93A3.62,3.62,0,0,1,81.82,46Zm-.35-1.22a2.61,2.61,0,0,0,1.15-.26,2.9,2.9,0,0,0,.91-.69,3.13,3.13,0,0,0,.59-1,3.26,3.26,0,0,0,.21-1.16,3.52,3.52,0,0,0-.2-1.18,3.21,3.21,0,0,0-.56-1,2.83,2.83,0,0,0-.86-.7,2.36,2.36,0,0,0-1.11-.26,2.27,2.27,0,0,0-.85.16,3.12,3.12,0,0,0-.74.42,3.17,3.17,0,0,0-.61.62,4.52,4.52,0,0,0-.46.75v2.42a1.73,1.73,0,0,0,.34.74,2.82,2.82,0,0,0,.62.58,3.25,3.25,0,0,0,.77.39A2.36,2.36,0,0,0,81.47,44.78Z"/><path class="cls-3" d="M90.28,46a6.48,6.48,0,0,1-2-.31,4.89,4.89,0,0,1-1.68-.9l.61-.94a5.91,5.91,0,0,0,1.47.84,4.31,4.31,0,0,0,1.55.28,2.56,2.56,0,0,0,1.45-.36,1.15,1.15,0,0,0,.54-1,.91.91,0,0,0-.14-.52,1.2,1.2,0,0,0-.43-.38,3.52,3.52,0,0,0-.74-.29l-1-.27q-.75-.19-1.3-.37a3.53,3.53,0,0,1-.9-.42,1.46,1.46,0,0,1-.51-.58,1.92,1.92,0,0,1-.16-.83,2.42,2.42,0,0,1,.25-1.11,2.34,2.34,0,0,1,.68-.82,3.06,3.06,0,0,1,1-.5,4.51,4.51,0,0,1,1.26-.17,5,5,0,0,1,1.76.3,4.35,4.35,0,0,1,1.38.8l-.64.85a3.6,3.6,0,0,0-1.18-.7,4,4,0,0,0-1.34-.23,2.46,2.46,0,0,0-1.3.33,1.14,1.14,0,0,0-.54,1,1,1,0,0,0,.1.48.9.9,0,0,0,.34.34,2.71,2.71,0,0,0,.62.26l.9.24q.83.19,1.45.39a4.22,4.22,0,0,1,1,.47,1.83,1.83,0,0,1,.61.64,1.85,1.85,0,0,1,.2.9,2.22,2.22,0,0,1-.9,1.86A3.87,3.87,0,0,1,90.28,46Z"/><path class="cls-3" d="M98.88,46a4.27,4.27,0,0,1-1.73-.34,4.09,4.09,0,0,1-1.34-.94,4.26,4.26,0,0,1-.87-1.38,4.52,4.52,0,0,1-.31-1.67A4.46,4.46,0,0,1,94.93,40a4.18,4.18,0,0,1,4-2.66,4.1,4.1,0,0,1,3,1.29,4.16,4.16,0,0,1,.84,1.36,4.48,4.48,0,0,1,.3,1.61c0,.12,0,.22,0,.32a1.76,1.76,0,0,1,0,.22H96.11a3.24,3.24,0,0,0,.29,1.14,2.92,2.92,0,0,0,.62.88,2.88,2.88,0,0,0,.87.58,2.6,2.6,0,0,0,1,.21,2.75,2.75,0,0,0,.75-.1,3.23,3.23,0,0,0,.69-.28,2.38,2.38,0,0,0,.57-.43,1.76,1.76,0,0,0,.38-.58l1.22.34a3.07,3.07,0,0,1-.57.85,3.75,3.75,0,0,1-.83.66,4.26,4.26,0,0,1-1,.44A4.47,4.47,0,0,1,98.88,46Zm2.86-4.9a3,3,0,0,0-.3-1.1,3,3,0,0,0-.62-.86,2.86,2.86,0,0,0-3-.55,2.74,2.74,0,0,0-.87.56,2.85,2.85,0,0,0-.61.86,3.16,3.16,0,0,0-.28,1.09Z"/><path class="cls-3" d="M109,38.72a3.63,3.63,0,0,0-1.86.54A2.78,2.78,0,0,0,106,40.68v5.15h-1.41V37.49h1.31v1.94a3.94,3.94,0,0,1,1.14-1.4,2.83,2.83,0,0,1,1.5-.6h.27l.19,0Z"/><path class="cls-3" d="M113.13,45.84l-3.3-8.35h1.46l2.64,7.12,2.66-7.12h1.34l-3.3,8.35Z"/><path class="cls-3" d="M121.26,46a3,3,0,0,1-1.1-.2,2.73,2.73,0,0,1-.89-.55,2.6,2.6,0,0,1-.59-.82,2.45,2.45,0,0,1-.22-1,2.16,2.16,0,0,1,.26-1,2.39,2.39,0,0,1,.73-.81,3.76,3.76,0,0,1,1.12-.53,5,5,0,0,1,1.42-.19,6.91,6.91,0,0,1,1.23.11,5.66,5.66,0,0,1,1.1.3v-.67a2,2,0,0,0-2.21-2.19,4.67,4.67,0,0,0-2.66,1l-.46-.91a5.78,5.78,0,0,1,3.25-1.09,3.57,3.57,0,0,1,2.57.88,3.27,3.27,0,0,1,.92,2.48v3.41q0,.5.45.51v1.22l-.37,0-.3,0a.9.9,0,0,1-.66-.25,1,1,0,0,1-.3-.6l0-.59a3.61,3.61,0,0,1-1.42,1.14A4.34,4.34,0,0,1,121.26,46Zm.37-1.06a3.49,3.49,0,0,0,1.4-.28,2.3,2.3,0,0,0,1-.74.89.89,0,0,0,.3-.62V42.06a5.8,5.8,0,0,0-2.13-.4,3,3,0,0,0-1.72.45,1.36,1.36,0,0,0-.66,1.17,1.59,1.59,0,0,0,.14.66,1.56,1.56,0,0,0,.38.53,1.84,1.84,0,0,0,.58.35A2,2,0,0,0,121.63,44.94Z"/><path class="cls-3" d="M132,45.42l-.34.15-.47.18a4.1,4.1,0,0,1-.58.14,3.68,3.68,0,0,1-.65.06,2.14,2.14,0,0,1-1.33-.42,1.55,1.55,0,0,1-.56-1.32V38.59H127v-1.1h1.14V34.7h1.41v2.78h1.87v1.1H129.5v5.18a.87.87,0,0,0,.3.67,1,1,0,0,0,.64.21,2,2,0,0,0,.76-.14,3.23,3.23,0,0,0,.47-.22Z"/><path class="cls-3" d="M136.66,46a4.1,4.1,0,0,1-3-1.3,4.24,4.24,0,0,1-.86-1.38,4.52,4.52,0,0,1-.3-1.65,4.46,4.46,0,0,1,.31-1.66,4.36,4.36,0,0,1,.86-1.38,4.11,4.11,0,0,1,1.33-.94,4.06,4.06,0,0,1,1.7-.35,4.14,4.14,0,0,1,3,1.3,4.36,4.36,0,0,1,.86,1.38,4.46,4.46,0,0,1,.31,1.66,4.53,4.53,0,0,1-.3,1.65,4.15,4.15,0,0,1-2.2,2.32A4.11,4.11,0,0,1,136.66,46Zm-2.77-4.3a3.35,3.35,0,0,0,.22,1.22,3.07,3.07,0,0,0,.59,1,2.78,2.78,0,0,0,.88.66,2.55,2.55,0,0,0,2.16,0,2.82,2.82,0,0,0,.89-.66,3.1,3.1,0,0,0,.6-1,3.42,3.42,0,0,0,.22-1.22,3.37,3.37,0,0,0-.22-1.21,3.1,3.1,0,0,0-.6-1,2.84,2.84,0,0,0-.89-.66,2.48,2.48,0,0,0-1.08-.24,2.42,2.42,0,0,0-1.08.25,2.86,2.86,0,0,0-.88.67,3.17,3.17,0,0,0-.59,1A3.41,3.41,0,0,0,133.89,41.69Z"/><path class="cls-3" d="M146.94,38.72a3.63,3.63,0,0,0-1.86.54,2.78,2.78,0,0,0-1.14,1.42v5.15h-1.41V37.49h1.31v1.94A3.94,3.94,0,0,1,145,38a2.83,2.83,0,0,1,1.5-.6h.27l.19,0Z"/><path class="cls-3" d="M149,48.11l.42,0,.32,0a.67.67,0,0,0,.34-.09.94.94,0,0,0,.3-.34,6,6,0,0,0,.34-.71q.19-.46.48-1.19l-3.54-8.35h1.46L152,44.57l2.59-7.09H156L151.9,48a2.44,2.44,0,0,1-.74,1,2.21,2.21,0,0,1-1.43.42l-.3,0-.38-.06Z"/></svg>