<svg xmlns="http://www.w3.org/2000/svg" viewBox="0 0 95 110" width="95" height="110">
	<style>
		tspan { white-space:pre }
		.shp0 { fill: #ffffff } 
		.shp1 { fill: none;stroke: #ffffff;stroke-width: 1.7 } 
	</style>
	<path id="Path 159" class="shp0" d="M14.85 9.87C14.85 4.54 19.18 0.21 24.52 0.21C29.86 0.21 34.18 4.54 34.18 9.87C34.18 15.21 29.86 19.54 24.52 19.54C19.18 19.54 14.85 15.21 14.85 9.87ZM6.56 52.34L6.56 41.29C6.56 31.38 14.6 23.34 24.52 23.34C34.43 23.34 42.47 31.38 42.47 41.29L42.47 52.34M64.05 67.36C64.05 62.02 68.38 57.69 73.71 57.69C79.05 57.69 83.38 62.02 83.38 67.36C83.38 72.7 79.05 77.02 73.71 77.02C68.38 77.02 64.05 72.7 64.05 67.36ZM55.76 109.82L55.76 98.77C55.76 88.86 63.8 80.82 73.72 80.82C83.63 80.82 91.67 88.86 91.67 98.77L91.67 109.82" />
	<path id="Path 160" class="shp1" d="M47.53 104.47C23.64 104.47 4.21 85.36 3.7 61.59" />
	<path id="Path 161" class="shp0" d="M7.52 64.35L6.9 64.98L3.75 61.93L0.94 65.29L0.25 64.71L3.69 60.62L7.52 64.35Z" />
	<path id="Path 162" class="shp1" d="M47.53 16.78C71.43 16.78 90.86 35.89 91.37 59.66" />
	<path id="Path 163" class="shp0" d="M87.55 56.9L88.17 56.27L91.31 59.32L94.13 55.97L94.81 56.54L91.38 60.63L87.55 56.9Z" />
</svg>