<svg width="550" height="355" viewBox="0 0 550 355" fill="none" xmlns="http://www.w3.org/2000/svg">
<path fill-rule="evenodd" clip-rule="evenodd" d="M197.112 319H308.514V275.412H330.429C352.344 275.412 370.606 266.55 370.606 232.696C370.606 221.627 370.606 211.846 370.606 211.846C389.897 214.577 398 213.147 398 200.949C398 197.316 395.705 189.88 387.043 175.522C384.81 171.821 383.183 168.723 381.422 165.369C378.862 160.492 376.016 155.071 370.606 146.463C370.606 79.2647 328.498 54.498 313.992 46.5736C301.716 39.8668 200.765 10.25 164.24 93.7942C132.734 165.857 175.197 216.689 197.112 231.824V319ZM333.086 106.983C337.321 101.638 335.504 93.2159 328.498 86.1833C321.64 79.3001 312.222 76.1277 306.84 80.029C305.463 73.8456 298.995 68.0059 290.216 65.7464C281.812 63.5831 273.69 65.3198 269.353 69.6452C267.082 64.3836 260.126 60.5535 251.896 60.5535C243.143 60.5535 235.831 64.8853 234.064 70.6641C229.77 68.6335 223.737 68.5472 217.823 70.8599C210.872 73.5775 206.034 78.8455 205.031 84.0744C199.004 84.3526 194.077 87.728 189.885 95.3369C185.492 103.309 186.237 113.644 188.434 115.902C182.589 125.68 182.589 133.782 182.589 141.104C182.589 157.581 200.828 170.396 209.947 174.057C221.931 178.868 220.89 186.872 220.89 186.872V203.348H236.927V175.893C236.927 170.963 236.06 168.038 234.284 165.058C232.764 162.507 230.627 159.961 227.507 156.244C226.751 155.344 225.938 154.375 225.061 153.32C221.666 152.119 214.852 151.561 209.473 157.213C209.021 157.687 208.273 157.761 207.77 157.341L203.972 154.169C203.473 153.752 203.404 153.008 203.841 152.527C208.361 147.562 213.647 145.665 218.354 145.296C216.358 142.623 214.771 139.98 213.537 137.384C212.257 134.692 211.363 132.065 210.784 129.53C208.535 128.687 206.216 126.96 204.155 124.353C201.19 120.601 198.556 114.824 196.995 106.273C196.878 105.632 197.314 105.023 197.958 104.915L202.83 104.102C203.475 103.994 204.085 104.431 204.204 105.073C205.617 112.739 207.872 117.263 209.883 119.807C209.913 119.845 209.942 119.882 209.972 119.919C210.297 114.393 211.938 109.797 213.567 106.532C215.733 102.191 220.39 98.4464 227.118 96.25C226.626 95.6871 226.102 95.1308 225.554 94.6071C224.039 93.1592 222.701 92.3008 221.643 91.9239C221.027 91.7047 220.488 91.1673 220.488 90.5156V85.5543C220.488 84.9026 221.02 84.3675 221.669 84.4455C225.281 84.8794 228.407 87.2168 230.596 89.3089C232.357 90.9912 233.888 92.8805 235.054 94.5367C237.975 94.184 241.173 94.064 244.652 94.2237C246.039 92.7388 247.685 90.5531 248.87 88.0138C250.191 85.1829 250.813 82.2069 250.208 79.3458C250.074 78.7093 250.401 78.0432 251.019 77.8366L255.706 76.2711C256.327 76.0636 257.004 76.3983 257.168 77.0304C258.519 82.2085 257.327 87.1756 255.488 91.1159C254.818 92.5516 254.043 93.8946 253.228 95.118C253.473 95.1569 253.72 95.197 253.967 95.2384C256.958 95.7384 260.115 96.4219 263.44 97.3104C265.333 97.8162 267.191 98.3802 269.012 98.9956C272.325 99.7952 282.538 99.3083 291.69 86.9036C292.078 86.3768 292.821 86.2416 293.357 86.6179L297.406 89.4584C297.939 89.8322 298.069 90.5671 297.685 91.0918C292.985 97.5135 287.826 101.487 282.969 103.796C283.165 103.869 283.359 103.943 283.554 104.016C288.169 105.765 292.8 107.791 296.524 110.216C302.209 111.339 310.643 112.018 317.57 106.272C318.074 105.854 318.825 105.877 319.271 106.358L322.636 109.989C323.078 110.466 323.051 111.212 322.557 111.635C317.882 115.643 312.751 117.41 307.988 118.025C313.886 123.354 317.569 129.599 320.329 136.943C320.557 137.552 320.238 138.227 319.624 138.448L314.975 140.121C314.358 140.342 313.68 140.022 313.449 139.41C309.796 129.734 304.557 122.671 293.42 116.913L293.222 116.811L293.037 116.685C289.948 114.574 285.709 112.66 280.97 110.865C277.497 109.549 273.922 108.357 270.479 107.209C269.234 106.794 268.005 106.384 266.806 105.977C265.088 105.393 263.338 104.861 261.558 104.385C260.526 104.109 259.515 103.855 258.523 103.622C259.792 109.093 260.669 116.028 259.854 122.596C264.098 122.748 267.406 121.287 268.982 120.426C269.555 120.114 270.493 119.991 271.112 120.198L275.427 121.639C276.175 121.889 276.472 122.789 275.976 123.401C271.001 129.531 264.897 129.78 259.494 129.999C258.999 130.02 258.509 130.04 258.027 130.064C256.913 132.913 255.279 135.589 252.951 137.815C252.477 138.267 251.724 138.201 251.303 137.7L248.116 133.91C247.697 133.412 247.765 132.674 248.219 132.208C249.915 130.463 251.103 128.188 251.859 125.486C253.943 118.026 252.426 108.383 250.581 102.126C248.918 101.895 247.327 101.73 245.806 101.624C241.19 101.302 237.232 101.524 233.898 102.103C225.544 103.555 221.427 107.15 220.102 109.806C218.283 113.453 216.486 119.106 217.528 125.918C217.655 126.743 217.823 127.588 218.039 128.453C218.168 128.38 218.299 128.308 218.433 128.238C221.6 126.583 226.164 125.812 232.5 126.377C233.151 126.435 233.619 127.02 233.547 127.667L233.001 132.598C232.929 133.246 232.342 133.711 231.691 133.655C226.249 133.19 223.282 133.961 221.812 134.73C221.274 135.011 220.951 135.277 220.758 135.485C222.208 138.245 224.193 141.156 226.871 144.175C228.012 145.461 229.085 146.714 230.092 147.931C231.045 149.083 231.96 150.172 232.833 151.211C236.055 155.044 238.706 158.198 240.557 161.304C243.104 165.578 244.233 169.84 244.233 175.893V203.348H261.015V174.057C261.015 153.553 276.822 149.648 284.725 150.258H317.554C323.026 150.258 331.098 149.137 337.617 139.274C344.631 128.662 340.35 112.336 333.086 106.983Z" fill="#1172B5"/>
</svg>
