<svg width="44" height="97" viewBox="0 0 44 97" fill="none" xmlns="http://www.w3.org/2000/svg">
<path fill-rule="evenodd" clip-rule="evenodd" d="M11.525 56.5352C11.525 58.2188 10.1659 59.5703 8.5 59.5703C6.83405 59.5703 5.47498 58.2188 5.47498 56.5352C5.47498 54.8555 6.83405 53.5 8.5 53.5C10.1659 53.5 11.525 54.8555 11.525 56.5352ZM10.8953 61.5234C12.7471 60.6289 14.025 58.7344 14.025 56.5352C14.025 53.4805 11.5513 51 8.5 51C5.44861 51 2.97498 53.4805 2.97498 56.5352C2.97498 58.7344 4.25287 60.6289 6.10468 61.5234C3.34082 62.3672 1.15833 64.6289 0.34491 67.5C0.120422 68.293 0 69.1328 0 70H2.5H14.5H17C17 69.1328 16.8796 68.293 16.6551 67.5C15.8417 64.6289 13.6591 62.3672 10.8953 61.5234ZM2.98193 67.5C3.91278 65.2109 6.08075 63.6641 8.5 63.6641C10.9193 63.6641 13.0872 65.2109 14.0181 67.5H2.98193Z" fill="#6B7427"/>
<path fill-rule="evenodd" clip-rule="evenodd" d="M38.0523 82.5352C38.0523 84.2188 36.6932 85.5703 35.0273 85.5703C33.3614 85.5703 32.0023 84.2188 32.0023 82.5352C32.0023 80.8555 33.3614 79.5 35.0273 79.5C36.6932 79.5 38.0523 80.8555 38.0523 82.5352ZM37.4226 87.5234C39.2744 86.6289 40.5523 84.7344 40.5523 82.5352C40.5523 79.4805 38.0787 77 35.0273 77C31.976 77 29.5023 79.4805 29.5023 82.5352C29.5023 84.7344 30.7802 86.6289 32.632 87.5234C29.8682 88.3672 27.6857 90.6289 26.8723 93.5C26.6478 94.293 26.5273 95.1328 26.5273 96H29.0273H41.0273H43.5273C43.5273 95.1328 43.4069 94.293 43.1824 93.5C42.369 90.6289 40.1865 88.3672 37.4226 87.5234ZM29.5093 93.5C30.4401 91.2109 32.6081 89.6641 35.0273 89.6641C37.4466 89.6641 39.6146 91.2109 40.5454 93.5H29.5093Z" fill="#6B7427"/>
<path fill-rule="evenodd" clip-rule="evenodd" d="M35.0371 58.1737C32.2775 55.4142 28.837 54.0286 25.7155 54.0009C24.8871 53.9936 24.1279 53.4301 24.0143 52.6095C23.9007 51.7889 24.4747 51.0234 25.3029 51.0038C29.4094 50.9067 33.7789 52.6729 37.1584 56.0524C40.1251 59.019 41.8435 62.741 42.158 66.378C42.2293 67.2034 41.5361 67.8623 40.7078 67.8448C39.8796 67.8273 39.2313 67.139 39.1366 66.316C38.8156 63.5244 37.449 60.5856 35.0371 58.1737Z" fill="#6B7427"/>
<path fill-rule="evenodd" clip-rule="evenodd" d="M9.69352 91.2187C6.31377 89.2674 4.08498 86.3027 3.2503 83.2947C3.02879 82.4964 2.28807 81.909 1.46603 82.0117C0.643984 82.1143 0.053066 82.8668 0.248513 83.6719C1.21761 87.6636 4.05446 91.4271 8.19352 93.8168C11.8269 95.9145 15.8669 96.6111 19.4613 95.9735C20.277 95.8288 20.734 94.9887 20.5028 94.1932C20.2715 93.3977 19.4389 92.9496 18.6194 93.0712C15.8399 93.4836 12.6475 92.9242 9.69352 91.2187Z" fill="#6B7427"/>
<path fill-rule="evenodd" clip-rule="evenodd" d="M11.525 5.53516C11.525 7.21875 10.1659 8.57031 8.5 8.57031C6.83405 8.57031 5.47498 7.21875 5.47498 5.53516C5.47498 3.85547 6.83405 2.5 8.5 2.5C10.1659 2.5 11.525 3.85547 11.525 5.53516ZM10.8953 10.5234C12.7471 9.62891 14.025 7.73438 14.025 5.53516C14.025 2.48047 11.5513 0 8.5 0C5.44861 0 2.97498 2.48047 2.97498 5.53516C2.97498 7.73438 4.25287 9.62891 6.10468 10.5234C3.34082 11.3672 1.15833 13.6289 0.34491 16.5C0.120422 17.293 0 18.1328 0 19H2.5H14.5H17C17 18.1328 16.8796 17.293 16.6551 16.5C15.8417 13.6289 13.6591 11.3672 10.8953 10.5234ZM2.98193 16.5C3.91278 14.2109 6.08075 12.6641 8.5 12.6641C10.9193 12.6641 13.0872 14.2109 14.0181 16.5H2.98193Z" fill="#0170B7"/>
<path fill-rule="evenodd" clip-rule="evenodd" d="M38.0523 31.5352C38.0523 33.2188 36.6932 34.5703 35.0273 34.5703C33.3614 34.5703 32.0023 33.2188 32.0023 31.5352C32.0023 29.8555 33.3614 28.5 35.0273 28.5C36.6932 28.5 38.0523 29.8555 38.0523 31.5352ZM37.4226 36.5234C39.2744 35.6289 40.5523 33.7344 40.5523 31.5352C40.5523 28.4805 38.0787 26 35.0273 26C31.976 26 29.5023 28.4805 29.5023 31.5352C29.5023 33.7344 30.7802 35.6289 32.632 36.5234C29.8682 37.3672 27.6857 39.6289 26.8723 42.5C26.6478 43.293 26.5273 44.1328 26.5273 45H29.0273H41.0273H43.5273C43.5273 44.1328 43.4069 43.293 43.1824 42.5C42.369 39.6289 40.1865 37.3672 37.4226 36.5234ZM29.5093 42.5C30.4401 40.2109 32.6081 38.6641 35.0273 38.6641C37.4466 38.6641 39.6146 40.2109 40.5454 42.5H29.5093Z" fill="#0170B7"/>
<path fill-rule="evenodd" clip-rule="evenodd" d="M35.0371 7.17371C32.2775 4.41416 28.837 3.02862 25.7155 3.00091C24.8871 2.99356 24.1279 2.43012 24.0143 1.60952C23.9007 0.788922 24.4747 0.0233682 25.3029 0.00379565C29.4094 -0.0932518 33.7789 1.67286 37.1584 5.05239C40.1251 8.01904 41.8435 11.741 42.158 15.378C42.2293 16.2034 41.5361 16.8623 40.7078 16.8448C39.8796 16.8273 39.2313 16.139 39.1366 15.316C38.8156 12.5244 37.449 9.58558 35.0371 7.17371Z" fill="#0170B7"/>
<path fill-rule="evenodd" clip-rule="evenodd" d="M9.69352 40.2187C6.31377 38.2674 4.08498 35.3027 3.2503 32.2947C3.02879 31.4964 2.28807 30.909 1.46603 31.0117C0.643984 31.1143 0.053066 31.8668 0.248513 32.6719C1.21761 36.6636 4.05446 40.4271 8.19352 42.8168C11.8269 44.9145 15.8669 45.6111 19.4613 44.9735C20.277 44.8288 20.734 43.9887 20.5028 43.1932C20.2715 42.3977 19.4389 41.9496 18.6194 42.0712C15.8399 42.4836 12.6475 41.9242 9.69352 40.2187Z" fill="#0170B7"/>
</svg>
