<svg width="36" height="97" viewBox="0 0 36 97" fill="none" xmlns="http://www.w3.org/2000/svg">
<path fill-rule="evenodd" clip-rule="evenodd" d="M24.7969 2.68484C18.0221 2.68482 11.2802 2.6848 10.3507 2.68486C9.05264 2.68493 7.91353 2.68598 6.90188 2.77415C5.88908 2.86243 5.1105 3.03113 4.51889 3.30929C3.96195 3.57115 3.55115 3.93785 3.25689 4.5035C2.94655 5.10005 2.72383 6.00117 2.72383 7.38331C2.72383 8.99046 3.29568 9.90513 4.2597 10.502C5.34409 11.1733 7.09507 11.5448 9.62422 11.5448H35.0921C35.5935 11.5448 36 11.9454 36 12.4397V45.1051C36 45.5993 35.5935 46 35.0921 46H6.21942C5.01067 46 3.41966 45.8478 2.12317 44.8909C0.745039 43.8738 0 42.186 0 39.7802V7.3833C0 7.3833 0 7.3833 0 7.3833C5.34401e-07 5.74502 0.259634 4.38085 0.833124 3.27846C1.42269 2.14516 2.2972 1.37925 3.34618 0.886042C4.36051 0.409129 5.50848 0.2003 6.66197 0.0997661C7.80482 0.000159953 9.05767 9.82005e-05 10.3116 3.65791e-05C10.3116 3.65791e-05 10.3116 3.6579e-05 10.3116 3.6579e-05L10.3505 3.45308e-05C10.3505 3.45307e-05 10.3505 3.45307e-05 10.3505 3.45306e-05C11.2801 -1.91533e-05 18.0222 8.18161e-07 24.797 2.0875e-05C27.9647 3.03233e-05 31.1395 3.97036e-05 33.7307 4.16067e-05C34.2321 4.1975e-05 34.6381 0.400721 34.6381 0.894983V1.78992C34.6381 2.28419 34.2321 2.68486 33.7307 2.68486C31.1394 2.68486 27.9646 2.68485 24.7969 2.68484ZM2.81092 12.7755C2.77323 12.7522 2.72383 12.7787 2.72383 12.8225V39.7802C2.72383 41.6343 3.27262 42.3852 3.75577 42.7418C4.32057 43.1586 5.15831 43.3152 6.21942 43.3152H32.3682C32.8697 43.3152 33.2762 42.9145 33.2762 42.4202V15.1245C33.2762 14.6303 32.8697 14.2296 32.3682 14.2296H9.62422C6.93269 14.2296 4.55252 13.8538 2.81092 12.7755Z" fill="#0170B7"/>
<path d="M14.4495 27.8122H11.1992L10.6316 29.6473H8.09766L11.706 19.8242H13.9359L17.5713 29.6473H15.0238L14.4495 27.8122ZM11.7668 25.9839H13.8818L12.821 22.5768L11.7668 25.9839Z" fill="#0170B7"/>
<path d="M22.5961 37.0347H27.2991V38.8563H19.6364V37.6082L24.3259 30.8615H19.6094V29.0332H27.2518V30.2476L22.5961 37.0347Z" fill="#0170B7"/>
<path fill-rule="evenodd" clip-rule="evenodd" d="M24.7969 53.6848C18.0221 53.6848 11.2802 53.6848 10.3507 53.6849C9.05264 53.6849 7.91353 53.686 6.90188 53.7742C5.88908 53.8624 5.1105 54.0311 4.51889 54.3093C3.96195 54.5712 3.55115 54.9378 3.25689 55.5035C2.94655 56.1 2.72383 57.0012 2.72383 58.3833C2.72383 59.9905 3.29568 60.9051 4.2597 61.502C5.34409 62.1733 7.09507 62.5448 9.62422 62.5448H35.0921C35.5935 62.5448 36 62.9454 36 63.4397V96.1051C36 96.5993 35.5935 97 35.0921 97H6.21942C5.01067 97 3.41966 96.8478 2.12317 95.8909C0.745039 94.8738 0 93.186 0 90.7802V58.3833C0 58.3833 0 58.3833 0 58.3833C5.34401e-07 56.745 0.259634 55.3809 0.833124 54.2785C1.42269 53.1452 2.2972 52.3793 3.34618 51.886C4.36051 51.4091 5.50848 51.2003 6.66197 51.0998C7.80482 51.0002 9.05767 51.0001 10.3116 51C10.3116 51 10.3116 51 10.3116 51L10.3505 51C10.3505 51 10.3505 51 10.3505 51C11.2801 51 18.0222 51 24.797 51C27.9647 51 31.1395 51 33.7307 51C34.2321 51 34.6381 51.4007 34.6381 51.895V52.7899C34.6381 53.2842 34.2321 53.6849 33.7307 53.6849C31.1394 53.6849 27.9646 53.6849 24.7969 53.6848ZM2.81092 63.7755C2.77323 63.7522 2.72383 63.7787 2.72383 63.8225V90.7802C2.72383 92.6343 3.27262 93.3852 3.75577 93.7418C4.32057 94.1586 5.15831 94.3152 6.21942 94.3152H32.3682C32.8697 94.3152 33.2762 93.9145 33.2762 93.4202V66.1245C33.2762 65.6303 32.8697 65.2296 32.3682 65.2296H9.62422C6.93269 65.2296 4.55252 64.8538 2.81092 63.7755Z" fill="#6B7427"/>
<path d="M14.4495 78.8122H11.1992L10.6316 80.6473H8.09766L11.706 70.8242H13.9359L17.5713 80.6473H15.0238L14.4495 78.8122ZM11.7668 76.9839H13.8818L12.821 73.5768L11.7668 76.9839Z" fill="#6B7427"/>
<path d="M22.5961 88.0347H27.2991V89.8563H19.6364V88.6082L24.3259 81.8615H19.6094V80.0332H27.2518V81.2476L22.5961 88.0347Z" fill="#6B7427"/>
</svg>
