<svg width="34" height="97" viewBox="0 0 34 97" fill="none" xmlns="http://www.w3.org/2000/svg">
<path fill-rule="evenodd" clip-rule="evenodd" d="M9.04672 27.7352C2.83131 23.2106 0.92352 14.5809 4.89101 7.70902C9.1328 0.362018 18.4731 -2.1731 25.7478 2.02693C33.0224 6.22695 35.4971 15.5835 31.2553 22.9305C27.3484 29.6975 19.117 32.3828 12.1572 29.4833L3.32912 44.774C2.83651 45.6273 1.74549 45.9196 0.892254 45.427C0.0390218 44.9344 -0.253317 43.8433 0.239297 42.9901L9.04672 27.7352ZM23.9432 5.15255C18.3645 1.93166 11.22 3.88257 7.98084 9.49294C4.74164 15.1034 6.62414 22.2667 12.2028 25.4875C17.7814 28.7084 24.9263 26.757 28.1655 21.1465C31.4046 15.5362 29.5219 8.37343 23.9432 5.15255Z" fill="#0170B7"/>
<path fill-rule="evenodd" clip-rule="evenodd" d="M9.04672 78.7352C2.83131 74.2106 0.92352 65.5809 4.89101 58.709C9.1328 51.362 18.4731 48.8269 25.7478 53.0269C33.0224 57.227 35.4971 66.5835 31.2553 73.9305C27.3484 80.6975 19.117 83.3828 12.1572 80.4833L3.32912 95.774C2.83651 96.6273 1.74549 96.9196 0.892254 96.427C0.0390218 95.9344 -0.253317 94.8433 0.239297 93.9901L9.04672 78.7352ZM23.9432 56.1525C18.3645 52.9317 11.22 54.8826 7.98084 60.4929C4.74164 66.1034 6.62414 73.2667 12.2028 76.4875C17.7814 79.7084 24.9263 77.757 28.1655 72.1465C31.4046 66.5362 29.5219 59.3734 23.9432 56.1525Z" fill="#6B7427"/>
</svg>
