<svg width="49" height="96" viewBox="0 0 49 96" fill="none" xmlns="http://www.w3.org/2000/svg">
<path fill-rule="evenodd" clip-rule="evenodd" d="M14.19 31.3714H5.76471C4.17283 31.3714 2.88235 30.1063 2.88235 28.5457V5.6515C2.88235 4.09088 4.17283 2.82575 5.76471 2.82575H43.2353C44.8272 2.82575 46.1176 4.09088 46.1176 5.6515V28.5457C46.1176 30.1063 44.8272 31.3714 43.2353 31.3714H22.1572L14.5744 38.6186L14.19 31.3714ZM23.3297 34.1972H43.2353C46.4191 34.1972 49 31.6669 49 28.5457V5.6515C49 2.53026 46.4191 0 43.2353 0H5.76471C2.58095 0 0 2.53026 0 5.6515V28.5457C0 31.6669 2.58095 34.1972 5.76471 34.1972H11.4536L12.0265 45L23.3297 34.1972Z" fill="#0170B7"/>
<path fill-rule="evenodd" clip-rule="evenodd" d="M14.19 82.3714H5.76471C4.17283 82.3714 2.88235 81.1063 2.88235 79.5457V56.6515C2.88235 55.0909 4.17283 53.8258 5.76471 53.8258H43.2353C44.8272 53.8258 46.1176 55.0909 46.1176 56.6515V79.5457C46.1176 81.1063 44.8272 82.3714 43.2353 82.3714H22.1572L14.5744 89.6186L14.19 82.3714ZM23.3297 85.1972H43.2353C46.4191 85.1972 49 82.6669 49 79.5457V56.6515C49 53.5303 46.4191 51 43.2353 51H5.76471C2.58095 51 0 53.5303 0 56.6515V79.5457C0 82.6669 2.58095 85.1972 5.76471 85.1972H11.4536L12.0265 96L23.3297 85.1972Z" fill="#6B7427"/>
</svg>
