<svg width="43" height="96" viewBox="0 0 43 96" fill="none" xmlns="http://www.w3.org/2000/svg">
<path fill-rule="evenodd" clip-rule="evenodd" d="M38.5985 25.2093L38.5914 25.2131L7.43873 41.9099L7.43293 41.913C6.61796 42.344 5.36569 42.6215 4.17913 41.9434C2.98864 41.263 2.63265 40.0603 2.63265 39.1547V5.84538C2.63265 4.93983 2.98864 3.73713 4.17913 3.05673C5.36569 2.37859 6.61796 2.65608 7.43292 3.08711L7.43873 3.09018L38.5914 19.787L38.5982 19.7906C39.3706 20.2013 40.3673 21.0854 40.3673 22.5001C40.3673 23.9145 39.3709 24.7986 38.5985 25.2093ZM39.8292 17.4509C41.0029 18.075 43 19.6726 43 22.5001C43 25.3275 41.0029 26.9251 39.8293 27.5491L39.8162 27.556L8.67104 44.249L8.6591 44.2553C7.37054 44.9368 5.11474 45.5228 2.87811 44.2445C0.601558 42.9434 0 40.6633 0 39.1547V5.84538C0 4.33684 0.601559 2.05674 2.87811 0.755625C5.11472 -0.52266 7.36999 0.0630308 8.65855 0.744533C8.65856 0.744536 8.65854 0.744529 8.65855 0.744533L8.67077 0.750995L39.8166 17.4443L39.8292 17.4509C39.829 17.4508 39.8293 17.451 39.8292 17.4509Z" fill="#0170B7"/>
<path fill-rule="evenodd" clip-rule="evenodd" d="M38.5985 76.2093L38.5914 76.2131L7.43873 92.9099L7.43293 92.913C6.61796 93.344 5.36569 93.6215 4.17913 92.9434C2.98864 92.263 2.63265 91.0603 2.63265 90.1547V56.8454C2.63265 55.9398 2.98864 54.7371 4.17913 54.0567C5.36569 53.3786 6.61796 53.6561 7.43292 54.0871L7.43873 54.0902L38.5914 70.787L38.5982 70.7906C39.3706 71.2013 40.3673 72.0854 40.3673 73.5001C40.3673 74.9145 39.3709 75.7986 38.5985 76.2093ZM39.8292 68.4509C41.0029 69.075 43 70.6726 43 73.5001C43 76.3275 41.0029 77.9251 39.8293 78.5491L39.8162 78.556L8.67104 95.249L8.6591 95.2553C7.37054 95.9368 5.11474 96.5228 2.87811 95.2445C0.601558 93.9434 0 91.6633 0 90.1547V56.8454C0 55.3368 0.601559 53.0567 2.87811 51.7556C5.11472 50.4773 7.36999 51.063 8.65855 51.7445C8.65856 51.7445 8.65854 51.7445 8.65855 51.7445L8.67077 51.751L39.8166 68.4443L39.8292 68.4509C39.829 68.4508 39.8293 68.451 39.8292 68.4509Z" fill="#6B7427"/>
</svg>
