<svg width="23" height="22" viewBox="0 0 23 22" fill="none" xmlns="http://www.w3.org/2000/svg">
<path fill-rule="evenodd" clip-rule="evenodd" d="M5.82506 2.69424C5.82506 3.51372 5.13814 4.1716 4.29615 4.1716C3.45413 4.1716 2.76721 3.51372 2.76721 2.69424C2.76721 1.87665 3.45413 1.21687 4.29615 1.21687C5.13814 1.21687 5.82506 1.87665 5.82506 2.69424ZM5.50679 5.12228C6.44274 4.68687 7.08863 3.7647 7.08863 2.69424C7.08863 1.20737 5.83838 0 4.29615 0C2.75389 0 1.50364 1.20737 1.50364 2.69424C1.50364 3.7647 2.14953 4.68687 3.08548 5.12228C1.68855 5.53297 0.585452 6.63387 0.174328 8.03137C0.060865 8.41735 0 8.82614 0 9.24824H1.26357H7.32873H8.5923C8.5923 8.82614 8.53144 8.41735 8.41797 8.03137C8.00685 6.63387 6.90372 5.53297 5.50679 5.12228ZM1.50716 8.03137C1.97763 6.91717 3.07339 6.16423 4.29615 6.16423C5.51891 6.16423 6.61467 6.91717 7.08514 8.03137H1.50716Z" fill="white"/>
<path fill-rule="evenodd" clip-rule="evenodd" d="M19.2352 15.3505C19.2352 16.17 18.5483 16.8278 17.7063 16.8278C16.8643 16.8278 16.1774 16.17 16.1774 15.3505C16.1774 14.5329 16.8643 13.8731 17.7063 13.8731C18.5483 13.8731 19.2352 14.5329 19.2352 15.3505ZM18.9169 17.7785C19.8529 17.3431 20.4988 16.421 20.4988 15.3505C20.4988 13.8636 19.2485 12.6562 17.7063 12.6562C16.164 12.6562 14.9138 13.8636 14.9138 15.3505C14.9138 16.421 15.5597 17.3431 16.4956 17.7785C15.0987 18.1892 13.9956 19.2901 13.5845 20.6876C13.471 21.0736 13.4102 21.4824 13.4102 21.9045H14.6737H20.7389H22.0025C22.0025 21.4824 21.9416 21.0736 21.8281 20.6876C21.417 19.2901 20.3139 18.1892 18.9169 17.7785ZM14.9173 20.6876C15.3878 19.5734 16.4835 18.8205 17.7063 18.8205C18.9291 18.8205 20.0248 19.5734 20.4953 20.6876H14.9173Z" fill="white"/>
<path fill-rule="evenodd" clip-rule="evenodd" d="M17.7113 3.4918C16.3165 2.14859 14.5776 1.47418 12.9999 1.46069C12.5812 1.45711 12.1975 1.18286 12.1401 0.783434C12.0826 0.384007 12.3727 0.0113745 12.7913 0.00184753C14.8669 -0.0453903 17.0753 0.814264 18.7835 2.45925C20.2829 3.90326 21.1515 5.71494 21.3104 7.48525C21.3464 7.88699 20.9961 8.20771 20.5775 8.19919C20.1588 8.19067 19.8311 7.85565 19.7833 7.45506C19.621 6.09627 18.9303 4.66578 17.7113 3.4918Z" fill="white"/>
<path fill-rule="evenodd" clip-rule="evenodd" d="M4.90215 19.5731C3.19393 18.6233 2.06743 17.1803 1.64556 15.7161C1.5336 15.3276 1.15922 15.0416 0.743735 15.0916C0.32825 15.1416 0.0295821 15.5079 0.128367 15.8997C0.618176 17.8427 2.052 19.6746 4.14401 20.8378C5.98043 21.8588 8.02234 22.1979 9.83908 21.8875C10.2514 21.8171 10.4823 21.4082 10.3655 21.021C10.2486 20.6338 9.82773 20.4156 9.41355 20.4748C8.0087 20.6756 6.39516 20.4033 4.90215 19.5731Z" fill="white"/>
</svg>
