<svg width="550" height="355" viewBox="0 0 550 355" fill="none" xmlns="http://www.w3.org/2000/svg">
<circle cx="276" cy="176" r="44" stroke="#1171B5" stroke-width="2"/>
<path d="M257.1 134.49C257.1 124.28 265.39 116 275.6 116C285.81 116 294.1 124.28 294.1 134.49C294.1 144.71 285.81 152.99 275.6 152.99C265.39 152.99 257.1 144.71 257.1 134.49ZM257.1 220.81C257.1 210.59 265.39 202.31 275.6 202.31C285.81 202.31 294.1 210.59 294.1 220.81C294.1 231.02 285.81 239.3 275.6 239.3C265.39 239.3 257.1 231.02 257.1 220.81ZM232.44 196.14C222.23 196.14 213.95 187.86 213.95 177.65C213.95 167.44 222.23 159.15 232.44 159.15C242.66 159.15 250.94 167.44 250.94 177.65C250.94 187.86 242.66 196.14 232.44 196.14ZM318.76 196.14C308.54 196.14 300.26 187.86 300.26 177.65C300.26 167.44 308.54 159.15 318.76 159.15C328.97 159.15 337.25 167.44 337.25 177.65C337.25 187.86 328.97 196.14 318.76 196.14Z" fill="#1172B5"/>
<rect x="301" y="177" width="111" height="2" fill="#1171B5"/>
<rect width="44.3218" height="2" transform="matrix(0.935444 0.353476 0.353476 -0.935444 367.928 177.953)" fill="#1171B5"/>
<rect width="44.4529" height="2" transform="matrix(0.769952 0.638102 0.638102 -0.769952 368.421 178.317)" fill="#1171B5"/>
<rect width="43.8877" height="2" transform="matrix(0.501485 0.865166 0.865166 -0.501485 367.558 177.713)" fill="#1171B5"/>
<rect width="45" height="2" transform="matrix(0.187457 0.982273 0.982273 -0.187457 367 177.48)" fill="#1171B5"/>
<path d="M409.76 170.787C413.4 170.787 416.36 173.747 416.36 177.397C416.36 181.047 413.4 183.997 409.76 183.997C406.11 183.997 403.15 181.047 403.15 177.397C403.15 173.747 406.11 170.787 409.76 170.787Z" fill="#1172B5"/>
<path d="M404.98 197.787C408.41 199.037 412.2 197.277 413.45 193.847C414.7 190.417 412.94 186.627 409.51 185.377C406.08 184.127 402.29 185.897 401.04 189.317C399.79 192.747 401.55 196.537 404.98 197.787Z" fill="#1172B5"/>
<path d="M395.77 209.107C398.56 211.457 402.73 211.107 405.08 208.317C407.43 205.517 407.07 201.357 404.28 199.007C401.49 196.657 397.32 197.007 394.97 199.807C392.62 202.597 392.98 206.757 395.77 209.107Z" fill="#1172B5"/>
<path d="M383.24 216.587C385.05 219.747 389.09 220.837 392.26 219.027C395.42 217.207 396.51 213.177 394.7 210.007C392.88 206.847 388.84 205.747 385.68 207.567C382.52 209.387 381.42 213.417 383.24 216.587Z" fill="#1172B5"/>
<path d="M368.9 219.307C369.52 222.907 372.94 225.317 376.53 224.697C380.13 224.077 382.54 220.657 381.92 217.057C381.3 213.467 377.88 211.057 374.28 211.677C370.69 212.297 368.28 215.717 368.9 219.307Z" fill="#1172B5"/>
<rect x="367.293" y="177.969" width="45" height="2" transform="rotate(-20.7001 367.293 177.969)" fill="#1171B5"/>
<rect x="368.667" y="177.162" width="44.1335" height="2" transform="rotate(-39.6505 368.667 177.162)" fill="#1171B5"/>
<rect x="367.496" y="178.077" width="44.0107" height="2" transform="rotate(-59.9017 367.496 178.077)" fill="#1171B5"/>
<rect x="367" y="178.202" width="45" height="2" transform="rotate(-79.1956 367 178.202)" fill="#1171B5"/>
<path d="M404.98 156.997C408.41 155.747 412.2 157.517 413.45 160.937C414.7 164.367 412.94 168.157 409.51 169.407C406.08 170.657 402.29 168.897 401.04 165.467C399.79 162.037 401.55 158.247 404.98 156.997Z" fill="#1172B5"/>
<path d="M395.77 145.677C398.56 143.327 402.73 143.687 405.08 146.477C407.43 149.267 407.07 153.437 404.28 155.787C401.49 158.137 397.32 157.777 394.97 154.987C392.62 152.197 392.98 148.027 395.77 145.677Z" fill="#1172B5"/>
<path d="M383.24 138.207C385.05 135.037 389.09 133.947 392.26 135.767C395.42 137.577 396.51 141.617 394.7 144.777C392.88 147.947 388.84 149.037 385.68 147.227C382.52 145.407 381.42 141.367 383.24 138.207Z" fill="#1172B5"/>
<path d="M368.9 135.477C369.52 131.887 372.94 129.477 376.53 130.097C380.13 130.717 382.54 134.137 381.92 137.727C381.3 141.327 377.88 143.737 374.28 143.117C370.69 142.497 368.28 139.077 368.9 135.477Z" fill="#1172B5"/>
<rect x="274" y="152.36" width="111" height="2" transform="rotate(-90 274 152.36)" fill="#1171B5"/>
<rect width="44.3218" height="2" transform="matrix(0.353476 -0.935444 -0.935444 -0.353476 274.953 85.4323)" fill="#1171B5"/>
<rect width="44.4529" height="2" transform="matrix(0.638102 -0.769952 -0.769952 -0.638102 275.317 84.9388)" fill="#1171B5"/>
<rect width="43.8877" height="2" transform="matrix(0.865166 -0.501485 -0.501485 -0.865166 274.713 85.8022)" fill="#1171B5"/>
<rect width="45" height="2" transform="matrix(0.982273 -0.187457 -0.187457 -0.982273 274.48 86.36)" fill="#1171B5"/>
<path d="M267.787 43.5999C267.787 39.9599 270.747 37 274.397 37C278.047 37 280.997 39.9599 280.997 43.5999C280.997 47.2499 278.047 50.21 274.397 50.21C270.747 50.21 267.787 47.2499 267.787 43.5999Z" fill="#1172B5"/>
<path d="M294.787 48.38C296.037 44.95 294.277 41.16 290.847 39.91C287.417 38.66 283.627 40.42 282.377 43.85C281.127 47.28 282.897 51.07 286.317 52.32C289.747 53.57 293.537 51.81 294.787 48.38Z" fill="#1172B5"/>
<path d="M306.107 57.59C308.457 54.8 308.107 50.63 305.317 48.28C302.517 45.93 298.357 46.29 296.007 49.08C293.657 51.87 294.007 56.04 296.807 58.39C299.597 60.74 303.757 60.38 306.107 57.59Z" fill="#1172B5"/>
<path d="M313.587 70.12C316.747 68.31 317.837 64.27 316.027 61.1C314.207 57.94 310.177 56.85 307.007 58.66C303.847 60.48 302.747 64.52 304.567 67.68C306.387 70.84 310.417 71.94 313.587 70.12Z" fill="#1172B5"/>
<path d="M316.307 84.46C319.907 83.84 322.317 80.42 321.697 76.83C321.077 73.23 317.657 70.82 314.057 71.44C310.467 72.06 308.057 75.48 308.677 79.08C309.297 82.67 312.717 85.08 316.307 84.46Z" fill="#1172B5"/>
<rect x="274.969" y="86.0668" width="45" height="2" transform="rotate(-110.7 274.969 86.0668)" fill="#1171B5"/>
<rect x="274.162" y="84.6929" width="44.1335" height="2" transform="rotate(-129.65 274.162 84.6929)" fill="#1171B5"/>
<rect x="275.077" y="85.8639" width="44.0107" height="2" transform="rotate(-149.902 275.077 85.8639)" fill="#1171B5"/>
<rect x="275.202" y="86.36" width="45" height="2" transform="rotate(-169.196 275.202 86.36)" fill="#1171B5"/>
<path d="M253.997 48.38C252.747 44.95 254.517 41.16 257.937 39.91C261.367 38.66 265.157 40.42 266.407 43.85C267.657 47.28 265.897 51.07 262.467 52.32C259.037 53.57 255.247 51.81 253.997 48.38Z" fill="#1172B5"/>
<path d="M242.677 57.59C240.327 54.8 240.687 50.63 243.477 48.28C246.267 45.93 250.437 46.29 252.787 49.08C255.137 51.87 254.777 56.04 251.987 58.39C249.197 60.74 245.027 60.38 242.677 57.59Z" fill="#1172B5"/>
<path d="M235.207 70.12C232.037 68.31 230.947 64.27 232.767 61.1C234.577 57.94 238.617 56.85 241.777 58.66C244.947 60.48 246.037 64.52 244.227 67.68C242.407 70.84 238.367 71.94 235.207 70.12Z" fill="#1172B5"/>
<path d="M232.477 84.46C228.887 83.84 226.477 80.42 227.097 76.83C227.717 73.23 231.137 70.82 234.727 71.44C238.327 72.06 240.737 75.48 240.117 79.08C239.497 82.67 236.077 85.08 232.477 84.46Z" fill="#1172B5"/>
<rect width="111" height="2" transform="matrix(-4.37114e-08 1 1 4.37114e-08 274 203)" fill="#1171B5"/>
<rect x="274.953" y="269.928" width="44.3218" height="2" transform="rotate(69.2999 274.953 269.928)" fill="#1171B5"/>
<rect x="275.317" y="270.421" width="44.4529" height="2" transform="rotate(50.3495 275.317 270.421)" fill="#1171B5"/>
<rect x="274.713" y="269.558" width="43.8877" height="2" transform="rotate(30.0983 274.713 269.558)" fill="#1171B5"/>
<rect x="274.48" y="269" width="45" height="2" transform="rotate(10.8044 274.48 269)" fill="#1171B5"/>
<path d="M267.787 311.76C267.787 315.4 270.747 318.36 274.397 318.36C278.047 318.36 280.997 315.4 280.997 311.76C280.997 308.11 278.047 305.15 274.397 305.15C270.747 305.15 267.787 308.11 267.787 311.76Z" fill="#1172B5"/>
<path d="M294.787 306.98C296.037 310.41 294.277 314.2 290.847 315.45C287.417 316.7 283.627 314.94 282.377 311.51C281.127 308.08 282.897 304.29 286.317 303.04C289.747 301.79 293.537 303.55 294.787 306.98Z" fill="#1172B5"/>
<path d="M306.107 297.77C308.457 300.56 308.107 304.73 305.317 307.08C302.517 309.43 298.357 309.07 296.007 306.28C293.657 303.49 294.007 299.32 296.807 296.97C299.597 294.62 303.757 294.98 306.107 297.77Z" fill="#1172B5"/>
<path d="M313.587 285.24C316.747 287.05 317.837 291.09 316.027 294.26C314.207 297.42 310.177 298.51 307.007 296.7C303.847 294.88 302.747 290.84 304.567 287.68C306.387 284.52 310.417 283.42 313.587 285.24Z" fill="#1172B5"/>
<path d="M316.307 270.9C319.907 271.52 322.317 274.94 321.697 278.53C321.077 282.13 317.657 284.54 314.057 283.92C310.467 283.3 308.057 279.88 308.677 276.28C309.297 272.69 312.717 270.28 316.307 270.9Z" fill="#1172B5"/>
<rect width="45" height="2" transform="matrix(-0.353476 0.935444 0.935444 0.353476 274.969 269.293)" fill="#1171B5"/>
<rect width="44.1335" height="2" transform="matrix(-0.638102 0.769952 0.769952 0.638102 274.162 270.667)" fill="#1171B5"/>
<rect width="44.0107" height="2" transform="matrix(-0.865166 0.501485 0.501485 0.865166 275.077 269.496)" fill="#1171B5"/>
<rect width="45" height="2" transform="matrix(-0.982273 0.187457 0.187457 0.982273 275.202 269)" fill="#1171B5"/>
<path d="M253.997 306.98C252.747 310.41 254.517 314.2 257.937 315.45C261.367 316.7 265.157 314.94 266.407 311.51C267.657 308.08 265.897 304.29 262.467 303.04C259.037 301.79 255.247 303.55 253.997 306.98Z" fill="#1172B5"/>
<path d="M242.677 297.77C240.327 300.56 240.687 304.73 243.477 307.08C246.267 309.43 250.437 309.07 252.787 306.28C255.137 303.49 254.777 299.32 251.987 296.97C249.197 294.62 245.027 294.98 242.677 297.77Z" fill="#1172B5"/>
<path d="M235.207 285.24C232.037 287.05 230.947 291.09 232.767 294.26C234.577 297.42 238.617 298.51 241.777 296.7C244.947 294.88 246.037 290.84 244.227 287.68C242.407 284.52 238.367 283.42 235.207 285.24Z" fill="#1172B5"/>
<path d="M232.477 270.9C228.887 271.52 226.477 274.94 227.097 278.53C227.717 282.13 231.137 284.54 234.727 283.92C238.327 283.3 240.737 279.88 240.117 276.28C239.497 272.69 236.077 270.28 232.477 270.9Z" fill="#1172B5"/>
<rect width="111" height="2" transform="matrix(-1 0 0 1 249.36 177)" fill="#1171B5"/>
<rect x="182.432" y="177.953" width="44.3218" height="2" transform="rotate(159.3 182.432 177.953)" fill="#1171B5"/>
<rect x="181.939" y="178.317" width="44.4529" height="2" transform="rotate(140.35 181.939 178.317)" fill="#1171B5"/>
<rect x="182.802" y="177.713" width="43.8877" height="2" transform="rotate(120.098 182.802 177.713)" fill="#1171B5"/>
<rect x="183.36" y="177.48" width="45" height="2" transform="rotate(100.804 183.36 177.48)" fill="#1171B5"/>
<path d="M140.6 170.787C136.96 170.787 134 173.747 134 177.397C134 181.047 136.96 183.997 140.6 183.997C144.25 183.997 147.21 181.047 147.21 177.397C147.21 173.747 144.25 170.787 140.6 170.787Z" fill="#1172B5"/>
<path d="M145.38 197.787C141.95 199.037 138.16 197.277 136.91 193.847C135.66 190.417 137.42 186.627 140.85 185.377C144.28 184.127 148.07 185.897 149.32 189.317C150.57 192.747 148.81 196.537 145.38 197.787Z" fill="#1172B5"/>
<path d="M154.59 209.107C151.8 211.457 147.63 211.107 145.28 208.317C142.93 205.517 143.29 201.357 146.08 199.007C148.87 196.657 153.04 197.007 155.39 199.807C157.74 202.597 157.38 206.757 154.59 209.107Z" fill="#1172B5"/>
<path d="M167.12 216.587C165.31 219.747 161.27 220.837 158.1 219.027C154.94 217.207 153.85 213.177 155.66 210.007C157.48 206.847 161.52 205.747 164.68 207.567C167.84 209.387 168.94 213.417 167.12 216.587Z" fill="#1172B5"/>
<path d="M181.46 219.307C180.84 222.907 177.42 225.317 173.83 224.697C170.23 224.077 167.82 220.657 168.44 217.057C169.06 213.467 172.48 211.057 176.08 211.677C179.67 212.297 182.08 215.717 181.46 219.307Z" fill="#1172B5"/>
<rect width="45" height="2" transform="matrix(-0.935444 -0.353476 -0.353476 0.935444 183.067 177.969)" fill="#1171B5"/>
<rect width="44.1335" height="2" transform="matrix(-0.769952 -0.638102 -0.638102 0.769952 181.693 177.162)" fill="#1171B5"/>
<rect width="44.0107" height="2" transform="matrix(-0.501485 -0.865166 -0.865166 0.501485 182.864 178.077)" fill="#1171B5"/>
<rect width="45" height="2" transform="matrix(-0.187457 -0.982273 -0.982273 0.187457 183.36 178.202)" fill="#1171B5"/>
<path d="M145.38 156.997C141.95 155.747 138.16 157.517 136.91 160.937C135.66 164.367 137.42 168.157 140.85 169.407C144.28 170.657 148.07 168.897 149.32 165.467C150.57 162.037 148.81 158.247 145.38 156.997Z" fill="#1172B5"/>
<path d="M154.59 145.677C151.8 143.327 147.63 143.687 145.28 146.477C142.93 149.267 143.29 153.437 146.08 155.787C148.87 158.137 153.04 157.777 155.39 154.987C157.74 152.197 157.38 148.027 154.59 145.677Z" fill="#1172B5"/>
<path d="M167.12 138.207C165.31 135.037 161.27 133.947 158.1 135.767C154.94 137.577 153.85 141.617 155.66 144.777C157.48 147.947 161.52 149.037 164.68 147.227C167.84 145.407 168.94 141.367 167.12 138.207Z" fill="#1172B5"/>
<path d="M181.46 135.477C180.84 131.887 177.42 129.477 173.83 130.097C170.23 130.717 167.82 134.137 168.44 137.727C169.06 141.327 172.48 143.737 176.08 143.117C179.67 142.497 182.08 139.077 181.46 135.477Z" fill="#1172B5"/>
</svg>
