<svg xmlns="http://www.w3.org/2000/svg" viewBox="0 0 550 355" width="550" height="355">
	<path fill="#1172b5" d="M75.26 71.76C75.26 61.54 83.54 53.26 93.76 53.26C103.97 53.26 112.25 61.54 112.25 71.76C112.25 81.97 103.97 90.25 93.76 90.25C83.54 90.25 75.26 81.97 75.26 71.76ZM212 71.76C212 61.54 220.28 53.26 230.49 53.26C240.71 53.26 248.99 61.54 248.99 71.76C248.99 81.97 240.71 90.25 230.49 90.25C220.28 90.25 212 81.97 212 71.76ZM345.43 205.19C345.43 194.98 353.71 186.69 363.92 186.69C374.14 186.69 382.42 194.98 382.42 205.19C382.42 215.4 374.14 223.69 363.92 223.69C353.71 223.69 345.43 215.4 345.43 205.19ZM345.43 71.43C345.43 61.21 353.71 52.93 363.92 52.93C374.14 52.93 382.42 61.21 382.42 71.43C382.42 81.64 374.14 89.92 363.92 89.92C353.71 89.92 345.43 81.64 345.43 71.43ZM147.92 144.42C147.92 134.2 156.2 125.92 166.42 125.92C176.63 125.92 184.91 134.2 184.91 144.42C184.91 154.63 176.63 162.91 166.42 162.91C156.2 162.91 147.92 154.63 147.92 144.42ZM438.57 144.42C438.57 134.2 446.85 125.92 457.06 125.92C467.28 125.92 475.56 134.2 475.56 144.42C475.56 154.63 467.28 162.91 457.06 162.91C446.85 162.91 438.57 154.63 438.57 144.42ZM147.92 282.47C147.92 272.26 156.2 263.98 166.42 263.98C176.63 263.98 184.91 272.26 184.91 282.47C184.91 292.69 176.63 300.97 166.42 300.97C156.2 300.97 147.92 292.69 147.92 282.47Z" />
	<path fill="none" stroke="#1172b5" stroke-width="1.7" d="M457.06 144.42C457.06 144.42 365.41 70.77 363.92 71.43C362.44 72.09 364.75 208.82 364.75 208.82L230.49 71.76L163.94 145.41L93.76 71.76L166.42 282.47M166.42 144.42L166.42 282.47L364.75 208.82L458.55 147.39" />
</svg>
