<svg width="110" height="74" viewBox="0 0 110 74" fill="none" xmlns="http://www.w3.org/2000/svg">
<rect x="58.5" y="38.5" width="51" height="35" fill="#F2F2F2" stroke="black"/>
<path d="M84.6078 68.4864L83.1445 68.2266V69.2658L84.9737 69.5256L86.0712 68.7462L84.6078 68.4864Z" fill="#0170B7" stroke="black" stroke-width="0.3"/>
<path d="M66.7579 69.7117L65.8172 69.5312L65.582 70.4333H66.9931V70.0725L66.7579 69.7117Z" fill="#0170B7" stroke="black" stroke-width="0.3"/>
<path d="M68.5166 63.5391L68.3077 62.4985L67.4036 61.7338L67.1657 63.7542L67.7024 64.8253L68.5166 63.5391Z" fill="#0170B7" stroke="black" stroke-width="0.3"/>
<path d="M97.4248 65.8946L97.8093 64.3165L97.031 62.7703L95.3752 65.5033L95.4341 67.2932L97.4248 65.8946Z" fill="#0170B7" stroke="black" stroke-width="0.3"/>
<path d="M77.2894 68.2266L78.3869 67.0087L79.4844 64.9791H77.2894L75.0944 67.0087L77.2894 68.2266Z" fill="#0170B7" stroke="black" stroke-width="0.3"/>
<path d="M72.6383 66.9297L72.4031 67.2003L72.168 67.6514H72.6383L73.1087 67.2003L72.6383 66.9297Z" fill="#0170B7" stroke="black" stroke-width="0.3"/>
<path d="M100.305 59.4785L99.5025 59.9919L98.5073 60.9614L99.5351 61.3032L101.044 60.5045L100.305 59.4785Z" fill="#0170B7" stroke="black" stroke-width="0.3"/>
<path d="M74.6621 44.9697C74.583 45.6465 74.3325 46.1694 73.9106 46.5386C73.4917 46.9048 72.9336 47.0879 72.2363 47.0879C71.4805 47.0879 70.874 46.8169 70.417 46.2749C69.9629 45.7329 69.7358 45.0078 69.7358 44.0996V43.4844C69.7358 42.8896 69.8413 42.3667 70.0522 41.9155C70.2661 41.4644 70.5679 41.1187 70.9575 40.8784C71.3472 40.6353 71.7983 40.5137 72.311 40.5137C72.9907 40.5137 73.5356 40.7041 73.9458 41.085C74.356 41.4629 74.5947 41.9873 74.6621 42.6582H73.814C73.7407 42.1484 73.5811 41.7793 73.335 41.5508C73.0918 41.3223 72.7505 41.208 72.311 41.208C71.772 41.208 71.3486 41.4072 71.041 41.8057C70.7363 42.2041 70.584 42.771 70.584 43.5063V44.126C70.584 44.8203 70.729 45.3726 71.019 45.7827C71.3091 46.1929 71.7148 46.3979 72.2363 46.3979C72.7051 46.3979 73.064 46.2925 73.313 46.0815C73.5649 45.8677 73.7319 45.4971 73.814 44.9697H74.6621ZM78.7199 47C78.673 46.9062 78.6349 46.7393 78.6056 46.499C78.2277 46.8916 77.7765 47.0879 77.2521 47.0879C76.7834 47.0879 76.3981 46.9561 76.0964 46.6924C75.7975 46.4258 75.6481 46.0889 75.6481 45.6816C75.6481 45.1865 75.8356 44.8027 76.2106 44.5303C76.5885 44.2549 77.1188 44.1172 77.8014 44.1172H78.5924V43.7437C78.5924 43.4595 78.5075 43.2339 78.3376 43.0669C78.1676 42.897 77.9172 42.812 77.5861 42.812C77.2961 42.812 77.0529 42.8853 76.8566 43.0317C76.6603 43.1782 76.5622 43.3555 76.5622 43.5635H75.7448C75.7448 43.3262 75.8283 43.0977 75.9953 42.8779C76.1652 42.6553 76.3937 42.4795 76.6808 42.3506C76.9709 42.2217 77.2887 42.1572 77.6344 42.1572C78.1823 42.1572 78.6115 42.2949 78.922 42.5703C79.2326 42.8428 79.3937 43.2192 79.4054 43.6997V45.8882C79.4054 46.3247 79.4611 46.6719 79.5724 46.9297V47H78.7199ZM77.3708 46.3804C77.6257 46.3804 77.8673 46.3145 78.0959 46.1826C78.3244 46.0508 78.4899 45.8794 78.5924 45.6685V44.6929H77.9552C76.9591 44.6929 76.4611 44.9844 76.4611 45.5674C76.4611 45.8223 76.5461 46.0215 76.716 46.165C76.8859 46.3086 77.1042 46.3804 77.3708 46.3804ZM81.5428 42.2451L81.5692 42.8428C81.9325 42.3857 82.4071 42.1572 82.993 42.1572C83.9979 42.1572 84.5047 42.7241 84.5135 43.8579V47H83.7005V43.8535C83.6976 43.5107 83.6185 43.2573 83.4632 43.0933C83.3109 42.9292 83.0721 42.8472 82.7469 42.8472C82.4832 42.8472 82.2518 42.9175 82.0526 43.0581C81.8534 43.1987 81.6981 43.3833 81.5868 43.6118V47H80.7738V42.2451H81.5428ZM88.769 47C88.7222 46.9062 88.6841 46.7393 88.6548 46.499C88.2769 46.8916 87.8257 47.0879 87.3013 47.0879C86.8325 47.0879 86.4473 46.9561 86.1455 46.6924C85.8467 46.4258 85.6973 46.0889 85.6973 45.6816C85.6973 45.1865 85.8848 44.8027 86.2598 44.5303C86.6377 44.2549 87.168 44.1172 87.8506 44.1172H88.6416V43.7437C88.6416 43.4595 88.5566 43.2339 88.3867 43.0669C88.2168 42.897 87.9663 42.812 87.6353 42.812C87.3452 42.812 87.1021 42.8853 86.9058 43.0317C86.7095 43.1782 86.6113 43.3555 86.6113 43.5635H85.7939C85.7939 43.3262 85.8774 43.0977 86.0444 42.8779C86.2144 42.6553 86.4429 42.4795 86.73 42.3506C87.02 42.2217 87.3379 42.1572 87.6836 42.1572C88.2314 42.1572 88.6606 42.2949 88.9712 42.5703C89.2817 42.8428 89.4429 43.2192 89.4546 43.6997V45.8882C89.4546 46.3247 89.5103 46.6719 89.6216 46.9297V47H88.769ZM87.4199 46.3804C87.6748 46.3804 87.9165 46.3145 88.145 46.1826C88.3735 46.0508 88.5391 45.8794 88.6416 45.6685V44.6929H88.0044C87.0083 44.6929 86.5103 44.9844 86.5103 45.5674C86.5103 45.8223 86.5952 46.0215 86.7651 46.165C86.9351 46.3086 87.1533 46.3804 87.4199 46.3804ZM93.1213 42.9746C92.9982 42.9541 92.8649 42.9438 92.7214 42.9438C92.1882 42.9438 91.8263 43.1709 91.6359 43.625V47H90.8229V42.2451H91.6139L91.6271 42.7944C91.8937 42.3696 92.2716 42.1572 92.7609 42.1572C92.9191 42.1572 93.0392 42.1777 93.1213 42.2188V42.9746ZM95.6014 45.8091L96.7088 42.2451H97.5789L95.6673 47.7339C95.3714 48.5249 94.9012 48.9204 94.2567 48.9204L94.1029 48.9072L93.7996 48.8501V48.1909L94.0194 48.2085C94.2948 48.2085 94.5086 48.1528 94.661 48.0415C94.8162 47.9302 94.9437 47.7266 95.0433 47.4307L95.2235 46.9473L93.5272 42.2451H94.4149L95.6014 45.8091ZM70.3876 56H69.5439V49.6016H70.3876V56ZM74.6695 54.7388C74.6695 54.519 74.586 54.3491 74.419 54.229C74.255 54.106 73.9664 54.0005 73.5533 53.9126C73.1431 53.8247 72.8165 53.7192 72.5733 53.5962C72.3331 53.4731 72.1544 53.3267 72.0372 53.1567C71.9229 52.9868 71.8658 52.7847 71.8658 52.5503C71.8658 52.1606 72.0299 51.8311 72.358 51.5615C72.689 51.292 73.1109 51.1572 73.6236 51.1572C74.1627 51.1572 74.5992 51.2964 74.9332 51.5747C75.2701 51.853 75.4386 52.209 75.4386 52.6426H74.6212C74.6212 52.4199 74.526 52.228 74.3355 52.0669C74.148 51.9058 73.9107 51.8252 73.6236 51.8252C73.3277 51.8252 73.0963 51.8896 72.9293 52.0186C72.7623 52.1475 72.6788 52.3159 72.6788 52.5239C72.6788 52.7202 72.7564 52.8682 72.9117 52.9678C73.067 53.0674 73.3468 53.1626 73.7511 53.2534C74.1583 53.3442 74.4879 53.4526 74.7398 53.5786C74.9918 53.7046 75.1778 53.8569 75.2979 54.0356C75.421 54.2114 75.4825 54.4268 75.4825 54.6816C75.4825 55.1064 75.3126 55.4478 74.9727 55.7056C74.6329 55.9604 74.192 56.0879 73.65 56.0879C73.2691 56.0879 72.9322 56.0205 72.6392 55.8857C72.3463 55.751 72.1163 55.5635 71.9493 55.3232C71.7852 55.0801 71.7032 54.8179 71.7032 54.5366H72.5162C72.5308 54.8091 72.6392 55.0259 72.8414 55.187C73.0465 55.3452 73.316 55.4243 73.65 55.4243C73.9576 55.4243 74.2037 55.3628 74.3883 55.2397C74.5758 55.1138 74.6695 54.9468 74.6695 54.7388ZM77.5188 56H76.7058V49.25H77.5188V56ZM81.8534 56C81.8066 55.9062 81.7685 55.7393 81.7392 55.499C81.3612 55.8916 80.9101 56.0879 80.3857 56.0879C79.9169 56.0879 79.5317 55.9561 79.2299 55.6924C78.9311 55.4258 78.7817 55.0889 78.7817 54.6816C78.7817 54.1865 78.9692 53.8027 79.3442 53.5303C79.7221 53.2549 80.2524 53.1172 80.935 53.1172H81.726V52.7437C81.726 52.4595 81.641 52.2339 81.4711 52.0669C81.3012 51.897 81.0507 51.812 80.7196 51.812C80.4296 51.812 80.1864 51.8853 79.9902 52.0317C79.7939 52.1782 79.6957 52.3555 79.6957 52.5635H78.8783C78.8783 52.3262 78.9618 52.0977 79.1288 51.8779C79.2987 51.6553 79.5273 51.4795 79.8144 51.3506C80.1044 51.2217 80.4223 51.1572 80.768 51.1572C81.3158 51.1572 81.745 51.2949 82.0556 51.5703C82.3661 51.8428 82.5273 52.2192 82.539 52.6997V54.8882C82.539 55.3247 82.5946 55.6719 82.706 55.9297V56H81.8534ZM80.5043 55.3804C80.7592 55.3804 81.0009 55.3145 81.2294 55.1826C81.4579 55.0508 81.6235 54.8794 81.726 54.6685V53.6929H81.0888C80.0927 53.6929 79.5946 53.9844 79.5946 54.5674C79.5946 54.8223 79.6796 55.0215 79.8495 55.165C80.0195 55.3086 80.2377 55.3804 80.5043 55.3804ZM84.6764 51.2451L84.7027 51.8428C85.066 51.3857 85.5406 51.1572 86.1265 51.1572C87.1314 51.1572 87.6383 51.7241 87.6471 52.8579V56H86.8341V52.8535C86.8311 52.5107 86.752 52.2573 86.5968 52.0933C86.4444 51.9292 86.2056 51.8472 85.8805 51.8472C85.6168 51.8472 85.3853 51.9175 85.1861 52.0581C84.9869 52.1987 84.8316 52.3833 84.7203 52.6118V56H83.9073V51.2451H84.6764ZM88.7693 53.583C88.7693 52.8535 88.9421 52.2676 89.2878 51.8252C89.6335 51.3799 90.0862 51.1572 90.6458 51.1572C91.2024 51.1572 91.6433 51.3477 91.9685 51.7285V49.25H92.7815V56H92.0344L91.9949 55.4902C91.6697 55.8887 91.217 56.0879 90.637 56.0879C90.0862 56.0879 89.6365 55.8623 89.2878 55.4111C88.9421 54.96 88.7693 54.3711 88.7693 53.6445V53.583ZM89.5823 53.6753C89.5823 54.2144 89.6936 54.6362 89.9163 54.9409C90.1389 55.2456 90.4465 55.3979 90.8391 55.3979C91.3547 55.3979 91.7312 55.1665 91.9685 54.7036V52.5195C91.7253 52.0713 91.3518 51.8472 90.8479 51.8472C90.4495 51.8472 90.1389 52.001 89.9163 52.3086C89.6936 52.6162 89.5823 53.0718 89.5823 53.6753ZM96.9096 54.7388C96.9096 54.519 96.8261 54.3491 96.6591 54.229C96.495 54.106 96.2065 54.0005 95.7934 53.9126C95.3832 53.8247 95.0566 53.7192 94.8134 53.5962C94.5732 53.4731 94.3945 53.3267 94.2773 53.1567C94.163 52.9868 94.1059 52.7847 94.1059 52.5503C94.1059 52.1606 94.2699 51.8311 94.5981 51.5615C94.9291 51.292 95.351 51.1572 95.8637 51.1572C96.4028 51.1572 96.8393 51.2964 97.1733 51.5747C97.5102 51.853 97.6786 52.209 97.6786 52.6426H96.8612C96.8612 52.4199 96.766 52.228 96.5756 52.0669C96.3881 51.9058 96.1508 51.8252 95.8637 51.8252C95.5678 51.8252 95.3363 51.8896 95.1694 52.0186C95.0024 52.1475 94.9189 52.3159 94.9189 52.5239C94.9189 52.7202 94.9965 52.8682 95.1518 52.9678C95.307 53.0674 95.5868 53.1626 95.9911 53.2534C96.3984 53.3442 96.7279 53.4526 96.9799 53.5786C97.2319 53.7046 97.4179 53.8569 97.538 54.0356C97.6611 54.2114 97.7226 54.4268 97.7226 54.6816C97.7226 55.1064 97.5527 55.4478 97.2128 55.7056C96.873 55.9604 96.432 56.0879 95.8901 56.0879C95.5092 56.0879 95.1723 56.0205 94.8793 55.8857C94.5863 55.751 94.3564 55.5635 94.1894 55.3232C94.0253 55.0801 93.9433 54.8179 93.9433 54.5366H94.7563C94.7709 54.8091 94.8793 55.0259 95.0815 55.187C95.2865 55.3452 95.5561 55.4243 95.8901 55.4243C96.1977 55.4243 96.4438 55.3628 96.6283 55.2397C96.8158 55.1138 96.9096 54.9468 96.9096 54.7388Z" fill="black"/>
<rect x="0.5" y="38.5" width="51" height="35" fill="#F2F2F2" stroke="black"/>
<path d="M26.6078 68.4864L25.1445 68.2266V69.2658L26.9737 69.5256L28.0712 68.7462L26.6078 68.4864Z" fill="#0170B7" stroke="black" stroke-width="0.3"/>
<path d="M8.75791 69.7117L7.81721 69.5312L7.58203 70.4333H8.99308V70.0725L8.75791 69.7117Z" fill="#0170B7" stroke="black" stroke-width="0.3"/>
<path d="M10.5166 63.5391L10.3077 62.4985L9.40358 61.7338L9.16573 63.7542L9.70243 64.8253L10.5166 63.5391Z" fill="#0170B7" stroke="black" stroke-width="0.3"/>
<path d="M39.4248 65.8946L39.8093 64.3165L39.031 62.7703L37.3752 65.5033L37.4341 67.2932L39.4248 65.8946Z" fill="#0170B7" stroke="black" stroke-width="0.3"/>
<path d="M19.2894 68.2266L20.3869 67.0087L21.4844 64.9791H19.2894L17.0944 67.0087L19.2894 68.2266Z" fill="#0170B7" stroke="black" stroke-width="0.3"/>
<path d="M14.6383 66.9297L14.4031 67.2003L14.168 67.6514H14.6383L15.1087 67.2003L14.6383 66.9297Z" fill="#0170B7" stroke="black" stroke-width="0.3"/>
<path d="M42.3051 59.4785L41.5025 59.9919L40.5073 60.9614L41.5351 61.3032L43.0441 60.5045L42.3051 59.4785Z" fill="#0170B7" stroke="black" stroke-width="0.3"/>
<path d="M10.7221 40.6016L12.8139 45.8223L14.9057 40.6016H15.9999V47H15.1562V44.5083L15.2353 41.8188L13.1347 47H12.4887L10.3925 41.832L10.476 44.5083V47H9.63224V40.6016H10.7221ZM20.3917 47C20.3448 46.9062 20.3067 46.7393 20.2774 46.499C19.8995 46.8916 19.4483 47.0879 18.9239 47.0879C18.4552 47.0879 18.0699 46.9561 17.7681 46.6924C17.4693 46.4258 17.3199 46.0889 17.3199 45.6816C17.3199 45.1865 17.5074 44.8027 17.8824 44.5303C18.2603 44.2549 18.7906 44.1172 19.4732 44.1172H20.2642V43.7437C20.2642 43.4595 20.1793 43.2339 20.0094 43.0669C19.8394 42.897 19.5889 42.812 19.2579 42.812C18.9679 42.812 18.7247 42.8853 18.5284 43.0317C18.3321 43.1782 18.234 43.3555 18.234 43.5635H17.4166C17.4166 43.3262 17.5001 43.0977 17.6671 42.8779C17.837 42.6553 18.0655 42.4795 18.3526 42.3506C18.6427 42.2217 18.9605 42.1572 19.3062 42.1572C19.8541 42.1572 20.2833 42.2949 20.5938 42.5703C20.9044 42.8428 21.0655 43.2192 21.0772 43.6997V45.8882C21.0772 46.3247 21.1329 46.6719 21.2442 46.9297V47H20.3917ZM19.0426 46.3804C19.2974 46.3804 19.5391 46.3145 19.7677 46.1826C19.9962 46.0508 20.1617 45.8794 20.2642 45.6685V44.6929H19.627C18.6309 44.6929 18.1329 44.9844 18.1329 45.5674C18.1329 45.8223 18.2179 46.0215 18.3878 46.165C18.5577 46.3086 18.776 46.3804 19.0426 46.3804ZM22.2478 44.583C22.2478 43.8535 22.4207 43.2676 22.7664 42.8252C23.1121 42.3799 23.5647 42.1572 24.1243 42.1572C24.6809 42.1572 25.1218 42.3477 25.447 42.7285V40.25H26.26V47H25.5129L25.4734 46.4902C25.1482 46.8887 24.6956 47.0879 24.1155 47.0879C23.5647 47.0879 23.115 46.8623 22.7664 46.4111C22.4207 45.96 22.2478 45.3711 22.2478 44.6445V44.583ZM23.0608 44.6753C23.0608 45.2144 23.1721 45.6362 23.3948 45.9409C23.6174 46.2456 23.925 46.3979 24.3176 46.3979C24.8333 46.3979 25.2097 46.1665 25.447 45.7036V43.5195C25.2039 43.0713 24.8303 42.8472 24.3264 42.8472C23.928 42.8472 23.6174 43.001 23.3948 43.3086C23.1721 43.6162 23.0608 44.0718 23.0608 44.6753ZM29.5927 47.0879C28.9482 47.0879 28.4237 46.877 28.0194 46.4551C27.6152 46.0303 27.413 45.4634 27.413 44.7544V44.605C27.413 44.1333 27.5024 43.7129 27.6811 43.3438C27.8627 42.9717 28.1147 42.6816 28.4369 42.4736C28.7621 42.2627 29.1137 42.1572 29.4916 42.1572C30.1098 42.1572 30.5903 42.3608 30.933 42.7681C31.2758 43.1753 31.4472 43.7583 31.4472 44.5171V44.8555H28.226C28.2377 45.3242 28.3739 45.7036 28.6347 45.9937C28.8984 46.2808 29.2323 46.4243 29.6366 46.4243C29.9237 46.4243 30.1669 46.3657 30.3661 46.2485C30.5653 46.1313 30.7397 45.9761 30.8891 45.7827L31.3857 46.1694C30.9872 46.7817 30.3896 47.0879 29.5927 47.0879ZM29.4916 42.8252C29.1635 42.8252 28.8881 42.9453 28.6654 43.1855C28.4428 43.4229 28.3051 43.7568 28.2524 44.1875H30.6342V44.126C30.6108 43.7129 30.4994 43.3936 30.3002 43.168C30.101 42.9395 29.8315 42.8252 29.4916 42.8252ZM33.3692 47H32.5562V42.2451H33.3692V47ZM32.4903 40.9839C32.4903 40.8521 32.5299 40.7407 32.609 40.6499C32.691 40.5591 32.8111 40.5137 32.9693 40.5137C33.1275 40.5137 33.2476 40.5591 33.3297 40.6499C33.4117 40.7407 33.4527 40.8521 33.4527 40.9839C33.4527 41.1157 33.4117 41.2256 33.3297 41.3135C33.2476 41.4014 33.1275 41.4453 32.9693 41.4453C32.8111 41.4453 32.691 41.4014 32.609 41.3135C32.5299 41.2256 32.4903 41.1157 32.4903 40.9839ZM37.0667 42.9746C36.9436 42.9541 36.8103 42.9438 36.6667 42.9438C36.1335 42.9438 35.7717 43.1709 35.5813 43.625V47H34.7683V42.2451H35.5593L35.5725 42.7944C35.8391 42.3696 36.217 42.1572 36.7063 42.1572C36.8645 42.1572 36.9846 42.1777 37.0667 42.2188V42.9746ZM40.6718 47C40.6249 46.9062 40.5868 46.7393 40.5575 46.499C40.1796 46.8916 39.7284 47.0879 39.204 47.0879C38.7353 47.0879 38.35 46.9561 38.0483 46.6924C37.7494 46.4258 37.6 46.0889 37.6 45.6816C37.6 45.1865 37.7875 44.8027 38.1625 44.5303C38.5404 44.2549 39.0707 44.1172 39.7533 44.1172H40.5444V43.7437C40.5444 43.4595 40.4594 43.2339 40.2895 43.0669C40.1195 42.897 39.8691 42.812 39.538 42.812C39.248 42.812 39.0048 42.8853 38.8085 43.0317C38.6122 43.1782 38.5141 43.3555 38.5141 43.5635H37.6967C37.6967 43.3262 37.7802 43.0977 37.9472 42.8779C38.1171 42.6553 38.3456 42.4795 38.6327 42.3506C38.9228 42.2217 39.2406 42.1572 39.5863 42.1572C40.1342 42.1572 40.5634 42.2949 40.8739 42.5703C41.1845 42.8428 41.3456 43.2192 41.3573 43.6997V45.8882C41.3573 46.3247 41.413 46.6719 41.5243 46.9297V47H40.6718ZM39.3227 46.3804C39.5776 46.3804 39.8193 46.3145 40.0478 46.1826C40.2763 46.0508 40.4418 45.8794 40.5444 45.6685V44.6929H39.9071C38.9111 44.6929 38.413 44.9844 38.413 45.5674C38.413 45.8223 38.498 46.0215 38.6679 46.165C38.8378 46.3086 39.0561 46.3804 39.3227 46.3804ZM12.3876 56H11.5439V49.6016H12.3876V56ZM16.6695 54.7388C16.6695 54.519 16.586 54.3491 16.419 54.229C16.255 54.106 15.9664 54.0005 15.5533 53.9126C15.1431 53.8247 14.8165 53.7192 14.5733 53.5962C14.3331 53.4731 14.1544 53.3267 14.0372 53.1567C13.9229 52.9868 13.8658 52.7847 13.8658 52.5503C13.8658 52.1606 14.0299 51.8311 14.358 51.5615C14.689 51.292 15.1109 51.1572 15.6236 51.1572C16.1627 51.1572 16.5992 51.2964 16.9332 51.5747C17.2701 51.853 17.4386 52.209 17.4386 52.6426H16.6212C16.6212 52.4199 16.526 52.228 16.3355 52.0669C16.148 51.9058 15.9107 51.8252 15.6236 51.8252C15.3277 51.8252 15.0963 51.8896 14.9293 52.0186C14.7623 52.1475 14.6788 52.3159 14.6788 52.5239C14.6788 52.7202 14.7564 52.8682 14.9117 52.9678C15.067 53.0674 15.3468 53.1626 15.7511 53.2534C16.1583 53.3442 16.4879 53.4526 16.7398 53.5786C16.9918 53.7046 17.1778 53.8569 17.2979 54.0356C17.421 54.2114 17.4825 54.4268 17.4825 54.6816C17.4825 55.1064 17.3126 55.4478 16.9727 55.7056C16.6329 55.9604 16.192 56.0879 15.65 56.0879C15.2691 56.0879 14.9322 56.0205 14.6392 55.8857C14.3463 55.751 14.1163 55.5635 13.9493 55.3232C13.7852 55.0801 13.7032 54.8179 13.7032 54.5366H14.5162C14.5308 54.8091 14.6392 55.0259 14.8414 55.187C15.0465 55.3452 15.316 55.4243 15.65 55.4243C15.9576 55.4243 16.2037 55.3628 16.3883 55.2397C16.5758 55.1138 16.6695 54.9468 16.6695 54.7388ZM19.5188 56H18.7058V49.25H19.5188V56ZM23.8534 56C23.8066 55.9062 23.7685 55.7393 23.7392 55.499C23.3612 55.8916 22.9101 56.0879 22.3857 56.0879C21.9169 56.0879 21.5317 55.9561 21.2299 55.6924C20.9311 55.4258 20.7817 55.0889 20.7817 54.6816C20.7817 54.1865 20.9692 53.8027 21.3442 53.5303C21.7221 53.2549 22.2524 53.1172 22.935 53.1172H23.726V52.7437C23.726 52.4595 23.641 52.2339 23.4711 52.0669C23.3012 51.897 23.0507 51.812 22.7196 51.812C22.4296 51.812 22.1864 51.8853 21.9902 52.0317C21.7939 52.1782 21.6957 52.3555 21.6957 52.5635H20.8783C20.8783 52.3262 20.9618 52.0977 21.1288 51.8779C21.2987 51.6553 21.5273 51.4795 21.8144 51.3506C22.1044 51.2217 22.4223 51.1572 22.768 51.1572C23.3158 51.1572 23.745 51.2949 24.0556 51.5703C24.3661 51.8428 24.5273 52.2192 24.539 52.6997V54.8882C24.539 55.3247 24.5946 55.6719 24.706 55.9297V56H23.8534ZM22.5043 55.3804C22.7592 55.3804 23.0009 55.3145 23.2294 55.1826C23.4579 55.0508 23.6235 54.8794 23.726 54.6685V53.6929H23.0888C22.0927 53.6929 21.5946 53.9844 21.5946 54.5674C21.5946 54.8223 21.6796 55.0215 21.8495 55.165C22.0195 55.3086 22.2377 55.3804 22.5043 55.3804ZM26.6764 51.2451L26.7027 51.8428C27.066 51.3857 27.5406 51.1572 28.1265 51.1572C29.1314 51.1572 29.6383 51.7241 29.6471 52.8579V56H28.8341V52.8535C28.8311 52.5107 28.752 52.2573 28.5968 52.0933C28.4444 51.9292 28.2056 51.8472 27.8805 51.8472C27.6168 51.8472 27.3853 51.9175 27.1861 52.0581C26.9869 52.1987 26.8316 52.3833 26.7203 52.6118V56H25.9073V51.2451H26.6764ZM30.7693 53.583C30.7693 52.8535 30.9421 52.2676 31.2878 51.8252C31.6335 51.3799 32.0862 51.1572 32.6458 51.1572C33.2024 51.1572 33.6433 51.3477 33.9685 51.7285V49.25H34.7815V56H34.0344L33.9949 55.4902C33.6697 55.8887 33.217 56.0879 32.637 56.0879C32.0862 56.0879 31.6365 55.8623 31.2878 55.4111C30.9421 54.96 30.7693 54.3711 30.7693 53.6445V53.583ZM31.5823 53.6753C31.5823 54.2144 31.6936 54.6362 31.9163 54.9409C32.1389 55.2456 32.4465 55.3979 32.8391 55.3979C33.3547 55.3979 33.7312 55.1665 33.9685 54.7036V52.5195C33.7253 52.0713 33.3518 51.8472 32.8479 51.8472C32.4495 51.8472 32.1389 52.001 31.9163 52.3086C31.6936 52.6162 31.5823 53.0718 31.5823 53.6753ZM38.9096 54.7388C38.9096 54.519 38.8261 54.3491 38.6591 54.229C38.495 54.106 38.2065 54.0005 37.7934 53.9126C37.3832 53.8247 37.0566 53.7192 36.8134 53.5962C36.5732 53.4731 36.3945 53.3267 36.2773 53.1567C36.163 52.9868 36.1059 52.7847 36.1059 52.5503C36.1059 52.1606 36.2699 51.8311 36.5981 51.5615C36.9291 51.292 37.351 51.1572 37.8637 51.1572C38.4028 51.1572 38.8393 51.2964 39.1733 51.5747C39.5102 51.853 39.6786 52.209 39.6786 52.6426H38.8612C38.8612 52.4199 38.766 52.228 38.5756 52.0669C38.3881 51.9058 38.1508 51.8252 37.8637 51.8252C37.5678 51.8252 37.3363 51.8896 37.1694 52.0186C37.0024 52.1475 36.9189 52.3159 36.9189 52.5239C36.9189 52.7202 36.9965 52.8682 37.1518 52.9678C37.307 53.0674 37.5868 53.1626 37.9911 53.2534C38.3984 53.3442 38.7279 53.4526 38.9799 53.5786C39.2319 53.7046 39.4179 53.8569 39.538 54.0356C39.6611 54.2114 39.7226 54.4268 39.7226 54.6816C39.7226 55.1064 39.5527 55.4478 39.2128 55.7056C38.873 55.9604 38.432 56.0879 37.8901 56.0879C37.5092 56.0879 37.1723 56.0205 36.8793 55.8857C36.5863 55.751 36.3564 55.5635 36.1894 55.3232C36.0253 55.0801 35.9433 54.8179 35.9433 54.5366H36.7563C36.7709 54.8091 36.8793 55.0259 37.0815 55.187C37.2865 55.3452 37.5561 55.4243 37.8901 55.4243C38.1977 55.4243 38.4438 55.3628 38.6283 55.2397C38.8158 55.1138 38.9096 54.9468 38.9096 54.7388Z" fill="black"/>
<rect x="29.5" y="0.5" width="51" height="31" fill="#F2F2F2" stroke="black"/>
<path d="M44.2759 8.33008H41.5952L40.9932 10H40.123L42.5664 3.60156H43.3047L45.7524 10H44.8867L44.2759 8.33008ZM41.8501 7.63574H44.0254L42.9355 4.64307L41.8501 7.63574ZM47.3976 9.33643H50.1794V10H46.4045V9.40234L49.028 5.91748H46.444V5.24512H50.0475V5.8208L47.3976 9.33643ZM50.9061 7.57861C50.9061 7.11279 50.9969 6.69385 51.1785 6.32178C51.3631 5.94971 51.618 5.6626 51.9432 5.46045C52.2713 5.2583 52.6449 5.15723 53.0638 5.15723C53.7113 5.15723 54.2342 5.38135 54.6327 5.82959C55.034 6.27783 55.2347 6.87402 55.2347 7.61816V7.67529C55.2347 8.13818 55.1453 8.5542 54.9666 8.92334C54.7909 9.28955 54.5374 9.5752 54.2064 9.78027C53.8783 9.98535 53.5003 10.0879 53.0726 10.0879C52.4281 10.0879 51.9051 9.86377 51.5037 9.41553C51.1053 8.96729 50.9061 8.37402 50.9061 7.63574V7.57861ZM51.7235 7.67529C51.7235 8.20264 51.8451 8.62598 52.0882 8.94531C52.3343 9.26465 52.6624 9.42432 53.0726 9.42432C53.4857 9.42432 53.8138 9.26318 54.057 8.94092C54.3001 8.61572 54.4217 8.16162 54.4217 7.57861C54.4217 7.05713 54.2972 6.63525 54.0482 6.31299C53.8021 5.98779 53.474 5.8252 53.0638 5.8252C52.6624 5.8252 52.3387 5.98486 52.0926 6.3042C51.8465 6.62354 51.7235 7.08057 51.7235 7.67529ZM58.6465 5.97461C58.5234 5.9541 58.3901 5.94385 58.2466 5.94385C57.7134 5.94385 57.3516 6.1709 57.1611 6.625V10H56.3481V5.24512H57.1392L57.1523 5.79443C57.4189 5.36963 57.7969 5.15723 58.2861 5.15723C58.4443 5.15723 58.5645 5.17773 58.6465 5.21875V5.97461ZM61.3771 10.0879C60.7326 10.0879 60.2082 9.87695 59.8039 9.45508C59.3996 9.03027 59.1974 8.46338 59.1974 7.75439V7.60498C59.1974 7.1333 59.2868 6.71289 59.4655 6.34375C59.6471 5.97168 59.8991 5.68164 60.2214 5.47363C60.5466 5.2627 60.8981 5.15723 61.276 5.15723C61.8942 5.15723 62.3747 5.36084 62.7174 5.76807C63.0602 6.17529 63.2316 6.7583 63.2316 7.51709V7.85547H60.0104C60.0221 8.32422 60.1584 8.70361 60.4191 8.99365C60.6828 9.28076 61.0168 9.42432 61.4211 9.42432C61.7082 9.42432 61.9513 9.36572 62.1506 9.24854C62.3498 9.13135 62.5241 8.97607 62.6735 8.78271L63.1701 9.16943C62.7716 9.78174 62.174 10.0879 61.3771 10.0879ZM61.276 5.8252C60.9479 5.8252 60.6725 5.94531 60.4499 6.18555C60.2272 6.42285 60.0895 6.75684 60.0368 7.1875H62.4186V7.12598C62.3952 6.71289 62.2839 6.39355 62.0846 6.16797C61.8854 5.93945 61.6159 5.8252 61.276 5.8252ZM67.0389 8.73877C67.0389 8.51904 66.9554 8.34912 66.7884 8.229C66.6244 8.10596 66.3358 8.00049 65.9227 7.9126C65.5125 7.82471 65.1859 7.71924 64.9427 7.59619C64.7025 7.47314 64.5238 7.32666 64.4066 7.15674C64.2923 6.98682 64.2352 6.78467 64.2352 6.55029C64.2352 6.16064 64.3993 5.83105 64.7274 5.56152C65.0584 5.29199 65.4803 5.15723 65.993 5.15723C66.5321 5.15723 66.9686 5.29639 67.3026 5.57471C67.6395 5.85303 67.8079 6.20898 67.8079 6.64258H66.9906C66.9906 6.41992 66.8953 6.22803 66.7049 6.06689C66.5174 5.90576 66.2801 5.8252 65.993 5.8252C65.6971 5.8252 65.4657 5.88965 65.2987 6.01855C65.1317 6.14746 65.0482 6.31592 65.0482 6.52393C65.0482 6.72021 65.1258 6.86816 65.2811 6.96777C65.4364 7.06738 65.7161 7.1626 66.1204 7.25342C66.5277 7.34424 66.8573 7.45264 67.1092 7.57861C67.3612 7.70459 67.5472 7.85693 67.6673 8.03564C67.7904 8.21143 67.8519 8.42676 67.8519 8.68164C67.8519 9.10645 67.682 9.44775 67.3421 9.70557C67.0023 9.96045 66.5614 10.0879 66.0194 10.0879C65.6385 10.0879 65.3016 10.0205 65.0086 9.88574C64.7157 9.75098 64.4857 9.56348 64.3187 9.32324C64.1546 9.08008 64.0726 8.81787 64.0726 8.53662H64.8856C64.9002 8.80908 65.0086 9.02588 65.2108 9.18701C65.4159 9.34521 65.6854 9.42432 66.0194 9.42432C66.327 9.42432 66.5731 9.36279 66.7577 9.23975C66.9452 9.11377 67.0389 8.94678 67.0389 8.73877Z" fill="black"/>
<path d="M55.5 17H54L54.5 18L55.5 17.5V17Z" fill="#0170B7" stroke="black" stroke-width="0.3"/>
<path d="M48 17.5H47L47.3333 18.5L48 18V17.5Z" fill="#0170B7" stroke="black" stroke-width="0.3"/>
<path d="M52 18.5V18L51.5 17.5L50 17V17.5L50.5 18L52 18.5Z" fill="#0170B7" stroke="black" stroke-width="0.3"/>
<path d="M51.5 19.5L51 19H50.5L49.5 18.5H49V19L49.5 19.5H51.5Z" fill="#0170B7" stroke="black" stroke-width="0.3"/>
<path d="M61.5 23.5L61 23H62L62.5 22.5H63H63.5V23L63 23.5H61.5Z" fill="#0170B7" stroke="black" stroke-width="0.3"/>
</svg>
