<?xml version="1.0" encoding="UTF-8" standalone="no"?>
<svg
   width="550"
   height="355"
   viewBox="0 0 550 355"
   fill="none"
   version="1.1"
   id="svg4"
   sodipodi:docname="new-item.svg"
   inkscape:version="1.1.2 (0a00cf5339, 2022-02-04)"
   xmlns:inkscape="http://www.inkscape.org/namespaces/inkscape"
   xmlns:sodipodi="http://sodipodi.sourceforge.net/DTD/sodipodi-0.dtd"
   xmlns="http://www.w3.org/2000/svg"
   xmlns:svg="http://www.w3.org/2000/svg">
  <defs
     id="defs8" />
  <sodipodi:namedview
     id="namedview6"
     pagecolor="#ffffff"
     bordercolor="#999999"
     borderopacity="1"
     inkscape:pageshadow="0"
     inkscape:pageopacity="0"
     inkscape:pagecheckerboard="0"
     showgrid="false"
     inkscape:zoom="0.8664548"
     inkscape:cx="96.369713"
     inkscape:cy="330.65776"
     inkscape:window-width="1864"
     inkscape:window-height="1016"
     inkscape:window-x="56"
     inkscape:window-y="27"
     inkscape:window-maximized="1"
     inkscape:current-layer="svg4" />
  <g
     aria-label="3"
     id="text18397"
     style="font-size:91.2813px;line-height:1.25;fill:#1172b5;fill-opacity:1;stroke-width:2.28203"
     transform="translate(337.85562,10.513308)">
    <g
       id="g38462"
       transform="matrix(0.99852038,0,0,0.99852038,110.93436,11.111627)"
       style="fill:#1172b5;fill-opacity:1">
      <g
         aria-label="O"
         id="text2693"
         style="font-size:236.148px;line-height:1.25;font-family:'Roboto Slab';-inkscape-font-specification:'Roboto Slab';fill:#1172b5;fill-opacity:1;stroke-width:5.9037">
        <path
           d="m -194.15798,223.59742 q -16.25823,0 -29.17258,-6.22656 -12.91434,-6.22656 -22.02357,-17.52661 -8.99391,-11.41536 -13.83679,-26.98175 -4.72758,-15.5664 -4.72758,-34.36138 v -2.42144 q 0,-18.67967 4.72758,-34.24607 4.84288,-15.681704 13.83679,-27.097061 9.10923,-11.415357 22.02357,-17.641916 12.91435,-6.226558 29.17258,-6.226558 17.18069,0 30.21034,6.226558 13.02965,6.226559 21.79295,17.641916 8.87862,11.415357 13.37557,27.097061 4.49696,15.5664 4.49696,34.24607 v 2.42144 q 0,18.79498 -4.49696,34.36138 -4.49695,15.56639 -13.37557,26.98175 -8.7633,11.30005 -21.79295,17.52661 -13.02965,6.22656 -30.21034,6.22656 z m 0,-18.91029 q 16.71946,0 26.98175,-8.30208 10.3776,-8.30208 15.22048,-23.17663 4.84288,-14.98986 4.84288,-34.7073 v -2.65205 q 0,-19.60213 -4.95819,-34.36138 -4.84287,-14.874557 -15.22047,-23.176635 -10.3776,-8.417385 -26.86645,-8.417385 -15.10517,0 -25.59807,8.417385 -10.49291,8.417384 -15.91232,23.291945 -5.41941,14.75925 -5.41941,34.24607 v 2.65205 q 0,19.60213 5.41941,34.59199 5.41941,14.87456 15.91232,23.29194 10.4929,8.30208 25.59807,8.30208 z"
           id="path35823"
           style="fill:#1172b5;fill-opacity:1" />
      </g>
      <path
         d="m -104.85747,261.34401 q -5.92794,0 -10.56331,-2.13941 -4.63538,-2.18397 -7.26507,-6.15079 -2.58511,-4.01138 -2.4514,-9.49361 l 0.13371,-0.26742 h 8.37934 q 0,3.43196 1.42627,5.92793 1.42627,2.49597 4.05596,3.87767 2.62968,1.3817 6.2845,1.3817 5.57137,0 8.735907,-3.03082 3.164537,-3.03083 3.164537,-8.95876 0,-6.01708 -2.80797,-8.86962 -2.807969,-2.85254 -8.869614,-2.85254 h -7.66621 v -6.86393 h 7.66621 q 3.87767,0 6.239929,-1.29255 2.36226,-1.33713 3.387392,-3.78854 1.069702,-2.49597 1.069702,-5.9725 0,-5.57137 -2.763398,-8.46848 -2.763399,-2.89711 -8.156485,-2.89711 -3.43196,0 -5.97251,1.38169 -2.54054,1.33713 -3.96681,3.83311 -1.3817,2.4514 -1.3817,5.79422 h -8.42391 l -0.0891,-0.26743 q -0.13371,-4.9028 2.31769,-8.91419 2.49597,-4.01138 6.99764,-6.37364 4.54623,-2.36226 10.51874,-2.36226 9.003333,0 14.351846,4.81366 5.348514,4.76909 5.348514,13.63871 0,4.01139 -2.451402,8.02277 -2.406831,3.96682 -7.265065,6.06165 5.838795,1.91655 8.245626,6.01708 2.451402,4.10053 2.451402,9.18161 0,5.92794 -2.674257,10.20675 -2.629686,4.23424 -7.309635,6.55193 -4.67995,2.27312 -10.697029,2.27312 z"
         style="font-family:'Roboto Slab';-inkscape-font-specification:'Roboto Slab';fill:#1172b5;fill-opacity:1"
         id="path35826" />
    </g>
  </g>
</svg>
