<?xml version="1.0" encoding="UTF-8" standalone="no"?>
<svg
   width="550"
   height="355"
   viewBox="0 0 550 355"
   fill="none"
   version="1.1"
   id="svg4"
   sodipodi:docname="new-item.svg"
   inkscape:version="1.1.2 (0a00cf5339, 2022-02-04)"
   xmlns:inkscape="http://www.inkscape.org/namespaces/inkscape"
   xmlns:sodipodi="http://sodipodi.sourceforge.net/DTD/sodipodi-0.dtd"
   xmlns="http://www.w3.org/2000/svg"
   xmlns:svg="http://www.w3.org/2000/svg">
  <defs
     id="defs8" />
  <sodipodi:namedview
     id="namedview6"
     pagecolor="#ffffff"
     bordercolor="#999999"
     borderopacity="1"
     inkscape:pageshadow="0"
     inkscape:pageopacity="0"
     inkscape:pagecheckerboard="0"
     showgrid="false"
     inkscape:zoom="0.8664548"
     inkscape:cx="185.23759"
     inkscape:cy="292.57152"
     inkscape:window-width="1864"
     inkscape:window-height="1016"
     inkscape:window-x="56"
     inkscape:window-y="27"
     inkscape:window-maximized="1"
     inkscape:current-layer="svg4" />
  <path
     d="m 274.99002,133.28125 c 26.86289,0 48.64063,-21.77773 48.64063,-48.64063 C 323.63065,57.77773 301.85291,36 274.99002,36 248.12713,36 226.3494,57.77773 226.3494,84.64062 c 0,26.8629 21.77773,48.64063 48.64062,48.64063 z m -115.6873,108.8334 c 8.29101,-6.90918 27.63672,-19.01406 53.78105,-27.69199 v 60.35859 h 123.8125 v -60.41387 c 26.14434,8.73321 45.49004,20.83809 53.78105,27.69199 11.27579,9.39649 27.96836,7.84883 37.36485,-3.37167 9.39648,-11.22051 7.84883,-27.96836 -3.37168,-37.36485 -6.63281,-5.52734 -16.63731,-12.43652 -29.40547,-19.3457 -4.64297,7.9041 -13.21035,13.21035 -22.99375,13.21035 -14.64746,0 -26.53125,-11.88379 -26.53125,-26.53125 0,-2.37676 0.33164,-4.64297 0.88438,-6.85391 -21.28028,-6.46699 -45.49004,-10.83359 -71.63438,-10.83359 -33.27461,0 -63.50918,7.13027 -88.4375,16.52676 0,0.38691 0,0.77383 0,1.16074 0,14.64746 -11.88379,26.53125 -26.53125,26.53125 -6.52227,0 -12.54707,-2.37676 -17.13477,-6.30117 -7.24082,4.47715 -13.0998,8.78847 -17.52168,12.43652 -11.27578,9.39649 -12.76816,26.08906 -3.37167,37.36485 9.39648,11.27578 26.08906,12.76816 37.36484,3.37167 z m -30.23457,50.3541 c -7.35137,0 -13.26563,5.91426 -13.26563,13.26562 0,7.35137 5.91426,13.26563 13.26563,13.26563 h 291.84374 c 7.35137,0 13.26563,-5.91426 13.26563,-13.26563 0,-7.35136 -5.91426,-13.26562 -13.26563,-13.26562 z M 266.14627,190.76562 c 0,7.35137 -5.91426,13.26563 -13.26562,13.26563 -7.35137,0 -13.26563,-5.91426 -13.26563,-13.26563 0,-7.35136 5.91426,-13.26562 13.26563,-13.26562 7.35136,0 13.26562,5.91426 13.26562,13.26562 z M 297.0994,248.25 c -7.35137,0 -13.26563,-5.91426 -13.26563,-13.26563 0,-7.35136 5.91426,-13.26562 13.26563,-13.26562 7.35136,0 13.26562,5.91426 13.26562,13.26562 0,7.35137 -5.91426,13.26563 -13.26562,13.26563 z M 168.86502,168.65625 c 0,-4.86406 -3.97969,-8.84375 -8.84375,-8.84375 -4.86406,0 -8.84375,3.97969 -8.84375,8.84375 0,4.86406 3.97969,8.84375 8.84375,8.84375 4.86406,0 8.84375,-3.97969 8.84375,-8.84375 z M 372.27127,177.5 c 4.86406,0 8.84375,-3.97969 8.84375,-8.84375 0,-4.86406 -3.97969,-8.84375 -8.84375,-8.84375 -4.86406,0 -8.84375,3.97969 -8.84375,8.84375 0,4.86406 3.97969,8.84375 8.84375,8.84375 z"
     id="path2"
     style="fill:#1172b5;fill-opacity:1;stroke-width:0.552734" />
</svg>
