<?xml version="1.0" encoding="UTF-8" standalone="no"?>
<svg
   width="550"
   height="355"
   viewBox="0 0 550 355"
   fill="none"
   version="1.1"
   id="svg4"
   sodipodi:docname="new-item.svg"
   inkscape:version="1.1.2 (0a00cf5339, 2022-02-04)"
   xmlns:inkscape="http://www.inkscape.org/namespaces/inkscape"
   xmlns:sodipodi="http://sodipodi.sourceforge.net/DTD/sodipodi-0.dtd"
   xmlns="http://www.w3.org/2000/svg"
   xmlns:svg="http://www.w3.org/2000/svg">
  <defs
     id="defs8" />
  <sodipodi:namedview
     id="namedview6"
     pagecolor="#ffffff"
     bordercolor="#999999"
     borderopacity="1"
     inkscape:pageshadow="0"
     inkscape:pageopacity="0"
     inkscape:pagecheckerboard="0"
     showgrid="false"
     inkscape:zoom="0.4332274"
     inkscape:cx="171.96512"
     inkscape:cy="938.30631"
     inkscape:window-width="1864"
     inkscape:window-height="1016"
     inkscape:window-x="56"
     inkscape:window-y="27"
     inkscape:window-maximized="1"
     inkscape:current-layer="svg4" />
  <g
     id="g1441"
     transform="matrix(1.0627468,0,0,1.0627468,-557.3406,-380.22939)">
    <path
       d="m 615.81611,449.90551 c 0,-13.78264 11.18211,-24.96476 24.96476,-24.96476 13.78263,0 24.96478,11.18212 24.96478,24.96476 v 85.5564 c 0,8.99772 3.69271,16.59117 7.95753,22.10423 5.46104,7.07336 8.68567,15.86307 8.68567,25.48491 0,22.98839 -18.61957,41.60795 -41.60798,41.60795 -22.9884,0 -41.60796,-18.61956 -41.60796,-41.60795 0,-9.62184 3.2246,-18.41155 8.68566,-25.4329 4.26482,-5.56507 7.95754,-13.15852 7.95754,-22.15624 z m 24.96476,-58.25117 c -32.19416,0 -58.25116,26.05702 -58.25116,58.25117 v 85.50439 c 0,0.0519 -0.0519,0.15586 -0.10398,0.31208 -0.10399,0.31205 -0.41607,0.83212 -0.88417,1.45627 -9.82989,12.69042 -15.65498,28.60548 -15.65498,45.8728 0,41.34791 33.54642,74.89437 74.89434,74.89437 41.34791,0 74.89434,-33.54646 74.89434,-74.89437 0,-17.26732 -5.87711,-33.18238 -15.65499,-45.82082 -0.46808,-0.62409 -0.78016,-1.14417 -0.88418,-1.45625 -0.0519,-0.15603 -0.10398,-0.25993 -0.10398,-0.31207 v -85.5564 c 0,-32.19415 -26.057,-58.25117 -58.25118,-58.25117 z m 0,216.36148 c 13.78263,0 24.96478,-11.18214 24.96478,-24.96477 0,-10.87007 -6.96933,-20.12786 -16.64317,-23.56055 V 449.90551 c 0,-4.57688 -3.74473,-8.32158 -8.32161,-8.32158 -4.57687,0 -8.32159,3.7447 -8.32159,8.32158 V 559.4905 c -9.67384,3.43269 -16.64317,12.69048 -16.64317,23.56055 0,13.78263 11.18211,24.96477 24.96476,24.96477 z M 798.89115,474.8703 h 16.64321 c 6.70928,0 12.79445,-4.0568 15.39495,-10.29795 2.60051,-6.24121 1.14421,-13.3666 -3.58869,-18.15151 l -33.28635,-33.28637 c -6.50126,-6.50124 -17.05931,-6.50124 -23.56056,0 l -33.28636,33.28637 c -4.78491,4.78491 -6.18918,11.9103 -3.58868,18.15151 2.6005,6.24115 8.63366,10.29795 15.39495,10.29795 H 765.6568 V 624.659 c 0,9.20581 7.43743,16.64322 16.64319,16.64322 9.20577,0 16.64319,-7.43741 16.64319,-16.64322 V 474.8703 Z"
       id="path1431"
       style="fill:#1172b5;fill-opacity:1;stroke-width:0.5201" />
    <path
       d="m 944.76122,420.11552 c -3.46034,0.39836 -5.92373,3.50275 -5.52535,6.96311 l 0.40435,3.51238 c 1.06633,9.26229 -9.61114,15.21042 -16.9224,9.40878 l -2.75624,-2.18712 c -2.7272,-2.1641 -6.6819,-1.70883 -8.81999,1.0154 -2.13808,2.72422 -1.70881,6.6819 1.0154,8.81999 l 2.75623,2.18712 c 7.31128,5.80164 3.94507,17.55142 -5.3172,18.61774 l -3.5124,0.40436 c -3.46034,0.39837 -5.92374,3.50276 -5.52537,6.96311 0.39838,3.46035 3.50276,5.92375 6.9631,5.52537 l 3.5124,-0.40435 c 9.26229,-1.06634 15.21042,9.61112 9.40878,16.92238 l -2.18713,2.75624 c -2.1641,2.72722 -1.70881,6.68191 1.0154,8.81999 2.72422,2.13809 6.68191,1.70883 8.81999,-1.0154 l 2.18714,-2.75624 c 5.80164,-7.31127 17.55141,-3.94507 18.61773,5.31723 l 0.40436,3.51238 c 0.39839,3.46036 3.50276,5.92374 6.96311,5.52537 3.46036,-0.39838 5.92374,-3.50276 5.52538,-6.96311 l -0.40437,-3.51238 c -1.06631,-9.2623 9.61114,-15.21043 16.92237,-9.40878 l 2.75629,2.18712 c 2.72718,2.16411 6.68194,1.70882 8.81999,-1.01541 2.13805,-2.7242 1.70882,-6.68189 -1.0154,-8.81998 l -2.75628,-2.18713 c -7.31123,-5.80164 -3.94509,-17.55141 5.31721,-18.61773 l 3.51245,-0.40437 c 3.46034,-0.39837 5.92373,-3.50276 5.52533,-6.9631 -0.3983,-3.46034 -3.50273,-5.92376 -6.96307,-5.52538 l -3.51245,0.40437 c -9.26221,1.06632 -15.2104,-9.61113 -9.40877,-16.9224 l 2.18719,-2.75623 c 2.16403,-2.72722 1.70874,-6.68191 -1.01548,-8.81999 -2.72421,-2.13809 -6.68188,-1.70882 -8.81996,1.0154 l -2.18712,2.75623 c -5.80165,7.31128 -17.55141,3.94507 -18.61774,-5.31722 l -0.40436,-3.51238 c -0.39837,-3.46037 -3.50276,-5.92375 -6.96312,-5.52537 z m -5.77903,59.71732 c -2.28955,0.26357 -4.37848,-1.39404 -4.64207,-3.6836 -0.26358,-2.28955 1.39403,-4.37848 3.68357,-4.64206 2.28956,-0.26359 4.37849,1.39402 4.64208,3.68358 0.26359,2.28955 -1.39403,4.37849 -3.68358,4.64208 z m 10.5715,-18.08906 c -0.53016,-4.60512 2.76203,-8.75398 7.36716,-9.28414 4.60512,-0.53017 8.75398,2.76203 9.28415,7.36716 0.53016,4.60513 -2.76204,8.75398 -7.36717,9.28414 -4.60512,0.53017 -8.75398,-2.76204 -9.28414,-7.36716 z m -80.86033,30.39906 c 0.98847,8.58583 -8.89841,14.07387 -15.65842,8.70965 -1.79875,-1.42739 -4.45256,-1.12187 -5.87993,0.67694 -1.42737,1.7988 -1.12188,4.4526 0.67687,5.87998 6.76009,5.36422 3.66224,16.2395 -4.92361,17.22794 -2.2895,0.2636 -3.94717,2.35252 -3.6835,4.64208 0.26359,2.28955 2.3525,3.94716 4.64208,3.68357 8.58576,-0.98844 14.07384,8.89839 8.70958,15.65841 -1.42737,1.7988 -1.12187,4.45261 0.67696,5.88 1.79884,1.42738 4.45256,1.12187 5.87993,-0.67695 5.36427,-6.76001 16.23953,-3.66222 17.228,4.92362 0.26359,2.28955 2.3525,3.94716 4.64206,3.68358 2.28955,-0.26359 3.94717,-2.35252 3.68359,-4.64206 -0.98845,-8.58585 8.89837,-14.07388 15.6584,-8.70967 1.7988,1.4274 4.4526,1.12187 5.87998,-0.67694 1.4274,-1.7988 1.12188,-4.4526 -0.67693,-5.87999 -6.76001,-5.36421 -3.66222,-16.23949 4.92361,-17.22794 2.28956,-0.26358 3.94717,-2.35251 3.68358,-4.64207 -0.26358,-2.28954 -2.35251,-3.94715 -4.64207,-3.68357 -8.58583,0.98844 -14.07387,-8.89839 -8.70965,-15.65841 1.42739,-1.7988 1.12186,-4.45261 -0.67693,-5.87999 -1.79881,-1.42739 -4.45261,-1.12187 -5.88,0.67693 -5.36422,6.76003 -16.23947,3.66222 -17.22794,-4.9236 -0.26358,-2.28955 -2.35249,-3.94716 -4.64207,-3.68359 -2.28959,0.2636 -3.94717,2.35253 -3.68359,4.64208 z m 3.35473,29.13979 c -0.53013,-4.60513 2.76204,-8.75398 7.36717,-9.28414 4.60513,-0.53017 8.75399,2.76203 9.28414,7.36715 0.53017,4.60513 -2.76203,8.75398 -7.36716,9.28415 -4.60512,0.53017 -8.75401,-2.76203 -9.28415,-7.36716 z"
       id="path1433"
       style="fill:#1172b5;fill-opacity:1;stroke-width:0.261896" />
  </g>
</svg>
