<?xml version="1.0" encoding="UTF-8" standalone="no"?>
<svg
   width="550"
   height="355"
   viewBox="0 0 550 355"
   fill="none"
   version="1.1"
   id="svg4"
   sodipodi:docname="new-item.svg"
   inkscape:version="1.1.2 (0a00cf5339, 2022-02-04)"
   xmlns:inkscape="http://www.inkscape.org/namespaces/inkscape"
   xmlns:sodipodi="http://sodipodi.sourceforge.net/DTD/sodipodi-0.dtd"
   xmlns="http://www.w3.org/2000/svg"
   xmlns:svg="http://www.w3.org/2000/svg">
  <defs
     id="defs8" />
  <sodipodi:namedview
     id="namedview6"
     pagecolor="#ffffff"
     bordercolor="#999999"
     borderopacity="1"
     inkscape:pageshadow="0"
     inkscape:pageopacity="0"
     inkscape:pagecheckerboard="0"
     showgrid="false"
     inkscape:zoom="0.8664548"
     inkscape:cx="128.6853"
     inkscape:cy="330.65776"
     inkscape:window-width="1864"
     inkscape:window-height="1016"
     inkscape:window-x="56"
     inkscape:window-y="27"
     inkscape:window-maximized="1"
     inkscape:current-layer="svg4" />
  <path
     d="M 280.90745,66.536959 C 279.05585,65.69934 277.072,65.258473 275,65.258473 c -2.07203,0 -4.05587,0.440867 -5.90745,1.278486 l -83.01288,35.224251 c -9.6988,4.09997 -16.92882,13.66649 -16.88472,25.21688 0.22042,43.73276 18.20728,123.74782 94.16648,160.11832 7.36228,3.52682 15.91485,3.52682 23.27713,0 75.9592,-36.3705 93.94607,-116.38556 94.16649,-160.11832 0.0441,-11.55039 -7.18593,-21.11691 -16.88472,-25.21688 z m -55.28313,96.282601 c 0,-14.90089 12.07939,-27.02439 27.02435,-27.02439 7.14184,0 14.01916,2.86556 19.089,7.89131 l 3.26233,3.26231 3.26232,-3.26231 c 5.06982,-5.06983 11.94716,-7.89131 19.089,-7.89131 14.90089,0 27.02436,12.07942 27.02436,27.02439 0,7.14184 -2.86554,14.01915 -7.8913,19.08898 l -36.45865,36.45867 c -2.73329,2.73329 -7.23001,2.73329 -9.9633,0 l -36.45867,-36.45867 c -5.0698,-5.06983 -7.89129,-11.94714 -7.89129,-19.08898 z"
     id="path2-3"
     style="fill:#1172b5;fill-opacity:1;stroke-width:0.440855" />
</svg>
