<?xml version="1.0" encoding="UTF-8" standalone="no"?>
<svg
   width="550"
   height="355"
   viewBox="0 0 550 355"
   fill="none"
   version="1.1"
   id="svg4"
   sodipodi:docname="new-item.svg"
   inkscape:version="1.1.2 (0a00cf5339, 2022-02-04)"
   xmlns:inkscape="http://www.inkscape.org/namespaces/inkscape"
   xmlns:sodipodi="http://sodipodi.sourceforge.net/DTD/sodipodi-0.dtd"
   xmlns="http://www.w3.org/2000/svg"
   xmlns:svg="http://www.w3.org/2000/svg">
  <defs
     id="defs8" />
  <sodipodi:namedview
     id="namedview6"
     pagecolor="#ffffff"
     bordercolor="#999999"
     borderopacity="1"
     inkscape:pageshadow="0"
     inkscape:pageopacity="0"
     inkscape:pagecheckerboard="0"
     showgrid="false"
     inkscape:zoom="0.8664548"
     inkscape:cx="128.6853"
     inkscape:cy="330.65776"
     inkscape:window-width="1864"
     inkscape:window-height="1016"
     inkscape:window-x="56"
     inkscape:window-y="27"
     inkscape:window-maximized="1"
     inkscape:current-layer="svg4" />
  <path
     d="m 274.99209,142.42453 a 38.583016,38.583016 0 1 0 0,-77.16603 38.583016,38.583016 0 1 0 0,77.16603 z m -91.7662,86.3295 c 6.57665,-5.48054 21.92217,-15.08245 42.66054,-21.96601 v 47.87801 h 98.21131 v -47.92186 c 20.73837,6.92741 36.08389,16.52932 42.66054,21.96601 8.94425,7.45354 22.18524,6.2259 29.63877,-2.6745 7.45354,-8.9004 6.2259,-22.18523 -2.6745,-29.63877 -5.26132,-4.38443 -13.19715,-9.86498 -23.32519,-15.34552 -3.68292,6.26974 -10.4788,10.4788 -18.23924,10.4788 -11.61875,0 -21.04528,-9.42653 -21.04528,-21.04528 0,-1.88531 0.26306,-3.68293 0.70151,-5.4367 -16.88007,-5.12979 -36.08389,-8.59349 -56.82226,-8.59349 -26.39429,0 -50.37715,5.65592 -70.15094,13.10946 0,0.30691 0,0.61382 0,0.92073 0,11.61875 -9.42653,21.04528 -21.04528,21.04528 -5.17363,0 -9.95267,-1.88531 -13.59175,-4.99826 -5.7436,3.55139 -10.3911,6.97125 -13.89865,9.86498 -8.94424,7.45354 -10.12804,20.69453 -2.6745,29.63877 7.45353,8.94424 20.69452,10.12804 29.63877,2.6745 z m -23.98285,39.94219 c -5.8313,0 -10.52264,4.69134 -10.52264,10.52264 0,5.8313 4.69134,10.52264 10.52264,10.52264 h 231.49809 c 5.8313,0 10.52264,-4.69134 10.52264,-10.52264 0,-5.8313 -4.69134,-10.52264 -10.52264,-10.52264 z m 87.68867,-80.67358 a 10.522641,10.522641 0 1 1 21.04528,0 10.522641,10.522641 0 1 1 -21.04528,0 z m 45.59811,24.55283 a 10.522641,10.522641 0 1 1 0,21.04528 10.522641,10.522641 0 1 1 0,-21.04528 z M 190.81096,170.48491 a 7.015096,7.015096 0 1 0 -14.03019,0 7.015096,7.015096 0 1 0 14.03019,0 z M 352.15812,177.5 a 7.015095,7.015095 0 1 0 0,-14.03019 7.015095,7.015095 0 1 0 0,14.03019 z"
     id="path2"
     style="fill:#1172b5;fill-opacity:1;stroke-width:0.438443" />
</svg>
