<?xml version="1.0" encoding="UTF-8" standalone="no"?>
<svg
   width="550"
   height="355"
   viewBox="0 0 550 355"
   fill="none"
   version="1.1"
   id="svg4"
   sodipodi:docname="new-item.svg"
   inkscape:version="1.1.2 (0a00cf5339, 2022-02-04)"
   xmlns:inkscape="http://www.inkscape.org/namespaces/inkscape"
   xmlns:sodipodi="http://sodipodi.sourceforge.net/DTD/sodipodi-0.dtd"
   xmlns="http://www.w3.org/2000/svg"
   xmlns:svg="http://www.w3.org/2000/svg">
  <defs
     id="defs8" />
  <sodipodi:namedview
     id="namedview6"
     pagecolor="#ffffff"
     bordercolor="#999999"
     borderopacity="1"
     inkscape:pageshadow="0"
     inkscape:pageopacity="0"
     inkscape:pagecheckerboard="0"
     showgrid="false"
     inkscape:zoom="0.4332274"
     inkscape:cx="-197.35594"
     inkscape:cy="543.59443"
     inkscape:window-width="1864"
     inkscape:window-height="1016"
     inkscape:window-x="56"
     inkscape:window-y="27"
     inkscape:window-maximized="1"
     inkscape:current-layer="svg4" />
  <g
     id="g5692"
     transform="matrix(0.55273432,0,0,0.55273432,271.10351,-266.6313)">
    <path
       d="m -18.341676,659.51675 c 0,-26.5 21.4999996,-48 48,-48 26.5,0 48,21.5 48,48 v 164.5 c 0,17.3 7.1,31.9 15.3,42.5 10.499996,13.6 16.699996,30.5 16.699996,49 0,44.2 -35.799996,80 -79.999996,80 -44.2,0 -80,-35.8 -80,-80 0,-18.5 6.2,-35.4 16.7,-48.9 8.2,-10.7 15.3,-25.3 15.3,-42.6 z m 48,-112 c -61.9,0 -112,50.1 -112,112 v 164.4 c 0,0.1 -0.1,0.3 -0.2,0.6 -0.2,0.6 -0.8,1.6 -1.7,2.8 -18.900004,24.4 -30.100004,55 -30.100004,88.2 0,79.5 64.500004,144.00005 144.000004,144.00005 79.499996,0 143.999996,-64.50005 143.999996,-144.00005 0,-33.2 -11.3,-63.8 -30.1,-88.1 -0.9,-1.2 -1.5,-2.2 -1.7,-2.8 -0.1,-0.3 -0.2,-0.5 -0.2,-0.6 v -164.5 c 0,-61.9 -50.099996,-112 -111.999996,-112 z m 0,416 c 26.5,0 48,-21.5 48,-48 0,-20.9 -13.4,-38.7 -32,-45.3 v -210.7 c 0,-8.8 -7.2,-16 -16,-16 -8.8,0 -16,7.2 -16,16 v 210.7 c -18.6000004,6.6 -32,24.4 -32,45.3 0,26.5 21.4999996,48 48,48 z m 303.999996,-256 h 32 c 12.9,0 24.6,-7.8 29.6,-19.8 5,-12 2.2,-25.7 -6.9,-34.9 l -64,-64 c -12.5,-12.5 -32.8,-12.5 -45.3,0 l -64,64 c -9.2,9.2 -11.9,22.9 -6.9,34.9 5,12 16.6,19.8 29.6,19.8 h 32 v 288 c 0,17.70005 14.3,32.00005 32,32.00005 17.7,0 32,-14.3 32,-32.00005 v -288 z"
       id="path2"
       style="fill:#1172b5;fill-opacity:1" />
    <path
       d="m -272.19291,703.26396 c 5.86372,-6.33282 14.11983,-9.89796 22.75123,-9.89796 13.55692,0 25.56581,8.77212 29.64696,21.71922 l 7.41175,23.5956 c 3.4244,10.78924 11.82125,19.233 22.61049,22.65741 l 29.17787,9.33504 c 9.94487,3.18987 16.69987,12.43108 16.69987,22.84505 0,8.20921 -4.17496,15.80858 -11.0707,20.2181 l -40.29548,25.70651 c -4.97243,3.1899 -7.78702,8.8191 -7.36482,14.6828 l 1.17274,15.9024 c 1.31347,18.0603 -12.99401,33.4936 -31.14808,33.4936 -6.37973,0 -12.61872,-1.9702 -17.87261,-5.6292 l -22.61051,-15.7617 c -6.94264,-4.8317 -15.15184,-7.4117 -23.5956,-7.4117 h -7.55247 c -2.29858,0 -4.64406,0.1876 -6.94264,0.5629 l -33.54047,5.7699 c -9.99178,1.6887 -20.07738,-2.6739 -25.61273,-11.2114 -5.53535,-8.4907 -5.53535,-19.4207 0,-27.8644 l 12.75945,-19.60832 c 2.29858,-3.51823 3.51824,-7.64628 3.51824,-11.86816 0,-4.64406 -1.50112,-9.1474 -4.22189,-12.85327 l -20.49956,-28.00513 c -8.34993,-11.39907 -5.62916,-27.39529 6.05136,-35.36995 4.55025,-3.09604 9.94487,-4.59715 15.43331,-4.26878 l 37.80926,2.15784 c 12.24345,0.70365 24.15852,-4.08115 32.55537,-13.08782 l 14.77657,-15.85549 z m -36.82415,95.17988 c 8.30302,0 15.01112,-6.70809 15.01112,-15.01112 0,-8.30302 -6.7081,-15.01112 -15.01112,-15.01112 -8.30303,0 -15.01112,6.7081 -15.01112,15.01112 0,8.30303 6.70809,15.01112 15.01112,15.01112 z m 75.0556,-22.51668 c 0,-4.12805 -3.37751,-7.50556 -7.50556,-7.50556 -4.12806,0 -7.50556,3.37751 -7.50556,7.50556 0,4.12806 3.3775,7.50556 7.50556,7.50556 4.12805,0 7.50556,-3.3775 7.50556,-7.50556 z m -15.01112,67.55007 c 8.30303,0 15.01112,-6.7081 15.01112,-15.0111 0,-8.30307 -6.70809,-15.01116 -15.01112,-15.01116 -8.30303,0 -15.01112,6.70809 -15.01112,15.01116 0,8.303 6.70809,15.0111 15.01112,15.0111 z"
       id="path2-36"
       style="fill:#1172b5;fill-opacity:1;stroke-width:0.469097" />
  </g>
</svg>
