<?xml version="1.0" encoding="UTF-8" standalone="no"?>
<svg
   width="550"
   height="355"
   viewBox="0 0 550 355"
   fill="none"
   version="1.1"
   id="svg4"
   sodipodi:docname="new-item.svg"
   inkscape:version="1.1.2 (0a00cf5339, 2022-02-04)"
   xmlns:inkscape="http://www.inkscape.org/namespaces/inkscape"
   xmlns:sodipodi="http://sodipodi.sourceforge.net/DTD/sodipodi-0.dtd"
   xmlns="http://www.w3.org/2000/svg"
   xmlns:svg="http://www.w3.org/2000/svg">
  <defs
     id="defs8" />
  <sodipodi:namedview
     id="namedview6"
     pagecolor="#ffffff"
     bordercolor="#999999"
     borderopacity="1"
     inkscape:pageshadow="0"
     inkscape:pageopacity="0"
     inkscape:pagecheckerboard="0"
     showgrid="false"
     inkscape:zoom="0.61267606"
     inkscape:cx="-38.356321"
     inkscape:cy="394.17241"
     inkscape:window-width="1864"
     inkscape:window-height="1016"
     inkscape:window-x="56"
     inkscape:window-y="27"
     inkscape:window-maximized="1"
     inkscape:current-layer="svg4" />
  <g
     id="g7364"
     transform="matrix(0.80546821,0,0,0.80546821,40.612965,67.162631)">
    <path
       d="m 95.515931,215.38313 c 0,-6.44456 5.228599,-11.67317 11.673169,-11.67317 6.44456,0 11.67317,5.22861 11.67317,11.67317 v 40.00495 c 0,4.2072 1.72666,7.75779 3.72083,10.33562 2.5535,3.3074 4.06129,7.41733 4.06129,11.91637 0,10.74904 -8.70624,19.45528 -19.45529,19.45528 -10.749049,0 -19.455288,-8.70624 -19.455288,-19.45528 0,-4.49904 1.507779,-8.60897 4.061289,-11.89205 1.99417,-2.60215 3.72083,-6.15274 3.72083,-10.35994 z m 11.673169,-27.2374 c -15.053529,0 -27.237408,12.18388 -27.237408,27.2374 v 39.98063 c 0,0.0243 -0.0243,0.0729 -0.0486,0.14591 -0.0486,0.14592 -0.19455,0.38911 -0.41342,0.68094 -4.59632,5.93386 -7.32005,13.37551 -7.32005,21.44946 0,19.33369 15.68583,35.01953 35.019518,35.01953 19.33369,0 35.01952,-15.68584 35.01952,-35.01953 0,-8.07395 -2.74806,-15.5156 -7.32005,-21.42515 -0.21887,-0.29182 -0.36479,-0.53501 -0.41343,-0.68093 -0.0243,-0.073 -0.0486,-0.1216 -0.0486,-0.14591 v -40.00495 c 0,-15.05352 -12.18388,-27.2374 -27.23741,-27.2374 z m 0,101.16751 c 6.44456,0 11.67317,-5.22861 11.67317,-11.67317 0,-5.0827 -3.25876,-9.4115 -7.78211,-11.01657 v -51.24037 c 0,-2.14008 -1.75098,-3.89105 -3.89106,-3.89105 -2.14008,0 -3.89106,1.75097 -3.89106,3.89105 v 51.24037 c -4.523349,1.60507 -7.782109,5.93387 -7.782109,11.01657 0,6.44456 5.228599,11.67317 11.673169,11.67317 z m 73.9301,-62.25693 h 7.78212 c 3.13716,0 5.9825,-1.89689 7.19845,-4.81518 1.21596,-2.9183 0.53502,-6.25002 -1.67802,-8.48738 l -15.56422,-15.56423 c -3.03989,-3.03988 -7.97668,-3.03988 -11.01657,0 l -15.56423,15.56423 c -2.23735,2.23736 -2.89397,5.56908 -1.67801,8.48738 1.21595,2.91829 4.03697,4.81518 7.19845,4.81518 h 7.78212 v 70.03904 c 0,4.3045 3.47763,7.78213 7.78211,7.78213 4.30449,0 7.78212,-3.47763 7.78212,-7.78213 v -70.03904 z"
       id="path2"
       style="fill:#1172b5;fill-opacity:1;stroke-width:0.243191" />
    <path
       d="m 261.659,-38.589534 c 8.13462,0.936499 13.92559,8.234313 12.98909,16.36894 l -0.95058,8.256952 c -2.50672,21.7738693 22.59396,35.756794 39.78134,22.1182463 l 6.47937,-5.141518 c 6.41117,-5.087399 15.70787,-4.017114 20.73412,2.387018 5.02622,6.4041277 4.01709,15.7078797 -2.38702,20.7341077 l -6.47938,5.141516 c -17.18739,13.638552 -9.2741,41.260015 12.49976,43.766734 l 8.25696,0.950584 c 8.13461,0.936498 13.92559,8.234317 12.98909,16.36893 -0.9365,8.134624 -8.23432,13.925594 -16.36893,12.989094 l -8.25697,-0.95058 c -21.77386,-2.50672 -35.75678,22.59394 -22.11824,39.78133 l 5.14152,6.47938 c 5.08738,6.41116 4.0171,15.70788 -2.38701,20.73411 -6.40413,5.02623 -15.70788,4.01711 -20.73412,-2.38702 l -5.14152,-6.47937 c -13.63853,-17.18739 -41.26002,-9.27412 -43.76674,12.49977 l -0.95058,8.25694 c -0.9365,8.13462 -8.23431,13.92558 -16.36893,12.98908 -8.13464,-0.9365 -13.92561,-8.2343 -12.98911,-16.36892 l 0.95058,-8.25695 c 2.50673,-21.77389 -22.59393,-35.75681 -39.78132,-22.11825 l -6.47936,5.14152 c -6.41118,5.08739 -15.70789,4.01711 -20.73413,-2.38702 -5.02622,-6.40413 -4.01709,-15.70788 2.38702,-20.73411 l 6.47937,-5.14153 C 181.64067,112.7709 173.7274,85.149443 151.95352,82.642723 l -8.25696,-0.950583 c -8.13461,-0.936498 -13.92558,-8.234316 -12.98908,-16.368943 0.9365,-8.134614 8.23432,-13.925583 16.36893,-12.989085 l 8.25696,0.950584 c 21.77387,2.506719 35.75679,-22.59394 22.11823,-39.781333 l -5.14151,-6.4793727 c -5.08738,-6.41115796 -4.01709,-15.707871 2.38702,-20.7341083 6.40413,-5.026225 15.70789,-4.017113 20.73413,2.387019 l 5.1415,6.4793733 c 13.63855,17.1873867 41.26001,9.274105 43.76673,-12.4997643 l 0.95058,-8.256952 c 0.9365,-8.134627 8.23432,-13.925593 16.36895,-12.989092 z m 13.58542,140.384004 c 5.3823,0.61963 10.29298,-3.277103 10.91262,-8.659402 0.61964,-5.382317 -3.27709,-10.292996 -8.65939,-10.912634 -5.3823,-0.619638 -10.29298,3.277087 -10.91262,8.659404 -0.61964,5.3823 3.27709,10.292992 8.65939,10.912632 z M 250.39284,59.270565 c 1.24632,-10.825765 -6.49301,-20.578931 -17.31879,-21.825249 -10.82577,-1.246319 -20.57893,6.493021 -21.82525,17.318786 -1.24631,10.825777 6.49301,20.578933 17.31879,21.825252 10.82577,1.246319 20.57894,-6.493013 21.82525,-17.318789 z m 190.08714,71.462375 c -2.32365,20.18365 20.91841,33.08498 36.80991,20.47472 4.22864,-3.3555 10.46722,-2.63729 13.82274,1.59135 3.35551,4.22865 2.6373,10.46723 -1.59135,13.82273 -15.89151,12.61026 -8.60918,38.17595 11.57447,40.4996 5.3823,0.61963 9.27903,5.53031 8.65939,10.91261 -0.61964,5.3823 -5.53032,9.27903 -10.91262,8.65939 -20.18365,-2.32364 -33.08497,20.91841 -20.47473,36.80992 3.35552,4.22864 2.6373,10.46722 -1.59135,13.82274 -4.22865,3.35552 -10.46722,2.6373 -13.82274,-1.59135 -12.61023,-15.8915 -38.17593,-8.60918 -40.49958,11.57448 -0.61963,5.3823 -5.5303,9.27902 -10.91261,8.65939 -5.38231,-0.61964 -9.27904,-5.53032 -8.6594,-10.91262 2.32364,-20.18366 -20.91838,-33.08498 -36.80991,-20.47474 -4.22864,3.35552 -10.46722,2.6373 -13.82274,-1.59135 -3.35551,-4.22864 -2.63729,-10.46723 1.59135,-13.82274 15.89151,-12.61023 8.60919,-38.17594 -11.57446,-40.49958 -5.38231,-0.61964 -9.27904,-5.53032 -8.6594,-10.91262 0.61963,-5.3823 5.53032,-9.27903 10.91263,-8.65939 20.18365,2.32365 33.08497,-20.9184 20.47472,-36.80993 -3.35551,-4.22862 -2.63729,-10.46721 1.59135,-13.82273 4.22864,-3.3555 10.46723,-2.63729 13.82274,1.59135 12.61025,15.89153 38.17593,8.60919 40.49957,-11.57446 0.61964,-5.3823 5.53032,-9.27903 10.91263,-8.65939 5.38231,0.61964 9.27903,5.53032 8.65939,10.91262 z m -7.88631,68.50208 c 1.24631,-10.82577 -6.49301,-20.57893 -17.31879,-21.82525 -10.82577,-1.24632 -20.57894,6.49302 -21.82525,17.31879 -1.24632,10.82577 6.49302,20.57892 17.31879,21.82524 10.82578,1.24632 20.57893,-6.49301 21.82525,-17.31878 z"
       id="path2-3"
       style="fill:#1172b5;fill-opacity:1;stroke-width:0.615665" />
  </g>
</svg>
