<?xml version="1.0" encoding="UTF-8" standalone="no"?>
<svg
   width="550"
   height="355"
   viewBox="0 0 550 355"
   fill="none"
   version="1.1"
   id="svg4"
   sodipodi:docname="new-item.svg"
   inkscape:version="1.1.2 (0a00cf5339, 2022-02-04)"
   xmlns:inkscape="http://www.inkscape.org/namespaces/inkscape"
   xmlns:sodipodi="http://sodipodi.sourceforge.net/DTD/sodipodi-0.dtd"
   xmlns="http://www.w3.org/2000/svg"
   xmlns:svg="http://www.w3.org/2000/svg">
  <defs
     id="defs8" />
  <sodipodi:namedview
     id="namedview6"
     pagecolor="#ffffff"
     bordercolor="#999999"
     borderopacity="1"
     inkscape:pageshadow="0"
     inkscape:pageopacity="0"
     inkscape:pagecheckerboard="0"
     showgrid="false"
     inkscape:zoom="0.8664548"
     inkscape:cx="96.369713"
     inkscape:cy="330.65776"
     inkscape:window-width="1864"
     inkscape:window-height="1016"
     inkscape:window-x="56"
     inkscape:window-y="27"
     inkscape:window-maximized="1"
     inkscape:current-layer="svg4" />
  <path
     d="m 333.98892,280.11156 c 4.0229,-3.65346 4.39236,-9.97517 0.86206,-14.08017 l -17.28207,-20.11453 v -22.45437 c 0,-2.25776 -0.7389,-4.43341 -2.09356,-6.19856 l -27.33934,-35.50829 v -0.12315 l 54.76076,49.99895 c 23.39854,24.54793 63.46338,7.1427 63.46338,-27.58563 0,-19.66297 -13.95702,-36.24719 -32.59373,-38.66913 l -62.80659,-9.81096 16.74843,-16.78947 c 3.2019,-3.20191 3.8587,-8.25107 1.60095,-12.23292 l -9.76991,-17.11788 15.68111,-20.894465 c 3.28402,-4.351297 2.50406,-10.63196 -1.76514,-13.998059 -4.26921,-3.366105 -10.34461,-2.586153 -13.62863,1.806201 l -19.70401,26.230983 c -2.42196,3.24295 -2.7093,7.63531 -0.69785,11.1656 l 9.31836,16.17372 -20.60713,20.64817 v -15.68113 c 0,-6.11643 -4.18711,-11.24769 -9.85202,-12.7255 V 98.670355 c 0,-1.806201 -1.47779,-3.284009 -3.28399,-3.284009 -1.80621,0 -3.28401,1.477808 -3.28401,3.284009 v 23.480615 c -5.66489,1.47781 -9.852,6.60907 -9.852,12.7255 v 15.64008 l -20.60713,-20.60712 9.27732,-16.21476 c 2.01145,-3.5303 1.72409,-7.92266 -0.69786,-11.16561 L 230.13229,76.298078 c -3.28399,-4.351305 -9.3594,-5.172306 -13.6286,-1.806202 -4.26922,3.366102 -5.00811,9.646764 -1.76515,13.998062 l 15.68111,20.894482 -9.81096,17.11786 c -2.25775,3.98186 -1.60096,9.031 1.60095,12.23291 l 16.74842,16.78947 -62.80656,9.81096 c -18.55462,2.463 -32.51165,19.04722 -32.51165,38.71019 0,34.72833 40.06486,52.13356 63.46338,27.54459 l 54.76076,-49.95791 v 0.12315 l -27.29828,35.46724 c -1.35466,1.76515 -2.09355,3.9408 -2.09355,6.19855 v 22.45438 l -17.28207,20.11453 c -3.53031,4.14605 -3.16086,10.46776 0.86206,14.08015 4.02288,3.61241 10.13935,3.24297 13.7107,-0.86205 l 19.70403,-22.94697 c 1.55989,-1.8062 2.42196,-4.1871 2.42196,-6.60906 v -22.74172 l 9.97515,-12.97182 v 25.90257 c 0,7.26588 5.87016,13.13603 13.13601,13.13603 7.26586,0 13.13601,-5.87015 13.13601,-13.13603 v -25.90257 l 9.97516,12.97182 v 22.74172 c 0,2.42196 0.86206,4.80286 2.42196,6.60906 l 19.70402,22.94697 c 3.53031,4.14606 9.68782,4.51551 13.71072,0.86205 z"
     id="path2"
     style="fill:#1172b5;fill-opacity:1;stroke-width:0.4105" />
</svg>
