<svg width="403" height="212" viewBox="0 0 403 212" fill="none" xmlns="http://www.w3.org/2000/svg">
<path d="M76.873 82.5615C77.6693 85.7794 80.8546 84.5727 82.3478 83.5671C85.3223 84.8549 86.8989 83.1177 87.3249 81.5562V90.1037C86.3989 89.1172 83.8989 90.1172 83.8989 91.1172C82.3063 91.1172 82.016 91.9473 81.8501 92.6177L97.8989 92.6172C97.8989 92.1172 96.8117 91.1172 95.3989 91.1172C94.5119 89.6009 92.8989 89.6009 91.8042 90.1037V82.5618C93.3969 83.7685 95.7859 82.7292 96.7813 82.0587C100.365 82.8629 101.261 79.7125 101.261 78.0367C104.899 75.6177 102.399 72.1177 101.261 71.5004C101.659 69.8915 99.3989 68.4833 98.2744 68.4833C97.4781 64.0585 93.961 63.6227 92.3019 63.958C90.3111 59.5334 86.7239 61.1115 84.8989 62.1172C81.3154 60.9105 79.5274 62.9526 79.3615 64.461C76.1762 64.461 75.7117 67.1425 75.8776 68.4833C72.8988 71.5004 73.8989 74.1177 75.8776 76.0252C73.0904 79.2431 75.3798 81.7235 76.873 82.5615Z" fill="#6B7427"/>
<path d="M76.873 33.5615C77.6693 36.7794 80.8546 35.5727 82.3478 34.5671C85.3223 35.8549 86.8989 34.1177 87.3249 32.5562V41.1037C86.3989 40.1172 83.8989 41.1172 83.8989 42.1172C82.3063 42.1172 82.016 42.9473 81.8501 43.6177L97.8989 43.6172C97.8989 43.1172 96.8117 42.1172 95.3989 42.1172C94.5119 40.6009 92.8989 40.6009 91.8042 41.1037V33.5618C93.3969 34.7685 95.7859 33.7292 96.7813 33.0587C100.365 33.8629 101.261 30.7125 101.261 29.0367C104.899 26.6177 102.399 23.1177 101.261 22.5004C101.659 20.8915 99.3989 19.4833 98.2744 19.4833C97.4781 15.0585 93.961 14.6227 92.3019 14.958C90.3111 10.5334 86.7239 12.1115 84.8989 13.1172C81.3154 11.9105 79.5274 13.9526 79.3615 15.461C76.1762 15.461 75.7117 18.1425 75.8776 19.4833C72.8988 22.5004 73.8989 25.1177 75.8776 27.0252C73.0904 30.2431 75.3798 32.7235 76.873 33.5615Z" fill="#0170B7"/>
<path fill-rule="evenodd" clip-rule="evenodd" d="M150.334 13.0009C150.576 13.0127 150.815 13.1103 151 13.2939L157.586 19.8798V14.0009C157.586 13.8173 157.636 13.6416 157.725 13.4931C157.801 13.3642 157.905 13.2548 158.028 13.1728C158.188 13.0634 158.38 13.0009 158.586 13.0009C159.138 13.0009 159.586 13.4502 159.586 14.0009V21.8798L165.293 27.5869C165.683 27.9775 165.683 28.6103 165.293 29.0009C165.102 29.1923 164.852 29.29 164.602 29.2939C164.341 29.2978 164.078 29.2002 163.879 29.0009L151 16.122C150.881 16.0048 150.74 15.9228 150.59 15.8759C150.403 15.8173 150.202 15.8134 150.014 15.8681C149.857 15.9111 149.709 15.997 149.586 16.122L136.707 29.0009C136.5 29.208 136.226 29.3056 135.955 29.2939C135.714 29.2822 135.477 29.1845 135.293 29.0009C135.106 28.8134 135.008 28.5713 135.001 28.3252C134.992 28.0595 135.09 27.79 135.293 27.5869L149.586 13.2939C149.791 13.0869 150.064 12.9892 150.334 13.0009ZM136.793 39.997V30.4228C136.793 30.1494 136.903 29.8916 137.099 29.7002L149.586 17.6767C149.739 17.5283 149.927 17.4384 150.123 17.4111C150.428 17.3642 150.752 17.458 150.987 17.6923L163 29.7041C163.188 29.8916 163.293 30.1455 163.293 30.4111V39.997C163.293 40.5478 162.845 40.997 162.293 40.997H137.793C137.459 40.997 137.163 40.833 136.982 40.5791C136.863 40.415 136.793 40.2158 136.793 39.997ZM146.439 29.4736C146.479 29.4111 146.526 29.3525 146.579 29.2978C146.761 29.1103 147.013 28.997 147.293 28.997H153.293C153.845 28.997 154.293 29.4463 154.293 29.997V37.997C154.293 38.5478 153.845 38.997 153.293 38.997H147.293C146.741 38.997 146.293 38.5478 146.293 37.997V29.997C146.293 29.8056 146.346 29.6259 146.439 29.4736Z" fill="#0170B7"/>
<path fill-rule="evenodd" clip-rule="evenodd" d="M149.586 62.293C149.976 61.9023 150.609 61.9023 151 62.293L157.586 68.8789V63C157.586 62.4492 158.034 62 158.586 62C159.138 62 159.586 62.4492 159.586 63V70.8789L165.293 76.5859C165.683 76.9766 165.683 77.6094 165.293 78C164.902 78.3906 164.269 78.3906 163.879 78L151 65.1211C150.609 64.7305 149.976 64.7305 149.586 65.1211L136.707 78C136.537 78.1719 136.321 78.2656 136.099 78.2891C135.811 78.3164 135.513 78.2188 135.293 78C134.902 77.6094 134.902 76.9766 135.293 76.5859L149.586 62.293ZM136.793 89V79.4258C136.793 79.1523 136.903 78.8945 137.099 78.7031L149.586 66.6797C149.83 66.4453 150.164 66.3594 150.474 66.4219C150.662 66.457 150.841 66.5508 150.987 66.6953L163 78.707C163.188 78.8945 163.293 79.1484 163.293 79.4141V89C163.293 89.2852 163.172 89.5469 162.977 89.7305C162.798 89.8984 162.558 90 162.293 90H137.793C137.516 90 137.266 89.8867 137.085 89.7031C136.904 89.5234 136.793 89.2734 136.793 89ZM146.293 79C146.293 78.4492 146.741 78 147.293 78H153.293C153.845 78 154.293 78.4492 154.293 79V87C154.293 87.5508 153.845 88 153.293 88H147.293C146.741 88 146.293 87.5508 146.293 87V79Z" fill="#6B7427"/>
<path d="M207 12H203L196 28H203.5L199.5 36H196L199 43.5L207.5 36H204.5L210.5 24H201.5L207 12Z" fill="#0170B7"/>
<path d="M207 61H203L196 77H203.5L199.5 85H196L199 92.5L207.5 85H204.5L210.5 73H201.5L207 61Z" fill="#6B7427"/>
<path fill-rule="evenodd" clip-rule="evenodd" d="M333 14C333 14.3594 332.905 14.6992 332.737 14.9922C332.393 15.5938 331.744 16 331 16C330.739 16 330.489 15.9492 330.26 15.8594L326.968 18.6445C326.989 18.7617 327 18.8789 327 19C327 19.4805 326.83 19.9219 326.547 20.2656C326.18 20.7148 325.623 21 325 21C324.032 21 323.225 20.3125 323.04 19.3984L320.329 18.4961C320.154 18.6523 319.95 18.7773 319.728 18.8633C319.502 18.9492 319.257 19 319 19C318.721 19 318.456 18.9414 318.215 18.8398L314 22L313.999 22.0547C313.971 23.1367 313.087 24 312 24L311.849 23.9922C311.735 23.9844 311.623 23.9688 311.515 23.9414L308.995 25.8555L309 26C309 26.2383 308.959 26.4648 308.883 26.6758C308.606 27.4492 307.867 28 307 28C305.896 28 305 27.1055 305 26C305 25.7383 305.05 25.4922 305.139 25.2656C305.242 25.0039 305.399 24.7695 305.595 24.5781C305.957 24.2227 306.453 24 307 24C307.116 24 307.23 24.0117 307.34 24.0312C307.528 24.0625 307.707 24.1172 307.873 24.1992L310.071 22.5273C310.024 22.3594 310 22.1836 310 22C310 20.8945 310.896 20 312 20C312.375 20 312.726 20.1016 313.026 20.2812L317.015 17.25C317.005 17.168 317 17.0859 317 17C317 15.8945 317.896 15 319 15C319.967 15 320.773 15.6875 320.959 16.5977L323.675 17.5C324.027 17.1875 324.492 17 325 17C325.237 17 325.464 17.043 325.675 17.1172L329.02 14.2852C329.007 14.1914 329 14.0977 329 14C329 12.8945 329.896 12 331 12C332.104 12 333 12.8945 333 14ZM329 24C329 23.4492 329.448 23 330 23H332C332.552 23 333 23.4492 333 24V41C333 41.5508 332.552 42 332 42H330C329.448 42 329 41.5508 329 41V24ZM318 26C317.448 26 317 26.4492 317 27V41C317 41.2812 317.117 41.5391 317.306 41.7227C317.374 41.7891 317.452 41.8438 317.536 41.8867C317.622 41.9297 317.714 41.9648 317.812 41.9805C317.873 41.9922 317.936 42 318 42H320C320.338 42 320.637 41.832 320.818 41.5742C320.933 41.4141 321 41.2148 321 41V27C321 26.4492 320.552 26 320 26H318ZM323 29C323 28.4492 323.448 28 324 28H326C326.552 28 327 28.4492 327 29V41C327 41.5508 326.552 42 326 42H324C323.448 42 323 41.5508 323 41V29ZM311.219 30.375C311.082 30.5469 311 30.7656 311 31V41C311 41.5508 311.448 42 312 42H314C314.552 42 315 41.5508 315 41V31C315 30.4492 314.552 30 314 30H312C311.684 30 311.402 30.1484 311.219 30.375ZM306 32C305.667 32 305.372 32.1641 305.19 32.4141C305.07 32.5781 305 32.7812 305 33V41C305 41.5508 305.448 42 306 42H308C308.552 42 309 41.5508 309 41V33C309 32.4492 308.552 32 308 32H306Z" fill="#0170B7"/>
<path fill-rule="evenodd" clip-rule="evenodd" d="M333 63C333 64.1055 332.104 65 331 65C330.739 65 330.489 64.9492 330.26 64.8594L326.968 67.6445C326.989 67.7617 327 67.8789 327 68C327 69.1055 326.104 70 325 70C324.032 70 323.225 69.3125 323.04 68.3984L320.329 67.4961C320.205 67.6055 320.066 67.6992 319.917 67.7773C319.642 67.918 319.331 68 319 68C318.871 68 318.745 67.9883 318.622 67.9648C318.481 67.9375 318.344 67.8945 318.215 67.8398L314 71L313.999 71.0547C313.971 72.1367 313.087 73 312 73C311.833 73 311.67 72.9805 311.515 72.9414L308.995 74.8555L309 75C309 76.1055 308.104 77 307 77C305.896 77 305 76.1055 305 75C305 73.8945 305.896 73 307 73C307.313 73 307.609 73.0703 307.873 73.1992L310.071 71.5273C310.024 71.3594 310 71.1836 310 71C310 69.8945 310.896 69 312 69C312.375 69 312.726 69.1016 313.026 69.2812L317.015 66.25L317.005 66.1406L317 66C317 64.8945 317.896 64 319 64C319.464 64 319.892 64.1602 320.231 64.4258C320.599 64.7148 320.863 65.125 320.959 65.5977L323.675 66.5C324.027 66.1875 324.492 66 325 66C325.237 66 325.464 66.043 325.675 66.1172L329.02 63.2852C329.007 63.1914 329 63.0977 329 63C329 62.3281 329.33 61.7344 329.836 61.3711C330.164 61.1367 330.566 61 331 61C331.39 61 331.754 61.1133 332.062 61.3047C332.625 61.6602 333 62.2852 333 63ZM329.3 72.2852C329.48 72.1094 329.727 72 330 72H332C332.552 72 333 72.4492 333 73V90C333 90.3672 332.799 90.6914 332.5 90.8633C332.353 90.9492 332.182 91 332 91H330C329.816 91 329.643 90.9492 329.495 90.8633C329.199 90.6914 329 90.3672 329 90V73C329 72.7227 329.115 72.4688 329.3 72.2852ZM317.075 75.6211C317.027 75.7383 317 75.8672 317 76V90C317 90.3125 317.145 90.5938 317.371 90.7773C317.543 90.9141 317.762 91 318 91H320C320.552 91 321 90.5508 321 90V76C321 75.4492 320.552 75 320 75H318C317.749 75 317.52 75.0938 317.344 75.2461C317.228 75.3477 317.135 75.4766 317.075 75.6211ZM323 78C323 77.4492 323.448 77 324 77H326C326.552 77 327 77.4492 327 78V90C327 90.5508 326.552 91 326 91H324C323.448 91 323 90.5508 323 90V78ZM312 79C311.448 79 311 79.4492 311 80V90C311 90.5508 311.448 91 312 91H314C314.552 91 315 90.5508 315 90V80C315 79.4492 314.552 79 314 79H312ZM306 81C305.448 81 305 81.4492 305 82V90C305 90.5508 305.448 91 306 91H308C308.552 91 309 90.5508 309 90V82C309 81.4492 308.552 81 308 81H306Z" fill="#6B7427"/>
<path fill-rule="evenodd" clip-rule="evenodd" d="M376.5 40C383.404 40 389 34.4023 389 27.5C389 20.5977 383.404 15 376.5 15C369.596 15 364 20.5977 364 27.5C364 34.4023 369.596 40 376.5 40ZM378 21V26H383V29H378V34H375V29H370V26H375V21H378Z" fill="#0170B7"/>
<path fill-rule="evenodd" clip-rule="evenodd" d="M376.5 89C383.404 89 389 83.4023 389 76.5C389 69.5977 383.404 64 376.5 64C369.596 64 364 69.5977 364 76.5C364 83.4023 369.596 89 376.5 89ZM378 70V75H383V78H378V83H375V78H370V75H375V70H378Z" fill="#6B7427"/>
<path fill-rule="evenodd" clip-rule="evenodd" d="M29 118L17 123V148H29V118ZM25 124H27V127H25V124ZM27 130H25V133H27V130ZM25 136H27V139H25V136ZM21 124H19V127H21V124ZM19 130H21V133H19V130ZM21 136H19V139H21V136ZM14 149H45V151H14V149ZM42 129L30 124V148H42V129ZM34 130H32V133H34V130ZM32 136H34V139H32V136ZM40 130H38V133H40V130ZM38 136H40V139H38V136Z" fill="#0170B7"/>
<path fill-rule="evenodd" clip-rule="evenodd" d="M29 167L17 172V197H29V167ZM25 173H27V176H25V173ZM27 179H25V182H27V179ZM25 185H27V188H25V185ZM21 173H19V176H21V173ZM19 179H21V182H19V179ZM21 185H19V188H21V185ZM14 198H45V200H14V198ZM42 178L30 173V197H42V178ZM34 179H32V182H34V179ZM32 185H34V188H32V185ZM40 179H38V182H40V179ZM38 185H40V188H38V185Z" fill="#6B7427"/>
<path fill-rule="evenodd" clip-rule="evenodd" d="M96 140.5C96 146.023 91.5228 150.5 86 150.5C80.4772 150.5 76 146.023 76 140.5C76 134.199 79.2424 129.273 84.2676 121.641L86 119C86.3237 119.523 86.7739 120.203 87.3057 121.004C90.3325 125.57 96 134.121 96 140.5ZM83.5476 125.5C81.8809 128 78 133.5 78 138.5C78 142.121 79.881 144.332 81.0476 145.5C79.0002 139 80.9277 132.051 83.5476 125.5Z" fill="#0170B7"/>
<path fill-rule="evenodd" clip-rule="evenodd" d="M96 189.5C96 195.023 91.5228 199.5 86 199.5C80.4772 199.5 76 195.023 76 189.5C76 183.199 79.2424 178.273 84.2676 170.641L86 168C88.1666 171.5 96 182 96 189.5ZM83.261 174.93C81.4755 177.59 78 182.77 78 187.5C78 191.121 79.881 193.332 81.0476 194.5C79.0002 188 80.9277 181.051 83.5476 174.5L83.261 174.93Z" fill="#6B7427"/>
<path fill-rule="evenodd" clip-rule="evenodd" d="M128.889 123L128.879 123.109L128.874 123.252C128.842 123.5 128.731 123.695 128.549 123.854C128.461 123.93 128.356 123.998 128.235 124.059C128.04 124.158 127.822 124.227 127.611 124.271C127.388 124.318 127.173 124.34 127 124.34V125.84C127.097 125.84 127.203 125.836 127.315 125.828C127.383 125.822 127.453 125.816 127.525 125.807L127.687 125.783C127.879 125.752 128.081 125.707 128.286 125.645C128.496 125.582 128.709 125.5 128.914 125.396C129.035 125.334 129.157 125.264 129.274 125.184C129.373 125.115 129.469 125.041 129.56 124.959L129.583 124.982C130.117 125.52 130.925 125.84 132.028 125.84C132.35 125.84 132.77 125.797 133.204 125.678C133.45 125.611 133.701 125.52 133.942 125.396C134.166 125.283 134.387 125.139 134.588 124.959L134.611 124.982C135.106 125.48 135.836 125.797 136.817 125.84L136.925 125.838L137.056 125.84C137.541 125.811 138.164 125.684 138.73 125.396C138.954 125.283 139.176 125.139 139.377 124.959L139.399 124.982C139.894 125.48 140.624 125.797 141.605 125.84L141.704 125.838L141.845 125.84C142.09 125.826 142.371 125.779 142.662 125.709C142.946 125.641 143.239 125.539 143.519 125.396C143.743 125.283 143.964 125.139 144.166 124.959L144.188 124.982C144.683 125.48 145.413 125.797 146.395 125.84L146.502 125.838L146.634 125.84C146.816 125.828 147.019 125.803 147.231 125.76C147.373 125.732 147.519 125.697 147.666 125.652C147.881 125.588 148.099 125.504 148.308 125.396C148.532 125.283 148.753 125.139 148.955 124.959L148.977 124.982C149.472 125.48 150.202 125.797 151.183 125.84L151.291 125.838L151.423 125.84C151.907 125.811 152.531 125.684 153.097 125.396C153.238 125.324 153.379 125.24 153.514 125.143C153.592 125.086 153.669 125.025 153.743 124.959L153.766 124.982C153.928 125.146 154.116 125.289 154.329 125.41C154.767 125.658 155.313 125.811 155.972 125.84L156.071 125.838L156.211 125.84L156.314 125.832L156.397 125.822L156.521 125.807L156.775 125.764C157.134 125.697 157.522 125.582 157.885 125.396C158.109 125.283 158.331 125.139 158.532 124.959L158.554 124.982C159.089 125.52 159.897 125.84 161 125.84V124.34C160.771 124.34 160.576 124.322 160.409 124.291C160.163 124.246 159.98 124.174 159.843 124.096C159.746 124.039 159.673 123.98 159.617 123.924C159.592 123.898 159.569 123.873 159.548 123.846C159.523 123.814 159.5 123.781 159.48 123.748C159.393 123.602 159.355 123.447 159.347 123.311C159.353 123.238 159.356 123.164 159.356 123.09L157.861 123L157.849 123.146L157.846 123.252C157.826 123.408 157.775 123.543 157.694 123.66C157.585 123.822 157.421 123.951 157.207 124.059C157.121 124.102 157.03 124.139 156.938 124.172C156.854 124.201 156.769 124.227 156.684 124.248L156.549 124.279C156.38 124.312 156.217 124.332 156.074 124.338C155.358 124.314 155.004 124.1 154.829 123.924C154.643 123.738 154.569 123.504 154.558 123.311C154.564 123.238 154.567 123.164 154.567 123.09L153.072 123L153.061 123.127L153.057 123.252C153.01 123.619 152.788 123.871 152.418 124.059C152.055 124.242 151.615 124.324 151.286 124.338C151.035 124.33 150.828 124.299 150.658 124.254C150.344 124.168 150.154 124.037 150.04 123.924C149.963 123.848 149.905 123.762 149.863 123.674C149.804 123.551 149.776 123.424 149.77 123.311L149.776 123.195L149.778 123.09L148.284 123C148.274 123.082 148.269 123.166 148.269 123.252C148.221 123.619 148 123.871 147.63 124.059C147.267 124.242 146.826 124.324 146.497 124.338C146.012 124.322 145.694 124.219 145.484 124.1C145.384 124.041 145.308 123.98 145.251 123.924C145.15 123.822 145.082 123.707 145.039 123.592C145.018 123.535 145.003 123.477 144.993 123.42C144.987 123.383 144.983 123.346 144.981 123.311C144.986 123.238 144.989 123.164 144.989 123.09L143.495 123C143.485 123.082 143.48 123.166 143.479 123.252C143.454 123.451 143.377 123.615 143.254 123.754C143.216 123.797 143.174 123.836 143.128 123.875C143.046 123.943 142.95 124.004 142.841 124.059C142.478 124.242 142.037 124.324 141.708 124.338C140.992 124.314 140.638 124.1 140.462 123.924C140.277 123.738 140.203 123.504 140.192 123.311C140.198 123.238 140.201 123.164 140.201 123.09L138.706 123C138.696 123.082 138.691 123.166 138.691 123.252C138.667 123.441 138.596 123.6 138.483 123.734C138.376 123.861 138.232 123.967 138.052 124.059C137.803 124.184 137.518 124.262 137.258 124.303C137.137 124.322 137.025 124.334 136.921 124.338C136.614 124.328 136.373 124.281 136.185 124.221C135.933 124.139 135.774 124.025 135.674 123.924C135.488 123.738 135.414 123.504 135.404 123.311L135.41 123.207L135.412 123.09L133.917 123C133.908 123.082 133.903 123.166 133.902 123.252C133.855 123.619 133.634 123.871 133.263 124.059C132.969 124.207 132.623 124.289 132.327 124.322C132.219 124.334 132.118 124.34 132.028 124.34C131.219 124.34 130.832 124.111 130.646 123.924C130.46 123.738 130.386 123.504 130.375 123.311C130.381 123.238 130.384 123.164 130.384 123.09L128.889 123ZM128.889 127C128.879 127.082 128.874 127.166 128.874 127.252C128.827 127.619 128.605 127.871 128.235 128.059C127.99 128.182 127.71 128.26 127.453 128.301C127.288 128.328 127.131 128.34 127 128.34V129.84C127.504 129.84 128.249 129.734 128.914 129.396L129.045 129.324C129.115 129.285 129.184 129.242 129.252 129.197L129.37 129.115L129.458 129.047L129.56 128.959L129.583 128.982C130.117 129.52 130.925 129.84 132.028 129.84C132.532 129.84 133.277 129.734 133.942 129.396L134.094 129.314L134.168 129.271L134.226 129.234L134.308 129.18L134.419 129.1C134.477 129.055 134.533 129.008 134.588 128.959L134.611 128.982C134.726 129.098 134.854 129.203 134.994 129.299C135.061 129.344 135.13 129.387 135.202 129.426C135.286 129.473 135.374 129.516 135.466 129.555C135.651 129.635 135.852 129.699 136.07 129.746C136.3 129.797 136.549 129.828 136.817 129.84L136.903 129.838H136.923L137.056 129.84C137.222 129.83 137.404 129.801 137.595 129.768C137.673 129.754 137.752 129.738 137.832 129.719L138.03 129.668C138.264 129.602 138.502 129.514 138.73 129.396C138.954 129.283 139.176 129.139 139.377 128.959L139.399 128.982C139.894 129.48 140.624 129.797 141.605 129.84L141.713 129.838L141.845 129.84C142.329 129.811 142.953 129.684 143.519 129.396C143.743 129.283 143.964 129.139 144.166 128.959L144.188 128.982C144.683 129.48 145.413 129.797 146.395 129.84L146.502 129.838L146.634 129.84C146.738 129.834 146.848 129.822 146.963 129.807C147.167 129.777 147.386 129.734 147.608 129.67C147.842 129.602 148.08 129.512 148.308 129.396C148.532 129.283 148.753 129.139 148.955 128.959L148.977 128.982C149.037 129.043 149.1 129.1 149.167 129.154L149.278 129.238C149.407 129.334 149.549 129.42 149.703 129.494C150.111 129.689 150.603 129.814 151.183 129.84L151.291 129.838L151.423 129.84C151.907 129.811 152.531 129.684 153.097 129.396C153.32 129.283 153.542 129.139 153.743 128.959L153.766 128.982C154.261 129.48 154.991 129.797 155.972 129.84L156.08 129.838L156.211 129.84C156.459 129.824 156.744 129.785 157.039 129.711C157.192 129.672 157.347 129.623 157.502 129.566C157.631 129.518 157.76 129.461 157.885 129.396C158.109 129.283 158.331 129.139 158.532 128.959L158.554 128.982C158.792 129.221 159.083 129.416 159.43 129.561C159.865 129.74 160.387 129.84 161 129.84V128.34C160.191 128.34 159.804 128.111 159.617 127.924C159.432 127.738 159.358 127.504 159.347 127.311L159.353 127.223L159.356 127.09L157.861 127L157.848 127.156L157.846 127.252C157.799 127.619 157.577 127.871 157.207 128.059C156.844 128.242 156.404 128.324 156.074 128.338C155.807 128.33 155.59 128.295 155.414 128.244C155.119 128.16 154.939 128.033 154.829 127.924C154.736 127.83 154.671 127.725 154.628 127.619C154.585 127.514 154.564 127.406 154.558 127.311C154.564 127.238 154.567 127.164 154.567 127.09L153.072 127C153.062 127.082 153.057 127.166 153.057 127.252C153.01 127.619 152.788 127.871 152.418 128.059C152.055 128.242 151.615 128.324 151.286 128.338C150.569 128.314 150.216 128.1 150.04 127.924C149.951 127.836 149.888 127.736 149.845 127.637C149.809 127.551 149.787 127.463 149.776 127.381L149.77 127.311C149.775 127.238 149.778 127.164 149.778 127.09L148.284 127L148.273 127.115L148.269 127.252C148.221 127.619 148 127.871 147.63 128.059C147.267 128.242 146.826 128.324 146.497 128.338C145.781 128.314 145.427 128.1 145.251 127.924C145.196 127.869 145.15 127.809 145.114 127.746C145.093 127.711 145.074 127.676 145.059 127.641C145.044 127.607 145.031 127.572 145.021 127.537C144.997 127.459 144.985 127.383 144.981 127.311C144.986 127.238 144.989 127.164 144.989 127.09L143.495 127L143.486 127.092L143.479 127.252C143.432 127.619 143.211 127.871 142.841 128.059C142.478 128.242 142.037 128.324 141.708 128.338C140.992 128.314 140.638 128.1 140.462 127.924C140.277 127.738 140.203 127.504 140.192 127.311C140.198 127.238 140.201 127.164 140.201 127.09L138.706 127L138.695 127.117L138.691 127.252C138.644 127.619 138.422 127.871 138.052 128.059C137.689 128.242 137.249 128.324 136.92 128.338C136.686 128.33 136.491 128.301 136.328 128.26L136.208 128.227C136.142 128.205 136.083 128.184 136.03 128.16C135.865 128.088 135.752 128.002 135.674 127.924L135.615 127.859L135.565 127.795C135.52 127.729 135.485 127.658 135.46 127.588C135.426 127.492 135.408 127.396 135.404 127.311C135.409 127.238 135.412 127.164 135.412 127.09L133.917 127C133.908 127.082 133.903 127.166 133.902 127.252C133.855 127.619 133.634 127.871 133.263 128.059C132.862 128.262 132.364 128.34 132.028 128.34C131.577 128.34 131.257 128.27 131.03 128.174C130.85 128.098 130.728 128.006 130.646 127.924C130.562 127.842 130.502 127.748 130.459 127.654C130.406 127.537 130.381 127.418 130.375 127.311C130.381 127.238 130.384 127.164 130.384 127.09L128.889 127ZM128.874 131.252C128.874 131.166 128.879 131.082 128.889 131L130.384 131.09C130.384 131.164 130.381 131.238 130.375 131.311C130.386 131.504 130.46 131.738 130.646 131.924C130.832 132.111 131.219 132.34 132.028 132.34C132.364 132.34 132.862 132.262 133.263 132.059C133.634 131.871 133.855 131.619 133.902 131.252C133.903 131.166 133.908 131.082 133.917 131L135.412 131.09C135.412 131.164 135.409 131.238 135.404 131.311C135.414 131.504 135.488 131.738 135.674 131.924C135.752 132.002 135.865 132.088 136.028 132.16C136.234 132.252 136.521 132.324 136.92 132.338C137.249 132.324 137.689 132.242 138.052 132.059C138.266 131.949 138.431 131.818 138.54 131.658C138.62 131.541 138.671 131.406 138.691 131.252C138.691 131.166 138.696 131.082 138.706 131L140.201 131.09C140.201 131.164 140.198 131.238 140.192 131.311C140.203 131.504 140.277 131.738 140.462 131.924C140.638 132.1 140.992 132.314 141.708 132.338C142.037 132.324 142.478 132.242 142.841 132.059C143.211 131.871 143.432 131.619 143.479 131.252C143.48 131.166 143.485 131.082 143.495 131L144.989 131.09C144.989 131.164 144.986 131.238 144.981 131.311C144.991 131.504 145.065 131.738 145.251 131.924C145.426 132.1 145.777 132.312 146.487 132.338C146.683 132.33 146.92 132.299 147.156 132.236C147.319 132.193 147.481 132.135 147.63 132.059C148 131.871 148.221 131.619 148.269 131.252L148.273 131.115L148.284 131L149.778 131.09L149.776 131.199L149.77 131.311C149.772 131.348 149.776 131.385 149.783 131.424C149.792 131.473 149.805 131.523 149.823 131.574C149.865 131.695 149.934 131.818 150.04 131.924C150.216 132.1 150.569 132.314 151.286 132.338C151.368 132.334 151.457 132.326 151.55 132.314C151.661 132.301 151.777 132.279 151.894 132.25C151.994 132.225 152.094 132.193 152.191 132.158C152.269 132.129 152.345 132.096 152.418 132.059C152.606 131.963 152.756 131.852 152.864 131.715C152.918 131.646 152.962 131.572 152.995 131.492C153.025 131.418 153.046 131.338 153.057 131.252L153.06 131.152L153.072 131L154.567 131.09C154.567 131.164 154.564 131.238 154.558 131.311C154.569 131.504 154.643 131.738 154.829 131.924C154.892 131.988 154.979 132.057 155.097 132.119C155.307 132.23 155.616 132.322 156.074 132.338C156.404 132.324 156.844 132.242 157.207 132.059C157.577 131.871 157.799 131.619 157.846 131.252L157.848 131.158L157.861 131L159.356 131.09C159.356 131.164 159.353 131.238 159.347 131.311C159.358 131.504 159.432 131.738 159.617 131.924C159.804 132.111 160.191 132.34 161 132.34V133.84C160.581 133.84 160.204 133.793 159.868 133.707C159.613 133.641 159.382 133.551 159.175 133.439C158.972 133.332 158.792 133.203 158.635 133.059L158.554 132.982L158.532 132.959C158.331 133.139 158.109 133.283 157.885 133.396C157.533 133.574 157.159 133.691 156.81 133.76C156.598 133.803 156.395 133.828 156.211 133.84L156.08 133.838L155.972 133.84C155.505 133.82 155.095 133.738 154.74 133.604C154.349 133.455 154.025 133.244 153.766 132.982L153.743 132.959C153.542 133.139 153.32 133.283 153.097 133.396C152.793 133.551 152.473 133.656 152.167 133.727C151.902 133.787 151.647 133.826 151.423 133.84L151.291 133.838L151.183 133.84C150.202 133.797 149.472 133.48 148.977 132.982L148.955 132.959C148.753 133.139 148.532 133.283 148.308 133.396C147.742 133.684 147.118 133.811 146.634 133.84L146.502 133.838L146.395 133.84C145.413 133.797 144.683 133.48 144.188 132.982L144.166 132.959C143.964 133.139 143.743 133.283 143.519 133.396C143.222 133.547 142.908 133.654 142.608 133.725C142.336 133.789 142.075 133.826 141.845 133.84L141.713 133.838L141.605 133.84C140.624 133.797 139.894 133.48 139.399 132.982L139.377 132.959C139.176 133.139 138.954 133.283 138.73 133.396C138.164 133.684 137.541 133.811 137.056 133.84L136.925 133.838L136.817 133.84C136.472 133.824 136.159 133.775 135.876 133.697L135.754 133.66L135.61 133.611C135.504 133.572 135.404 133.529 135.308 133.482C135.164 133.41 135.031 133.328 134.909 133.238C134.802 133.16 134.702 133.074 134.611 132.982L134.588 132.959C134.387 133.139 134.166 133.283 133.942 133.396C133.277 133.734 132.532 133.84 132.028 133.84C130.925 133.84 130.117 133.52 129.583 132.982L129.56 132.959C129.359 133.139 129.137 133.283 128.914 133.396C128.249 133.734 127.504 133.84 127 133.84V132.34C127.336 132.34 127.833 132.262 128.235 132.059C128.605 131.871 128.827 131.619 128.874 131.252ZM128.889 135C128.879 135.082 128.874 135.166 128.874 135.252C128.827 135.619 128.605 135.871 128.235 136.059C127.833 136.262 127.336 136.34 127 136.34V137.84C127.118 137.84 127.249 137.834 127.389 137.822C127.472 137.814 127.558 137.803 127.647 137.789C128.048 137.729 128.496 137.609 128.914 137.396C129.137 137.283 129.359 137.139 129.56 136.959L129.583 136.982C130.117 137.52 130.925 137.84 132.028 137.84C132.242 137.84 132.498 137.82 132.774 137.773C133.149 137.709 133.559 137.592 133.942 137.396C134.166 137.283 134.387 137.139 134.588 136.959L134.611 136.982C135.106 137.48 135.836 137.797 136.817 137.84L136.925 137.838L137.056 137.84C137.541 137.811 138.164 137.684 138.73 137.396C138.855 137.334 138.979 137.262 139.098 137.178L139.246 137.07L139.377 136.959L139.399 136.982C139.577 137.16 139.784 137.316 140.023 137.443C140.199 137.537 140.393 137.617 140.604 137.68C140.73 137.717 140.863 137.748 141.002 137.773C141.191 137.809 141.393 137.83 141.605 137.84L141.713 137.838L141.845 137.84C142.329 137.811 142.953 137.684 143.519 137.396C143.743 137.283 143.964 137.139 144.166 136.959L144.188 136.982C144.683 137.48 145.413 137.797 146.395 137.84L146.502 137.838L146.634 137.84C146.876 137.824 147.154 137.785 147.441 137.713L147.597 137.67L147.792 137.611C147.966 137.553 148.139 137.482 148.308 137.396C148.532 137.283 148.753 137.139 148.955 136.959L148.977 136.982C149.472 137.48 150.202 137.797 151.183 137.84L151.291 137.838L151.423 137.84C151.907 137.811 152.531 137.684 153.097 137.396C153.164 137.363 153.232 137.326 153.299 137.285L153.442 137.193L153.566 137.104C153.627 137.059 153.686 137.01 153.743 136.959L153.766 136.982C153.953 137.17 154.173 137.332 154.428 137.463C154.848 137.68 155.361 137.812 155.972 137.84L156.08 137.838L156.211 137.84C156.351 137.83 156.502 137.814 156.66 137.789C156.813 137.764 156.973 137.729 157.135 137.684C157.252 137.652 157.37 137.615 157.488 137.572C157.622 137.521 157.755 137.463 157.885 137.396C158.109 137.283 158.331 137.139 158.532 136.959L158.554 136.982C158.809 137.238 159.125 137.445 159.505 137.592C159.925 137.752 160.422 137.84 161 137.84V136.34C160.191 136.34 159.804 136.111 159.617 135.924C159.432 135.738 159.358 135.504 159.347 135.311C159.353 135.238 159.356 135.164 159.356 135.09L157.861 135L157.848 135.158L157.846 135.252C157.799 135.619 157.577 135.871 157.207 136.059C156.844 136.242 156.404 136.324 156.074 136.338C155.358 136.314 155.004 136.1 154.829 135.924C154.643 135.738 154.569 135.504 154.558 135.311C154.564 135.238 154.567 135.164 154.567 135.09L153.072 135C153.062 135.082 153.057 135.166 153.057 135.252C153.04 135.383 153.001 135.5 152.941 135.604C152.902 135.672 152.853 135.734 152.795 135.793C152.73 135.859 152.653 135.922 152.565 135.977L152.514 136.006L152.479 136.025L152.418 136.059C152.137 136.201 151.81 136.281 151.523 136.316L151.367 136.332L151.283 136.338C150.569 136.312 150.216 136.1 150.04 135.924C149.854 135.738 149.781 135.504 149.77 135.311L149.776 135.201L149.778 135.09L148.284 135L148.273 135.117L148.269 135.252C148.221 135.619 148 135.871 147.63 136.059C147.267 136.242 146.826 136.324 146.496 136.338C146.257 136.33 146.058 136.301 145.892 136.258C145.563 136.174 145.368 136.041 145.251 135.924C145.065 135.738 144.991 135.504 144.981 135.311C144.986 135.238 144.989 135.164 144.989 135.09L143.495 135L143.486 135.092L143.479 135.252C143.432 135.619 143.211 135.871 142.841 136.059C142.478 136.242 142.037 136.324 141.708 136.338C140.992 136.314 140.638 136.1 140.462 135.924C140.277 135.738 140.203 135.504 140.192 135.311C140.198 135.238 140.201 135.164 140.201 135.09L138.706 135C138.696 135.082 138.691 135.166 138.691 135.252C138.663 135.469 138.573 135.646 138.428 135.793C138.329 135.895 138.203 135.982 138.052 136.059C137.689 136.242 137.249 136.324 136.919 136.338C136.203 136.314 135.85 136.1 135.674 135.924C135.488 135.738 135.414 135.504 135.404 135.311C135.409 135.238 135.412 135.164 135.412 135.09L133.917 135C133.908 135.082 133.903 135.166 133.902 135.252C133.855 135.619 133.634 135.871 133.263 136.059C132.862 136.262 132.364 136.34 132.028 136.34C131.705 136.34 131.449 136.303 131.246 136.248C130.942 136.164 130.758 136.037 130.646 135.924C130.46 135.738 130.386 135.504 130.375 135.311C130.381 135.238 130.384 135.164 130.384 135.09L128.889 135ZM128.874 139.252C128.874 139.166 128.879 139.082 128.889 139L130.384 139.09C130.384 139.164 130.381 139.238 130.375 139.311C130.378 139.369 130.387 139.432 130.404 139.494C130.423 139.57 130.453 139.648 130.496 139.725C130.534 139.795 130.584 139.861 130.646 139.924C130.832 140.111 131.219 140.34 132.028 140.34C132.364 140.34 132.862 140.262 133.263 140.059C133.422 139.979 133.553 139.887 133.655 139.779C133.732 139.697 133.792 139.607 133.834 139.506L133.855 139.453L133.883 139.359L133.902 139.252C133.903 139.166 133.908 139.082 133.917 139L135.412 139.09L135.41 139.201L135.404 139.311L135.416 139.416C135.424 139.463 135.435 139.512 135.451 139.561C135.475 139.633 135.509 139.705 135.553 139.773L135.603 139.844L135.63 139.877L135.674 139.924C135.85 140.1 136.203 140.314 136.919 140.338C137.249 140.324 137.689 140.242 138.052 140.059C138.225 139.971 138.366 139.869 138.471 139.748C138.529 139.682 138.577 139.609 138.613 139.529C138.632 139.486 138.648 139.443 138.661 139.398C138.674 139.352 138.684 139.303 138.691 139.252L138.696 139.117L138.706 139L140.201 139.09C140.201 139.164 140.198 139.238 140.192 139.311C140.203 139.504 140.277 139.738 140.462 139.924C140.57 140.031 140.745 140.154 141.03 140.238C141.209 140.291 141.431 140.328 141.708 140.338C142.037 140.324 142.478 140.242 142.841 140.059C143.211 139.871 143.432 139.619 143.479 139.252C143.48 139.166 143.485 139.082 143.495 139L144.989 139.09C144.989 139.164 144.986 139.238 144.981 139.311C144.991 139.504 145.065 139.738 145.251 139.924C145.427 140.1 145.781 140.314 146.497 140.338C146.826 140.324 147.267 140.242 147.63 140.059C147.818 139.963 147.968 139.85 148.076 139.715C148.118 139.662 148.153 139.607 148.182 139.547C148.226 139.457 148.255 139.359 148.269 139.252C148.269 139.166 148.274 139.082 148.284 139L149.778 139.09C149.778 139.164 149.775 139.238 149.77 139.311L149.777 139.385L149.793 139.473L149.823 139.576C149.848 139.646 149.882 139.719 149.927 139.787C149.959 139.834 149.997 139.881 150.04 139.924C150.216 140.1 150.569 140.314 151.286 140.338C151.615 140.324 152.055 140.242 152.418 140.059C152.788 139.871 153.01 139.619 153.057 139.252C153.057 139.166 153.062 139.082 153.072 139L154.567 139.09C154.567 139.164 154.564 139.238 154.558 139.311C154.569 139.504 154.643 139.738 154.829 139.924C155.004 140.1 155.358 140.314 156.074 140.338C156.404 140.324 156.844 140.242 157.207 140.059C157.412 139.955 157.572 139.83 157.681 139.678C157.769 139.557 157.825 139.416 157.846 139.252L157.848 139.158L157.861 139L159.356 139.09L159.353 139.223L159.347 139.311C159.358 139.504 159.432 139.738 159.617 139.924C159.804 140.111 160.191 140.34 161 140.34V141.84C159.897 141.84 159.089 141.52 158.554 140.982L158.532 140.959C158.331 141.139 158.109 141.283 157.885 141.396C157.319 141.684 156.695 141.811 156.211 141.84L156.08 141.838L155.972 141.84C155.291 141.811 154.731 141.648 154.287 141.385C154.091 141.27 153.917 141.135 153.766 140.982L153.743 140.959C153.542 141.139 153.32 141.283 153.097 141.396C152.531 141.684 151.907 141.811 151.423 141.84L151.291 141.838L151.183 141.84C150.202 141.797 149.472 141.48 148.977 140.982L148.955 140.959C148.836 141.064 148.71 141.158 148.581 141.242C148.491 141.299 148.4 141.35 148.308 141.396C147.742 141.684 147.118 141.811 146.634 141.84L146.502 141.838L146.395 141.84C145.413 141.797 144.683 141.48 144.188 140.982L144.166 140.959L144.048 141.059L143.984 141.109C143.873 141.191 143.758 141.266 143.642 141.33L143.519 141.396C143.374 141.471 143.224 141.533 143.075 141.586C142.642 141.742 142.205 141.818 141.845 141.84L141.713 141.838L141.605 141.84C140.998 141.812 140.487 141.682 140.069 141.467C139.811 141.336 139.588 141.172 139.399 140.982L139.377 140.959C139.281 141.045 139.181 141.121 139.078 141.191C138.964 141.27 138.848 141.338 138.73 141.396C138.164 141.684 137.541 141.811 137.056 141.84L136.925 141.838L136.817 141.84C136.177 141.812 135.645 141.668 135.214 141.432C135.131 141.387 135.052 141.338 134.976 141.285L134.912 141.238C134.867 141.207 134.824 141.174 134.782 141.139C134.722 141.09 134.665 141.037 134.611 140.982L134.588 140.959C134.387 141.139 134.166 141.283 133.942 141.396C133.277 141.734 132.532 141.84 132.028 141.84C131.577 141.84 131.175 141.787 130.822 141.688C130.31 141.543 129.898 141.301 129.583 140.982L129.56 140.959C129.359 141.139 129.137 141.283 128.914 141.396C128.249 141.734 127.504 141.84 127 141.84V140.34C127.336 140.34 127.833 140.262 128.235 140.059C128.605 139.871 128.827 139.619 128.874 139.252ZM128.889 143C128.879 143.082 128.874 143.166 128.874 143.252C128.85 143.439 128.781 143.596 128.669 143.73C128.562 143.859 128.417 143.967 128.235 144.059C128.147 144.104 128.054 144.143 127.96 144.176C127.827 144.221 127.69 144.258 127.557 144.283C127.353 144.322 127.159 144.34 127 144.34V145.84C127.504 145.84 128.249 145.734 128.914 145.396C129.137 145.283 129.359 145.139 129.56 144.959L129.583 144.982C130.117 145.52 130.925 145.84 132.028 145.84C132.34 145.84 132.744 145.801 133.164 145.689C133.25 145.668 133.336 145.641 133.423 145.611L133.619 145.541C133.728 145.498 133.836 145.451 133.942 145.396C134.068 145.332 134.194 145.258 134.316 145.174C134.409 145.109 134.501 145.037 134.588 144.959L134.611 144.982C134.825 145.197 135.083 145.379 135.386 145.52C135.784 145.703 136.26 145.816 136.817 145.84L136.925 145.838L137.056 145.84C137.541 145.811 138.164 145.684 138.73 145.396C138.954 145.283 139.176 145.139 139.377 144.959L139.399 144.982C139.686 145.27 140.05 145.496 140.497 145.643C140.823 145.752 141.192 145.822 141.605 145.84L141.713 145.838L141.845 145.84C141.947 145.834 142.055 145.824 142.168 145.809C142.324 145.785 142.489 145.754 142.656 145.713C142.782 145.682 142.91 145.645 143.037 145.602C143.136 145.566 143.235 145.529 143.332 145.484L143.519 145.396C143.743 145.283 143.964 145.139 144.166 144.959L144.188 144.982C144.683 145.48 145.413 145.797 146.395 145.84L146.502 145.838L146.634 145.84C147.118 145.811 147.742 145.684 148.308 145.396C148.532 145.283 148.753 145.139 148.955 144.959L148.977 144.982C149.472 145.48 150.202 145.797 151.183 145.84L151.293 145.838L151.423 145.84C151.498 145.836 151.577 145.826 151.658 145.816L151.726 145.805C152.153 145.75 152.643 145.627 153.097 145.396C153.32 145.283 153.542 145.139 153.743 144.959L153.766 144.982C154.261 145.48 154.991 145.797 155.972 145.84C156.007 145.84 156.043 145.838 156.08 145.838C156.123 145.838 156.167 145.84 156.211 145.84C156.695 145.811 157.319 145.684 157.885 145.396C158.109 145.283 158.331 145.139 158.532 144.959L158.554 144.982C159.089 145.52 159.897 145.84 161 145.84V144.34C160.404 144.34 160.037 144.217 159.81 144.076C159.729 144.025 159.667 143.973 159.617 143.924C159.432 143.738 159.358 143.504 159.347 143.311C159.353 143.238 159.356 143.164 159.356 143.09L157.861 143L157.849 143.145L157.846 143.252C157.799 143.619 157.577 143.871 157.207 144.059C156.844 144.242 156.404 144.324 156.074 144.338C155.761 144.328 155.517 144.279 155.327 144.217C155.083 144.135 154.927 144.023 154.829 143.924C154.643 143.738 154.569 143.504 154.558 143.311C154.564 143.238 154.567 143.164 154.567 143.09L153.072 143L153.06 143.145L153.057 143.252C153.01 143.619 152.788 143.871 152.418 144.059C152.249 144.145 152.062 144.207 151.878 144.252C151.668 144.305 151.462 144.33 151.286 144.338C150.57 144.314 150.216 144.1 150.04 143.924C149.988 143.871 149.945 143.814 149.909 143.756C149.877 143.703 149.851 143.65 149.831 143.598C149.794 143.5 149.775 143.4 149.77 143.311C149.775 143.238 149.778 143.164 149.778 143.09L148.284 143C148.274 143.082 148.269 143.166 148.269 143.252C148.221 143.619 148 143.871 147.63 144.059C147.267 144.242 146.826 144.324 146.497 144.338C145.781 144.314 145.427 144.1 145.251 143.924C145.065 143.738 144.991 143.504 144.981 143.311C144.986 143.238 144.989 143.164 144.989 143.09L143.495 143L143.486 143.092L143.479 143.252C143.432 143.619 143.211 143.871 142.841 144.059C142.613 144.174 142.354 144.248 142.112 144.293C142.021 144.309 141.932 144.32 141.848 144.328L141.708 144.338C140.992 144.314 140.638 144.1 140.462 143.924C140.277 143.738 140.203 143.504 140.192 143.311C140.198 143.238 140.201 143.164 140.201 143.09L138.706 143C138.696 143.082 138.691 143.166 138.691 143.252C138.644 143.619 138.422 143.871 138.052 144.059C137.689 144.242 137.249 144.324 136.919 144.338C136.424 144.32 136.103 144.213 135.893 144.092L135.82 144.045C135.785 144.021 135.753 143.996 135.725 143.971L135.674 143.924C135.579 143.83 135.513 143.723 135.47 143.613C135.429 143.51 135.409 143.406 135.404 143.311C135.409 143.238 135.412 143.164 135.412 143.09L133.917 143L133.905 143.145L133.902 143.252C133.855 143.619 133.634 143.871 133.263 144.059C132.862 144.262 132.364 144.34 132.028 144.34C131.219 144.34 130.832 144.111 130.646 143.924C130.553 143.832 130.488 143.727 130.445 143.621C130.402 143.516 130.381 143.408 130.375 143.311C130.381 143.238 130.384 143.164 130.384 143.09L128.889 143Z" fill="#0170B7"/>
<path fill-rule="evenodd" clip-rule="evenodd" d="M128.889 172L128.879 172.109L128.874 172.252C128.842 172.5 128.731 172.695 128.549 172.854C128.461 172.93 128.356 172.998 128.235 173.059C128.04 173.158 127.822 173.227 127.611 173.271C127.388 173.318 127.173 173.34 127 173.34V174.84C127.097 174.84 127.203 174.836 127.315 174.828C127.383 174.822 127.453 174.816 127.525 174.807L127.687 174.783C127.879 174.752 128.081 174.707 128.286 174.645C128.496 174.582 128.709 174.5 128.914 174.396C129.035 174.334 129.157 174.264 129.274 174.184C129.373 174.115 129.469 174.041 129.56 173.959L129.583 173.982C130.117 174.52 130.925 174.84 132.028 174.84C132.35 174.84 132.77 174.797 133.204 174.678C133.45 174.611 133.701 174.52 133.942 174.396C134.166 174.283 134.387 174.139 134.588 173.959L134.611 173.982C135.106 174.48 135.836 174.797 136.817 174.84L136.925 174.838L137.056 174.84C137.541 174.811 138.164 174.684 138.73 174.396C138.954 174.283 139.176 174.139 139.377 173.959L139.399 173.982C139.894 174.48 140.624 174.797 141.605 174.84L141.704 174.838L141.845 174.84C142.09 174.826 142.371 174.779 142.662 174.709C142.946 174.641 143.239 174.539 143.519 174.396C143.743 174.283 143.964 174.139 144.166 173.959L144.188 173.982C144.683 174.48 145.413 174.797 146.395 174.84L146.502 174.838L146.634 174.84C146.816 174.828 147.019 174.803 147.231 174.76C147.373 174.732 147.519 174.697 147.666 174.652C147.881 174.588 148.099 174.504 148.308 174.396C148.532 174.283 148.753 174.139 148.955 173.959L148.977 173.982C149.472 174.48 150.202 174.797 151.183 174.84L151.291 174.838L151.423 174.84C151.907 174.811 152.531 174.684 153.097 174.396C153.238 174.324 153.379 174.24 153.514 174.143C153.592 174.086 153.669 174.025 153.743 173.959L153.766 173.982C153.928 174.146 154.116 174.289 154.329 174.41C154.767 174.658 155.313 174.811 155.972 174.84L156.071 174.838L156.211 174.84L156.314 174.832L156.397 174.822L156.521 174.807L156.775 174.764C157.134 174.697 157.522 174.582 157.885 174.396C158.109 174.283 158.331 174.139 158.532 173.959L158.554 173.982C159.089 174.52 159.897 174.84 161 174.84V173.34C160.771 173.34 160.576 173.322 160.409 173.291C160.163 173.246 159.98 173.174 159.843 173.096C159.746 173.039 159.673 172.98 159.617 172.924C159.592 172.898 159.569 172.873 159.548 172.846C159.523 172.814 159.5 172.781 159.48 172.748C159.393 172.602 159.355 172.447 159.347 172.311C159.353 172.238 159.356 172.164 159.356 172.09L157.861 172L157.849 172.146L157.846 172.252C157.826 172.408 157.775 172.543 157.694 172.66C157.585 172.822 157.421 172.951 157.207 173.059C157.121 173.102 157.03 173.139 156.938 173.172C156.854 173.201 156.769 173.227 156.684 173.248L156.549 173.279C156.38 173.312 156.217 173.332 156.074 173.338C155.358 173.314 155.004 173.1 154.829 172.924C154.643 172.738 154.569 172.504 154.558 172.311C154.564 172.238 154.567 172.164 154.567 172.09L153.072 172L153.061 172.127L153.057 172.252C153.01 172.619 152.788 172.871 152.418 173.059C152.055 173.242 151.615 173.324 151.286 173.338C151.035 173.33 150.828 173.299 150.658 173.254C150.344 173.168 150.154 173.037 150.04 172.924C149.963 172.848 149.905 172.762 149.863 172.674C149.804 172.551 149.776 172.424 149.77 172.311L149.776 172.195L149.778 172.09L148.284 172C148.274 172.082 148.269 172.166 148.269 172.252C148.221 172.619 148 172.871 147.63 173.059C147.267 173.242 146.826 173.324 146.497 173.338C146.012 173.322 145.694 173.219 145.484 173.1C145.384 173.041 145.308 172.98 145.251 172.924C145.15 172.822 145.082 172.707 145.039 172.592C145.018 172.535 145.003 172.477 144.993 172.42C144.987 172.383 144.983 172.346 144.981 172.311C144.986 172.238 144.989 172.164 144.989 172.09L143.495 172C143.485 172.082 143.48 172.166 143.479 172.252C143.454 172.451 143.377 172.615 143.254 172.754C143.216 172.797 143.174 172.836 143.128 172.875C143.046 172.943 142.95 173.004 142.841 173.059C142.478 173.242 142.037 173.324 141.708 173.338C140.992 173.314 140.638 173.1 140.462 172.924C140.277 172.738 140.203 172.504 140.192 172.311C140.198 172.238 140.201 172.164 140.201 172.09L138.706 172C138.696 172.082 138.691 172.166 138.691 172.252C138.667 172.441 138.596 172.6 138.483 172.734C138.376 172.861 138.232 172.967 138.052 173.059C137.803 173.184 137.518 173.262 137.258 173.303C137.137 173.322 137.025 173.334 136.921 173.338C136.614 173.328 136.373 173.281 136.185 173.221C135.933 173.139 135.774 173.025 135.674 172.924C135.488 172.738 135.414 172.504 135.404 172.311L135.41 172.207L135.412 172.09L133.917 172C133.908 172.082 133.903 172.166 133.902 172.252C133.855 172.619 133.634 172.871 133.263 173.059C132.969 173.207 132.623 173.289 132.327 173.322C132.219 173.334 132.118 173.34 132.028 173.34C131.219 173.34 130.832 173.111 130.646 172.924C130.46 172.738 130.386 172.504 130.375 172.311C130.381 172.238 130.384 172.164 130.384 172.09L128.889 172ZM128.889 176C128.879 176.082 128.874 176.166 128.874 176.252C128.827 176.619 128.605 176.871 128.235 177.059C127.99 177.182 127.71 177.26 127.453 177.301C127.288 177.328 127.131 177.34 127 177.34V178.84C127.504 178.84 128.249 178.734 128.914 178.396L129.045 178.324C129.115 178.285 129.184 178.242 129.252 178.197L129.37 178.115L129.458 178.047L129.56 177.959L129.583 177.982C130.117 178.52 130.925 178.84 132.028 178.84C132.532 178.84 133.277 178.734 133.942 178.396L134.094 178.314L134.168 178.271L134.226 178.234L134.308 178.18L134.419 178.1C134.477 178.055 134.533 178.008 134.588 177.959L134.611 177.982C134.726 178.098 134.854 178.203 134.994 178.299C135.061 178.344 135.13 178.387 135.202 178.426C135.286 178.473 135.374 178.516 135.466 178.555C135.651 178.635 135.852 178.699 136.07 178.746C136.3 178.797 136.549 178.828 136.817 178.84L136.903 178.838H136.923L137.056 178.84C137.222 178.83 137.404 178.801 137.595 178.768C137.673 178.754 137.752 178.738 137.832 178.719L138.03 178.668C138.264 178.602 138.502 178.514 138.73 178.396C138.954 178.283 139.176 178.139 139.377 177.959L139.399 177.982C139.894 178.48 140.624 178.797 141.605 178.84L141.713 178.838L141.845 178.84C142.329 178.811 142.953 178.684 143.519 178.396C143.743 178.283 143.964 178.139 144.166 177.959L144.188 177.982C144.683 178.48 145.413 178.797 146.395 178.84L146.502 178.838L146.634 178.84C146.738 178.834 146.848 178.822 146.963 178.807C147.167 178.777 147.386 178.734 147.608 178.67C147.842 178.602 148.08 178.512 148.308 178.396C148.532 178.283 148.753 178.139 148.955 177.959L148.977 177.982C149.037 178.043 149.1 178.1 149.167 178.154L149.278 178.238C149.407 178.334 149.549 178.42 149.703 178.494C150.111 178.689 150.603 178.814 151.183 178.84L151.291 178.838L151.423 178.84C151.907 178.811 152.531 178.684 153.097 178.396C153.32 178.283 153.542 178.139 153.743 177.959L153.766 177.982C154.261 178.48 154.991 178.797 155.972 178.84L156.08 178.838L156.211 178.84C156.459 178.824 156.744 178.785 157.039 178.711C157.192 178.672 157.347 178.623 157.502 178.566C157.631 178.518 157.76 178.461 157.885 178.396C158.109 178.283 158.331 178.139 158.532 177.959L158.554 177.982C158.792 178.221 159.083 178.416 159.43 178.561C159.865 178.74 160.387 178.84 161 178.84V177.34C160.191 177.34 159.804 177.111 159.617 176.924C159.432 176.738 159.358 176.504 159.347 176.311L159.353 176.223L159.356 176.09L157.861 176L157.848 176.156L157.846 176.252C157.799 176.619 157.577 176.871 157.207 177.059C156.844 177.242 156.404 177.324 156.074 177.338C155.807 177.33 155.59 177.295 155.414 177.244C155.119 177.16 154.939 177.033 154.829 176.924C154.736 176.83 154.671 176.725 154.628 176.619C154.585 176.514 154.564 176.406 154.558 176.311C154.564 176.238 154.567 176.164 154.567 176.09L153.072 176C153.062 176.082 153.057 176.166 153.057 176.252C153.01 176.619 152.788 176.871 152.418 177.059C152.055 177.242 151.615 177.324 151.286 177.338C150.569 177.314 150.216 177.1 150.04 176.924C149.951 176.836 149.888 176.736 149.845 176.637C149.809 176.551 149.787 176.463 149.776 176.381L149.77 176.311C149.775 176.238 149.778 176.164 149.778 176.09L148.284 176L148.273 176.115L148.269 176.252C148.221 176.619 148 176.871 147.63 177.059C147.267 177.242 146.826 177.324 146.497 177.338C145.781 177.314 145.427 177.1 145.251 176.924C145.196 176.869 145.15 176.809 145.114 176.746C145.093 176.711 145.074 176.676 145.059 176.641C145.044 176.607 145.031 176.572 145.021 176.537C144.997 176.459 144.985 176.383 144.981 176.311C144.986 176.238 144.989 176.164 144.989 176.09L143.495 176L143.486 176.092L143.479 176.252C143.432 176.619 143.211 176.871 142.841 177.059C142.478 177.242 142.037 177.324 141.708 177.338C140.992 177.314 140.638 177.1 140.462 176.924C140.277 176.738 140.203 176.504 140.192 176.311C140.198 176.238 140.201 176.164 140.201 176.09L138.706 176L138.695 176.117L138.691 176.252C138.644 176.619 138.422 176.871 138.052 177.059C137.689 177.242 137.249 177.324 136.92 177.338C136.686 177.33 136.491 177.301 136.328 177.26L136.208 177.227C136.142 177.205 136.083 177.184 136.03 177.16C135.865 177.088 135.752 177.002 135.674 176.924L135.615 176.859L135.565 176.795C135.52 176.729 135.485 176.658 135.46 176.588C135.426 176.492 135.408 176.396 135.404 176.311C135.409 176.238 135.412 176.164 135.412 176.09L133.917 176C133.908 176.082 133.903 176.166 133.902 176.252C133.855 176.619 133.634 176.871 133.263 177.059C132.862 177.262 132.364 177.34 132.028 177.34C131.577 177.34 131.257 177.27 131.03 177.174C130.85 177.098 130.728 177.006 130.646 176.924C130.562 176.842 130.502 176.748 130.459 176.654C130.406 176.537 130.381 176.418 130.375 176.311C130.381 176.238 130.384 176.164 130.384 176.09L128.889 176ZM128.874 180.252C128.874 180.166 128.879 180.082 128.889 180L130.384 180.09C130.384 180.164 130.381 180.238 130.375 180.311C130.386 180.504 130.46 180.738 130.646 180.924C130.832 181.111 131.219 181.34 132.028 181.34C132.364 181.34 132.862 181.262 133.263 181.059C133.634 180.871 133.855 180.619 133.902 180.252C133.903 180.166 133.908 180.082 133.917 180L135.412 180.09C135.412 180.164 135.409 180.238 135.404 180.311C135.414 180.504 135.488 180.738 135.674 180.924C135.752 181.002 135.865 181.088 136.028 181.16C136.234 181.252 136.521 181.324 136.92 181.338C137.249 181.324 137.689 181.242 138.052 181.059C138.266 180.949 138.431 180.818 138.54 180.658C138.62 180.541 138.671 180.406 138.691 180.252C138.691 180.166 138.696 180.082 138.706 180L140.201 180.09C140.201 180.164 140.198 180.238 140.192 180.311C140.203 180.504 140.277 180.738 140.462 180.924C140.638 181.1 140.992 181.314 141.708 181.338C142.037 181.324 142.478 181.242 142.841 181.059C143.211 180.871 143.432 180.619 143.479 180.252C143.48 180.166 143.485 180.082 143.495 180L144.989 180.09C144.989 180.164 144.986 180.238 144.981 180.311C144.991 180.504 145.065 180.738 145.251 180.924C145.426 181.1 145.777 181.312 146.487 181.338C146.683 181.33 146.92 181.299 147.156 181.236C147.319 181.193 147.481 181.135 147.63 181.059C148 180.871 148.221 180.619 148.269 180.252L148.273 180.115L148.284 180L149.778 180.09L149.776 180.199L149.77 180.311C149.772 180.348 149.776 180.385 149.783 180.424C149.792 180.473 149.805 180.523 149.823 180.574C149.865 180.695 149.934 180.818 150.04 180.924C150.216 181.1 150.569 181.314 151.286 181.338C151.368 181.334 151.457 181.326 151.55 181.314C151.661 181.301 151.777 181.279 151.894 181.25C151.994 181.225 152.094 181.193 152.191 181.158C152.269 181.129 152.345 181.096 152.418 181.059C152.606 180.963 152.756 180.852 152.864 180.715C152.918 180.646 152.962 180.572 152.995 180.492C153.025 180.418 153.046 180.338 153.057 180.252L153.06 180.152L153.072 180L154.567 180.09C154.567 180.164 154.564 180.238 154.558 180.311C154.569 180.504 154.643 180.738 154.829 180.924C154.892 180.988 154.979 181.057 155.097 181.119C155.307 181.23 155.616 181.322 156.074 181.338C156.404 181.324 156.844 181.242 157.207 181.059C157.577 180.871 157.799 180.619 157.846 180.252L157.848 180.158L157.861 180L159.356 180.09C159.356 180.164 159.353 180.238 159.347 180.311C159.358 180.504 159.432 180.738 159.617 180.924C159.804 181.111 160.191 181.34 161 181.34V182.84C160.581 182.84 160.204 182.793 159.868 182.707C159.613 182.641 159.382 182.551 159.175 182.439C158.972 182.332 158.792 182.203 158.635 182.059L158.554 181.982L158.532 181.959C158.331 182.139 158.109 182.283 157.885 182.396C157.533 182.574 157.159 182.691 156.81 182.76C156.598 182.803 156.395 182.828 156.211 182.84L156.08 182.838L155.972 182.84C155.505 182.82 155.095 182.738 154.74 182.604C154.349 182.455 154.025 182.244 153.766 181.982L153.743 181.959C153.542 182.139 153.32 182.283 153.097 182.396C152.793 182.551 152.473 182.656 152.167 182.727C151.902 182.787 151.647 182.826 151.423 182.84L151.291 182.838L151.183 182.84C150.202 182.797 149.472 182.48 148.977 181.982L148.955 181.959C148.753 182.139 148.532 182.283 148.308 182.396C147.742 182.684 147.118 182.811 146.634 182.84L146.502 182.838L146.395 182.84C145.413 182.797 144.683 182.48 144.188 181.982L144.166 181.959C143.964 182.139 143.743 182.283 143.519 182.396C143.222 182.547 142.908 182.654 142.608 182.725C142.336 182.789 142.075 182.826 141.845 182.84L141.713 182.838L141.605 182.84C140.624 182.797 139.894 182.48 139.399 181.982L139.377 181.959C139.176 182.139 138.954 182.283 138.73 182.396C138.164 182.684 137.541 182.811 137.056 182.84L136.925 182.838L136.817 182.84C136.472 182.824 136.159 182.775 135.876 182.697L135.754 182.66L135.61 182.611C135.504 182.572 135.404 182.529 135.308 182.482C135.164 182.41 135.031 182.328 134.909 182.238C134.802 182.16 134.702 182.074 134.611 181.982L134.588 181.959C134.387 182.139 134.166 182.283 133.942 182.396C133.277 182.734 132.532 182.84 132.028 182.84C130.925 182.84 130.117 182.52 129.583 181.982L129.56 181.959C129.359 182.139 129.137 182.283 128.914 182.396C128.249 182.734 127.504 182.84 127 182.84V181.34C127.336 181.34 127.833 181.262 128.235 181.059C128.605 180.871 128.827 180.619 128.874 180.252ZM128.889 184C128.879 184.082 128.874 184.166 128.874 184.252C128.827 184.619 128.605 184.871 128.235 185.059C127.833 185.262 127.336 185.34 127 185.34V186.84C127.118 186.84 127.249 186.834 127.389 186.822C127.472 186.814 127.558 186.803 127.647 186.789C128.048 186.729 128.496 186.609 128.914 186.396C129.137 186.283 129.359 186.139 129.56 185.959L129.583 185.982C130.117 186.52 130.925 186.84 132.028 186.84C132.242 186.84 132.498 186.82 132.774 186.773C133.149 186.709 133.559 186.592 133.942 186.396C134.166 186.283 134.387 186.139 134.588 185.959L134.611 185.982C135.106 186.48 135.836 186.797 136.817 186.84L136.925 186.838L137.056 186.84C137.541 186.811 138.164 186.684 138.73 186.396C138.855 186.334 138.979 186.262 139.098 186.178L139.246 186.07L139.377 185.959L139.399 185.982C139.577 186.16 139.784 186.316 140.023 186.443C140.199 186.537 140.393 186.617 140.604 186.68C140.73 186.717 140.863 186.748 141.002 186.773C141.191 186.809 141.393 186.83 141.605 186.84L141.713 186.838L141.845 186.84C142.329 186.811 142.953 186.684 143.519 186.396C143.743 186.283 143.964 186.139 144.166 185.959L144.188 185.982C144.683 186.48 145.413 186.797 146.395 186.84L146.502 186.838L146.634 186.84C146.876 186.824 147.154 186.785 147.441 186.713L147.597 186.67L147.792 186.611C147.966 186.553 148.139 186.482 148.308 186.396C148.532 186.283 148.753 186.139 148.955 185.959L148.977 185.982C149.472 186.48 150.202 186.797 151.183 186.84L151.291 186.838L151.423 186.84C151.907 186.811 152.531 186.684 153.097 186.396C153.164 186.363 153.232 186.326 153.299 186.285L153.442 186.193L153.566 186.104C153.627 186.059 153.686 186.01 153.743 185.959L153.766 185.982C153.953 186.17 154.173 186.332 154.428 186.463C154.848 186.68 155.361 186.812 155.972 186.84L156.08 186.838L156.211 186.84C156.351 186.83 156.502 186.814 156.66 186.789C156.813 186.764 156.973 186.729 157.135 186.684C157.252 186.652 157.37 186.615 157.488 186.572C157.622 186.521 157.755 186.463 157.885 186.396C158.109 186.283 158.331 186.139 158.532 185.959L158.554 185.982C158.809 186.238 159.125 186.445 159.505 186.592C159.925 186.752 160.422 186.84 161 186.84V185.34C160.191 185.34 159.804 185.111 159.617 184.924C159.432 184.738 159.358 184.504 159.347 184.311C159.353 184.238 159.356 184.164 159.356 184.09L157.861 184L157.848 184.158L157.846 184.252C157.799 184.619 157.577 184.871 157.207 185.059C156.844 185.242 156.404 185.324 156.074 185.338C155.358 185.314 155.004 185.1 154.829 184.924C154.643 184.738 154.569 184.504 154.558 184.311C154.564 184.238 154.567 184.164 154.567 184.09L153.072 184C153.062 184.082 153.057 184.166 153.057 184.252C153.04 184.383 153.001 184.5 152.941 184.604C152.902 184.672 152.853 184.734 152.795 184.793C152.73 184.859 152.653 184.922 152.565 184.977L152.514 185.006L152.479 185.025L152.418 185.059C152.137 185.201 151.81 185.281 151.523 185.316L151.367 185.332L151.283 185.338C150.569 185.312 150.216 185.1 150.04 184.924C149.854 184.738 149.781 184.504 149.77 184.311L149.776 184.201L149.778 184.09L148.284 184L148.273 184.117L148.269 184.252C148.221 184.619 148 184.871 147.63 185.059C147.267 185.242 146.826 185.324 146.496 185.338C146.257 185.33 146.058 185.301 145.892 185.258C145.563 185.174 145.368 185.041 145.251 184.924C145.065 184.738 144.991 184.504 144.981 184.311C144.986 184.238 144.989 184.164 144.989 184.09L143.495 184L143.486 184.092L143.479 184.252C143.432 184.619 143.211 184.871 142.841 185.059C142.478 185.242 142.037 185.324 141.708 185.338C140.992 185.314 140.638 185.1 140.462 184.924C140.277 184.738 140.203 184.504 140.192 184.311C140.198 184.238 140.201 184.164 140.201 184.09L138.706 184C138.696 184.082 138.691 184.166 138.691 184.252C138.663 184.469 138.573 184.646 138.428 184.793C138.329 184.895 138.203 184.982 138.052 185.059C137.689 185.242 137.249 185.324 136.919 185.338C136.203 185.314 135.85 185.1 135.674 184.924C135.488 184.738 135.414 184.504 135.404 184.311C135.409 184.238 135.412 184.164 135.412 184.09L133.917 184C133.908 184.082 133.903 184.166 133.902 184.252C133.855 184.619 133.634 184.871 133.263 185.059C132.862 185.262 132.364 185.34 132.028 185.34C131.705 185.34 131.449 185.303 131.246 185.248C130.942 185.164 130.758 185.037 130.646 184.924C130.46 184.738 130.386 184.504 130.375 184.311C130.381 184.238 130.384 184.164 130.384 184.09L128.889 184ZM128.874 188.252C128.874 188.166 128.879 188.082 128.889 188L130.384 188.09C130.384 188.164 130.381 188.238 130.375 188.311C130.378 188.369 130.387 188.432 130.404 188.494C130.423 188.57 130.453 188.648 130.496 188.725C130.534 188.795 130.584 188.861 130.646 188.924C130.832 189.111 131.219 189.34 132.028 189.34C132.364 189.34 132.862 189.262 133.263 189.059C133.422 188.979 133.553 188.887 133.655 188.779C133.732 188.697 133.792 188.607 133.834 188.506L133.855 188.453L133.883 188.359L133.902 188.252C133.903 188.166 133.908 188.082 133.917 188L135.412 188.09L135.41 188.201L135.404 188.311L135.416 188.416C135.424 188.463 135.435 188.512 135.451 188.561C135.475 188.633 135.509 188.705 135.553 188.773L135.603 188.844L135.63 188.877L135.674 188.924C135.85 189.1 136.203 189.314 136.919 189.338C137.249 189.324 137.689 189.242 138.052 189.059C138.225 188.971 138.366 188.869 138.471 188.748C138.529 188.682 138.577 188.609 138.613 188.529C138.632 188.486 138.648 188.443 138.661 188.398C138.674 188.352 138.684 188.303 138.691 188.252L138.696 188.117L138.706 188L140.201 188.09C140.201 188.164 140.198 188.238 140.192 188.311C140.203 188.504 140.277 188.738 140.462 188.924C140.57 189.031 140.745 189.154 141.03 189.238C141.209 189.291 141.431 189.328 141.708 189.338C142.037 189.324 142.478 189.242 142.841 189.059C143.211 188.871 143.432 188.619 143.479 188.252C143.48 188.166 143.485 188.082 143.495 188L144.989 188.09C144.989 188.164 144.986 188.238 144.981 188.311C144.991 188.504 145.065 188.738 145.251 188.924C145.427 189.1 145.781 189.314 146.497 189.338C146.826 189.324 147.267 189.242 147.63 189.059C147.818 188.963 147.968 188.85 148.076 188.715C148.118 188.662 148.153 188.607 148.182 188.547C148.226 188.457 148.255 188.359 148.269 188.252C148.269 188.166 148.274 188.082 148.284 188L149.778 188.09C149.778 188.164 149.775 188.238 149.77 188.311L149.777 188.385L149.793 188.473L149.823 188.576C149.848 188.646 149.882 188.719 149.927 188.787C149.959 188.834 149.997 188.881 150.04 188.924C150.216 189.1 150.569 189.314 151.286 189.338C151.615 189.324 152.055 189.242 152.418 189.059C152.788 188.871 153.01 188.619 153.057 188.252C153.057 188.166 153.062 188.082 153.072 188L154.567 188.09C154.567 188.164 154.564 188.238 154.558 188.311C154.569 188.504 154.643 188.738 154.829 188.924C155.004 189.1 155.358 189.314 156.074 189.338C156.404 189.324 156.844 189.242 157.207 189.059C157.412 188.955 157.572 188.83 157.681 188.678C157.769 188.557 157.825 188.416 157.846 188.252L157.848 188.158L157.861 188L159.356 188.09L159.353 188.223L159.347 188.311C159.358 188.504 159.432 188.738 159.617 188.924C159.804 189.111 160.191 189.34 161 189.34V190.84C159.897 190.84 159.089 190.52 158.554 189.982L158.532 189.959C158.331 190.139 158.109 190.283 157.885 190.396C157.319 190.684 156.695 190.811 156.211 190.84L156.08 190.838L155.972 190.84C155.291 190.811 154.731 190.648 154.287 190.385C154.091 190.27 153.917 190.135 153.766 189.982L153.743 189.959C153.542 190.139 153.32 190.283 153.097 190.396C152.531 190.684 151.907 190.811 151.423 190.84L151.291 190.838L151.183 190.84C150.202 190.797 149.472 190.48 148.977 189.982L148.955 189.959C148.836 190.064 148.71 190.158 148.581 190.242C148.491 190.299 148.4 190.35 148.308 190.396C147.742 190.684 147.118 190.811 146.634 190.84L146.502 190.838L146.395 190.84C145.413 190.797 144.683 190.48 144.188 189.982L144.166 189.959L144.048 190.059L143.984 190.109C143.873 190.191 143.758 190.266 143.642 190.33L143.519 190.396C143.374 190.471 143.224 190.533 143.075 190.586C142.642 190.742 142.205 190.818 141.845 190.84L141.713 190.838L141.605 190.84C140.998 190.812 140.487 190.682 140.069 190.467C139.811 190.336 139.588 190.172 139.399 189.982L139.377 189.959C139.281 190.045 139.181 190.121 139.078 190.191C138.964 190.27 138.848 190.338 138.73 190.396C138.164 190.684 137.541 190.811 137.056 190.84L136.925 190.838L136.817 190.84C136.177 190.812 135.645 190.668 135.214 190.432C135.131 190.387 135.052 190.338 134.976 190.285L134.912 190.238C134.867 190.207 134.824 190.174 134.782 190.139C134.722 190.09 134.665 190.037 134.611 189.982L134.588 189.959C134.387 190.139 134.166 190.283 133.942 190.396C133.277 190.734 132.532 190.84 132.028 190.84C131.577 190.84 131.175 190.787 130.822 190.688C130.31 190.543 129.898 190.301 129.583 189.982L129.56 189.959C129.359 190.139 129.137 190.283 128.914 190.396C128.249 190.734 127.504 190.84 127 190.84V189.34C127.336 189.34 127.833 189.262 128.235 189.059C128.605 188.871 128.827 188.619 128.874 188.252ZM128.889 192C128.879 192.082 128.874 192.166 128.874 192.252C128.85 192.439 128.781 192.596 128.669 192.73C128.562 192.859 128.417 192.967 128.235 193.059C128.147 193.104 128.054 193.143 127.96 193.176C127.827 193.221 127.69 193.258 127.557 193.283C127.353 193.322 127.159 193.34 127 193.34V194.84C127.504 194.84 128.249 194.734 128.914 194.396C129.137 194.283 129.359 194.139 129.56 193.959L129.583 193.982C130.117 194.52 130.925 194.84 132.028 194.84C132.34 194.84 132.744 194.801 133.164 194.689C133.25 194.668 133.336 194.641 133.423 194.611L133.619 194.541C133.728 194.498 133.836 194.451 133.942 194.396C134.068 194.332 134.194 194.258 134.316 194.174C134.409 194.109 134.501 194.037 134.588 193.959L134.611 193.982C134.825 194.197 135.083 194.379 135.386 194.52C135.784 194.703 136.26 194.816 136.817 194.84L136.925 194.838L137.056 194.84C137.541 194.811 138.164 194.684 138.73 194.396C138.954 194.283 139.176 194.139 139.377 193.959L139.399 193.982C139.686 194.27 140.05 194.496 140.497 194.643C140.823 194.752 141.192 194.822 141.605 194.84L141.713 194.838L141.845 194.84C141.947 194.834 142.055 194.824 142.168 194.809C142.324 194.785 142.489 194.754 142.656 194.713C142.782 194.682 142.91 194.645 143.037 194.602C143.136 194.566 143.235 194.529 143.332 194.484L143.519 194.396C143.743 194.283 143.964 194.139 144.166 193.959L144.188 193.982C144.683 194.48 145.413 194.797 146.395 194.84L146.502 194.838L146.634 194.84C147.118 194.811 147.742 194.684 148.308 194.396C148.532 194.283 148.753 194.139 148.955 193.959L148.977 193.982C149.472 194.48 150.202 194.797 151.183 194.84L151.293 194.838L151.423 194.84C151.498 194.836 151.577 194.826 151.658 194.816L151.726 194.805C152.153 194.75 152.643 194.627 153.097 194.396C153.32 194.283 153.542 194.139 153.743 193.959L153.766 193.982C154.261 194.48 154.991 194.797 155.972 194.84C156.007 194.84 156.043 194.838 156.08 194.838C156.123 194.838 156.167 194.84 156.211 194.84C156.695 194.811 157.319 194.684 157.885 194.396C158.109 194.283 158.331 194.139 158.532 193.959L158.554 193.982C159.089 194.52 159.897 194.84 161 194.84V193.34C160.404 193.34 160.037 193.217 159.81 193.076C159.729 193.025 159.667 192.973 159.617 192.924C159.432 192.738 159.358 192.504 159.347 192.311C159.353 192.238 159.356 192.164 159.356 192.09L157.861 192L157.849 192.145L157.846 192.252C157.799 192.619 157.577 192.871 157.207 193.059C156.844 193.242 156.404 193.324 156.074 193.338C155.761 193.328 155.517 193.279 155.327 193.217C155.083 193.135 154.927 193.023 154.829 192.924C154.643 192.738 154.569 192.504 154.558 192.311C154.564 192.238 154.567 192.164 154.567 192.09L153.072 192L153.06 192.145L153.057 192.252C153.01 192.619 152.788 192.871 152.418 193.059C152.249 193.145 152.062 193.207 151.878 193.252C151.668 193.305 151.462 193.33 151.286 193.338C150.57 193.314 150.216 193.1 150.04 192.924C149.988 192.871 149.945 192.814 149.909 192.756C149.877 192.703 149.851 192.65 149.831 192.598C149.794 192.5 149.775 192.4 149.77 192.311C149.775 192.238 149.778 192.164 149.778 192.09L148.284 192C148.274 192.082 148.269 192.166 148.269 192.252C148.221 192.619 148 192.871 147.63 193.059C147.267 193.242 146.826 193.324 146.497 193.338C145.781 193.314 145.427 193.1 145.251 192.924C145.065 192.738 144.991 192.504 144.981 192.311C144.986 192.238 144.989 192.164 144.989 192.09L143.495 192L143.486 192.092L143.479 192.252C143.432 192.619 143.211 192.871 142.841 193.059C142.613 193.174 142.354 193.248 142.112 193.293C142.021 193.309 141.932 193.32 141.848 193.328L141.708 193.338C140.992 193.314 140.638 193.1 140.462 192.924C140.277 192.738 140.203 192.504 140.192 192.311C140.198 192.238 140.201 192.164 140.201 192.09L138.706 192C138.696 192.082 138.691 192.166 138.691 192.252C138.644 192.619 138.422 192.871 138.052 193.059C137.689 193.242 137.249 193.324 136.919 193.338C136.424 193.32 136.103 193.213 135.893 193.092L135.82 193.045C135.785 193.021 135.753 192.996 135.725 192.971L135.674 192.924C135.579 192.83 135.513 192.723 135.47 192.613C135.429 192.51 135.409 192.406 135.404 192.311C135.409 192.238 135.412 192.164 135.412 192.09L133.917 192L133.905 192.145L133.902 192.252C133.855 192.619 133.634 192.871 133.263 193.059C132.862 193.262 132.364 193.34 132.028 193.34C131.219 193.34 130.832 193.111 130.646 192.924C130.553 192.832 130.488 192.727 130.445 192.621C130.402 192.516 130.381 192.408 130.375 192.311C130.381 192.238 130.384 192.164 130.384 192.09L128.889 192Z" fill="#6B7427"/>
<path d="M197.53 127.872C201.03 133.372 203.53 135.539 206.03 137.872C208.03 134.373 218.03 124.372 218.53 128.372C218.93 131.572 216.53 134.872 212.53 137.872C208.53 140.873 209.732 139.872 213.03 139.872C216.5 139.872 216 142.872 215.5 142.372C215 141.872 213.53 142.372 211.03 143.372C206.5 145.872 202.5 144.372 201.5 143.872C200.5 143.372 196.53 144.872 194.53 144.872C192.53 144.872 190.53 143.872 193.53 143.372C197.03 143.872 196 141.871 199 140.871C197.5 138.871 193.53 137.872 194 130.371C194.504 122.324 194.03 122.373 197.53 127.872Z" fill="#0170B7"/>
<path d="M197.53 176.872C201.03 182.372 203.53 184.539 206.03 186.872C208.03 183.373 218.03 173.372 218.53 177.372C218.93 180.572 216.53 183.872 212.53 186.872C208.53 189.873 209.732 188.872 213.03 188.872C216.5 188.872 216 191.872 215.5 191.372C215 190.872 213.53 191.372 211.03 192.372C206.5 194.872 202.5 193.372 201.5 192.872C200.5 192.372 196.53 193.872 194.53 193.872C192.53 193.872 190.53 192.872 193.53 192.372C197.03 192.872 196 190.871 199 189.871C197.5 187.871 193.53 186.872 194 179.371C194.504 171.324 194.03 171.373 197.53 176.872Z" fill="#6B7427"/>
<path fill-rule="evenodd" clip-rule="evenodd" d="M275.014 121V123.5C275.014 123.859 275.166 124.148 275.264 124.312C275.325 124.414 275.397 124.516 275.472 124.613L275.65 124.84L276.04 125.301L276.137 125.414L276.513 125.859L276.738 126.129C278.251 127.992 278.521 129.418 278.344 130.363C278.168 131.297 277.508 131.984 276.652 132.316C275.781 132.656 274.821 132.586 274.135 132.125C273.63 131.785 273.159 131.156 273.032 130.062C272.969 129.512 272.566 129.035 272.014 129C271.704 128.98 271.415 129.105 271.229 129.316C271.083 129.48 271 129.695 271.015 129.938C271.129 131.699 271.869 133.012 273.019 133.781C274.333 134.664 275.998 134.719 277.377 134.184C278.33 133.812 279.199 133.141 279.757 132.203C280.016 131.77 280.207 131.277 280.31 130.73C280.632 129.02 280.028 127.008 278.291 124.871C278.055 124.578 277.841 124.328 277.656 124.113L277.551 123.988L277.197 123.57C277.074 123.422 277.014 123.23 277.014 123.039V121C277.014 120.773 276.938 120.562 276.81 120.395C276.627 120.156 276.339 120 276.014 120C275.462 120 275.014 120.449 275.014 121ZM259.444 132.012C264.413 131.832 268.454 133.914 270.694 135.496C273.88 136.289 276.241 137.965 276.847 139.977C276.275 140.348 275.406 140.816 274.517 140.957C274.408 140.973 274.383 141.141 274.487 141.18L274.777 141.281C275.108 141.395 275.485 141.523 275.851 141.656C276.21 141.785 276.559 141.918 276.842 142.043C276.107 144.438 272.897 146.344 268.772 146.863L268.563 147.082C268.314 147.34 268.033 147.617 267.734 147.898C266.986 148.605 266.126 149.336 265.379 149.789C265.341 149.812 265.302 149.82 265.263 149.816C265.229 149.812 265.195 149.801 265.166 149.781C265.104 149.738 265.064 149.66 265.075 149.574C265.156 148.91 265.169 147.848 264.903 146.93C260.992 146.59 257.794 145.016 256.556 142.926L256.5 143C255.3 144.602 251.667 145 250 145C250.333 144.168 251.5 142.102 251.5 140.5C251.5 139.289 250.833 137.625 250.364 136.453C250.212 136.074 250.081 135.746 250 135.5C253.2 135.898 255.667 138 256.5 139L256.556 139.078C257.244 137.918 258.529 136.914 260.213 136.195C260.916 134.84 260.046 133.25 259.298 132.359C259.188 132.227 259.271 132.016 259.444 132.012ZM272 139C272 139.367 271.801 139.691 271.505 139.863C271.357 139.949 271.184 140 271 140C270.448 140 270 139.551 270 139C270 138.449 270.448 138 271 138C271.104 138 271.203 138.02 271.297 138.047C271.204 138.086 271.127 138.152 271.074 138.234C271.027 138.312 271 138.402 271 138.5C271 138.777 271.224 139 271.5 139C271.707 139 271.879 138.883 271.955 138.703C271.984 138.797 272 138.898 272 139Z" fill="#0170B7"/>
<path fill-rule="evenodd" clip-rule="evenodd" d="M275.014 170V172.5C275.014 172.859 275.166 173.148 275.264 173.312C275.373 173.492 275.514 173.672 275.65 173.84L276.04 174.301L276.137 174.414C276.318 174.625 276.519 174.859 276.738 175.129C278.251 176.992 278.521 178.418 278.344 179.363C278.168 180.297 277.508 180.984 276.652 181.316C276.032 181.559 275.366 181.594 274.787 181.426C274.552 181.359 274.332 181.258 274.135 181.125C273.63 180.785 273.159 180.156 273.032 179.062C272.999 178.77 272.87 178.5 272.674 178.305C272.5 178.129 272.274 178.016 272.014 178C271.463 177.965 270.98 178.387 271.015 178.938C271.129 180.699 271.869 182.012 273.019 182.781C274.333 183.664 275.998 183.719 277.377 183.184C278.771 182.641 279.986 181.453 280.31 179.73C280.632 178.02 280.028 176.008 278.291 173.871C278.055 173.578 277.841 173.328 277.656 173.113L277.551 172.988L277.197 172.57C277.074 172.422 277.014 172.23 277.014 172.039V170C277.014 169.73 276.907 169.484 276.733 169.305C276.551 169.117 276.296 169 276.014 169C275.462 169 275.014 169.449 275.014 170ZM259.444 181.012C264.413 180.832 268.454 182.914 270.694 184.496C273.88 185.289 276.241 186.965 276.847 188.977C276.275 189.348 275.406 189.816 274.517 189.957C274.478 189.961 274.45 189.984 274.435 190.016C274.407 190.074 274.42 190.156 274.487 190.18L274.777 190.281C275.434 190.504 276.271 190.789 276.842 191.043C276.107 193.438 272.901 195.34 268.777 195.859C268.415 196.242 267.961 196.695 267.472 197.145C267.02 197.559 266.539 197.969 266.074 198.316C265.836 198.492 265.602 198.652 265.379 198.789C265.319 198.824 265.253 198.824 265.198 198.797C265.119 198.762 265.062 198.672 265.075 198.574C265.156 197.91 265.169 196.848 264.903 195.93C260.992 195.59 257.793 194.016 256.555 191.926L256.5 192C255.3 193.602 251.667 194 250 194C250.071 193.824 250.18 193.59 250.307 193.316C250.778 192.309 251.5 190.762 251.5 189.5C251.5 188.289 250.833 186.625 250.364 185.453C250.212 185.074 250.081 184.746 250 184.5C253.2 184.898 255.667 187 256.5 188L256.559 188.082C257.247 186.922 258.529 185.914 260.213 185.195C260.916 183.84 260.046 182.25 259.298 181.359C259.232 181.281 259.235 181.176 259.286 181.098C259.308 181.062 259.341 181.035 259.381 181.023L259.444 181.012ZM272 188C272 188.551 271.552 189 271 189C270.448 189 270 188.551 270 188L270.012 187.848L270.027 187.77C270.07 187.59 270.16 187.43 270.282 187.305C270.464 187.117 270.719 187 271 187C271.104 187 271.203 187.02 271.297 187.047L271.206 187.098C271.173 187.121 271.144 187.148 271.117 187.18L271.081 187.227C271.055 187.266 271.035 187.309 271.021 187.352C271.008 187.398 271 187.449 271 187.5C271 187.613 271.038 187.719 271.102 187.801C271.193 187.922 271.338 188 271.5 188L271.56 187.996C271.659 187.984 271.748 187.945 271.82 187.887C271.878 187.84 271.924 187.777 271.955 187.703C271.984 187.797 272 187.898 272 188Z" fill="#6B7427"/>
<path fill-rule="evenodd" clip-rule="evenodd" d="M313.003 147.593H339.96C341.512 147.593 342.472 145.901 341.677 144.569L328.199 121.972C327.423 120.671 325.539 120.671 324.764 121.972L311.285 144.569C310.49 145.901 311.451 147.593 313.003 147.593ZM328.187 143.69C328.208 143.581 328.218 143.468 328.218 143.351C328.218 143.116 328.173 142.894 328.081 142.683C327.99 142.472 327.864 142.292 327.704 142.14C327.621 142.058 327.53 141.987 327.429 141.925C327.344 141.87 327.253 141.823 327.156 141.78C326.942 141.687 326.714 141.644 326.47 141.644C326.226 141.644 325.997 141.687 325.784 141.78C325.571 141.87 325.384 141.991 325.224 142.14C325.064 142.292 324.938 142.472 324.847 142.683C324.755 142.894 324.71 143.116 324.71 143.351C324.71 143.593 324.755 143.819 324.847 144.03C324.938 144.241 325.064 144.425 325.224 144.585C325.384 144.741 325.571 144.866 325.784 144.956C325.916 145.011 326.053 145.05 326.197 145.073C326.285 145.085 326.376 145.093 326.47 145.093C326.714 145.093 326.942 145.046 327.156 144.956C327.369 144.866 327.552 144.741 327.704 144.585C327.864 144.425 327.99 144.241 328.081 144.03C328.128 143.921 328.164 143.808 328.187 143.69ZM328.39 131.714C328.451 131.093 328.481 130.542 328.481 130.062C328.481 129.788 328.428 129.538 328.321 129.304C328.215 129.062 328.07 128.851 327.887 128.671C327.704 128.487 327.491 128.351 327.247 128.253C327.107 128.194 326.962 128.151 326.813 128.124C326.701 128.104 326.587 128.093 326.47 128.093C326.267 128.093 326.073 128.12 325.887 128.183L325.693 128.253C325.457 128.351 325.247 128.487 325.064 128.671C324.881 128.851 324.736 129.062 324.63 129.304C324.531 129.538 324.481 129.788 324.481 130.062C324.481 130.542 324.508 131.089 324.561 131.702C324.622 132.304 324.698 132.948 324.79 133.636C324.881 134.315 324.984 135.022 325.098 135.761L325.464 137.956C325.533 138.425 325.605 138.874 325.681 139.312C325.757 139.749 325.826 140.171 325.887 140.581C325.91 140.729 325.975 140.854 326.081 140.952C326.196 141.042 326.325 141.089 326.47 141.089C326.553 141.089 326.631 141.073 326.703 141.046C326.762 141.022 326.818 140.991 326.87 140.952C326.984 140.854 327.053 140.729 327.075 140.581L327.27 139.358L327.476 138.081L327.841 135.839L328.019 134.69L328.161 133.671C328.26 132.976 328.336 132.323 328.39 131.714Z" fill="#0170B7"/>
<path fill-rule="evenodd" clip-rule="evenodd" d="M313.003 196.597H339.96C341.512 196.597 342.472 194.905 341.677 193.573L328.199 170.976C327.423 169.675 325.539 169.675 324.764 170.976L311.285 193.573C310.49 194.905 311.451 196.597 313.003 196.597ZM328.081 193.034C328.173 192.823 328.218 192.597 328.218 192.354C328.218 192.12 328.173 191.897 328.081 191.687C328.017 191.538 327.935 191.401 327.836 191.284C327.795 191.233 327.751 191.187 327.704 191.144C327.552 190.995 327.369 190.874 327.156 190.784C327.015 190.722 326.867 190.683 326.713 190.663C326.634 190.651 326.553 190.647 326.47 190.647C326.347 190.647 326.228 190.659 326.113 190.683C326 190.706 325.89 190.737 325.784 190.784C325.571 190.874 325.384 190.995 325.224 191.144C325.064 191.296 324.938 191.476 324.847 191.687C324.755 191.897 324.71 192.12 324.71 192.354C324.71 192.597 324.755 192.823 324.847 193.034C324.938 193.245 325.064 193.429 325.224 193.589C325.384 193.745 325.571 193.87 325.784 193.96C325.997 194.05 326.226 194.097 326.47 194.097C326.603 194.097 326.731 194.081 326.855 194.054C326.958 194.03 327.059 193.999 327.156 193.96C327.369 193.87 327.552 193.745 327.704 193.589C327.765 193.526 327.821 193.464 327.872 193.394C327.955 193.284 328.025 193.163 328.081 193.034ZM328.39 180.718C328.451 180.097 328.481 179.546 328.481 179.065C328.481 178.792 328.428 178.542 328.321 178.308C328.215 178.065 328.07 177.854 327.887 177.675C327.704 177.491 327.491 177.354 327.247 177.257C327.003 177.151 326.744 177.097 326.47 177.097C326.196 177.097 325.937 177.151 325.693 177.257C325.457 177.354 325.247 177.491 325.064 177.675C324.881 177.854 324.736 178.065 324.63 178.308C324.531 178.542 324.481 178.792 324.481 179.065C324.481 179.546 324.508 180.093 324.561 180.706C324.622 181.308 324.698 181.952 324.79 182.64C324.881 183.319 324.984 184.026 325.098 184.765L325.464 186.96C325.533 187.429 325.605 187.878 325.681 188.315C325.757 188.753 325.826 189.175 325.887 189.585C325.898 189.655 325.919 189.726 325.95 189.788C325.983 189.851 326.027 189.905 326.081 189.956C326.196 190.046 326.325 190.093 326.47 190.093C326.622 190.093 326.755 190.046 326.87 189.956C326.984 189.858 327.053 189.733 327.075 189.585L327.27 188.362L327.476 187.085L327.841 184.843C327.963 184.089 328.07 183.366 328.161 182.675L328.262 181.917C328.314 181.499 328.356 181.101 328.39 180.718Z" fill="#6B7427"/>
<path fill-rule="evenodd" clip-rule="evenodd" d="M28.5 15.5V23.2188C28.5 23.3906 28.4078 23.5547 28.2572 23.6445L26.2428 24.8555C26.1654 24.9023 26.1035 24.9688 26.0615 25.0469C26.0217 25.1172 26 25.1992 26 25.2812V27C26 27.2773 26.2239 27.5 26.5 27.5H27.7085C29.1187 26.2539 30.9712 25.5 33 25.5C37.4183 25.5 41 29.082 41 33.5C41 34.0117 40.9518 34.5156 40.8596 35H42.5C42.6473 35 42.7798 34.9375 42.8713 34.8359C42.9513 34.7461 43 34.6289 43 34.5V32.5C43 32.2227 43.2239 32 43.5 32H46.1462C45.4334 32.7969 45 33.8477 45 35C45 37.4844 47.0147 39.5 49.5 39.5C51.9852 39.5 54 37.4844 54 35C54 33.8477 53.5665 32.7969 52.8537 32H53.6476C53.7584 32 53.863 31.9648 53.9477 31.8984L53.9989 31.8516L54.0433 31.8047L54.0656 31.7695L54.098 31.7148L54.1185 31.668L56.2613 25.668C56.3174 25.5117 56.2904 25.3516 56.2088 25.2266C56.1209 25.0938 55.9697 25 55.7905 25H49.5C49.2239 25 49 24.7773 49 24.5V19C49 18.7227 49.2239 18.5 49.5 18.5H50C50.2761 18.5 50.5 18.2773 50.5 18V17C50.5 16.9102 50.4763 16.8242 50.4348 16.75C50.3487 16.6016 50.1861 16.5039 50 16.5117C49.1731 16.5469 48.3751 16.6758 47.7505 16.9375C47.0002 17.25 46.5 17.75 46.5 18.5V24.5C46.5 24.7773 46.2761 25 46 25H42.872C42.6512 25 42.4565 24.8555 42.393 24.6445L39.6069 15.3555C39.5434 15.1445 39.3487 15 39.1279 15H29C28.9204 15 28.8452 15.0195 28.7784 15.0508C28.6135 15.1328 28.5 15.3008 28.5 15.5ZM31 18V21C31 21.5508 31.4477 22 32 22H37.656C38.3258 22 38.8062 21.3555 38.6137 20.7109L37.7137 17.7109C37.5869 17.2891 37.1976 17 36.756 17H32L31.8395 17.0117L31.7059 17.043L31.5691 17.0977C31.2325 17.2578 31 17.6016 31 18ZM49.5 37.6992C50.9912 37.6992 52.2 36.4922 52.2 35C52.2 33.5078 50.9912 32.3008 49.5 32.3008C48.0089 32.3008 46.8 33.5078 46.8 35C46.8 36.4922 48.0089 37.6992 49.5 37.6992ZM39 33.5C39 36.8125 36.3137 39.5 33 39.5C29.6863 39.5 27 36.8125 27 33.5C27 30.1875 29.6863 27.5 33 27.5C36.3137 27.5 39 30.1875 39 33.5ZM37 33.5C37 35.7109 35.2091 37.5 33 37.5C30.7909 37.5 29 35.7109 29 33.5C29 31.2891 30.7909 29.5 33 29.5C35.2091 29.5 37 31.2891 37 33.5ZM35 33.5C35 34.6055 34.1046 35.5 33 35.5C31.8954 35.5 31 34.6055 31 33.5C31 32.3945 31.8954 31.5 33 31.5C34.1046 31.5 35 32.3945 35 33.5ZM19.2757 30.0273C19.0801 28.3516 19.7336 25.043 23.9134 25.2266C24.1156 27.1133 23.4712 30.7148 19.2757 30.0273ZM18.7345 30.0781C18.9301 28.4023 18.2766 25.0938 14.0968 25.2773C13.8946 27.1641 14.539 30.7656 18.7345 30.0781ZM18.7345 35.0156C18.9301 33.3398 18.2766 30.0312 14.0968 30.2148C13.8946 32.1016 14.539 35.7031 18.7345 35.0156ZM19.3296 35.0156C19.134 33.3398 19.7876 30.0312 23.9674 30.2148C24.1695 32.1016 23.5251 35.7031 19.3296 35.0156ZM18.8778 21.793C17.5947 20.75 15.7983 17.9336 18.8778 15C20.3088 16.1875 22.3125 19.2031 18.8778 21.793ZM18.6703 25.2109C18.8659 23.5352 18.2124 20.2266 14.0326 20.4102C13.8304 22.2969 14.4748 25.8984 18.6703 25.2109ZM19.2654 25.2109C19.0698 23.5352 19.7234 20.2266 23.9032 20.4102C24.1053 22.2969 23.4609 25.8984 19.2654 25.2109ZM19.0971 35.6719C18.8445 35.6719 18.6396 35.875 18.6396 36.1289V38.543C18.6396 38.793 18.8445 39 19.0971 39C19.3498 39 19.5547 38.793 19.5547 38.543V36.1289C19.5547 35.875 19.3498 35.6719 19.0971 35.6719Z" fill="#0170B7"/>
<path fill-rule="evenodd" clip-rule="evenodd" d="M28.5 64.5V72.2188C28.5 72.2773 28.4891 72.3359 28.4687 72.3906C28.4531 72.4297 28.4321 72.4688 28.4062 72.5078L28.3376 72.5859C28.3131 72.6094 28.2862 72.6289 28.2572 72.6445L26.2428 73.8555C26.0921 73.9453 26 74.1094 26 74.2812V76C26 76.2773 26.2239 76.5 26.5 76.5H27.7085C29.1187 75.2539 30.9712 74.5 33 74.5C37.4183 74.5 41 78.082 41 82.5C41 83.0117 40.9518 83.5156 40.8596 84H42.5C42.7761 84 43 83.7773 43 83.5V81.5C43 81.2227 43.2239 81 43.5 81H46.1462C45.4334 81.7969 45 82.8477 45 84C45 86.4844 47.0147 88.5 49.5 88.5C51.9852 88.5 54 86.4844 54 84C54 82.8477 53.5665 81.7969 52.8537 81H53.6476C53.8589 81 54.0475 80.8672 54.1185 80.668L56.2613 74.668C56.3777 74.3438 56.1362 74 55.7905 74H49.5C49.2239 74 49 73.7773 49 73.5V68C49 67.7227 49.2239 67.5 49.5 67.5H50C50.2761 67.5 50.5 67.2773 50.5 67V66C50.5 65.7227 50.2759 65.5 50 65.5117C48.1799 65.5898 46.5 66.125 46.5 67.5V73.5C46.5 73.7773 46.2761 74 46 74H42.872C42.6512 74 42.4565 73.8555 42.393 73.6445L39.6069 64.3555C39.5434 64.1445 39.3487 64 39.1279 64H29C28.7239 64 28.5 64.2227 28.5 64.5ZM31 67V70C31 70.0859 31.0106 70.168 31.0305 70.2461C31.0591 70.3594 31.1069 70.4648 31.1703 70.5586C31.3499 70.8242 31.6545 71 32 71H37.656C38.0715 71 38.414 70.7539 38.5685 70.4141C38.6629 70.2031 38.6869 69.957 38.6137 69.7109L37.7137 66.7109C37.6825 66.6055 37.6352 66.5117 37.5753 66.4258C37.5099 66.332 37.4292 66.2539 37.3374 66.1875C37.1717 66.0664 36.9699 66 36.756 66H32C31.4477 66 31 66.4492 31 67ZM49.5 86.6992C50.9912 86.6992 52.2 85.4922 52.2 84C52.2 82.5078 50.9912 81.3008 49.5 81.3008C48.0089 81.3008 46.8 82.5078 46.8 84C46.8 85.4922 48.0089 86.6992 49.5 86.6992ZM39 82.5C39 85.8125 36.3137 88.5 33 88.5C29.6863 88.5 27 85.8125 27 82.5C27 79.1875 29.6863 76.5 33 76.5C36.3137 76.5 39 79.1875 39 82.5ZM37 82.5C37 84.7109 35.2091 86.5 33 86.5C30.7909 86.5 29 84.7109 29 82.5C29 80.2891 30.7909 78.5 33 78.5C35.2091 78.5 37 80.2891 37 82.5ZM35 82.5C35 83.6055 34.1046 84.5 33 84.5C32.3102 84.5 31.7019 84.1523 31.3424 83.6211C31.1262 83.3008 31 82.9141 31 82.5C31 81.3945 31.8954 80.5 33 80.5C34.1046 80.5 35 81.3945 35 82.5ZM19.2757 79.0273C19.0801 77.3516 19.7336 74.043 23.9134 74.2266C24.1156 76.1133 23.4712 79.7148 19.2757 79.0273ZM18.7345 79.0781C18.9301 77.4023 18.2766 74.0938 14.0968 74.2773C13.8946 76.1641 14.539 79.7656 18.7345 79.0781ZM18.7345 84.0156C18.9301 82.3398 18.2766 79.0312 14.0968 79.2148C13.8946 81.1016 14.539 84.7031 18.7345 84.0156ZM19.3296 84.0156C19.134 82.3398 19.7876 79.0312 23.9674 79.2148C24.1695 81.1016 23.5251 84.7031 19.3296 84.0156ZM18.8778 70.793C17.5947 69.75 15.7983 66.9336 18.8778 64C20.3088 65.1875 22.3125 68.2031 18.8778 70.793ZM18.6703 74.2109C18.8659 72.5352 18.2124 69.2266 14.0326 69.4102C13.8304 71.2969 14.4748 74.8984 18.6703 74.2109ZM19.2654 74.2109C19.0698 72.5352 19.7234 69.2266 23.9032 69.4102C24.1053 71.2969 23.4609 74.8984 19.2654 74.2109ZM19.0971 84.6719C18.8445 84.6719 18.6396 84.875 18.6396 85.1289V87.543C18.6396 87.668 18.6895 87.7812 18.7706 87.8633C18.8536 87.9453 18.9692 88 19.0971 88C19.3498 88 19.5547 87.793 19.5547 87.543V85.1289C19.5547 85.0195 19.5167 84.9219 19.4533 84.8438C19.3695 84.7383 19.2411 84.6719 19.0971 84.6719Z" fill="#6B7427"/>
<path d="M249.193 12.2471L245.26 14.3295L239.783 12.8751C239.64 12.837 239.487 12.8653 239.366 12.9522C239.081 13.1579 239.096 13.5867 239.394 13.7731L242.703 15.8438L239.163 17.9262L237.59 17.169C237.511 17.131 237.439 17.124 237.374 17.1377C237.024 17.2117 237.144 17.7142 237.382 17.9801C237.775 18.4186 238.32 19.0071 238.77 19.4406C239.399 20.0464 239.824 20.1396 240.343 19.8192C242.9 18.2417 248.406 14.9209 249.389 14.3295C250.807 13.477 251.356 12.6258 250.766 12.2471C250.294 11.9443 249.783 11.892 249.193 12.2471Z" fill="#0170B7"/>
<path fill-rule="evenodd" clip-rule="evenodd" d="M249.226 32.2266L250.078 18.0664C250.306 16.4141 251.689 16 252.352 16H263.721C264.587 16 265.144 16.3125 265.49 16.7148C265.87 17.1562 265.995 17.7031 265.995 18.0664L266.007 18.2422C266.293 22.3008 266.773 29.1055 266.847 31.6367C266.911 33.7969 266.847 34.6367 265.142 35.1758C260.656 36.5977 254.313 36.1875 251.328 35.4844C249.907 35.1484 249.018 34.2695 249.226 32.2266ZM262.722 17.7891C264.216 17.7891 264.504 18.6914 264.59 19.4883C264.632 19.8828 264.696 20.5117 264.75 21.1055L264.811 21.8438C264.833 22.1328 264.847 22.3711 264.847 22.5156C264.847 23.1562 264.847 23.6289 263.22 23.7305C261.422 23.8438 255.358 23.9336 253.136 23.832C251.358 23.75 251.182 23.1562 251.216 22.5156C251.251 21.875 251.518 19.4883 251.518 19.4883C251.705 18.1289 252.461 17.7891 253.005 17.7891H262.722ZM252.123 31.8359C252.626 31.8359 253.034 31.4141 253.034 30.8906C253.034 30.7578 253.007 30.6289 252.959 30.5156C252.819 30.1797 252.497 29.9453 252.123 29.9453C251.823 29.9453 251.557 30.0938 251.391 30.3281C251.279 30.4844 251.212 30.6797 251.212 30.8906C251.212 31.4141 251.62 31.8359 252.123 31.8359ZM264.522 31.6367C264.368 31.7617 264.174 31.8359 263.964 31.8359C263.811 31.8359 263.667 31.7969 263.54 31.7266L263.428 31.6562C263.201 31.4844 263.054 31.207 263.054 30.8906C263.054 30.832 263.058 30.7773 263.067 30.7266L263.09 30.6211C263.201 30.2305 263.551 29.9453 263.964 29.9453C264.088 29.9453 264.206 29.9688 264.313 30.0156L264.45 30.0898C264.705 30.2578 264.875 30.5547 264.875 30.8906C264.875 31.1953 264.737 31.4648 264.522 31.6367ZM250.598 36.4961L252.32 37.0234C252.394 37.0469 252.455 37.0938 252.495 37.1523C252.539 37.2188 252.56 37.3008 252.551 37.3867L252.356 39.0625H254.926H261.074H263.644L263.449 37.3281C263.43 37.1602 263.532 37.0039 263.688 36.9609L265.408 36.4844C265.583 36.4375 265.763 36.5469 265.807 36.7266L266.99 41.5781C267.019 41.6953 266.984 41.8125 266.912 41.8906C266.853 41.957 266.77 42 266.675 42H264.576C264.43 42 264.301 41.8984 264.263 41.75L263.872 40.2461H261.074H254.926H252.128L251.738 41.75C251.71 41.8594 251.633 41.9414 251.537 41.9766C251.502 41.9922 251.463 42 251.423 42H249.326C249.114 42 248.958 41.793 249.01 41.5781L250.191 36.7383C250.236 36.5508 250.421 36.4414 250.598 36.4961Z" fill="#0170B7"/>
<path d="M249.193 61.2471L245.26 63.3295L239.783 61.8751C239.64 61.837 239.487 61.8653 239.366 61.9522C239.081 62.1579 239.096 62.5867 239.394 62.7731L242.703 64.8438L239.163 66.9262L237.59 66.169C237.511 66.131 237.439 66.124 237.374 66.1377C237.024 66.2117 237.144 66.7142 237.382 66.9801C237.775 67.4186 238.32 68.0071 238.77 68.4406C239.399 69.0464 239.824 69.1396 240.343 68.8192C242.9 67.2417 248.406 63.9209 249.389 63.3295C250.807 62.477 251.356 61.6258 250.766 61.2471C250.294 60.9443 249.783 60.892 249.193 61.2471Z" fill="#6B7427"/>
<path fill-rule="evenodd" clip-rule="evenodd" d="M249.226 81.2266L250.078 67.0664C250.306 65.4141 251.689 65 252.352 65H263.721C265.54 65 265.995 66.375 265.995 67.0664L266.007 67.2422L266.013 67.3164L266.015 67.3633C266.303 71.4336 266.774 78.1289 266.847 80.6367C266.911 82.7969 266.847 83.6367 265.142 84.1758C260.656 85.5977 254.313 85.1875 251.328 84.4844C249.907 84.1484 249.018 83.2695 249.226 81.2266ZM262.722 66.7891C264.216 66.7891 264.504 67.6914 264.59 68.4883C264.675 69.2812 264.847 71.0039 264.847 71.5156C264.847 72.1562 264.847 72.6289 263.22 72.7305C261.422 72.8438 255.358 72.9336 253.136 72.832C251.358 72.75 251.182 72.1562 251.216 71.5156L251.238 71.2227L251.278 70.7695L251.329 70.2578C251.415 69.4062 251.518 68.4883 251.518 68.4883C251.705 67.1289 252.461 66.7891 253.005 66.7891H262.722ZM252.123 80.8359C252.626 80.8359 253.034 80.4141 253.034 79.8906C253.034 79.3672 252.626 78.9453 252.123 78.9453C251.62 78.9453 251.212 79.3672 251.212 79.8906C251.212 80.4141 251.62 80.8359 252.123 80.8359ZM264.875 79.8906C264.875 80.4141 264.467 80.8359 263.964 80.8359C263.461 80.8359 263.054 80.4141 263.054 79.8906C263.054 79.6289 263.156 79.3906 263.321 79.2188C263.486 79.0508 263.713 78.9453 263.964 78.9453C264.467 78.9453 264.875 79.3672 264.875 79.8906ZM250.598 85.4961L252.32 86.0234C252.472 86.0703 252.57 86.2227 252.551 86.3867L252.356 88.0625H254.926H261.074H263.644L263.449 86.3281C263.441 86.25 263.457 86.1758 263.493 86.1133C263.535 86.043 263.604 85.9844 263.688 85.9609L265.408 85.4844C265.583 85.4375 265.763 85.5469 265.807 85.7266L266.99 90.5781C267.024 90.7188 266.968 90.8594 266.865 90.9375C266.812 90.9766 266.746 91 266.675 91H264.576C264.43 91 264.301 90.8984 264.263 90.75L263.872 89.2461H261.074H254.926H252.128L251.738 90.75C251.699 90.8984 251.571 91 251.423 91H249.326C249.114 91 248.958 90.793 249.01 90.5781L250.191 85.7383C250.236 85.5508 250.421 85.4414 250.598 85.4961Z" fill="#6B7427"/>
<path fill-rule="evenodd" clip-rule="evenodd" d="M389.393 122.793L375.373 117V140.219L375.907 140.488C377.439 141.258 379.845 143.742 379.183 147.262C378.852 149.023 377.819 150.375 376.754 151.324C376.585 151.473 376.414 151.617 376.241 151.75H386.582V146.508C386.351 146.527 386.113 146.535 385.869 146.531C385.525 146.527 385.169 146.496 384.804 146.43C383.087 146.121 381.988 145.219 381.432 144.305L381.285 144.035L381.209 143.867L381.144 143.703L381.05 143.641C380.779 143.445 380.507 143.172 380.289 142.824C379.899 142.199 379.729 141.391 379.949 140.473C379.709 139.98 379.347 139.152 379.231 138.258C379.149 137.629 379.175 136.902 379.472 136.176C379.712 135.594 380.106 135.066 380.67 134.613C380.852 133.656 381.46 132.625 382.384 131.883C382.936 131.441 383.602 131.098 384.368 130.914C385.111 130.734 385.949 130.707 386.867 130.883C387.471 130.43 388.358 130.027 389.393 130.121V122.793ZM376.542 122.793H378.878V125.109H376.542V122.793ZM388.224 126.27H385.887V128.586H388.224V126.27ZM376.542 129.742H378.878V132.059H376.542V129.742ZM375.092 141.98C376.19 142.547 377.955 144.434 377.472 147.07C376.99 149.703 374.432 151.262 373.264 151.695C372.626 151.078 371.505 149.238 372.129 146.809C372.754 144.387 374.365 142.578 375.092 141.98ZM373.771 150.758C374.582 149.809 376 147.391 375.186 145.285C375.188 146.277 374.908 148.754 373.771 150.758ZM373.659 121.633L364.313 125.109V138.105C366.394 139.012 368.967 140.539 371.061 142.852C371.268 143.082 371.462 143.309 371.643 143.543C372.311 142.43 373.075 141.562 373.659 141.008V121.633ZM367.818 132.062H365.481V134.379H367.818V132.062ZM370.155 127.422H372.491V129.738H370.155V127.422ZM372.491 136.688H370.155V139.004H372.491V136.688ZM362.48 148.504C359.846 145.176 361.296 141.027 362.48 139.461C363.978 139.773 367.384 141.41 370.072 144.34C370.224 144.504 370.367 144.672 370.501 144.84C370.629 145.004 370.75 145.168 370.863 145.332C370.706 145.719 370.559 146.125 370.449 146.547C369.815 148.996 370.711 150.957 371.532 151.98C369.308 152.109 364.928 151.59 362.48 148.504ZM370.501 150.504C368.677 149.863 364.744 147.688 363.612 144.066C364.571 145.449 367.291 148.676 370.501 150.504ZM387.379 132.488C383.92 131.492 382.156 134.094 382.187 135.434C379.88 136.855 381.103 139.266 381.554 140.156L381.63 140.309C381.037 141.859 382.137 142.664 382.555 142.73C382.555 142.926 382.636 143.203 382.814 143.492C383.18 144.09 383.954 144.766 385.287 145C386.265 145.18 387.164 145.047 387.901 144.816V151.688H389.321V144.176L389.429 144.109L389.641 144.148C389.967 144.211 390.442 144.297 390.962 144.312C391.596 144.324 392.294 144.223 392.865 143.812C394.018 142.977 394.12 141.145 394.027 140.332C394.523 139.738 395.376 138.066 394.817 136.16C394.464 134.953 393.634 134.371 392.867 134.125C392.422 133.984 391.999 133.953 391.703 133.977C391.692 133.777 391.635 133.523 391.519 133.258C391.288 132.719 390.824 132.129 390.031 131.809C388.841 131.332 387.797 131.992 387.379 132.488Z" fill="#0170B7"/>
<path fill-rule="evenodd" clip-rule="evenodd" d="M389.393 171.793L375.374 166V189.219L375.907 189.488C377.439 190.258 379.845 192.742 379.183 196.262C378.852 198.023 377.819 199.375 376.754 200.324L376.501 200.543L376.237 200.754H386.582V195.508C386.027 195.559 385.43 195.543 384.804 195.43C383.087 195.121 381.988 194.219 381.432 193.305L381.329 193.125C381.258 192.988 381.195 192.848 381.144 192.703L381.05 192.641C380.898 192.531 380.746 192.398 380.603 192.242C380.491 192.117 380.385 191.977 380.289 191.824C379.899 191.199 379.729 190.395 379.949 189.473C379.709 188.98 379.347 188.156 379.231 187.258C379.149 186.629 379.175 185.902 379.472 185.18C379.712 184.594 380.106 184.066 380.67 183.617C380.767 183.109 380.982 182.578 381.302 182.082C381.585 181.645 381.949 181.23 382.384 180.883C383.471 180.012 385.001 179.523 386.867 179.883C387.161 179.664 387.522 179.453 387.934 179.309C388.369 179.156 388.862 179.074 389.393 179.121V171.793ZM376.542 171.793H378.878V174.109H376.542V171.793ZM388.224 175.27H385.887V177.586H388.224V175.27ZM376.542 178.742H378.878V181.059H376.542V178.742ZM375.092 190.98C376.19 191.547 377.955 193.434 377.472 196.07C376.99 198.703 374.432 200.262 373.264 200.695C372.626 200.078 371.505 198.238 372.129 195.812C372.754 193.387 374.365 191.582 375.092 190.98ZM373.771 199.758C374.582 198.809 376 196.391 375.186 194.285C375.188 195.277 374.908 197.754 373.771 199.758ZM373.659 170.633L364.313 174.109V187.109C366.394 188.016 368.967 189.543 371.061 191.855C371.268 192.086 371.462 192.312 371.643 192.547C372.311 191.434 373.075 190.562 373.659 190.008V170.633ZM367.818 181.062H365.481V183.379H367.818V181.062ZM370.155 176.422H372.491V178.738H370.155V176.422ZM372.491 185.691H370.155V188.008H372.491V185.691ZM362.48 197.504C359.846 194.176 361.296 190.031 362.48 188.461C363.978 188.773 367.384 190.41 370.072 193.34C370.371 193.664 370.633 194 370.863 194.332C370.703 194.723 370.561 195.121 370.449 195.551C369.815 198 370.711 199.961 371.532 200.984C369.308 201.109 364.928 200.59 362.48 197.504ZM370.501 199.504C368.677 198.863 364.744 196.688 363.612 193.066C364.571 194.449 367.291 197.676 370.501 199.504ZM387.379 181.492C383.92 180.496 382.156 183.098 382.187 184.438C379.883 185.855 381.1 188.266 381.552 189.16L381.63 189.316C381.037 190.863 382.137 191.668 382.555 191.738C382.555 191.863 382.589 192.023 382.661 192.199C382.701 192.297 382.751 192.398 382.814 192.5C383.18 193.094 383.954 193.77 385.287 194.004C386.265 194.184 387.164 194.051 387.901 193.82V200.695H389.321V193.18L389.429 193.113C389.735 193.164 390.314 193.297 390.962 193.316C391.596 193.328 392.294 193.227 392.865 192.816C394.018 191.98 394.12 190.148 394.027 189.336C394.523 188.742 395.376 187.07 394.817 185.168C394.26 183.258 392.509 182.914 391.703 182.98C391.692 182.781 391.635 182.527 391.519 182.262C391.288 181.723 390.824 181.133 390.031 180.812C388.841 180.336 387.797 180.996 387.379 181.492Z" fill="#6B7427"/>
</svg>
