<svg width="44" height="44" viewBox="0 0 44 44" fill="none" xmlns="http://www.w3.org/2000/svg">
<path fill-rule="evenodd" clip-rule="evenodd" d="M11.6498 5.38807C11.6498 7.02693 10.276 8.34257 8.59207 8.34257C6.90807 8.34257 5.53428 7.02693 5.53428 5.38807C5.53428 3.75302 6.90807 2.43357 8.59207 2.43357C10.276 2.43357 11.6498 3.75302 11.6498 5.38807ZM11.0133 10.2438C12.8851 9.37304 14.1769 7.52885 14.1769 5.38807C14.1769 2.41456 11.6765 0 8.59207 0C5.50763 0 3.0072 2.41456 3.0072 5.38807C3.0072 7.52885 4.29894 9.37304 6.1708 10.2438C3.37701 11.0651 1.17087 13.2667 0.348646 16.0615C0.121727 16.8334 0 17.651 0 18.4951H2.52708H14.6571H17.1841C17.1841 17.651 17.0624 16.8334 16.8355 16.0615C16.0133 13.2667 13.8071 11.0651 11.0133 10.2438ZM3.01423 16.0615C3.95516 13.8333 6.14662 12.3275 8.59207 12.3275C11.0375 12.3275 13.229 13.8333 14.1699 16.0615H3.01423Z" fill="white"/>
<path fill-rule="evenodd" clip-rule="evenodd" d="M38.4662 30.6967C38.4662 32.3355 37.0924 33.6512 35.4085 33.6512C33.7245 33.6512 32.3507 32.3355 32.3507 30.6967C32.3507 29.0616 33.7245 27.7422 35.4085 27.7422C37.0924 27.7422 38.4662 29.0616 38.4662 30.6967ZM37.8297 35.5524C39.7016 34.6816 40.9933 32.8374 40.9933 30.6967C40.9933 27.7231 38.4929 25.3086 35.4085 25.3086C32.324 25.3086 29.8236 27.7231 29.8236 30.6967C29.8236 32.8374 31.1153 34.6816 32.9872 35.5524C30.1934 36.3737 27.9873 38.5753 27.1651 41.3701C26.9381 42.142 26.8164 42.9596 26.8164 43.8037H29.3435H41.4735H44.0005C44.0005 42.9596 43.8788 42.142 43.6519 41.3701C42.8297 38.5753 40.6235 36.3737 37.8297 35.5524ZM29.8306 41.3701C30.7716 39.1419 32.963 37.6361 35.4085 37.6361C37.8539 37.6361 40.0454 39.1419 40.9863 41.3701H29.8306Z" fill="white"/>
<path fill-rule="evenodd" clip-rule="evenodd" d="M35.4184 6.98308C32.6289 4.29686 29.1511 2.94814 25.9958 2.92117C25.1584 2.91401 24.3911 2.36554 24.2762 1.56675C24.1614 0.767958 24.7415 0.0227472 25.5787 0.00369479C29.7297 -0.0907739 34.1465 1.62841 37.5627 4.91813C40.5614 7.80595 42.2985 11.429 42.6164 14.9694C42.6885 15.7728 41.9878 16.4142 41.1505 16.3972C40.3133 16.3801 39.658 15.7101 39.5623 14.909C39.2378 12.1916 37.8564 9.33087 35.4184 6.98308Z" fill="white"/>
<path fill-rule="evenodd" clip-rule="evenodd" d="M9.80014 39.1495C6.38378 37.2501 4.13085 34.3642 3.28713 31.4361C3.06322 30.659 2.31448 30.0872 1.48353 30.1871C0.652581 30.287 0.0552622 31.0196 0.252826 31.8032C1.23242 35.6888 4.1 39.3524 8.28389 41.6786C11.9566 43.7205 16.0403 44.3986 19.6737 43.778C20.4983 43.6371 20.9602 42.8193 20.7265 42.0449C20.4927 41.2706 19.651 40.8344 18.8227 40.9527C16.0131 41.3542 12.7861 40.8097 9.80014 39.1495Z" fill="white"/>
</svg>
