<?xml version="1.0" encoding="UTF-8" standalone="no"?>
<svg
   width="550"
   height="355"
   viewBox="0 0 550 355"
   fill="none"
   version="1.1"
   id="svg4"
   sodipodi:docname="tree-city-solid2.svg"
   inkscape:version="1.1.2 (0a00cf5339, 2022-02-04)"
   xmlns:inkscape="http://www.inkscape.org/namespaces/inkscape"
   xmlns:sodipodi="http://sodipodi.sourceforge.net/DTD/sodipodi-0.dtd"
   xmlns="http://www.w3.org/2000/svg"
   xmlns:svg="http://www.w3.org/2000/svg">
  <defs
     id="defs8" />
  <sodipodi:namedview
     id="namedview6"
     pagecolor="#ffffff"
     bordercolor="#999999"
     borderopacity="1"
     inkscape:pageshadow="0"
     inkscape:pageopacity="0"
     inkscape:pagecheckerboard="0"
     showgrid="false"
     inkscape:zoom="0.86645479"
     inkscape:cx="167.92567"
     inkscape:cy="291.4174"
     inkscape:window-width="1864"
     inkscape:window-height="1016"
     inkscape:window-x="56"
     inkscape:window-y="27"
     inkscape:window-maximized="1"
     inkscape:current-layer="svg4" />
  <path
     d="M 257.3125,62.53125 C 257.3125,47.88379 269.19629,36 283.84375,36 h 53.0625 c 14.64746,0 26.53125,11.88379 26.53125,26.53125 V 142.125 h 22.10937 v -39.79688 c 0,-7.35137 5.91426,-13.26562 13.26563,-13.26562 7.35137,0 13.26563,5.91425 13.26563,13.26562 V 142.125 h 13.26562 c 14.64746,0 26.53125,11.88379 26.53125,26.53125 v 123.8125 C 451.875,307.11621 439.99121,319 425.34375,319 h -88.4375 -53.0625 c -14.64746,0 -26.53125,-11.88379 -26.53125,-26.53125 z m 35.375,17.6875 v 17.6875 c 0,4.86406 3.97969,8.84375 8.84375,8.84375 h 17.6875 c 4.86406,0 8.84375,-3.97969 8.84375,-8.84375 v -17.6875 c 0,-4.864059 -3.97969,-8.84375 -8.84375,-8.84375 h -17.6875 c -4.86406,0 -8.84375,3.979691 -8.84375,8.84375 z m 8.84375,44.21875 c -4.86406,0 -8.84375,3.97969 -8.84375,8.84375 v 17.6875 c 0,4.86406 3.97969,8.84375 8.84375,8.84375 h 17.6875 c 4.86406,0 8.84375,-3.97969 8.84375,-8.84375 v -17.6875 c 0,-4.86406 -3.97969,-8.84375 -8.84375,-8.84375 z m -8.84375,61.90625 v 17.6875 c 0,4.86406 3.97969,8.84375 8.84375,8.84375 h 17.6875 c 4.86406,0 8.84375,-3.97969 8.84375,-8.84375 v -17.6875 c 0,-4.86406 -3.97969,-8.84375 -8.84375,-8.84375 h -17.6875 c -4.86406,0 -8.84375,3.97969 -8.84375,8.84375 z M 389.96875,177.5 c -4.86406,0 -8.84375,3.97969 -8.84375,8.84375 v 17.6875 c 0,4.86406 3.97969,8.84375 8.84375,8.84375 h 17.6875 c 4.86406,0 8.84375,-3.97969 8.84375,-8.84375 v -17.6875 c 0,-4.86406 -3.97969,-8.84375 -8.84375,-8.84375 z m -8.84375,61.90625 v 17.6875 c 0,4.86406 3.97969,8.84375 8.84375,8.84375 h 17.6875 c 4.86406,0 8.84375,-3.97969 8.84375,-8.84375 v -17.6875 c 0,-4.86406 -3.97969,-8.84375 -8.84375,-8.84375 h -17.6875 c -4.86406,0 -8.84375,3.97969 -8.84375,8.84375 z M 221.9375,124.4375 c 0,3.3164 -0.55273,6.08008 -1.10547,8.84375 11.05468,7.73827 18.79297,21.0039 18.79297,35.375 0,24.87304 -19.89844,44.21875 -44.21875,44.21875 h -8.84375 v 88.4375 c 0,9.94921 -8.29102,17.6875 -17.6875,17.6875 -9.94922,0 -17.6875,-7.73829 -17.6875,-17.6875 V 212.875 h -8.84375 c -24.87304,0 -44.218752,-19.34571 -44.218752,-44.21875 0,-14.3711 7.185552,-27.63673 18.240232,-35.375 -0.55273,-2.76367 -0.55273,-5.52735 -0.55273,-8.84375 0,-29.294919 23.21484,-53.0625 53.0625,-53.0625 29.29492,0 53.0625,23.76758 53.0625,53.0625 z"
     id="path2-3"
     style="fill:#1172b5;fill-opacity:1;stroke-width:0.552734" />
</svg>
